 <svg  version="1.0" xmlns="http://www.w3.org/2000/svg"  width="900.000000pt" height="600.000000pt" viewBox="0 0 900.000000 600.000000"  preserveAspectRatio="xMidYMid meet">  <g transform="translate(0.000000,600.000000) scale(0.100000,-0.100000)" fill="#000000" stroke="none"> <path d="M5890 5715 c-8 -10 -10 -28 -5 -52 3 -21 9 -68 12 -105 4 -54 2 -68 -9 -68 -8 0 -19 5 -25 11 -13 13 -93 -61 -93 -86 0 -8 -5 -15 -10 -15 -6 0 -14 -8 -17 -17 -4 -10 -11 -22 -15 -28 -10 -11 -95 -130 -116 -161 -6 -11 -41 -63 -77 -117 -35 -54 -71 -105 -80 -113 -8 -9 -15 -20 -15 -25 0 -5 -5 -15 -10 -22 -36 -43 -48 -59 -65 -91 -11 -20 -23 -36 -27 -36 -5 0 -8 -6 -8 -14 0 -16 -26 -46 -40 -46 -5 0 -17 17 -27 38 -16 33 -70 122 -90 147 -4 6 -26 37 -48 70 -114 172 -131 179 -199 77 -25 -38 -50 -79 -56 -93 -6 -13 -19 -37 -30 -54 -11 -16 -23 -38 -26 -47 -4 -10 -10 -18 -14 -18 -5 0 -13 -12 -19 -27 -12 -31 -29 -60 -48 -81 -7 -7 -13 -19 -13 -27 0 -7 -4 -15 -9 -17 -5 -1 -20 -28 -35 -58 -14 -30 -35 -68 -46 -85 -11 -16 -23 -37 -27 -45 -3 -8 -9 -17 -12 -20 -3 -3 -13 -18 -21 -35 -9 -16 -29 -36 -45 -44 -17 -8 -38 -18 -47 -23 -10 -4 -26 -8 -35 -8 -10 0 -31 -7 -47 -15 -15 -8 -39 -15 -51 -15 -13 0 -30 -7 -39 -15 -8 -8 -25 -15 -38 -15 -13 0 -33 -6 -44 -14 -30 -22 -101 -28 -184 -16 -193 27 -175 22 -178 55 -2 17 -7 34 -12 39 -9 9 -54 -30 -62 -54 -3 -10 -9 -10 -25 -1 -12 6 -45 11 -73 11 -48 0 -52 2 -61 30 -12 32 -33 40 -42 16 -5 -12 -25 -15 -88 -14 -93 1 -119 16 -119 68 0 50 -52 37 -62 -15 -3 -17 -10 -20 -48 -17 -25 2 -50 8 -57 14 -7 5 -35 10 -64 10 -82 -1 -99 10 -99 62 0 31 -5 46 -16 50 -34 13 -43 6 -46 -36 l-3 -43 -63 2 c-35 2 -71 7 -82 13 -10 5 -58 13 -107 16 -48 4 -94 12 -101 17 -24 19 -243 22 -304 4 -29 -9 -98 -19 -153 -22 -55 -3 -104 -10 -109 -15 -6 -6 -39 -10 -76 -10 -36 -1 -85 -6 -110 -11 -25 -6 -90 -15 -144 -20 -55 -4 -104 -13 -110 -19 -17 -17 -140 -12 -178 7 -73 37 -84 41 -107 45 -18 2 -29 -4 -42 -27 -10 -16 -18 -38 -18 -47 -1 -10 -4 -18 -8 -19 -5 0 -46 -2 -93 -5 -47 -2 -104 -9 -128 -15 -41 -11 -82 -48 -82 -75 0 -7 -6 -25 -14 -41 -13 -26 -24 -50 -62 -138 -8 -19 -21 -50 -30 -70 -8 -19 -21 -50 -30 -70 -38 -90 -48 -112 -61 -137 -7 -14 -13 -33 -13 -42 0 -9 -4 -16 -9 -16 -5 0 -13 -15 -16 -32 -4 -18 -14 -42 -21 -53 -8 -11 -14 -27 -14 -36 0 -9 -7 -22 -15 -29 -8 -7 -15 -21 -15 -30 0 -10 -6 -31 -14 -47 -8 -15 -22 -45 -30 -65 -9 -21 -24 -55 -33 -75 -9 -21 -22 -50 -30 -65 -7 -14 -13 -34 -13 -43 0 -9 -7 -23 -15 -31 -8 -9 -15 -26 -15 -40 0 -13 -4 -24 -9 -24 -5 0 -13 -15 -16 -32 -4 -18 -11 -37 -15 -43 -5 -5 -10 -23 -12 -40 -4 -36 -27 -36 -67 1 -14 14 -37 27 -51 31 -14 3 -28 11 -32 17 -4 6 -34 11 -67 11 -44 0 -65 -5 -80 -19 -31 -28 -26 -40 27 -66 59 -29 112 -69 112 -84 0 -15 -28 -32 -69 -41 -19 -4 -41 -12 -48 -19 -44 -35 -85 -85 -90 -108 -3 -16 -9 -28 -14 -28 -5 0 -9 -16 -9 -35 0 -32 2 -35 30 -35 16 0 33 6 37 13 13 22 79 57 106 57 14 0 30 8 36 18 8 14 12 15 23 4 11 -11 10 -15 -3 -25 -9 -7 -19 -22 -23 -35 -4 -12 -11 -22 -16 -22 -4 0 -11 -19 -15 -42 -4 -24 -11 -47 -15 -53 -4 -5 -10 -39 -12 -74 -3 -37 -10 -67 -16 -69 -7 -2 -12 -8 -12 -14 0 -11 -28 -76 -56 -130 -8 -14 -14 -36 -14 -47 0 -12 -4 -21 -10 -21 -5 0 -13 -12 -16 -27 -4 -16 -13 -37 -20 -48 -8 -11 -14 -30 -14 -42 0 -13 -4 -23 -9 -23 -5 0 -12 -14 -16 -30 -4 -17 -14 -45 -23 -63 -20 -39 -30 -153 -13 -143 6 4 11 18 11 31 0 13 7 30 15 39 8 8 18 29 21 45 4 17 10 31 14 31 5 0 12 14 15 32 4 17 14 38 21 46 8 7 14 24 14 38 0 13 4 24 9 24 5 0 12 12 15 28 4 15 13 42 22 59 8 18 21 47 28 65 62 146 69 161 94 189 26 28 46 60 63 102 6 15 15 27 20 27 14 0 60 51 70 78 5 14 14 20 20 16 14 -9 6 -329 -9 -347 -5 -7 -13 -61 -17 -122 -3 -60 -10 -114 -15 -120 -4 -5 -10 -21 -12 -35 -2 -21 -9 -26 -41 -28 -40 -3 -77 -27 -77 -49 0 -15 46 -18 55 -3 9 15 63 12 88 -5 22 -14 67 -11 67 5 0 11 58 21 85 14 17 -4 24 -15 29 -47 4 -22 11 -46 15 -52 5 -5 11 -30 15 -55 4 -24 11 -49 15 -55 5 -5 11 -57 13 -114 2 -72 7 -106 16 -109 6 -2 12 -9 12 -16 0 -7 13 -25 29 -40 29 -28 30 -28 125 -21 53 4 99 11 102 16 3 5 25 9 49 9 24 0 56 5 72 12 15 6 73 17 128 24 150 19 161 22 200 65 30 33 35 46 35 87 -1 64 -45 113 -114 124 -10 2 -22 10 -26 18 -28 56 -50 109 -50 119 0 6 -4 11 -9 11 -5 0 -12 19 -16 43 -4 23 -11 47 -15 52 -4 6 -11 34 -15 62 -6 50 -5 54 24 84 24 24 31 39 31 70 0 21 -4 39 -10 39 -5 0 -10 9 -10 19 0 22 31 81 43 81 4 0 7 8 7 18 0 23 19 42 41 42 22 0 49 37 49 67 0 12 7 28 15 37 8 8 15 24 15 35 0 33 18 34 64 2 43 -30 86 -88 86 -117 0 -8 7 -25 16 -38 24 -38 0 -39 -32 -1 -53 64 -64 28 -12 -39 61 -78 83 -84 93 -27 5 29 1 51 -14 84 -12 25 -21 50 -21 55 0 6 -7 12 -15 16 -8 3 -15 14 -15 24 0 23 48 52 58 35 4 -6 45 -13 92 -15 l85 -3 3 27 c2 20 -8 38 -45 76 -26 28 -60 54 -76 57 -15 4 -30 11 -33 16 -3 5 -30 9 -60 9 -30 0 -54 5 -54 10 0 15 31 41 94 79 31 19 56 40 56 46 0 28 -100 60 -114 36 -3 -4 -18 -11 -34 -14 -16 -3 -51 -28 -78 -55 -63 -63 -74 -77 -74 -100 0 -32 -13 -33 -39 -5 -48 52 -75 63 -153 63 -76 -1 -108 -14 -108 -44 0 -9 5 -16 11 -16 6 0 25 -7 42 -14 18 -8 46 -16 62 -18 17 -2 30 -7 30 -13 0 -5 -13 -11 -30 -13 -63 -6 -155 -71 -155 -108 0 -7 -5 -14 -11 -16 -14 -5 -22 -80 -10 -98 8 -12 23 -8 93 28 46 23 88 42 95 42 20 0 26 -20 10 -38 -8 -9 -19 -35 -22 -57 -13 -68 -20 -75 -75 -75 -27 0 -67 -6 -87 -14 -25 -10 -90 -16 -188 -19 -124 -3 -155 -7 -181 -22 -54 -32 -64 -18 -64 85 0 58 -5 104 -15 127 -16 39 -20 129 -6 137 5 3 20 -3 34 -14 14 -11 31 -20 38 -20 8 0 44 -30 81 -67 57 -57 69 -64 82 -54 33 27 -12 155 -70 200 -13 10 -24 24 -24 30 0 13 13 13 145 1 95 -8 125 -3 125 20 0 16 -92 110 -122 125 -17 8 -56 15 -87 15 -71 0 -94 12 -59 31 76 42 162 128 145 146 -11 10 -142 4 -145 -7 -5 -14 -22 -12 -22 3 0 10 35 87 76 169 8 14 14 33 14 41 0 9 8 30 17 49 9 18 22 45 30 60 7 14 13 35 13 46 0 11 7 25 15 32 8 7 15 22 15 34 0 11 7 30 15 40 8 11 15 28 15 37 0 10 8 32 17 51 9 18 22 45 30 60 7 14 13 33 13 41 0 9 8 30 17 49 29 58 31 65 39 102 6 34 9 37 37 34 21 -2 36 -12 49 -33 30 -51 31 -54 12 -82 -13 -20 -18 -50 -19 -115 0 -48 -4 -90 -7 -94 -4 -3 -20 2 -37 12 -28 16 -31 16 -55 0 -51 -33 -27 -59 43 -46 40 7 48 4 145 -55 109 -67 185 -105 210 -105 8 0 18 -4 21 -10 3 -5 13 -10 22 -10 8 0 31 -7 50 -17 33 -15 37 -15 63 0 15 10 44 17 63 17 19 0 48 7 63 15 16 8 38 15 49 15 12 0 26 5 32 11 16 16 118 15 148 -1 19 -10 27 -10 46 4 13 9 32 16 42 16 10 0 29 7 43 16 18 12 37 15 68 11 30 -4 47 -2 55 7 14 16 -5 36 -35 36 -14 0 -24 8 -28 23 -9 35 -7 117 4 117 5 0 26 -11 46 -25 45 -30 61 -31 69 -4 8 25 11 21 -49 53 -58 31 -74 32 -84 9 -7 -19 -22 82 -15 103 2 6 22 21 43 33 22 12 40 26 40 31 0 25 -49 84 -177 212 -79 78 -143 145 -143 149 0 4 47 8 104 7 57 0 113 5 124 11 11 6 52 11 89 11 38 0 93 6 123 14 51 13 102 19 142 17 14 -1 15 -6 7 -35 -5 -19 -16 -48 -24 -63 -8 -15 -15 -41 -15 -57 0 -16 -7 -37 -16 -47 -17 -19 -11 -59 9 -59 19 0 57 76 57 112 0 19 4 38 9 44 6 5 11 32 13 59 l3 50 55 -3 c30 -2 74 -10 98 -18 23 -8 76 -14 117 -14 68 0 75 -2 75 -19 0 -11 -4 -23 -10 -26 -5 -3 -10 -15 -10 -27 0 -11 -6 -34 -14 -51 -12 -29 -26 -76 -44 -151 -12 -49 -32 -44 -32 8 0 24 -4 47 -9 50 -5 3 -12 22 -15 41 -11 55 -66 43 -66 -14 -1 -15 -9 -44 -20 -66 -11 -22 -19 -47 -20 -56 0 -9 -7 -30 -15 -45 -8 -16 -15 -40 -15 -54 0 -14 -7 -34 -15 -44 -8 -11 -15 -32 -15 -47 0 -15 -7 -40 -15 -55 -18 -35 -20 -110 -3 -120 22 -14 192 -31 216 -22 13 4 40 8 61 8 63 0 72 26 35 106 -7 18 -15 42 -16 55 -3 23 0 24 66 27 77 3 99 -7 74 -35 -9 -10 -19 -34 -23 -53 -4 -19 -11 -39 -15 -45 -4 -5 -11 -25 -15 -43 -4 -18 -13 -45 -21 -60 -8 -15 -14 -39 -14 -54 0 -16 -4 -28 -9 -28 -11 0 -21 -38 -14 -56 2 -7 15 -16 26 -19 12 -4 37 -14 56 -22 44 -20 182 -13 226 11 17 9 36 16 43 16 15 0 17 66 2 75 -6 3 -10 16 -10 28 0 12 -7 35 -16 52 -8 16 -18 48 -21 72 l-6 43 57 0 c35 0 66 6 81 16 46 30 60 -9 25 -73 -11 -21 -20 -50 -20 -65 0 -16 -4 -28 -9 -28 -5 0 -12 -19 -16 -42 -3 -24 -13 -58 -21 -76 -24 -52 -15 -92 26 -113 48 -26 219 -27 270 -1 41 20 47 40 26 84 -9 17 -16 38 -16 47 0 9 -7 29 -15 45 -27 51 -24 53 97 52 115 -1 134 -9 103 -40 -9 -9 -15 -26 -13 -38 5 -38 43 -49 161 -46 101 3 110 5 128 27 17 21 18 26 6 45 -8 12 -17 43 -20 70 -4 27 -11 54 -16 60 -5 6 -12 30 -16 53 -3 23 -12 47 -20 53 -7 6 -11 20 -8 30 3 11 -2 31 -11 45 -9 13 -16 33 -16 43 0 10 -6 26 -13 36 -13 18 -15 17 -35 -9 -12 -15 -22 -37 -22 -47 0 -11 -6 -32 -14 -46 -8 -15 -18 -44 -21 -64 -7 -42 -39 -69 -49 -42 -3 9 -6 28 -6 44 0 15 -7 44 -16 65 -18 44 -13 62 17 67 15 2 25 12 29 28 5 22 12 25 55 28 27 2 54 7 60 12 5 4 26 11 46 15 44 8 57 -6 36 -38 -8 -12 -16 -46 -19 -75 l-5 -53 40 -19 c46 -22 183 -28 218 -10 20 11 26 45 9 55 -5 3 -10 18 -10 33 0 15 -7 40 -15 56 -8 15 -15 52 -15 81 0 35 -5 59 -16 69 -17 17 -37 76 -26 77 4 0 31 2 60 4 29 2 59 8 65 13 7 5 32 12 56 16 24 4 53 13 64 21 49 34 80 -1 37 -40 -11 -10 -20 -24 -20 -32 0 -7 -3 -13 -8 -13 -4 0 -19 -21 -32 -47 -14 -27 -31 -52 -37 -56 -20 -12 -16 -66 5 -74 9 -4 23 -13 30 -20 7 -7 22 -13 33 -13 10 0 19 -4 19 -10 0 -5 12 -13 28 -16 15 -4 36 -13 47 -20 11 -8 31 -14 45 -14 14 0 34 -7 44 -15 11 -8 34 -15 51 -15 18 0 45 -6 61 -14 24 -12 93 -14 390 -13 l360 2 65 47 c35 26 69 52 76 58 7 5 15 10 18 10 8 0 69 44 73 53 2 4 10 7 17 7 8 0 18 6 22 13 20 32 65 49 112 43 25 -4 73 -10 106 -14 56 -7 60 -9 63 -34 3 -21 10 -29 30 -34 15 -3 39 -12 54 -20 14 -8 39 -14 55 -14 16 0 34 -5 40 -11 5 -5 37 -13 69 -15 32 -3 76 -12 97 -20 20 -8 65 -14 98 -14 33 0 69 -5 81 -11 11 -6 53 -13 94 -16 41 -3 77 -10 80 -14 14 -23 109 0 134 32 3 3 15 9 28 13 12 4 22 12 22 17 0 5 5 9 10 9 6 0 23 8 38 19 15 10 60 40 100 66 49 32 72 53 72 66 0 18 -55 129 -86 174 -23 32 -17 45 21 45 38 0 85 -36 85 -65 0 -8 5 -15 10 -15 6 0 10 -7 10 -16 0 -15 13 -49 45 -119 8 -16 17 -42 21 -57 3 -16 10 -28 14 -28 4 0 11 -16 14 -35 4 -19 11 -35 16 -35 6 0 10 -11 10 -24 0 -13 6 -29 14 -35 8 -7 17 -27 20 -46 4 -19 11 -35 16 -35 6 0 10 -7 10 -16 0 -9 6 -28 14 -42 20 -36 59 -126 96 -217 36 -89 56 -137 84 -198 9 -17 18 -44 22 -59 3 -16 10 -28 14 -28 4 0 11 -16 14 -35 4 -19 11 -35 16 -35 6 0 10 -11 10 -24 0 -14 7 -31 15 -40 8 -8 15 -20 15 -26 0 -7 6 -24 13 -38 8 -15 21 -43 29 -62 8 -19 23 -53 32 -75 10 -22 25 -56 33 -75 8 -19 22 -51 30 -70 8 -19 21 -48 28 -65 8 -16 16 -40 20 -52 3 -13 11 -23 16 -23 5 0 9 -11 9 -24 0 -14 6 -31 14 -38 7 -8 17 -29 21 -46 3 -18 11 -32 16 -32 5 0 9 -11 9 -24 0 -14 7 -31 15 -40 8 -8 15 -23 15 -34 0 -11 6 -25 14 -31 8 -7 17 -27 20 -46 4 -19 11 -35 16 -35 6 0 10 -11 10 -24 0 -13 7 -29 15 -36 8 -7 15 -19 15 -27 0 -8 6 -27 13 -41 13 -26 32 -67 64 -142 8 -19 22 -51 30 -70 8 -19 21 -48 27 -65 7 -16 19 -46 28 -65 8 -19 21 -51 30 -70 8 -19 22 -51 31 -70 8 -19 18 -45 22 -57 3 -13 11 -23 16 -23 5 0 9 -11 9 -24 0 -13 7 -29 15 -36 8 -7 15 -19 15 -27 0 -8 6 -27 13 -41 24 -47 45 -96 52 -119 3 -13 11 -23 16 -23 5 0 9 -11 9 -24 0 -14 7 -31 15 -40 8 -8 15 -23 15 -34 0 -11 6 -25 14 -31 8 -7 17 -27 20 -46 4 -19 11 -35 16 -35 6 0 10 -11 10 -24 0 -13 7 -29 15 -36 8 -7 15 -19 15 -26 0 -13 23 -64 57 -127 24 -44 12 -58 -44 -50 -26 3 -53 10 -60 15 -6 5 -53 12 -105 15 -51 3 -98 10 -105 15 -7 6 -50 12 -95 15 -46 3 -102 11 -126 19 -23 8 -68 14 -98 14 -30 0 -64 5 -75 11 -11 5 -59 13 -107 16 -48 3 -92 10 -99 15 -6 5 -47 12 -90 15 -43 3 -100 11 -127 19 -27 8 -77 14 -111 14 -33 0 -66 5 -71 10 -6 6 -51 13 -100 17 -49 3 -95 10 -102 16 -6 5 -54 12 -105 15 -50 2 -98 9 -105 15 -7 5 -45 12 -85 14 -39 2 -96 11 -125 20 -57 16 -236 12 -272 -7 -10 -6 -48 -10 -84 -10 -36 0 -83 -6 -103 -14 -21 -8 -77 -17 -126 -19 -48 -3 -93 -9 -100 -15 -6 -5 -49 -12 -93 -15 -45 -3 -91 -10 -102 -16 -11 -6 -46 -11 -76 -11 -30 0 -75 -6 -98 -14 -24 -8 -82 -16 -131 -19 -48 -3 -93 -9 -100 -15 -6 -5 -51 -12 -99 -15 -48 -3 -96 -11 -107 -16 -11 -6 -47 -11 -80 -11 -33 0 -80 -6 -103 -14 -24 -8 -80 -16 -126 -19 -45 -3 -88 -9 -95 -15 -7 -5 -54 -12 -105 -15 -52 -3 -99 -10 -105 -15 -7 -5 -49 -12 -93 -15 -45 -3 -92 -11 -105 -18 -33 -17 -296 -17 -328 1 -13 7 -63 15 -110 18 -47 2 -91 9 -98 14 -6 5 -51 11 -100 15 -48 3 -107 11 -131 19 -23 8 -71 14 -105 14 -34 0 -80 7 -102 15 -22 8 -68 14 -103 15 -35 0 -72 5 -84 11 -11 6 -63 13 -116 16 -54 3 -102 10 -109 15 -7 6 -56 13 -110 18 -54 4 -116 13 -138 19 -22 6 -66 11 -98 11 -32 0 -67 5 -78 11 -11 6 -62 13 -112 16 -51 3 -97 10 -104 15 -7 6 -59 12 -115 15 -57 3 -109 10 -116 16 -7 5 -54 13 -105 18 -51 4 -112 12 -137 18 -25 5 -71 10 -104 11 -49 0 -57 3 -52 16 3 9 6 22 6 29 0 8 7 21 15 29 9 9 19 39 22 68 3 29 12 62 19 73 8 11 14 37 14 58 0 21 7 49 16 62 21 33 15 80 -11 80 -12 0 -21 -8 -23 -20 -2 -11 -10 -34 -18 -52 -8 -17 -14 -47 -14 -66 0 -19 -7 -48 -15 -63 -8 -16 -15 -46 -15 -66 0 -20 -5 -40 -11 -44 -7 -4 -9 -25 -7 -55 l5 -49 -48 0 c-27 0 -68 -6 -91 -14 -24 -8 -73 -16 -111 -19 -37 -3 -73 -9 -80 -15 -6 -5 -49 -12 -95 -15 -45 -3 -88 -9 -95 -15 -7 -5 -46 -12 -89 -15 -42 -3 -85 -10 -96 -16 -12 -6 -46 -11 -77 -11 -30 0 -72 -7 -92 -15 -19 -8 -59 -15 -89 -15 -29 0 -73 -6 -96 -14 -24 -8 -75 -16 -115 -19 -40 -3 -81 -11 -92 -16 -11 -6 -46 -11 -78 -11 -32 -1 -76 -7 -98 -15 -22 -8 -60 -15 -85 -15 -73 0 -90 -8 -90 -42 0 -24 3 -27 18 -20 9 5 53 12 96 16 43 3 84 10 90 15 6 4 48 11 92 14 45 3 91 10 102 16 11 6 43 11 71 11 28 0 70 6 93 14 24 8 79 17 122 20 43 3 84 10 90 15 6 4 49 11 95 14 47 4 89 11 95 17 5 5 34 10 63 10 29 0 72 6 95 14 24 8 76 16 116 19 41 3 79 10 85 15 7 5 47 12 90 15 43 3 85 11 94 19 19 16 239 14 258 -2 7 -6 60 -13 116 -17 57 -3 109 -10 116 -15 7 -6 56 -13 110 -18 54 -4 116 -13 138 -19 22 -6 66 -11 98 -11 32 0 67 -5 78 -10 10 -6 63 -15 117 -20 53 -4 117 -13 142 -19 25 -5 70 -10 100 -11 30 0 73 -7 95 -15 22 -8 71 -14 108 -15 38 0 77 -5 88 -11 11 -6 62 -13 112 -16 51 -3 97 -10 104 -15 6 -5 51 -11 100 -15 48 -3 107 -11 131 -19 23 -8 72 -14 108 -14 36 0 75 -5 86 -11 11 -6 57 -13 102 -16 44 -3 86 -10 93 -15 6 -5 53 -12 103 -15 l91 -6 -3 -66 -3 -66 -67 1 c-37 0 -73 6 -80 12 -7 6 -57 13 -110 15 -53 2 -103 9 -111 15 -7 7 -47 12 -88 13 -41 1 -92 7 -114 14 -22 7 -79 15 -127 18 -48 3 -97 11 -108 17 -11 6 -55 11 -98 11 -42 1 -90 7 -107 14 -16 8 -75 16 -130 20 -55 3 -104 10 -109 15 -6 6 -45 10 -88 10 -43 0 -97 7 -123 15 -24 9 -75 16 -112 16 -37 1 -86 7 -108 14 -22 7 -83 16 -135 20 -52 4 -99 11 -105 15 -5 4 -55 10 -110 12 -55 3 -110 10 -122 16 -11 6 -59 13 -106 16 -46 2 -94 9 -105 15 -11 6 -47 11 -79 11 -32 0 -65 5 -73 11 -13 8 -12 12 7 26 24 16 32 66 13 78 -11 7 -44 -62 -41 -84 4 -20 -18 -31 -65 -31 -22 0 -45 -5 -51 -11 -6 -6 -45 -14 -85 -16 -40 -3 -90 -11 -111 -19 -20 -8 -69 -14 -107 -14 -38 0 -71 -4 -74 -9 -4 -5 -45 -12 -93 -16 -48 -4 -102 -14 -120 -21 -18 -8 -61 -14 -96 -14 -35 0 -68 -5 -75 -12 -6 -6 -49 -13 -94 -16 -46 -2 -88 -9 -95 -14 -6 -5 -52 -12 -102 -15 -58 -4 -95 -11 -102 -19 -8 -10 -36 -14 -89 -14 -46 0 -92 -6 -113 -15 -20 -8 -48 -15 -62 -15 -16 0 -25 -6 -25 -15 0 -9 9 -15 23 -15 12 0 28 -4 35 -9 11 -7 10 -10 -3 -15 -9 -3 -25 -6 -36 -6 -10 0 -19 -7 -19 -15 0 -18 70 -21 86 -5 6 6 51 13 99 16 49 3 95 10 101 15 6 5 49 12 94 15 46 3 92 10 102 15 11 6 54 13 96 16 42 2 83 9 89 15 7 6 50 13 96 15 45 3 87 9 93 14 6 5 47 12 90 15 43 3 96 12 117 20 20 8 66 14 102 14 35 0 66 4 69 9 4 5 45 12 93 16 48 4 103 14 122 22 27 12 63 14 159 9 69 -3 130 -10 136 -14 6 -5 56 -13 111 -16 55 -4 105 -12 112 -18 7 -5 45 -10 85 -10 40 0 91 -6 113 -13 22 -8 85 -17 140 -21 55 -3 105 -10 110 -14 6 -5 54 -10 107 -13 54 -2 104 -9 112 -16 8 -6 54 -13 103 -16 48 -2 101 -8 116 -14 16 -6 59 -11 97 -11 38 0 89 -7 112 -15 24 -8 85 -17 136 -20 51 -3 101 -10 110 -15 9 -5 61 -12 114 -15 54 -4 100 -11 104 -16 3 -5 41 -9 85 -9 51 0 90 -5 108 -15 16 -8 70 -17 122 -20 51 -4 102 -12 114 -18 28 -15 328 -15 347 0 7 7 53 14 101 17 49 3 98 11 110 18 12 7 60 15 107 20 164 15 275 30 293 39 10 5 57 12 105 15 47 3 91 9 97 13 5 5 51 12 100 16 50 4 97 11 106 15 8 5 52 11 97 14 45 3 91 10 103 17 12 6 63 13 113 16 49 2 96 8 102 14 6 5 51 12 100 15 49 3 105 11 124 18 19 8 66 14 103 14 38 0 74 5 80 10 7 6 55 13 107 17 52 4 101 12 108 18 19 15 294 16 313 1 8 -6 54 -14 102 -18 49 -3 97 -10 106 -15 9 -6 53 -12 98 -14 44 -3 89 -9 99 -15 11 -6 60 -13 109 -17 49 -3 94 -10 99 -14 6 -5 53 -11 103 -13 51 -3 99 -10 107 -17 8 -6 49 -13 92 -15 44 -2 91 -9 106 -15 15 -5 63 -12 108 -15 45 -2 87 -9 93 -14 7 -6 55 -13 107 -17 52 -4 100 -11 105 -15 6 -4 50 -10 98 -14 49 -3 97 -11 107 -16 10 -6 48 -10 85 -10 39 0 78 -6 95 -15 16 -8 68 -17 117 -21 48 -3 97 -9 108 -14 46 -19 108 -19 133 1 14 10 31 19 38 19 16 0 20 55 5 65 -5 3 -12 19 -16 35 -4 17 -11 30 -16 30 -5 0 -9 7 -9 16 0 9 -6 28 -13 42 -24 47 -45 96 -52 120 -3 12 -11 22 -16 22 -5 0 -9 11 -9 24 0 13 -7 29 -15 36 -8 7 -15 19 -15 27 0 13 -15 48 -41 93 -5 8 -12 22 -15 30 -3 8 -14 33 -25 56 -10 23 -19 46 -19 53 0 6 -4 11 -10 11 -5 0 -10 7 -10 16 0 14 -15 48 -41 94 -5 8 -12 22 -15 30 -10 27 -36 85 -45 100 -5 8 -12 22 -15 30 -3 8 -11 29 -19 45 -7 17 -16 40 -20 53 -3 12 -11 22 -16 22 -5 0 -9 8 -9 18 0 10 -6 26 -14 37 -7 11 -16 32 -20 48 -3 15 -11 27 -16 27 -6 0 -10 8 -10 18 0 10 -6 26 -14 37 -7 11 -16 32 -20 48 -3 15 -11 27 -16 27 -6 0 -10 8 -10 18 0 10 -6 26 -14 37 -7 11 -16 32 -20 47 -3 16 -11 28 -16 28 -6 0 -10 11 -10 24 0 13 -7 29 -15 36 -8 7 -15 21 -15 31 0 9 -7 24 -15 33 -8 8 -15 23 -15 34 0 11 -7 25 -15 32 -8 7 -15 20 -15 29 0 9 -6 25 -14 36 -7 11 -16 32 -20 48 -3 15 -11 27 -16 27 -6 0 -10 11 -10 24 0 13 -7 29 -15 36 -8 7 -15 19 -15 27 0 8 -6 27 -14 41 -15 30 -69 148 -93 202 -8 19 -19 42 -24 50 -5 8 -12 22 -15 30 -10 27 -36 85 -45 100 -5 8 -12 22 -15 30 -3 8 -11 29 -19 45 -7 17 -16 40 -20 53 -3 12 -11 22 -16 22 -5 0 -9 11 -9 24 0 13 -7 29 -15 36 -8 7 -15 21 -15 31 0 9 -7 24 -15 33 -8 8 -15 23 -15 34 0 11 -7 25 -15 32 -8 7 -15 19 -15 27 0 8 -6 27 -13 41 -8 15 -22 45 -32 67 -9 22 -21 47 -26 55 -5 8 -12 22 -15 30 -3 8 -11 29 -19 45 -7 17 -16 40 -20 53 -3 12 -11 22 -16 22 -5 0 -9 7 -9 16 0 9 -6 28 -13 42 -8 15 -22 45 -32 67 -9 22 -21 47 -26 55 -5 8 -12 22 -15 30 -6 17 -27 66 -48 113 -8 17 -17 42 -21 55 -3 12 -11 22 -16 22 -5 0 -9 11 -9 24 0 14 -7 31 -15 40 -8 8 -15 20 -15 26 0 7 -6 24 -13 38 -24 47 -45 96 -52 120 -3 12 -11 22 -16 22 -5 0 -9 7 -9 16 0 9 -6 28 -13 42 -23 46 -45 96 -51 117 -12 41 -55 75 -94 75 -21 0 -43 5 -48 10 -6 6 -35 13 -65 16 -30 3 -63 10 -74 14 -11 5 -31 10 -44 12 -23 3 -52 43 -91 123 -6 11 -14 27 -19 35 -5 8 -27 44 -47 80 -21 36 -44 71 -51 78 -7 7 -13 18 -13 23 0 11 -11 26 -49 67 l-24 26 -37 -42 c-20 -22 -55 -68 -76 -101 -21 -33 -45 -59 -53 -58 -7 1 -25 25 -39 52 -15 28 -30 52 -34 53 -4 2 -8 12 -8 22 0 10 -4 21 -9 24 -5 4 -20 27 -32 54 -13 26 -36 66 -51 88 -15 23 -28 47 -28 52 0 6 -6 17 -12 24 -7 7 -24 36 -38 63 -14 28 -28 52 -32 53 -5 2 -8 8 -8 14 0 5 -26 52 -57 104 -99 162 -103 171 -103 252 0 79 14 99 48 69 48 -42 122 -26 184 41 42 45 52 70 37 89 -10 11 -15 11 -30 -3 -30 -27 -93 -30 -134 -4 -25 15 -45 21 -64 17 -21 -4 -34 -1 -46 13 -21 24 -48 26 -65 5z m146 -70 c10 -8 40 -15 65 -15 59 0 66 -9 29 -32 -33 -19 -95 -24 -105 -8 -3 6 -17 10 -31 10 -26 0 -40 20 -30 45 7 19 46 19 72 0z m-152 -201 c9 -3 16 -12 16 -19 0 -7 7 -26 15 -41 8 -16 15 -41 15 -55 0 -15 7 -32 15 -39 8 -7 15 -27 15 -45 0 -38 29 -95 48 -95 17 0 15 47 -3 54 -16 6 -20 41 -6 51 5 3 13 -4 16 -16 8 -25 91 -165 112 -190 14 -17 18 -49 6 -49 -5 0 -19 12 -32 25 -29 31 -47 32 -54 3 -5 -18 -8 -19 -21 -9 -21 17 -46 7 -46 -18 0 -11 -4 -23 -10 -26 -5 -3 -10 -17 -10 -30 0 -37 -16 -38 -44 -4 -16 18 -32 29 -41 25 -15 -5 -51 -58 -86 -126 -12 -22 -25 -37 -30 -34 -5 3 -9 68 -9 145 0 78 -5 149 -10 160 -11 19 -50 27 -50 10 0 -14 -81 -91 -95 -91 -26 0 -22 29 11 76 19 27 40 57 47 67 6 10 18 26 25 35 43 58 92 128 127 181 40 60 49 67 79 55z m-859 -400 c13 -14 27 -38 30 -54 3 -16 13 -34 21 -41 8 -6 14 -27 14 -46 0 -21 6 -36 15 -39 9 -4 15 -19 15 -39 0 -18 7 -38 15 -45 25 -20 21 -199 -5 -250 -11 -22 -22 -40 -24 -40 -6 0 -90 140 -99 163 -7 18 -37 24 -37 7 0 -15 -40 -12 -44 3 -3 6 -7 24 -10 40 -8 34 -37 36 -63 4 -26 -32 -95 -87 -110 -87 -19 0 -16 28 9 69 12 20 25 38 28 41 3 3 17 23 30 45 13 22 27 42 31 45 4 3 13 17 19 30 5 14 24 48 40 75 17 28 35 60 40 72 15 36 41 73 52 73 5 0 20 -12 33 -26z m678 -140 c9 -140 15 -164 46 -164 22 0 46 28 95 108 l38 64 32 -30 c60 -56 86 -45 86 37 0 23 2 41 4 41 2 0 11 3 19 6 19 7 57 -66 57 -111 0 -19 4 -35 9 -35 4 0 11 -19 14 -41 3 -23 10 -45 15 -48 5 -3 12 -24 15 -46 4 -22 11 -41 17 -43 5 -2 10 -17 10 -34 0 -33 24 -91 46 -109 11 -9 16 -6 25 15 10 21 9 29 -4 44 -10 10 -17 32 -17 48 0 17 -7 39 -15 50 -8 10 -15 28 -15 39 0 11 -7 33 -15 49 -8 15 -15 36 -15 45 0 9 -9 30 -20 46 -11 17 -20 42 -20 56 0 15 -7 29 -15 33 -17 6 -21 66 -4 66 6 0 20 -11 30 -24 11 -14 29 -26 41 -28 15 -2 30 -19 48 -53 14 -27 27 -52 30 -55 3 -3 15 -25 28 -50 40 -79 84 -155 98 -171 18 -20 18 -30 -1 -54 -16 -21 -99 -136 -125 -174 -8 -13 -21 -30 -28 -39 -17 -23 -104 -144 -122 -172 -8 -12 -20 -28 -25 -34 -6 -6 -22 -29 -35 -51 -44 -73 -51 -77 -101 -65 -90 23 -125 29 -164 30 -30 0 -45 6 -55 21 -8 12 -21 27 -27 35 -7 7 -13 16 -13 19 0 9 -71 128 -81 135 -3 3 -9 15 -13 28 -4 12 -11 22 -16 22 -4 0 -10 8 -14 18 -3 9 -14 29 -23 43 -10 15 -31 50 -48 78 -16 28 -33 51 -37 51 -5 0 -8 6 -8 14 0 8 -6 21 -12 28 -16 17 -36 47 -45 68 -3 8 -17 27 -29 43 -24 28 -23 49 3 77 31 34 113 150 113 160 0 5 3 10 8 10 4 0 16 17 27 37 30 55 54 74 77 62 27 -15 64 -4 85 26 10 13 23 23 28 21 6 -1 14 -65 18 -142z m-563 -19 c0 -8 -4 -15 -10 -15 -5 0 -10 7 -10 15 0 8 5 15 10 15 6 0 10 -7 10 -15z m73 -105 c26 -39 47 -73 47 -75 0 -3 -8 -5 -17 -5 -23 0 -63 39 -63 62 0 10 -7 21 -15 24 -16 6 -22 64 -7 64 5 0 30 -32 55 -70z m1379 -93 c27 -273 41 -332 76 -325 13 3 16 13 15 42 -2 21 -7 44 -12 50 -5 6 -12 43 -16 81 -4 39 -14 80 -22 93 -15 25 -14 68 2 65 6 -1 12 -10 14 -20 2 -10 7 -20 11 -23 4 -3 18 -27 30 -55 12 -27 25 -52 29 -55 3 -3 17 -27 30 -55 14 -27 28 -52 31 -55 12 -8 50 -83 50 -97 0 -7 4 -13 9 -13 5 0 12 -13 16 -29 3 -16 13 -35 21 -42 8 -6 14 -17 14 -24 0 -8 3 -15 8 -17 4 -1 25 -39 46 -83 22 -44 43 -81 48 -83 18 -8 8 -51 -14 -58 -12 -3 -28 -13 -36 -20 -21 -22 -39 -17 -51 14 -5 15 -24 50 -40 77 -17 28 -36 61 -41 75 -6 13 -15 27 -19 30 -4 3 -24 33 -45 68 -21 34 -44 62 -51 62 -34 0 -61 -141 -36 -188 5 -9 10 -75 12 -147 3 -112 2 -129 -11 -126 -8 2 -40 7 -70 11 -30 5 -75 13 -100 19 -25 6 -70 10 -101 11 -30 0 -60 5 -66 11 -6 6 -39 13 -74 16 -35 3 -78 11 -96 19 -17 8 -45 14 -62 14 -17 0 -39 4 -49 9 -9 5 -25 12 -35 15 -15 5 -8 18 47 90 36 46 66 89 66 95 0 6 4 11 9 11 5 0 20 17 32 38 13 20 42 63 66 94 24 31 43 61 43 67 0 6 4 11 9 11 5 0 20 17 32 38 13 20 41 62 64 93 22 31 47 66 55 79 8 12 22 30 30 40 8 11 37 51 64 90 27 38 52 67 55 64 3 -3 9 -38 13 -77z m-1315 -23 c12 -3 29 -22 39 -42 9 -21 20 -39 23 -42 3 -3 17 -26 31 -52 13 -27 28 -48 32 -48 5 0 8 -6 8 -14 0 -8 6 -21 13 -28 7 -7 16 -20 20 -28 4 -8 15 -27 25 -42 9 -14 30 -48 46 -75 16 -26 32 -50 36 -53 4 -3 10 -15 14 -27 4 -13 11 -23 16 -23 4 0 11 -11 14 -25 4 -14 11 -25 16 -25 6 0 10 -5 10 -10 0 -11 34 -63 58 -89 16 -17 19 -14 -93 -86 -84 -54 -162 -109 -193 -136 -9 -8 -46 -9 -120 -4 -131 8 -199 8 -415 0 -142 -6 -172 -5 -201 9 -19 9 -45 16 -59 16 -14 0 -38 7 -53 15 -16 8 -37 15 -46 15 -9 0 -29 7 -45 15 -15 7 -49 24 -75 35 -56 25 -64 35 -47 57 17 20 37 54 45 76 3 9 10 17 14 17 5 0 13 12 19 28 14 35 60 113 78 130 7 7 13 19 13 27 0 7 4 15 9 17 4 2 19 22 32 45 13 23 50 84 82 137 31 52 57 99 57 105 0 10 37 24 56 20 26 -5 44 4 84 41 49 45 66 45 83 0 14 -37 32 -44 62 -24 22 14 24 14 30 -7 9 -29 65 -122 79 -131 6 -4 25 -8 43 -8 27 0 32 4 38 33 4 17 11 37 15 42 5 6 10 21 12 34 1 14 9 26 16 29 8 2 12 -11 12 -47 0 -27 5 -53 10 -56 6 -3 10 -23 10 -43 0 -20 7 -50 15 -66 8 -15 15 -40 15 -55 0 -39 42 -122 60 -119 21 4 24 45 6 73 -9 13 -16 39 -16 58 0 18 -7 42 -15 53 -8 10 -15 30 -15 44 0 14 -7 38 -15 54 -8 16 -18 46 -22 68 -3 22 -12 42 -19 45 -14 5 -19 54 -7 66 8 8 31 9 60 1z m-2682 -194 c21 -10 147 -27 280 -38 l80 -7 0 -40 0 -40 -57 1 c-32 1 -70 6 -85 13 -28 11 -129 27 -258 39 -67 7 -70 8 -73 35 -2 15 -9 27 -17 27 -8 0 -15 -12 -17 -27 l-3 -28 -95 -3 c-52 -2 -99 -7 -104 -13 -6 -5 -35 -9 -65 -9 -59 -1 -153 -12 -236 -30 -58 -12 -236 -16 -282 -6 -21 5 -30 12 -27 21 8 21 30 26 139 32 55 3 110 9 123 14 13 5 47 9 75 9 29 1 72 5 97 11 25 6 95 16 155 23 61 7 117 15 125 19 36 15 209 13 245 -3z m439 -62 c9 -12 16 -37 16 -54 0 -17 7 -45 15 -60 8 -16 15 -43 15 -59 0 -17 5 -36 10 -41 6 -6 11 -27 13 -48 2 -34 -2 -40 -33 -57 -24 -14 -50 -19 -85 -17 l-50 3 -3 38 c-2 20 4 52 12 69 9 17 16 44 16 60 0 16 7 45 15 65 8 19 15 48 15 63 0 34 9 60 21 60 4 0 15 -10 23 -22z m-1647 -2 c56 -29 101 -46 121 -46 12 0 24 -4 27 -10 3 -5 16 -10 28 -10 12 0 35 -7 51 -15 15 -8 35 -15 44 -15 9 0 45 -7 81 -16 56 -14 71 -23 101 -58 19 -22 80 -87 137 -143 57 -56 103 -105 103 -108 0 -3 -11 -5 -24 -5 -13 0 -27 -8 -31 -17 -6 -15 -12 -12 -41 21 -19 22 -38 54 -42 70 -5 17 -19 36 -32 43 -34 17 -90 81 -90 103 0 21 -34 45 -50 35 -6 -3 -10 -21 -10 -39 0 -40 -7 -48 -30 -36 -15 8 -23 2 -46 -38 -15 -26 -30 -49 -33 -52 -14 -11 -51 -70 -51 -80 0 -5 -4 -10 -8 -10 -10 0 -42 -71 -42 -93 0 -19 -21 -22 -37 -6 -7 7 -18 1 -36 -20 -36 -43 -49 -40 -45 12 2 32 -1 42 -12 42 -8 0 -17 -11 -20 -24 -3 -14 -11 -26 -18 -29 -15 -5 -16 51 -1 80 6 11 8 22 6 25 -9 8 -47 -17 -47 -31 0 -7 -9 -21 -20 -31 -19 -17 -20 -17 -45 6 -13 13 -25 32 -25 42 0 19 -15 23 -25 7 -9 -15 -32 -12 -39 5 -3 8 -1 26 3 38 5 13 6 29 1 37 -9 15 -30 5 -30 -16 0 -8 -7 -14 -15 -14 -9 0 -15 9 -15 22 0 12 -7 29 -15 38 -14 15 -14 18 0 30 8 7 15 18 15 24 0 7 25 39 56 72 54 56 124 154 124 171 0 13 30 53 40 53 4 0 21 -6 37 -14z m1780 -18 c15 -6 51 -14 78 -17 l50 -6 -3 -35 c-5 -45 -18 -52 -60 -34 -19 8 -54 14 -78 14 -25 0 -49 6 -58 16 -16 16 -22 55 -9 67 10 11 49 8 80 -5z m207 -44 c3 -9 6 -26 6 -39 0 -12 7 -36 15 -51 8 -16 15 -39 15 -51 0 -12 4 -24 9 -28 5 -3 13 -20 17 -37 3 -18 13 -43 21 -55 22 -33 13 -68 -17 -69 -14 -1 -51 -4 -82 -8 -84 -11 -98 0 -98 74 0 36 5 64 14 72 7 8 17 33 21 56 4 23 11 44 16 48 5 3 9 25 9 49 0 41 8 52 36 54 7 1 15 -6 18 -15z m1136 12 c0 -20 -61 -106 -75 -106 -7 0 -26 -7 -41 -15 -16 -8 -39 -15 -51 -15 -12 0 -24 -4 -27 -9 -3 -4 -25 -11 -49 -14 -24 -4 -57 -14 -74 -23 -35 -20 -60 -14 -73 18 -9 23 -9 23 -9 2 -1 -12 -8 -25 -16 -28 -15 -5 -18 -2 -31 43 -4 11 -7 11 -22 -2 -19 -17 -31 -20 -84 -18 -42 1 -68 22 -68 56 0 32 16 40 45 21 14 -10 46 -16 77 -16 29 0 68 -4 87 -10 35 -10 115 3 136 21 5 5 16 9 25 9 8 0 27 6 42 14 15 8 41 17 58 21 17 4 43 13 58 21 15 8 37 14 50 14 12 0 22 5 22 10 0 6 5 10 10 10 6 0 10 -2 10 -4z m2450 -19 c30 -5 60 -13 65 -17 6 -4 30 -11 54 -15 41 -7 71 -24 71 -40 0 -6 19 -50 56 -132 8 -17 14 -36 14 -42 0 -6 5 -11 10 -11 6 0 10 -5 10 -11 0 -11 15 -47 51 -125 10 -23 19 -46 19 -53 0 -6 5 -11 10 -11 6 0 10 -8 10 -18 0 -10 6 -26 14 -37 7 -11 17 -35 21 -52 3 -18 11 -33 16 -33 5 0 9 -8 9 -18 0 -10 6 -26 14 -37 7 -11 16 -32 20 -47 3 -16 11 -28 16 -28 6 0 10 -7 10 -16 0 -9 7 -28 15 -42 22 -40 55 -119 55 -131 0 -6 5 -11 10 -11 6 0 10 -8 10 -18 0 -10 7 -27 15 -38 8 -10 15 -27 15 -36 0 -9 6 -23 14 -30 7 -8 17 -29 21 -46 3 -18 11 -32 16 -32 5 0 9 -7 9 -16 0 -9 6 -28 14 -42 13 -27 67 -142 91 -197 24 -55 76 -169 106 -235 17 -36 37 -78 44 -95 7 -16 29 -65 49 -107 20 -42 36 -81 36 -87 0 -6 5 -11 10 -11 6 0 10 -7 10 -16 0 -9 6 -28 13 -42 8 -15 21 -43 29 -62 8 -19 29 -66 47 -105 18 -38 40 -86 48 -105 8 -19 19 -42 24 -50 5 -8 12 -22 15 -30 10 -26 30 -73 63 -145 35 -75 56 -121 65 -145 3 -8 10 -22 15 -30 4 -8 22 -44 38 -80 17 -36 40 -86 51 -111 12 -25 22 -51 22 -58 0 -6 5 -11 10 -11 6 0 10 -7 10 -16 0 -9 6 -28 14 -42 8 -15 17 -34 20 -42 3 -8 10 -22 15 -30 4 -8 22 -44 38 -80 17 -36 40 -86 51 -111 12 -25 22 -51 22 -58 0 -6 5 -11 10 -11 6 0 10 -8 10 -18 0 -10 6 -26 14 -37 7 -11 16 -32 20 -47 3 -16 11 -28 16 -28 6 0 10 -7 10 -16 0 -9 6 -28 14 -42 28 -56 56 -120 56 -131 0 -6 5 -11 10 -11 6 0 10 -7 10 -15 0 -17 37 -93 58 -117 36 -43 -23 -63 -95 -33 -21 9 -75 17 -124 19 -48 1 -94 7 -101 13 -7 6 -55 13 -106 16 -52 3 -99 10 -105 15 -7 5 -52 12 -100 15 -49 3 -94 10 -100 16 -6 6 -46 11 -92 11 -51 0 -88 5 -100 14 -11 7 -63 16 -119 20 -55 4 -105 10 -110 15 -6 5 -48 11 -92 14 -45 3 -91 10 -102 16 -11 6 -51 11 -89 11 -37 0 -80 6 -94 13 -14 8 -68 17 -120 21 -52 4 -98 11 -103 17 -6 5 -39 9 -75 9 -37 0 -84 5 -106 11 -22 6 -78 14 -125 19 -47 4 -96 12 -108 19 -31 16 -272 17 -302 1 -13 -7 -60 -16 -104 -20 -45 -5 -99 -13 -121 -19 -22 -6 -68 -11 -102 -11 -34 0 -64 -4 -67 -9 -4 -5 -50 -12 -104 -16 -53 -4 -111 -13 -129 -21 -17 -8 -62 -14 -101 -14 -39 0 -85 -7 -105 -15 -20 -8 -66 -15 -102 -15 -37 0 -75 -4 -85 -10 -10 -5 -58 -13 -106 -17 -48 -3 -99 -12 -113 -20 -15 -7 -57 -13 -96 -13 -38 0 -88 -7 -110 -15 -22 -8 -68 -14 -103 -15 -35 0 -72 -5 -83 -10 -10 -6 -56 -13 -101 -16 -46 -3 -97 -12 -115 -20 -17 -8 -61 -14 -98 -14 -36 0 -88 -7 -114 -16 -28 -9 -72 -14 -107 -12 l-59 3 -3 34 c-2 19 -1 50 3 68 l6 33 62 0 c34 1 82 6 107 11 25 6 82 14 127 19 46 5 91 14 102 20 11 5 47 10 80 10 33 0 80 6 103 14 24 8 81 16 127 20 47 3 89 10 95 16 5 5 37 10 71 10 33 0 85 6 115 14 30 7 90 16 133 19 43 3 84 10 90 15 7 5 54 12 105 15 52 3 99 10 105 15 7 5 52 12 100 15 49 3 94 10 100 15 7 5 49 12 93 15 45 3 91 10 102 16 11 6 48 11 81 11 33 0 80 6 103 14 24 8 79 16 123 19 44 3 95 13 113 22 40 21 62 14 62 -20 0 -14 5 -25 10 -25 6 0 10 -7 10 -16 0 -8 5 -25 11 -36 11 -20 12 -20 24 -4 15 19 9 53 -12 78 -23 26 -6 41 36 33 20 -4 41 -11 47 -16 6 -5 49 -12 95 -15 46 -4 103 -12 127 -20 23 -8 68 -14 100 -14 31 0 75 -7 97 -15 22 -8 66 -14 98 -15 32 0 67 -5 78 -11 11 -6 62 -13 112 -16 51 -3 97 -10 103 -14 6 -5 47 -12 90 -15 43 -3 98 -12 122 -20 23 -8 68 -14 98 -14 30 0 64 -5 75 -11 11 -5 59 -13 107 -16 48 -3 92 -10 99 -15 6 -5 53 -12 105 -15 51 -3 98 -10 105 -15 6 -5 47 -12 90 -14 43 -3 101 -11 128 -19 80 -22 183 -26 201 -8 13 13 13 18 1 37 -8 12 -18 36 -21 54 -4 17 -11 32 -16 32 -4 0 -11 16 -14 35 -4 19 -11 35 -16 35 -6 0 -10 7 -10 16 0 9 -6 28 -13 42 -8 15 -21 43 -29 62 -8 19 -22 51 -31 70 -8 19 -18 45 -22 58 -3 12 -11 22 -16 22 -5 0 -9 10 -9 23 0 12 -6 31 -14 42 -7 11 -16 32 -20 48 -3 15 -11 27 -16 27 -6 0 -10 11 -10 24 0 13 -7 29 -15 36 -8 7 -15 19 -15 27 0 8 -6 27 -13 41 -8 15 -21 43 -29 62 -8 19 -22 51 -31 70 -8 19 -18 45 -22 58 -3 12 -10 22 -15 22 -4 0 -11 16 -14 35 -4 19 -11 35 -15 35 -5 0 -12 16 -15 35 -4 19 -11 35 -16 35 -6 0 -10 7 -10 16 0 9 -6 28 -13 42 -8 15 -21 43 -29 62 -8 19 -23 53 -32 75 -10 22 -25 56 -33 75 -8 19 -22 51 -30 70 -8 19 -21 49 -28 65 -8 17 -16 40 -20 53 -3 12 -11 22 -16 22 -5 0 -9 9 -9 21 0 11 -6 33 -13 47 -24 47 -45 96 -52 120 -3 12 -11 22 -16 22 -5 0 -9 11 -9 24 0 14 -7 31 -15 40 -8 8 -15 21 -15 28 0 7 -6 22 -14 33 -7 11 -17 35 -21 53 -3 17 -11 32 -16 32 -5 0 -9 7 -9 16 0 9 -6 28 -13 42 -13 25 -23 47 -61 137 -9 20 -22 51 -30 70 -9 20 -22 50 -30 68 -16 34 -40 90 -92 215 -7 18 -20 47 -28 65 -40 87 -56 127 -56 136 0 6 -4 11 -9 11 -5 0 -12 16 -15 35 -4 19 -11 35 -16 35 -6 0 -10 8 -10 18 -1 9 -9 35 -20 57 -11 22 -19 46 -20 53 0 6 -4 12 -10 12 -5 0 -10 7 -10 16 0 8 -9 36 -21 62 -22 52 -35 81 -53 127 -7 17 -20 46 -29 65 -15 33 -49 113 -66 155 -5 11 -18 41 -30 66 -11 25 -21 51 -21 56 0 18 -46 42 -89 47 -72 9 -109 27 -123 60 -6 17 -14 35 -16 40 -3 5 3 6 14 1 11 -4 44 -12 74 -18z m-5717 -3 c3 -4 -10 -24 -30 -45 -30 -31 -44 -39 -74 -39 -40 0 -63 -19 -73 -62 -3 -16 -11 -28 -16 -28 -6 0 -10 -13 -10 -29 0 -16 -7 -34 -15 -41 -8 -7 -15 -23 -15 -35 0 -12 -7 -28 -15 -35 -8 -7 -15 -18 -15 -24 -1 -6 -9 -29 -20 -51 -11 -22 -19 -48 -20 -57 0 -10 -4 -18 -9 -18 -5 0 -12 -12 -15 -27 -4 -16 -13 -41 -21 -58 -29 -63 -45 -103 -45 -113 0 -6 -8 -25 -17 -44 -9 -18 -22 -45 -30 -60 -7 -14 -13 -33 -13 -41 0 -9 -8 -30 -17 -49 -9 -18 -22 -45 -30 -60 -7 -14 -13 -36 -13 -47 0 -12 -4 -21 -9 -21 -5 0 -13 -15 -16 -32 -4 -18 -14 -42 -21 -53 -8 -11 -14 -29 -14 -42 0 -12 -4 -24 -9 -27 -4 -3 -11 -19 -14 -35 -4 -17 -16 -35 -29 -42 -32 -17 -87 -79 -90 -103 -3 -23 -34 -34 -51 -17 -7 7 -5 17 5 33 8 13 18 35 22 51 3 15 11 27 16 27 6 0 10 6 10 13 1 6 9 30 20 52 11 22 20 47 20 55 0 8 7 24 15 34 8 11 15 28 15 38 0 10 4 18 9 18 5 0 12 12 15 28 4 15 13 42 22 59 8 18 21 48 30 68 8 19 21 50 30 70 8 19 21 49 28 67 47 113 76 180 91 213 7 17 18 41 23 55 6 14 17 41 26 60 8 19 24 58 36 85 12 28 25 59 30 70 5 11 18 43 30 70 11 28 27 62 35 77 8 14 15 33 15 42 0 9 10 18 23 20 163 34 191 38 200 30z m2312 -27 c8 -24 6 -31 -10 -43 -28 -20 -72 -17 -105 8 -29 21 -38 47 -23 62 4 4 34 6 67 4 56 -3 61 -5 71 -31z m-627 -32 c3 -32 -26 -100 -43 -100 -5 0 -13 18 -17 40 -4 22 -10 53 -14 68 -6 28 -6 28 32 25 35 -3 39 -6 42 -33z m692 -18 c0 -23 7 -51 15 -61 8 -11 15 -33 15 -49 0 -26 12 -74 42 -162 26 -78 19 -107 -22 -85 -15 8 -20 21 -20 50 0 21 -6 45 -14 53 -8 8 -16 38 -18 67 -2 30 -8 55 -15 57 -16 6 -43 -49 -43 -85 0 -16 -7 -35 -15 -42 -8 -7 -15 -29 -15 -50 0 -41 -20 -66 -46 -56 -21 8 -15 47 20 141 14 39 26 80 26 91 0 12 6 27 14 33 7 6 16 26 19 44 8 48 36 109 47 102 6 -3 10 -25 10 -48z m116 38 c30 -12 35 -19 32 -42 -3 -24 -8 -28 -40 -31 -51 -4 -78 12 -78 47 0 15 3 31 7 34 10 11 41 8 79 -8z m118 -27 c3 -13 7 -36 10 -53 8 -48 27 -118 41 -145 7 -14 15 -38 17 -55 l3 -29 -80 -14 c-95 -16 -125 -6 -125 39 0 15 5 31 10 34 6 3 10 16 10 28 0 13 6 31 14 42 7 11 16 37 20 58 4 20 11 37 16 37 6 0 10 13 10 28 0 48 45 73 54 30z m-710 3 c8 -13 -11 -61 -24 -61 -11 0 -14 53 -3 63 9 10 21 9 27 -2z m96 -8 c24 -21 29 -93 6 -93 -8 0 -18 9 -21 20 -3 11 -11 20 -16 20 -20 0 8 -217 33 -256 4 -6 10 -31 14 -55 4 -24 13 -52 21 -61 8 -9 13 -27 11 -40 -3 -24 -22 -30 -143 -44 l-50 -6 -18 41 c-14 30 -16 45 -8 60 6 11 11 35 11 54 0 19 6 40 14 46 7 6 16 34 19 62 4 28 10 56 15 63 5 6 12 31 16 56 4 26 17 56 30 70 13 14 26 37 30 53 8 32 9 32 36 10z m-400 -52 c0 -22 6 -44 15 -51 8 -7 15 -29 15 -49 1 -20 7 -47 15 -61 8 -14 14 -41 15 -61 0 -20 7 -42 15 -49 8 -7 15 -20 15 -29 0 -36 -17 -44 -93 -45 l-75 -1 -16 36 c-18 41 -20 62 -7 87 6 9 13 34 16 55 3 20 10 37 15 37 6 0 10 10 10 23 0 12 7 45 16 72 9 28 18 56 20 63 7 28 24 9 24 -27z m685 -1 c8 -12 -33 -100 -46 -100 -5 0 -9 15 -9 34 0 19 -4 38 -10 41 -5 3 -10 13 -10 21 0 17 65 20 75 4z m-2397 -22 c-2 -13 -7 -23 -13 -23 -5 0 -11 10 -13 23 -2 15 2 22 13 22 11 0 15 -7 13 -22z m5624 -49 c12 -27 25 -49 30 -49 4 0 8 -6 8 -13 0 -7 19 -43 43 -79 36 -54 41 -68 32 -82 -7 -9 -16 -16 -21 -16 -5 0 -32 -16 -61 -36 -30 -20 -57 -33 -64 -28 -8 5 -10 30 -6 83 3 42 0 121 -6 177 -12 96 -12 101 6 96 10 -2 28 -26 39 -53z m-3017 42 c7 -12 -33 -91 -46 -91 -10 0 -12 83 -2 93 10 10 41 8 48 -2z m-1915 -40 c0 -10 17 -36 38 -57 20 -22 51 -59 67 -82 16 -24 45 -57 64 -73 33 -27 35 -32 42 -111 4 -46 13 -110 19 -142 13 -70 8 -89 -22 -84 -19 2 -24 11 -28 48 -7 64 -25 51 -25 -18 0 -45 -3 -57 -17 -60 -9 -2 -19 2 -23 8 -5 8 -11 8 -21 -1 -26 -21 -36 3 -19 44 20 48 20 140 0 157 -8 7 -15 19 -15 28 0 28 -41 62 -75 62 -39 0 -101 -58 -111 -104 -3 -17 -10 -35 -14 -41 -4 -5 -10 -52 -12 -103 -2 -69 -7 -95 -18 -102 -29 -18 -35 -3 -38 98 -2 82 -6 102 -17 102 -12 0 -15 -20 -15 -106 0 -95 -2 -105 -17 -102 -16 3 -18 17 -16 153 1 83 2 162 3 178 0 39 28 35 32 -5 5 -55 28 -46 28 11 0 28 -4 51 -10 51 -5 0 -10 7 -10 15 0 8 4 15 9 15 5 0 12 11 15 25 11 43 26 27 26 -27 0 -66 13 -90 30 -58 13 25 5 110 -11 110 -5 0 -9 9 -9 20 0 11 5 20 10 20 6 0 10 6 10 14 0 21 43 62 62 58 12 -2 22 6 29 24 19 53 59 76 59 35z m2183 -3 c4 -13 0 -29 -8 -38 -7 -8 -15 -31 -17 -50 -3 -36 -21 -45 -26 -13 -2 10 -10 35 -19 55 -21 49 -12 68 31 68 26 0 35 -5 39 -22z m-2910 6 c3 -3 3 -13 0 -21 -5 -12 -7 -12 -14 -1 -15 23 -4 40 14 22z m2977 -74 c0 -32 4 -61 9 -64 4 -3 11 -28 15 -55 4 -27 13 -62 21 -78 20 -39 19 -70 -4 -83 -24 -13 -101 -13 -101 -1 0 5 -12 11 -27 13 -33 4 -42 34 -21 70 7 13 18 48 26 78 7 30 16 71 21 90 10 43 43 100 53 94 5 -3 8 -32 8 -64z m-1410 -20 c0 -21 4 -41 9 -44 4 -3 11 -28 15 -55 4 -28 11 -53 15 -56 5 -3 12 -23 16 -45 4 -22 10 -42 15 -45 4 -3 11 -22 15 -42 4 -21 11 -43 17 -50 5 -7 7 -17 3 -23 -7 -12 -224 -14 -243 -1 -14 9 -8 46 14 90 8 14 14 33 14 42 0 9 7 30 15 45 8 16 15 41 15 56 0 15 4 29 9 32 4 3 11 26 14 51 7 49 34 98 48 89 5 -3 9 -23 9 -44z m413 -43 c-1 -16 -13 -44 -28 -62 -18 -25 -25 -46 -25 -79 0 -25 4 -47 9 -50 5 -3 12 -32 16 -63 4 -32 10 -62 15 -68 4 -5 10 -25 14 -43 5 -27 2 -37 -15 -51 -16 -13 -20 -23 -15 -39 8 -25 24 -29 31 -7 16 51 16 50 25 35 6 -8 10 -29 10 -47 0 -17 5 -35 12 -39 8 -5 -2 -14 -28 -25 -79 -35 -246 -14 -229 29 4 9 9 26 12 37 3 11 11 34 19 52 8 17 14 40 14 51 0 11 7 33 15 48 8 16 15 41 15 56 0 15 5 30 10 33 6 3 10 20 10 37 0 32 24 92 47 120 17 19 13 83 -4 83 -7 0 -21 -15 -31 -34 -23 -43 -36 -44 -40 -3 -6 57 0 62 75 59 l68 -2 -2 -28z m545 -57 c1 -25 7 -54 12 -65 5 -11 11 -41 15 -67 3 -26 10 -50 15 -53 4 -3 11 -24 15 -48 4 -23 14 -50 23 -59 11 -13 13 -24 5 -40 -9 -21 -15 -22 -114 -19 -66 1 -106 6 -111 14 -13 20 -9 64 7 77 8 7 15 22 15 34 0 11 7 33 14 48 8 16 18 48 22 73 3 25 10 48 15 51 5 3 9 20 9 39 0 49 9 67 34 63 17 -2 21 -11 24 -48z m-182 -5 c3 -14 4 -35 1 -48 -8 -31 6 -51 32 -44 18 4 21 1 21 -23 0 -16 -4 -32 -10 -35 -5 -3 -10 -21 -10 -40 0 -19 -5 -37 -12 -41 -15 -10 -48 32 -48 63 0 40 -31 123 -46 123 -8 0 -17 -13 -20 -30 -4 -16 -10 -30 -15 -30 -20 0 -39 35 -39 71 l0 39 43 1 c23 0 51 4 62 9 31 13 34 12 41 -15z m-2218 -54 c20 -15 58 -37 84 -47 27 -11 48 -23 48 -27 0 -5 9 -5 20 -2 15 5 22 0 30 -19 5 -14 17 -26 26 -26 9 0 23 -8 30 -17 11 -16 16 -16 34 -5 12 7 25 11 28 7 3 -3 0 -46 -7 -95 -7 -49 -10 -103 -6 -119 9 -42 -24 -51 -71 -19 -35 23 -41 37 -25 54 5 5 12 31 16 57 6 47 6 48 -17 45 -20 -3 -24 -10 -30 -62 -4 -32 -10 -61 -13 -64 -3 -3 -13 2 -23 11 -10 10 -24 17 -30 17 -6 0 -23 5 -37 12 -24 11 -25 15 -25 100 0 72 -3 88 -15 88 -12 0 -15 -15 -15 -75 0 -60 -3 -75 -15 -75 -12 0 -15 16 -15 84 0 47 -4 87 -9 90 -14 9 -21 -20 -21 -86 0 -43 -3 -59 -12 -56 -28 10 -17 208 14 245 14 17 14 17 56 -16z m294 -78 c-7 -3 -19 -11 -26 -19 -25 -25 -28 -15 -5 17 16 23 24 28 33 19 8 -9 8 -14 -2 -17z m313 -23 c4 -16 12 -33 18 -37 8 -6 10 -35 7 -98 -5 -88 -6 -90 -30 -90 -25 0 -25 1 -31 115 -3 63 -4 121 -1 128 8 23 30 12 37 -18z m1555 -18 c0 -20 7 -46 15 -56 8 -11 15 -32 15 -47 0 -15 7 -40 15 -55 8 -16 15 -46 15 -66 0 -20 4 -39 9 -42 4 -3 11 -25 15 -48 4 -23 12 -48 18 -55 7 -9 7 -17 -2 -28 -10 -12 -36 -15 -115 -15 -87 0 -104 3 -119 19 -16 18 -16 21 3 64 12 25 21 55 21 65 0 11 7 33 15 48 8 16 15 38 15 50 0 11 4 24 9 30 5 5 11 27 14 49 2 22 10 56 17 75 7 19 15 41 16 48 7 26 24 0 24 -36z m483 1 c7 -71 26 -148 42 -180 8 -15 15 -47 15 -70 l0 -43 -94 0 -95 0 6 38 c3 20 12 50 19 66 8 16 14 36 14 45 0 9 6 25 14 36 7 11 16 38 20 60 9 45 32 95 45 95 5 0 11 -21 14 -47z m-2103 -107 c0 -89 -3 -105 -19 -120 -34 -31 -44 -11 -36 72 4 42 11 83 15 91 5 9 11 29 15 44 12 57 25 12 25 -87z m-976 -534 c6 -10 -26 -39 -57 -52 -12 -6 -29 -14 -37 -19 -8 -5 -23 -12 -33 -15 -13 -4 -16 -12 -11 -30 5 -21 0 -29 -33 -49 -21 -13 -44 -32 -52 -41 -21 -25 -31 -19 -31 19 0 22 6 38 15 41 8 4 15 12 15 19 0 24 94 105 123 105 8 0 20 7 27 15 13 16 65 21 74 7z m-490 -37 c15 -8 34 -15 41 -15 6 0 23 -9 36 -20 68 -55 99 -86 99 -97 0 -6 7 -19 16 -28 12 -12 14 -19 6 -27 -8 -8 -15 -6 -27 6 -9 9 -22 16 -29 16 -7 0 -23 9 -35 19 -13 11 -27 21 -33 23 -5 2 -13 19 -17 38 -6 29 -11 35 -34 36 -15 1 -35 8 -45 16 -9 8 -25 18 -35 21 -21 8 -13 27 11 27 9 0 30 -7 46 -15z m1282 -153 c-3 -6 -20 -13 -36 -17 -40 -9 -60 -30 -60 -63 0 -26 -49 -82 -71 -82 -5 0 -9 -7 -9 -15 0 -8 -7 -15 -15 -15 -19 0 -19 19 0 44 8 11 15 28 15 37 0 27 105 127 137 131 31 4 48 -5 39 -20z m-742 -4 c10 -10 22 -18 28 -18 14 0 48 -30 48 -42 0 -14 -40 -9 -46 7 -4 8 -12 15 -19 15 -7 0 -15 -7 -19 -15 -3 -8 -14 -15 -24 -15 -11 0 -25 7 -32 15 -16 19 -34 19 -50 0 -8 -10 -28 -14 -66 -12 -71 3 -93 -17 -35 -33 39 -10 121 -81 121 -104 0 -5 7 -17 16 -27 9 -10 13 -23 9 -29 -9 -14 -73 44 -86 78 -7 18 -13 21 -26 14 -17 -10 -35 -3 -82 31 -34 25 -44 21 -38 -12 7 -36 -14 -59 -32 -37 -15 18 -4 66 15 66 8 0 17 8 21 18 8 25 75 92 90 92 8 0 16 7 20 16 9 23 162 17 187 -8z m-430 -28 c6 -6 20 -10 33 -10 27 0 31 -18 6 -26 -10 -4 -32 -12 -50 -20 -40 -18 -52 -18 -74 2 -17 15 -19 15 -30 -10 -14 -29 -46 -32 -41 -3 5 31 -14 17 -69 -50 -15 -20 -39 -15 -39 6 0 25 88 101 116 101 12 0 28 7 35 16 10 12 24 15 58 10 25 -3 50 -11 55 -16z m846 -55 c7 -8 20 -15 29 -15 37 -1 79 -77 52 -94 -14 -9 -41 4 -41 19 0 7 -12 27 -27 44 -23 25 -35 31 -70 31 -23 0 -44 4 -47 9 -15 23 85 29 104 6z m-770 -27 c-1 -23 -87 -108 -109 -108 -15 0 -21 -6 -21 -24 0 -13 -7 -29 -15 -36 -8 -7 -15 -18 -15 -24 0 -16 -48 -61 -56 -53 -3 3 1 16 10 29 9 12 16 37 16 55 0 17 5 35 10 38 6 4 16 21 24 39 8 18 33 47 57 64 45 31 99 42 99 20z m1124 -33 c15 -8 33 -15 38 -15 14 0 88 -60 88 -71 0 -5 -7 -12 -17 -16 -11 -4 -24 3 -39 22 l-23 29 -11 -29 -11 -29 -29 32 c-34 38 -50 41 -50 9 0 -32 -10 -40 -29 -23 -9 7 -29 18 -46 23 -39 12 -49 53 -13 53 13 1 34 7 48 15 32 18 58 18 94 0z m-309 -65 c9 -28 -2 -40 -34 -40 -16 0 -34 -7 -41 -15 -7 -8 -21 -15 -32 -15 -10 0 -21 7 -24 15 -9 23 -21 18 -36 -12 -7 -16 -23 -29 -36 -31 -12 -2 -22 -8 -22 -13 0 -5 -7 -9 -15 -9 -8 0 -15 4 -15 9 0 5 7 14 15 21 8 7 15 17 15 23 0 7 19 28 43 49 40 36 46 38 109 38 58 0 67 -3 73 -20z m-765 -76 c0 -40 -4 -55 -12 -52 -14 5 -23 80 -14 105 12 30 26 0 26 -53z m814 18 c-1 -6 -2 -23 -2 -37 -1 -17 -10 -29 -26 -35 -23 -8 -39 -31 -65 -87 -15 -34 -31 -28 -31 11 0 39 22 83 65 132 29 33 61 42 59 16z m-794 -123 c19 -34 9 -64 -22 -67 -27 -3 -28 -2 -28 42 0 39 3 46 20 46 10 0 24 -9 30 -21z m5 -159 c0 -47 -3 -55 -20 -58 -11 -1 -28 3 -38 10 -15 11 -16 18 -6 48 6 19 13 41 15 48 2 7 14 12 26 10 21 -3 23 -9 23 -58z m636 -5 c23 -39 23 -55 -2 -84 -18 -22 -28 -24 -109 -25 -94 -1 -106 -5 -96 -32 5 -14 16 -16 70 -11 78 7 91 -2 100 -68 3 -27 11 -54 16 -59 6 -6 10 -25 10 -42 0 -18 7 -39 15 -48 8 -8 15 -19 15 -25 0 -6 14 -37 30 -68 17 -31 30 -60 30 -64 0 -5 -13 -9 -29 -9 -17 0 -33 -4 -36 -10 -3 -5 -30 -10 -59 -10 -59 0 -99 -21 -79 -41 17 -18 136 -7 157 14 13 12 34 17 76 17 84 0 90 -4 90 -60 0 -78 -11 -83 -237 -109 -40 -4 -78 -12 -85 -18 -7 -6 -37 -13 -66 -16 -29 -3 -62 -13 -74 -22 -43 -29 -85 -11 -54 24 18 19 22 96 6 106 -5 3 -10 13 -10 21 0 11 16 14 84 12 88 -3 102 1 93 27 -5 13 -24 14 -129 9 -120 -6 -124 -7 -150 -35 -16 -16 -28 -35 -28 -43 0 -23 34 -44 74 -48 22 -2 41 -7 42 -13 2 -5 -9 -25 -25 -44 -38 -46 -69 -39 -100 25 -21 41 -23 56 -17 123 4 58 2 83 -9 105 -8 15 -15 40 -15 55 0 15 -7 36 -15 47 -8 10 -15 30 -15 44 0 14 -9 43 -20 65 -11 22 -19 45 -20 51 0 7 -7 25 -15 40 -34 66 -4 189 46 189 32 0 48 -58 23 -86 -10 -11 -19 -35 -21 -54 -3 -34 -3 -35 32 -35 19 0 43 4 53 10 9 5 61 12 115 16 84 5 98 8 95 22 -3 15 -17 17 -103 15 -65 -2 -101 -7 -106 -15 -14 -23 -19 -2 -8 32 10 27 9 37 -5 60 -33 57 -31 58 144 62 108 2 163 7 168 15 8 13 51 21 101 19 27 -1 38 -7 52 -31z m-633 -125 c3 -51 -8 -63 -49 -53 -27 7 -35 15 -37 37 -6 46 4 58 45 54 36 -3 38 -5 41 -38z m10 -111 c33 -41 23 -59 -32 -59 -25 0 -48 -4 -51 -10 -13 -21 -35 -10 -35 19 0 72 75 104 118 50z m260 -432 c3 -12 -4 -17 -22 -17 -32 0 -42 16 -19 29 23 13 37 9 41 -12z m870 -896 c17 -11 -42 -21 -123 -21 -69 0 -107 8 -99 21 7 11 205 12 222 0z m4936 0 c8 -13 -46 -21 -139 -21 -87 0 -119 6 -109 21 7 12 241 12 248 0z m-5240 -27 c28 -11 6 -24 -39 -24 -50 0 -77 8 -69 21 6 10 84 12 108 3z m520 -3 c9 -14 -20 -21 -84 -21 -57 0 -88 14 -53 23 33 9 132 7 137 -2z m4400 3 c29 -11 5 -24 -44 -24 -55 0 -83 8 -74 21 6 10 94 12 118 3z m520 -3 c3 -5 -1 -12 -10 -15 -21 -8 -98 -8 -120 1 -16 6 -16 7 2 14 27 11 122 11 128 0z m-5640 -27 c26 -10 7 -24 -32 -24 -48 0 -83 10 -76 21 6 10 84 12 108 3z m950 -3 c12 -18 -101 -29 -141 -14 -16 6 -15 8 7 14 37 10 128 10 134 0z m3953 3 c35 -10 16 -24 -30 -24 -53 0 -88 10 -81 21 6 10 77 12 111 3z m957 -3 c11 -17 -103 -28 -141 -14 -16 6 -15 8 7 14 37 10 128 10 134 0z m-6047 -27 c35 -10 16 -24 -30 -24 -53 0 -88 10 -81 21 6 10 77 12 111 3z m1367 -3 c12 -18 -110 -30 -150 -14 -16 6 -16 7 2 14 27 11 142 11 148 0z m3523 3 c37 -10 16 -24 -35 -24 -57 0 -94 9 -86 21 6 10 87 12 121 3z m1357 -3 c8 -12 -29 -21 -86 -21 -45 0 -71 13 -46 23 22 9 127 7 132 -2z m-6437 -27 c35 -10 16 -24 -30 -24 -58 0 -93 10 -75 21 15 10 73 11 105 3z m1767 -3 c8 -12 -29 -21 -91 -21 -53 0 -81 15 -41 23 43 8 127 7 132 -2z m3103 3 c35 -10 16 -24 -30 -24 -53 0 -88 10 -81 21 6 10 77 12 111 3z m1761 -3 c18 -11 -18 -21 -80 -21 -50 0 -74 16 -36 23 41 8 103 7 116 -2z m-6824 -27 c26 -10 7 -24 -32 -24 -48 0 -83 10 -76 21 6 10 84 12 108 3z m2190 -3 c9 -14 -20 -21 -84 -21 -55 0 -85 12 -58 23 22 9 137 7 142 -2z m2670 3 c29 -11 5 -24 -44 -24 -55 0 -83 8 -74 21 6 10 94 12 118 3z m2170 -3 c9 -13 -19 -21 -74 -21 -47 0 -73 13 -48 23 22 9 117 7 122 -2z m-7220 -27 c27 -11 6 -24 -37 -24 -53 0 -88 10 -81 21 6 10 94 12 118 3z m2610 -3 c8 -12 -29 -21 -91 -21 -50 0 -77 13 -51 23 22 9 137 7 142 -2z m2234 2 c18 -4 20 -8 10 -14 -27 -18 -144 -7 -132 12 6 10 87 12 122 2z m2586 -2 c8 -12 -29 -21 -86 -21 -45 0 -71 13 -46 23 22 9 127 7 132 -2z m-7624 -27 c22 -5 28 -9 18 -15 -26 -17 -143 -6 -132 12 6 10 68 12 114 3z m3018 -3 c27 -16 -105 -29 -145 -14 -16 6 -15 8 7 14 36 10 123 10 138 0z m1811 3 c41 -9 29 -24 -18 -24 -59 0 -105 11 -89 21 16 10 63 11 107 3z m2995 -3 c11 -18 -92 -29 -131 -14 -16 6 -15 8 7 14 37 10 118 10 124 0z m-4591 -36 c-3 -11 -107 -19 -132 -10 -13 5 -14 7 -1 16 19 12 136 7 133 -6z m1401 9 c29 -11 5 -24 -44 -24 -55 0 -83 8 -74 21 6 10 94 12 118 3z m3400 -3 c9 -14 -20 -21 -84 -21 -55 0 -85 12 -58 23 22 9 137 7 142 -2z m-4574 -30 c0 -12 -37 -21 -92 -21 -47 0 -73 15 -41 23 33 9 133 7 133 -2z m960 3 c38 -8 21 -24 -26 -24 -52 0 -98 12 -82 21 16 10 63 11 108 3z m3818 -3 c17 -10 -31 -21 -94 -21 -44 0 -68 15 -37 23 31 8 118 7 131 -2z m-4564 -30 c11 -18 -101 -29 -140 -14 -16 6 -16 7 2 14 27 11 132 11 138 0z m554 2 c18 -4 20 -8 10 -14 -27 -18 -144 -7 -132 12 6 10 87 12 122 2z m4220 -2 c10 -6 8 -10 -10 -14 -31 -9 -112 -9 -134 0 -16 6 -16 7 2 14 26 10 126 11 142 0z m-4419 -30 c7 -5 9 -11 5 -14 -12 -7 -265 -7 -289 0 -20 6 -20 6 0 14 27 10 267 11 284 0z m4561 -6 c0 -16 -52 -21 -85 -9 -25 10 2 24 48 24 26 0 37 -4 37 -15z"/> <path d="M6374 4253 c-4 -15 -13 -34 -21 -41 -7 -7 -13 -20 -13 -28 0 -9 -7 -22 -15 -30 -8 -9 -15 -24 -15 -35 0 -10 -4 -19 -10 -19 -5 0 -10 -13 -10 -30 0 -16 5 -30 10 -30 16 0 60 51 60 69 0 9 7 25 15 35 8 11 15 28 15 38 0 10 4 18 10 18 10 0 30 60 23 73 -11 19 -43 6 -49 -20z"/> <path d="M4884 4548 c-25 -35 -44 -79 -44 -100 0 -12 -7 -32 -15 -42 -8 -11 -15 -34 -15 -50 0 -17 -7 -40 -15 -50 -8 -11 -15 -35 -15 -53 0 -18 -4 -33 -10 -33 -5 0 -12 -17 -15 -37 -3 -21 -13 -50 -21 -65 -8 -14 -14 -38 -14 -51 0 -14 -4 -29 -10 -32 -19 -12 -10 -25 19 -25 31 0 41 14 41 61 0 16 4 29 10 29 5 0 12 17 15 38 3 20 13 49 21 64 8 14 14 39 14 55 0 15 7 37 15 47 8 11 15 34 15 52 0 17 7 37 15 44 8 7 15 25 15 40 0 15 6 40 14 56 11 19 12 33 5 46 -12 21 -14 22 -25 6z"/> <path d="M5272 4138 c-16 -16 -15 -33 3 -48 8 -7 15 -25 15 -39 0 -15 7 -36 15 -47 8 -10 15 -32 15 -48 0 -34 36 -96 55 -96 22 0 28 19 12 43 -7 12 -17 42 -20 67 -3 24 -11 46 -16 48 -6 2 -11 18 -11 36 0 43 -49 103 -68 84z"/> <path d="M1515 4280 c-3 -11 -3 -24 0 -30 9 -15 35 -12 35 4 0 8 3 21 6 30 4 11 0 16 -14 16 -12 0 -23 -9 -27 -20z"/> <path d="M1577 4256 c-17 -26 -13 -36 14 -36 17 0 33 36 23 52 -9 14 -21 9 -37 -16z"/> <path d="M1647 4253 c-4 -3 -7 -15 -7 -25 0 -21 25 -24 33 -4 6 16 -16 40 -26 29z"/> <path d="M1316 4194 c-37 -36 -47 -64 -22 -64 17 0 86 63 86 78 0 25 -31 18 -64 -14z"/> <path d="M1700 4205 c0 -9 5 -15 11 -13 6 2 11 8 11 13 0 5 -5 11 -11 13 -6 2 -11 -4 -11 -13z"/> <path d="M1453 4091 c-3 -12 -9 -21 -14 -21 -5 0 -9 -9 -9 -21 0 -18 4 -20 30 -14 23 5 30 3 30 -9 0 -9 5 -16 12 -16 16 0 79 70 72 81 -10 17 -43 9 -56 -13 l-12 -23 -6 25 c-8 32 -39 39 -47 11z"/> <path d="M1324 4082 c-23 -18 -74 -85 -74 -95 0 -4 7 -7 15 -7 19 0 105 86 105 105 0 20 -20 19 -46 -3z"/> <path d="M3356 4123 c-12 -13 -6 -53 9 -53 9 0 15 9 15 24 0 26 -12 40 -24 29z"/> <path d="M3830 4030 c0 -13 5 -20 13 -17 6 2 12 10 12 17 0 7 -6 15 -12 18 -8 2 -13 -5 -13 -18z"/> <path d="M3176 3873 c-12 -13 -6 -53 9 -53 9 0 15 9 15 24 0 26 -12 40 -24 29z"/> <path d="M2816 4025 c-12 -32 -7 -75 9 -75 10 0 15 10 15 33 0 41 -14 66 -24 42z"/> <path d="M1800 4039 c0 -35 22 -89 36 -89 25 0 14 69 -13 88 -19 12 -23 12 -23 1z"/> <path d="M1736 4003 c-3 -3 -6 -24 -6 -45 0 -27 4 -38 15 -38 11 0 15 11 15 39 0 38 -10 57 -24 44z"/> <path d="M1881 3968 c-11 -30 -3 -70 13 -65 15 5 20 67 7 80 -7 7 -13 2 -20 -15z"/> <path d="M1942 3853 c4 -81 28 -85 28 -4 0 48 -3 61 -15 61 -13 0 -15 -11 -13 -57z"/> <path d="M4042 3896 c2 -15 8 -26 13 -26 15 0 12 43 -3 48 -10 3 -13 -4 -10 -22z"/> <path d="M2625 3790 c-9 -28 4 -80 20 -80 14 0 25 52 17 82 -6 24 -29 23 -37 -2z"/> <path d="M3584 3746 c-9 -24 4 -66 22 -66 11 0 14 9 12 37 -3 38 -24 56 -34 29z"/> <path d="M1316 3775 c-9 -24 -8 -83 2 -89 20 -12 35 13 29 50 -7 44 -22 62 -31 39z"/> <path d="M3367 3572 c-23 -25 -21 -42 3 -42 21 0 45 34 35 50 -9 15 -20 12 -38 -8z"/> <path d="M3387 3463 c-4 -3 -7 -17 -7 -30 0 -18 6 -23 24 -23 14 0 27 4 30 9 7 11 -38 53 -47 44z"/> <path d="M3863 3583 c-17 -6 -16 -38 0 -52 17 -14 27 -4 27 25 0 25 -9 34 -27 27z"/> <path d="M1025 2146 c-12 -8 -64 -16 -126 -20 -108 -7 -169 -25 -169 -51 0 -19 20 -23 55 -12 17 5 77 13 135 17 83 6 113 12 144 30 36 22 37 24 20 37 -23 16 -35 16 -59 -1z"/> <path d="M924 2020 c-5 -5 -42 -12 -83 -14 -80 -5 -86 -8 -78 -31 5 -12 18 -14 64 -10 97 10 170 36 157 56 -7 12 -48 11 -60 -1z"/> <path d="M1037 1965 c-15 -8 -56 -19 -90 -24 -170 -28 -199 -39 -157 -61 22 -12 85 -6 105 10 6 4 45 10 88 14 82 6 130 27 125 55 -4 22 -37 25 -71 6z"/> <path d="M2340 4040 c-13 -13 -20 -33 -20 -59 0 -22 -8 -52 -17 -69 -18 -32 -12 -62 12 -62 9 0 18 8 21 18 3 9 12 29 20 44 8 14 14 41 14 60 0 19 5 39 11 45 13 13 5 43 -11 43 -5 0 -19 -9 -30 -20z"/> <path d="M2270 3781 c-14 -27 -1 -47 24 -38 20 8 20 18 2 42 -13 18 -14 18 -26 -4z"/> <path d="M4101 3701 c-15 -26 -14 -104 1 -119 21 -21 38 7 38 63 0 61 -21 91 -39 56z"/> <path d="M2267 3703 c-15 -14 -6 -50 16 -62 12 -6 36 -20 52 -30 37 -24 51 -25 59 -6 8 22 -3 43 -27 51 -12 4 -27 12 -34 18 -43 39 -53 43 -66 29z"/> <path d="M5106 3644 c-31 -39 -27 -56 12 -54 15 1 32 1 37 0 6 0 53 -1 105 0 67 0 103 -4 124 -15 15 -8 34 -15 41 -15 21 0 55 -50 55 -81 0 -43 -14 -42 -46 4 -39 54 -107 76 -251 80 -112 3 -139 15 -145 66 -4 36 -42 37 -46 1 -2 -19 7 -36 32 -62 35 -36 36 -36 143 -43 59 -3 118 -10 131 -16 13 -5 33 -9 46 -9 22 0 76 -47 76 -67 0 -6 -7 -16 -15 -23 -16 -14 -21 -50 -6 -50 25 0 69 24 94 51 21 23 27 40 27 73 0 56 -27 90 -97 122 -51 24 -59 24 -159 17 -58 -5 -107 -7 -110 -4 -2 2 -4 15 -4 27 0 36 -14 35 -44 -2z"/> <path d="M6583 3661 c-12 -10 -36 -45 -53 -77 l-32 -59 -2 -175 -1 -175 -48 3 c-51 4 -79 -10 -70 -35 5 -12 16 -14 53 -9 67 9 98 -5 102 -46 3 -28 8 -33 38 -40 24 -5 39 -3 49 7 12 12 8 16 -23 29 -38 16 -49 46 -17 46 11 0 22 -4 26 -9 3 -5 19 -12 35 -16 17 -4 30 -11 30 -15 0 -5 28 -9 63 -8 44 1 76 -5 109 -21 26 -11 55 -21 65 -21 11 0 24 -5 29 -10 7 -7 54 -10 120 -8 106 3 109 4 107 25 -2 16 4 24 20 27 48 11 113 12 136 4 29 -10 61 -2 61 16 0 8 -15 19 -32 26 -18 6 -41 15 -51 19 -16 6 -19 18 -19 99 0 61 5 98 13 108 7 9 15 43 17 75 5 68 -19 139 -47 139 -9 0 -25 6 -36 14 -11 7 -58 17 -105 21 -47 4 -90 11 -96 16 -6 5 -51 13 -100 18 -135 15 -208 29 -212 40 -6 19 -105 12 -129 -8z m67 -25 c0 -8 -7 -16 -15 -20 -8 -3 -15 -12 -15 -20 0 -8 -6 -16 -12 -18 -7 -3 -15 -30 -18 -64 -4 -49 -8 -59 -24 -59 -30 0 -42 29 -26 62 8 15 17 36 20 45 8 24 63 87 78 88 6 0 12 -6 12 -14z m152 -30 c24 -8 74 -16 113 -19 38 -3 71 -10 73 -16 2 -6 10 -11 18 -11 23 0 27 -25 9 -59 -13 -26 -21 -31 -51 -31 -19 0 -42 7 -50 15 -11 10 -36 15 -78 15 -44 0 -67 5 -76 15 -13 16 -75 21 -84 6 -7 -11 17 -21 54 -21 16 0 30 -5 32 -12 3 -8 33 -14 79 -16 41 -3 76 -7 79 -11 3 -3 19 -11 35 -16 44 -15 33 -30 -25 -33 -27 -2 -50 -7 -50 -13 0 -5 -7 -9 -16 -9 -28 0 -56 -20 -46 -33 20 -26 21 -57 1 -68 -11 -6 -24 -21 -29 -35 -6 -14 -17 -24 -30 -24 -22 0 -28 25 -7 33 7 3 18 21 24 41 14 45 -3 65 -37 44 -17 -11 -22 -11 -30 2 -13 21 14 48 32 32 11 -8 21 -6 43 8 17 11 42 20 58 20 33 0 36 15 5 24 -36 9 -106 7 -113 -4 -3 -5 -15 -10 -25 -10 -10 0 -25 -9 -32 -19 -10 -14 -28 -21 -64 -23 l-49 -3 3 -96 c3 -77 0 -98 -12 -108 -24 -20 -27 -1 -24 129 l3 113 55 2 c54 2 130 23 130 36 0 9 -38 19 -72 19 -26 0 -28 3 -28 40 0 32 7 48 33 75 37 39 77 44 149 21z m328 -61 c0 -9 -7 -18 -15 -21 -8 -4 -15 -16 -15 -28 0 -12 -7 -31 -15 -42 -8 -10 -15 -38 -15 -62 l0 -44 -39 3 c-27 2 -46 -3 -59 -14 -10 -9 -26 -17 -34 -17 -26 0 -48 -11 -42 -21 9 -15 81 -11 88 6 3 10 19 15 46 15 29 0 40 -4 40 -15 0 -11 -11 -15 -40 -15 -34 0 -40 -3 -40 -21 0 -18 4 -20 33 -15 17 3 39 2 46 -3 9 -6 22 -6 33 0 14 8 18 6 18 -7 0 -13 7 -15 35 -10 35 7 35 6 35 -28 0 -19 -5 -38 -10 -41 -6 -4 -8 -11 -4 -16 8 -13 -18 -69 -32 -69 -18 0 -23 25 -10 51 9 19 8 30 -3 56 -22 49 -33 40 -31 -24 2 -81 2 -83 -15 -83 -11 0 -15 13 -15 54 0 57 -15 84 -25 44 -2 -13 -6 -44 -7 -71 -5 -79 -23 -59 -26 28 -3 104 -7 113 -31 84 -18 -23 -20 -23 -38 -6 -21 19 -48 22 -58 7 -3 -5 17 -21 45 -35 28 -14 50 -31 47 -38 -5 -17 -110 -9 -120 9 -10 18 -56 18 -76 0 -26 -22 -83 -38 -95 -26 -5 5 -20 10 -33 10 -28 0 -49 35 -33 55 9 10 8 19 -4 37 -8 13 -16 43 -18 68 l-3 45 43 3 42 3 0 -41 c0 -33 6 -47 31 -70 30 -27 31 -28 11 -39 -11 -6 -31 -11 -44 -12 l-23 0 24 -10 c16 -6 37 -4 72 8 27 10 49 21 49 25 0 5 7 8 15 8 8 0 17 12 21 28 3 15 14 43 23 64 15 33 21 37 81 50 59 13 65 17 68 40 2 15 10 32 18 38 8 7 14 22 14 34 0 26 52 86 74 86 9 0 16 -7 16 -15z m54 -24 c3 -4 23 -11 45 -15 44 -7 62 -23 34 -32 -10 -3 -31 -11 -48 -19 -16 -7 -39 -16 -50 -20 -20 -6 -20 -6 0 -22 11 -8 33 -20 48 -25 32 -12 31 -31 -1 -36 -25 -4 -29 -27 -7 -36 8 -3 15 -13 15 -23 0 -10 7 -27 15 -37 16 -21 21 -111 6 -120 -11 -7 -21 27 -21 72 0 22 -6 34 -17 38 -10 3 -29 10 -42 15 -22 9 -23 11 -7 28 13 14 14 21 5 27 -7 4 -17 0 -24 -9 -14 -20 -35 -22 -34 -4 1 31 17 51 40 52 13 0 24 5 24 10 0 6 -13 10 -30 10 -26 0 -30 4 -33 31 -2 19 3 36 12 44 9 7 16 23 16 36 0 30 41 57 54 35z m75 -106 c24 -26 14 -33 -20 -15 -18 10 -27 40 -11 40 4 0 18 -12 31 -25z m-519 -116 c0 -10 -7 -19 -15 -19 -15 0 -21 31 -9 43 11 10 24 -3 24 -24z m120 -175 c0 -13 10 -15 58 -12 55 3 57 2 57 -22 0 -27 -4 -28 -70 -11 -22 5 -41 15 -43 20 -2 6 -14 11 -27 11 -13 0 -30 3 -39 6 -29 11 -16 24 24 24 30 0 40 -4 40 -16z"/> <path d="M6705 3580 c-19 -7 -19 -7 2 -14 13 -4 30 -3 39 2 15 8 14 10 -3 14 -10 3 -27 2 -38 -2z"/> <path d="M6797 3554 c-22 -23 60 -32 148 -17 36 6 38 7 15 14 -32 9 -155 11 -163 3z"/> <path d="M5564 3645 c-8 -19 44 -64 74 -65 12 0 22 -4 22 -10 0 -5 13 -10 29 -10 17 0 33 5 36 10 9 15 67 11 89 -5 27 -21 95 -20 103 1 8 20 -13 34 -53 34 -17 0 -37 7 -44 14 -9 11 -33 14 -100 13 -71 -2 -91 1 -107 16 -24 21 -42 22 -49 2z"/> <path d="M2413 3584 c-8 -21 101 -126 122 -118 34 13 10 58 -59 112 -34 26 -54 28 -63 6z"/> <path d="M2226 3565 c-12 -9 -20 -31 -24 -62 -3 -26 -11 -58 -19 -70 -21 -32 -13 -88 12 -88 16 0 21 8 23 35 2 19 8 40 14 47 5 7 13 36 17 65 5 29 10 59 12 67 6 19 -13 23 -35 6z"/> <path d="M4097 3534 c-9 -9 -9 -67 -1 -88 9 -24 33 -19 40 8 13 54 -12 107 -39 80z"/> <path d="M4410 3485 c-7 -8 -27 -15 -45 -15 -20 0 -35 -6 -39 -15 -3 -8 -16 -15 -29 -15 -14 0 -30 -7 -37 -15 -7 -8 -19 -15 -27 -15 -7 0 -16 -7 -20 -16 -4 -10 -17 -15 -37 -14 -82 5 -76 14 -76 -118 l0 -119 -37 -18 c-21 -10 -46 -22 -55 -26 -10 -5 -23 -9 -30 -9 -39 0 -128 -117 -128 -168 0 -26 58 -103 89 -118 12 -7 28 -17 34 -23 6 -6 23 -11 38 -11 15 0 40 -7 55 -15 16 -8 45 -15 64 -15 20 0 40 -4 46 -10 5 -5 27 -13 49 -18 l40 -8 1 -54 c1 -77 10 -107 36 -116 12 -3 28 -13 36 -20 7 -8 26 -14 41 -14 15 0 32 -5 39 -12 18 -18 209 -13 267 7 27 9 54 14 62 11 14 -6 17 -44 5 -62 -9 -13 -70 -44 -87 -44 -18 0 -65 -39 -65 -55 0 -20 31 -27 50 -10 9 8 22 15 28 15 6 0 17 6 24 13 41 38 87 50 203 51 128 1 125 3 125 -69 0 -49 -16 -65 -67 -65 -15 0 -41 -7 -57 -15 -15 -8 -34 -15 -42 -15 -7 0 -33 -9 -56 -21 -115 -57 -163 -82 -168 -88 -10 -14 -110 -71 -135 -77 -14 -3 -25 -10 -25 -15 0 -5 -11 -9 -25 -9 -14 0 -42 -8 -63 -17 -32 -14 -74 -17 -288 -17 -188 0 -255 3 -267 12 -8 7 -39 16 -68 19 -29 3 -64 12 -78 20 -15 7 -35 13 -46 13 -11 0 -29 7 -39 15 -11 8 -27 15 -36 15 -9 0 -33 16 -53 37 -27 27 -37 45 -37 69 0 18 -6 34 -14 37 -8 3 -22 22 -32 42 -21 45 -107 115 -139 115 -13 0 -27 5 -30 10 -8 13 -80 13 -103 1 -9 -6 -34 -13 -54 -16 -21 -3 -38 -10 -38 -15 0 -6 -9 -10 -19 -10 -11 0 -26 -7 -35 -15 -8 -8 -19 -15 -25 -15 -6 0 -41 -21 -78 -47 -51 -35 -80 -48 -118 -52 -41 -5 -50 -10 -55 -29 -5 -24 -40 -46 -91 -57 -19 -4 -40 -11 -49 -15 -20 -10 -123 -28 -228 -40 -45 -5 -92 -16 -104 -25 -13 -8 -40 -15 -61 -15 -74 0 -127 -62 -127 -148 0 -29 6 -56 14 -64 7 -8 17 -24 20 -36 4 -12 11 -22 15 -22 4 0 19 -9 32 -21 19 -16 31 -19 64 -13 22 3 45 10 50 15 6 4 29 11 52 15 l41 6 27 -53 c35 -72 89 -142 165 -216 50 -48 59 -63 49 -71 -8 -7 -27 -22 -44 -36 -28 -22 -29 -25 -15 -50 7 -15 29 -36 47 -47 28 -18 43 -20 93 -14 33 4 63 11 66 16 3 5 20 9 38 9 18 0 41 7 52 15 10 8 30 15 44 15 14 0 38 7 54 15 15 8 36 15 45 15 10 0 26 7 37 15 10 8 31 15 46 15 15 0 33 7 42 15 8 8 28 15 43 15 16 0 38 7 49 15 10 8 31 15 45 15 54 0 147 108 135 155 -4 14 -11 25 -16 25 -6 0 -10 6 -10 13 0 19 -123 134 -192 181 -32 21 -58 45 -58 53 0 14 67 144 79 153 4 3 11 15 16 28 l10 23 39 -34 c35 -32 38 -38 32 -70 -8 -43 7 -56 35 -31 12 11 23 14 27 8 13 -18 99 -84 111 -84 6 0 11 -4 11 -10 0 -5 12 -13 27 -16 15 -4 34 -13 41 -21 7 -7 24 -13 38 -13 13 0 24 -4 24 -10 0 -5 17 -12 38 -16 20 -4 46 -13 57 -20 11 -8 36 -14 56 -14 21 0 39 -5 41 -12 2 -6 31 -13 64 -16 32 -2 65 -9 72 -15 10 -8 75 -15 166 -17 4 0 7 -118 5 -262 l-4 -263 23 -3 23 -4 -3 265 -3 265 127 4 c82 2 132 8 140 16 7 7 32 12 58 12 25 0 58 7 74 15 15 8 42 15 60 15 17 0 44 7 60 15 15 8 42 15 60 15 17 1 49 7 71 15 30 11 92 15 240 15 148 1 210 5 240 15 22 8 50 15 62 15 29 0 99 37 121 64 22 26 75 52 125 61 20 3 37 10 37 15 0 6 10 10 23 10 12 0 39 11 60 25 64 44 45 100 -51 153 -22 12 -48 22 -56 22 -9 0 -16 5 -16 10 0 6 -15 10 -34 10 -43 0 -56 17 -20 26 44 11 301 -6 332 -22 15 -7 36 -14 48 -14 11 0 37 -16 58 -35 37 -33 38 -37 34 -85 -3 -28 -12 -58 -22 -68 -9 -10 -16 -28 -16 -40 0 -31 38 -29 50 2 5 13 14 27 19 31 6 3 11 17 11 31 0 13 5 24 10 24 6 0 10 11 10 24 0 14 -4 28 -10 31 -5 3 -10 14 -10 24 0 35 -94 111 -137 111 -10 0 -24 5 -31 12 -20 20 -261 28 -365 12 -64 -9 -96 -10 -118 -2 -19 6 -78 9 -148 6 -64 -3 -122 -3 -128 -1 -7 3 -13 19 -13 37 0 61 10 66 157 67 90 0 135 4 140 12 4 7 6 40 4 74 -2 48 1 64 12 69 22 8 343 -13 417 -28 47 -9 71 -20 87 -38 l21 -25 52 18 c29 10 55 15 58 11 4 -4 1 -9 -6 -11 -7 -3 -21 -13 -30 -24 -25 -26 -153 -30 -204 -5 -38 18 -69 19 -74 1 -2 -5 19 -21 47 -34 41 -20 54 -23 69 -13 14 8 21 9 26 1 8 -14 134 -6 143 9 3 5 26 20 50 33 35 18 47 20 60 11 9 -7 27 -18 41 -24 14 -7 27 -15 30 -18 3 -3 23 -17 45 -30 54 -33 70 -51 105 -116 25 -48 30 -68 30 -128 -1 -47 -6 -78 -15 -90 -8 -11 -15 -27 -15 -35 0 -22 -127 -141 -151 -141 -6 0 -23 -6 -37 -14 -15 -8 -43 -17 -62 -21 -46 -7 -85 -37 -77 -59 8 -20 37 -21 63 -1 10 8 28 15 40 15 11 0 29 7 40 15 10 8 27 15 36 15 9 0 23 6 30 13 7 6 29 23 48 36 42 28 120 122 120 143 0 9 7 21 15 28 11 9 15 34 15 101 0 64 -4 92 -15 103 -8 8 -15 21 -15 28 0 34 -133 168 -167 168 -7 0 -13 4 -13 9 0 5 -14 12 -31 16 -43 10 -47 31 -13 63 46 42 104 138 104 170 0 10 6 24 13 30 8 9 13 56 16 138 2 101 0 129 -13 149 -9 13 -16 30 -16 38 0 17 -25 49 -86 111 -61 61 -94 86 -111 86 -7 0 -13 4 -13 10 0 5 -12 13 -27 16 -16 4 -37 13 -48 20 -11 8 -31 14 -45 14 -14 0 -31 5 -37 11 -6 6 -53 14 -104 19 -52 5 -111 12 -132 16 -42 7 -107 -17 -107 -41 0 -40 10 -45 95 -45 61 0 86 -4 95 -15 16 -19 114 -21 108 -2 -3 7 -26 13 -56 15 -29 2 -52 7 -52 12 0 23 122 22 136 -1 3 -5 15 -9 26 -9 11 0 42 -10 67 -21 25 -12 62 -29 81 -38 37 -17 160 -135 160 -154 0 -7 7 -25 16 -42 23 -43 24 -228 1 -270 -9 -16 -17 -40 -17 -52 0 -13 -4 -23 -9 -23 -5 0 -13 -10 -17 -22 -4 -13 -27 -49 -52 -81 -43 -55 -87 -81 -101 -60 -3 6 -33 13 -65 16 -32 3 -64 11 -69 16 -6 6 -35 11 -64 11 -29 0 -53 4 -53 9 0 5 23 24 51 41 58 36 159 135 159 156 0 8 7 25 15 37 9 14 15 50 16 95 1 66 3 72 22 72 26 0 117 -95 117 -121 0 -11 7 -19 15 -19 10 0 15 11 15 35 0 19 -4 35 -10 35 -5 0 -10 6 -10 14 0 18 -57 76 -75 76 -7 0 -15 4 -17 10 -1 5 -13 11 -25 13 -12 2 -35 20 -52 41 -96 120 -244 152 -539 116 l-104 -12 -49 33 -50 34 2 70 2 70 -50 0 c-34 0 -57 6 -70 18 -11 9 -24 17 -30 17 -6 0 -16 7 -23 15 -7 8 -20 15 -30 15 -10 0 -20 7 -24 15 -3 8 -17 15 -31 15 -14 0 -42 7 -62 15 -28 12 -86 15 -283 15 -208 0 -250 -2 -260 -15z m445 -35 c-3 -5 -19 -10 -36 -10 -34 0 -41 -29 -9 -37 15 -4 19 -11 15 -24 -5 -14 -1 -19 14 -19 11 0 23 5 26 10 8 13 42 13 50 0 19 -31 -52 -80 -117 -80 -42 0 -54 24 -17 35 21 7 21 7 -2 19 -13 7 -23 19 -22 27 7 43 17 75 27 81 17 12 78 10 71 -2z m-136 -25 c16 -15 6 -94 -12 -100 -7 -2 -24 -6 -39 -9 -16 -4 -28 -13 -28 -20 0 -17 22 -22 124 -32 43 -3 90 -13 105 -20 14 -8 34 -14 43 -14 37 0 238 -120 238 -142 0 -4 7 -8 15 -8 8 0 15 -7 15 -15 0 -8 5 -15 10 -15 6 0 10 -7 10 -15 0 -28 -33 -15 -77 30 -23 25 -47 45 -52 45 -5 0 -11 7 -15 15 -3 8 -15 15 -26 15 -11 0 -23 7 -26 15 -4 8 -16 15 -29 15 -12 0 -28 7 -35 15 -7 8 -29 15 -49 15 -20 0 -45 7 -55 15 -16 12 -58 15 -211 15 -153 0 -195 -3 -211 -15 -10 -8 -31 -15 -46 -15 -15 0 -33 -7 -42 -15 -8 -8 -23 -15 -34 -15 -11 0 -25 -7 -32 -15 -7 -8 -20 -15 -30 -15 -10 0 -23 -7 -30 -15 -15 -18 -40 -20 -40 -2 0 14 92 77 112 77 8 0 19 5 26 12 20 20 84 40 157 48 39 5 79 12 90 16 27 10 65 46 65 62 0 17 -30 15 -51 -4 -11 -10 -25 -14 -36 -9 -17 6 -16 8 4 25 l23 18 -22 14 c-15 10 -19 20 -14 35 6 19 16 23 64 25 76 4 124 -2 141 -17z m231 5 c12 -8 12 -10 -3 -16 -20 -7 -47 1 -47 16 0 12 30 13 50 0z m83 -16 c-3 -9 -19 -30 -34 -47 -28 -31 -38 -57 -20 -57 4 0 29 18 55 41 39 35 46 38 46 21 0 -11 -6 -23 -12 -26 -10 -3 -8 -9 5 -19 9 -8 17 -17 17 -21 0 -10 -34 -40 -70 -60 l-33 -19 -18 24 c-21 28 -25 106 -6 129 14 18 58 50 69 50 4 0 5 -7 1 -16z m-572 -22 c7 -17 4 -27 -11 -40 -24 -20 -26 -32 -5 -32 8 0 15 -7 15 -15 0 -8 -5 -15 -10 -15 -6 0 -13 7 -16 15 -8 20 -33 19 -55 -1 -30 -27 -51 -11 -43 33 10 59 21 71 62 76 51 5 54 4 63 -21z m-176 -87 c0 -36 -4 -41 -45 -66 -66 -41 -84 -41 -88 -2 -3 27 4 39 39 73 31 30 50 40 69 38 22 -3 25 -8 25 -43z m855 35 c0 -5 -10 -10 -22 -10 -19 0 -20 2 -8 10 19 13 30 13 30 0z m52 -18 c-7 -2 -12 -10 -12 -18 0 -8 -7 -14 -15 -14 -8 0 -15 7 -15 15 0 8 6 15 14 15 8 0 17 8 21 18 6 14 8 14 13 3 3 -8 0 -17 -6 -19z m-278 -53 c-8 -14 -34 -11 -34 4 0 8 3 17 7 20 9 9 34 -13 27 -24z m187 -41 c-3 -24 -10 -43 -16 -42 -23 3 -55 17 -55 25 0 14 36 47 57 52 10 3 18 5 19 6 0 0 -2 -18 -5 -41z m111 -4 c10 -20 9 -30 -4 -52 -14 -23 -14 -28 -1 -48 16 -25 10 -44 -13 -44 -8 0 -14 9 -14 20 0 11 -9 29 -20 40 -23 23 -18 76 8 98 23 18 31 15 44 -14z m-395 -39 c19 -8 45 -15 57 -15 45 0 169 -73 248 -146 34 -32 42 -34 103 -34 36 0 82 -7 102 -15 19 -8 46 -15 59 -15 32 0 64 -34 64 -68 0 -16 -11 -42 -25 -57 -25 -30 -24 -31 -39 19 -3 8 -35 18 -85 26 -61 9 -84 17 -92 31 -11 22 -45 25 -56 5 -6 -11 -39 -15 -128 -19 -130 -4 -256 -24 -267 -41 -4 -6 -7 -78 -6 -161 l1 -150 -64 -8 c-158 -21 -311 -5 -356 36 -20 18 -22 27 -16 77 5 54 4 57 -27 83 -18 15 -44 27 -60 27 -16 0 -30 5 -32 11 -2 5 -24 13 -48 16 -25 2 -59 11 -77 19 -17 8 -39 14 -49 14 -33 0 -93 35 -99 58 -3 12 -10 22 -15 22 -25 0 3 83 40 120 10 10 29 21 42 25 12 4 26 12 29 18 4 5 42 12 85 15 44 3 88 11 99 18 11 8 27 14 37 14 10 0 18 4 18 10 0 5 12 13 28 16 15 4 36 13 47 20 11 8 29 14 41 14 12 0 35 7 50 15 41 21 339 21 391 0z m513 -40 c0 -21 -39 -58 -55 -51 -18 6 -21 66 -4 83 14 14 59 -11 59 -32z m465 -3 c33 -4 69 -13 80 -19 11 -6 28 -14 38 -17 49 -15 0 -22 -162 -21 -131 0 -183 -3 -192 -12 -7 -7 -22 -13 -34 -13 -11 0 -44 -16 -74 -35 -43 -28 -56 -33 -72 -24 -11 5 -38 13 -61 17 -23 4 -43 13 -46 20 -2 6 1 12 7 12 5 0 24 13 41 29 39 36 81 48 196 56 50 4 97 11 105 16 14 10 48 8 174 -9z m142 -111 c10 -5 27 -12 37 -15 17 -6 18 -14 13 -86 -3 -51 -13 -95 -26 -123 -32 -66 -147 -177 -184 -177 -7 0 -18 -5 -24 -11 -8 -8 -47 -11 -115 -9 -57 2 -134 4 -173 4 l-70 1 -3 63 -3 62 51 54 c45 48 50 57 50 99 0 34 -6 51 -20 65 l-21 19 25 17 c14 9 33 16 42 16 9 0 30 7 47 15 18 8 52 16 77 19 72 6 277 -2 297 -13z m-619 -199 c-5 -14 -146 -132 -157 -132 -6 0 -11 6 -11 14 0 23 -40 47 -60 36 -10 -5 -33 -7 -52 -3 -31 5 -39 1 -57 -24 l-22 -29 -68 65 c-38 36 -66 69 -64 74 6 10 495 9 491 -1z m40 -187 c1 -85 -3 -157 -7 -160 -5 -2 -45 32 -89 78 l-81 82 82 81 c45 45 85 80 88 78 4 -2 7 -73 7 -159z m-475 -77 c-41 -42 -77 -77 -81 -77 -7 -1 -13 275 -7 297 3 7 37 -19 83 -65 l79 -78 -74 -77z m257 100 c0 -21 -60 -88 -78 -88 -29 0 -62 49 -62 92 0 26 4 38 14 38 8 0 18 -4 21 -10 3 -5 15 -15 26 -20 16 -9 21 -7 29 16 l11 27 19 -21 c11 -12 20 -27 20 -34z m-131 -102 c32 -52 59 -53 101 -6 31 36 70 53 70 32 0 -11 76 -89 105 -108 14 -9 25 -20 25 -25 0 -5 -107 -9 -240 -9 -132 0 -240 3 -240 7 0 9 142 143 151 143 4 0 17 -15 28 -34z m-1741 -207 c44 -11 88 -47 150 -123 16 -20 16 -20 -19 -61 -26 -29 -29 -38 -19 -50 17 -20 26 -19 50 7 l20 22 36 -43 c36 -41 123 -91 161 -91 10 0 27 -7 37 -15 11 -8 38 -15 61 -15 23 0 46 -5 51 -10 15 -15 199 -34 324 -33 127 0 267 16 283 32 6 6 26 11 43 11 18 0 39 7 48 15 8 8 21 15 28 15 14 1 59 27 140 81 29 20 63 40 76 43 12 4 22 12 22 17 0 5 10 9 23 9 13 0 32 7 43 15 10 8 26 15 34 15 8 0 28 7 43 15 15 8 43 17 63 21 19 3 37 10 40 15 12 20 24 -4 24 -47 0 -41 -11 -57 -25 -34 -9 15 -65 12 -65 -3 0 -17 91 -57 128 -57 15 0 40 7 56 15 15 8 39 15 51 15 33 0 55 10 55 25 0 26 -75 28 -107 3 -21 -16 -33 1 -33 47 0 31 5 45 17 49 23 9 272 -5 279 -15 2 -4 25 -11 49 -15 25 -3 45 -10 45 -14 0 -5 18 -11 40 -15 22 -4 40 -11 40 -16 0 -5 12 -12 27 -15 15 -4 32 -11 38 -16 5 -4 21 -17 35 -27 20 -16 23 -23 14 -37 -6 -10 -26 -22 -45 -27 -19 -5 -38 -13 -43 -18 -6 -5 -21 -9 -34 -9 -36 0 -93 -30 -129 -67 -17 -18 -39 -33 -47 -33 -9 0 -16 -4 -16 -9 0 -4 -27 -11 -60 -15 -33 -4 -62 -11 -65 -16 -4 -6 -91 -10 -208 -10 -111 0 -220 -5 -242 -11 -22 -6 -61 -14 -87 -18 -25 -4 -52 -12 -60 -18 -7 -6 -37 -14 -65 -18 -29 -4 -53 -10 -53 -14 0 -5 -35 -11 -77 -15 -42 -3 -82 -11 -87 -16 -14 -14 -369 -13 -382 0 -6 6 -41 13 -79 17 -38 3 -80 12 -95 20 -14 7 -40 13 -57 13 -18 0 -33 4 -33 9 0 5 -15 12 -32 16 -18 3 -46 12 -63 20 -16 7 -50 23 -74 34 -25 11 -75 40 -113 63 -69 44 -70 46 -57 98 3 11 -5 15 -31 15 -23 0 -48 10 -72 29 -41 31 -47 51 -23 82 8 10 15 31 15 46 0 41 -39 47 -98 17 -26 -12 -51 -27 -57 -31 -5 -5 -31 -24 -57 -43 -25 -19 -57 -49 -69 -67 -13 -18 -42 -51 -65 -73 -50 -47 -114 -166 -114 -212 0 -18 -4 -33 -8 -33 -19 0 -32 -53 -26 -100 5 -38 3 -53 -10 -65 -9 -9 -16 -25 -16 -35 0 -10 -5 -22 -11 -26 -7 -4 -8 -9 0 -17 11 -11 61 16 61 35 0 16 40 48 62 48 10 0 18 4 18 8 0 5 17 16 38 25 44 20 112 88 112 113 0 9 16 32 35 51 l34 33 44 -43 c24 -23 60 -51 80 -62 60 -32 46 -65 -28 -65 -19 0 -37 -4 -40 -10 -3 -5 -19 -10 -35 -10 -38 0 -60 -9 -60 -25 0 -27 59 -33 103 -10 15 8 43 17 63 21 19 3 37 10 40 15 3 5 15 9 28 9 16 0 27 -10 40 -41 17 -39 17 -41 -1 -61 -41 -48 -52 -55 -89 -61 -21 -4 -40 -11 -42 -17 -2 -5 -18 -10 -36 -10 -17 0 -40 -6 -51 -14 -11 -7 -37 -16 -57 -20 -21 -4 -38 -11 -38 -16 0 -6 -13 -10 -28 -10 -16 0 -37 -7 -48 -15 -10 -8 -28 -15 -39 -15 -11 0 -32 -6 -46 -14 -14 -7 -43 -16 -65 -20 -21 -5 -45 -12 -51 -18 -21 -17 -43 -1 -43 31 0 33 30 58 83 68 17 3 37 9 42 13 6 4 23 10 38 14 20 5 27 12 25 24 -4 23 -51 28 -71 7 -9 -8 -29 -18 -46 -21 -17 -4 -36 -13 -42 -20 -21 -25 -40 -15 -107 58 -137 146 -144 157 -122 197 10 19 8 21 -25 21 -24 0 -35 5 -35 14 0 8 -6 21 -13 28 -8 7 -17 26 -21 41 -3 15 -11 27 -16 27 -6 0 -10 7 -10 14 0 22 -58 104 -87 123 -42 28 -9 46 99 53 52 3 100 10 108 15 8 5 42 12 75 16 33 4 61 12 63 18 2 6 14 11 27 11 28 0 248 111 275 140 10 10 46 31 73 41 15 6 27 15 27 20 0 5 7 9 16 9 8 0 25 6 37 12 12 7 47 18 77 24 30 6 56 12 58 13 2 0 24 -4 50 -10z m-48 -134 c0 -6 -6 -19 -33 -73 -9 -19 -17 -40 -17 -47 0 -20 -38 -55 -78 -72 -26 -11 -32 -18 -27 -33 5 -15 0 -22 -20 -30 -28 -11 -26 -30 4 -30 10 0 21 -3 24 -7 7 -6 -59 -94 -76 -101 -4 -2 -21 -15 -38 -29 -23 -20 -27 -28 -18 -39 11 -14 5 -34 -12 -34 -6 0 -25 -11 -43 -25 -18 -14 -40 -25 -49 -25 -14 0 -14 3 -1 30 9 16 19 32 25 35 15 10 10 45 -6 45 -19 0 -20 58 -1 85 7 11 16 32 20 48 8 32 46 39 46 9 0 -22 -27 -79 -41 -87 -15 -10 -11 -55 6 -55 8 0 15 7 15 14 0 8 14 35 30 59 17 25 30 49 30 55 0 5 7 15 15 22 20 17 19 40 -2 56 -17 12 -17 14 2 49 11 21 25 40 32 42 7 3 13 11 13 19 0 8 7 14 15 14 8 0 15 -6 15 -14 0 -8 -7 -16 -15 -20 -8 -3 -15 -14 -15 -25 0 -10 -7 -21 -15 -25 -17 -6 -21 -46 -5 -46 6 0 14 8 17 18 4 9 26 43 50 74 24 31 43 60 43 64 0 14 76 83 93 84 9 0 17 -2 17 -5z m-986 -236 c35 -27 34 -49 -2 -49 -15 0 -33 -5 -40 -12 -17 -17 -15 -47 3 -54 15 -6 21 -55 9 -67 -11 -11 -52 24 -69 60 -22 45 -13 95 22 123 32 25 44 25 77 -1z m95 -126 c10 -34 1 -43 -40 -43 -10 0 -19 -4 -19 -10 0 -5 -7 -10 -15 -10 -11 0 -15 11 -15 39 0 22 -5 41 -12 43 -17 6 0 28 22 28 10 0 22 5 26 11 9 16 42 -20 53 -58z m329 -486 c5 -38 -25 -48 -50 -17 -19 23 -19 24 4 36 31 18 42 13 46 -19z"/> <path d="M4669 3409 c-8 -5 -34 -9 -59 -9 l-45 -1 43 -21 c48 -23 94 -17 100 13 4 20 -20 31 -39 18z"/> <path d="M4300 3083 c-8 -3 -19 -12 -23 -19 -4 -8 -18 -14 -31 -14 -13 0 -29 -7 -36 -15 -9 -11 -32 -15 -82 -15 -55 0 -75 -4 -98 -22 -17 -12 -30 -27 -30 -34 0 -26 23 -26 46 0 22 23 33 26 87 26 39 1 69 6 81 15 11 8 28 15 39 15 10 0 25 7 33 15 9 8 24 15 35 15 12 0 19 7 19 20 0 20 -11 24 -40 13z"/> <path d="M4522 3048 c-18 -18 5 -38 44 -38 20 0 52 -11 77 -27 79 -51 128 -60 141 -26 9 23 0 30 -54 37 -27 4 -50 11 -50 17 0 5 -8 13 -17 16 -10 4 -24 13 -31 20 -17 16 -94 17 -110 1z"/> <path d="M5072 2948 c5 -15 78 -24 78 -10 0 13 -25 22 -57 22 -15 0 -23 -5 -21 -12z"/> <path d="M4185 2945 c-5 -2 -23 -6 -38 -9 -20 -5 -27 -12 -25 -24 3 -14 16 -17 78 -17 73 0 113 -14 145 -51 6 -8 32 -10 73 -7 51 5 62 9 60 22 -2 12 -17 17 -57 19 -30 2 -60 10 -68 18 -8 8 -21 14 -29 14 -8 0 -14 4 -14 9 0 14 -100 35 -125 26z"/> <path d="M4343 2807 c-10 -16 15 -30 66 -35 41 -4 52 -1 57 12 4 9 5 18 3 20 -10 9 -121 12 -126 3z"/> <path d="M4421 2662 c-16 -5 -13 -29 5 -36 9 -3 37 -6 64 -6 47 0 78 18 66 39 -6 9 -109 12 -135 3z"/> <path d="M5686 2763 c-4 -5 -38 -8 -74 -8 -55 0 -67 -3 -70 -17 -5 -26 38 -33 151 -28 27 1 54 -3 60 -9 13 -13 64 -15 72 -2 7 12 -39 44 -84 59 -40 14 -45 14 -55 5z"/> <path d="M5359 2098 c-10 -18 -8 -24 7 -35 24 -17 39 -16 55 3 11 14 9 19 -11 35 -32 24 -37 24 -51 -3z"/> <path d="M4787 2033 c-4 -3 -7 -15 -7 -25 0 -22 42 -25 59 -5 19 23 -31 52 -52 30z"/> <path d="M4958 2003 c-30 -7 -20 -21 28 -43 76 -33 98 -21 48 25 -26 24 -40 28 -76 18z"/> <path d="M3777 1913 c-21 -20 24 -46 62 -36 25 6 28 28 5 37 -21 8 -59 8 -67 -1z"/> <path d="M4100 1876 c0 -40 12 -53 30 -31 16 19 9 59 -12 63 -14 3 -18 -4 -18 -32z"/> <path d="M4430 1897 c0 -22 34 -47 62 -47 32 0 88 30 88 48 0 14 -46 16 -55 2 -3 -5 -17 -10 -30 -10 -13 0 -27 5 -30 10 -9 15 -35 12 -35 -3z"/> <path d="M2567 3445 c-13 -13 -14 -21 -5 -40 6 -14 14 -25 18 -25 4 0 10 -9 13 -20 6 -22 36 -27 54 -9 12 12 -13 63 -46 93 -17 15 -20 16 -34 1z"/> <path d="M1094 3375 c-8 -21 4 -35 31 -35 24 0 24 -3 27 -87 3 -80 5 -88 23 -88 19 0 20 6 18 87 l-2 87 27 3 c19 2 28 10 30 26 3 21 0 22 -73 22 -57 0 -77 -4 -81 -15z"/> <path d="M1286 3379 c-10 -31 -15 -195 -7 -208 5 -8 16 -11 25 -8 23 9 24 198 1 217 -12 10 -16 10 -19 -1z"/> <path d="M1373 3378 c-13 -22 -15 -188 -2 -204 18 -22 65 -17 96 10 26 22 28 30 27 92 0 60 -3 69 -28 91 -29 25 -80 31 -93 11z m75 -50 c15 -15 16 -72 2 -99 -6 -10 -20 -19 -30 -19 -18 0 -20 7 -20 65 0 56 3 65 18 65 10 0 23 -5 30 -12z"/> <path d="M1549 3380 c-13 -8 -16 -27 -15 -105 2 -106 6 -115 64 -115 55 0 94 64 60 98 -10 10 -10 17 0 32 18 29 15 44 -13 74 -25 27 -66 34 -96 16z m75 -53 c12 -20 -7 -39 -34 -34 -20 3 -26 37 -8 48 17 11 29 7 42 -14z m6 -101 c0 -17 -25 -27 -45 -20 -18 7 -19 26 -3 42 14 14 48 -2 48 -22z"/> <path d="M1775 3381 c-11 -5 -32 -6 -47 -4 l-28 6 0 -107 0 -107 28 3 27 3 -4 88 -3 88 33 -3 34 -3 1 -83 c0 -86 9 -107 38 -96 15 6 17 18 15 87 -3 80 -3 81 24 90 18 6 27 15 25 26 -3 12 -16 16 -63 18 -33 1 -69 -2 -80 -6z"/> <path d="M1957 3372 c-30 -33 -21 -66 28 -101 25 -18 45 -37 45 -42 0 -16 -32 -23 -51 -11 -27 17 -39 15 -39 -7 0 -30 28 -51 65 -51 43 0 65 22 65 66 0 34 -4 39 -65 89 l-30 24 42 1 c46 0 61 13 43 35 -18 21 -83 19 -103 -3z"/> <path d="M2639 3304 c-9 -11 -10 -20 -2 -33 6 -9 14 -31 18 -49 6 -27 11 -32 36 -32 25 0 29 4 29 29 0 17 -4 32 -9 35 -4 3 -11 19 -14 36 -7 34 -36 41 -58 14z"/> <path d="M2141 3244 c-26 -44 -26 -44 4 -44 28 0 49 31 40 60 -9 29 -20 25 -44 -16z"/> <path d="M3770 3253 c0 -12 -59 -43 -82 -43 -12 0 -26 6 -32 14 -6 7 -23 16 -38 20 -24 6 -28 3 -28 -16 0 -16 12 -30 40 -45 44 -26 77 -29 105 -10 36 25 53 26 90 6 50 -27 120 -23 120 6 0 16 -8 21 -39 23 -21 2 -56 14 -77 28 -39 24 -59 30 -59 17z"/> <path d="M5870 3245 c0 -9 9 -15 24 -15 30 0 42 15 20 24 -27 10 -44 7 -44 -9z"/> <path d="M5960 3215 c0 -9 5 -15 11 -13 6 2 11 8 11 13 0 5 -5 11 -11 13 -6 2 -11 -4 -11 -13z"/> <path d="M2923 3193 c-3 -8 -3 -16 0 -19 12 -13 85 -23 125 -17 32 4 47 2 61 -11 14 -13 34 -16 87 -14 61 3 69 5 69 23 0 18 -8 20 -70 23 -45 2 -72 8 -77 16 -11 20 -188 18 -195 -1z"/> <path d="M2280 3187 c0 -7 6 -22 14 -32 11 -15 30 -19 102 -23 49 -2 104 -10 122 -18 43 -20 77 -15 77 11 0 14 -8 21 -25 23 -14 2 -31 9 -38 15 -8 6 -51 13 -98 15 -46 3 -87 8 -90 13 -8 14 -64 11 -64 -4z"/> <path d="M6046 3191 c-3 -4 13 -23 36 -42 23 -19 48 -42 56 -51 15 -16 32 -16 32 1 0 12 -54 67 -72 74 -10 4 -18 11 -18 17 0 12 -27 14 -34 1z"/> <path d="M2687 3143 c-3 -4 -6 -39 -8 -78 -4 -66 -3 -70 18 -73 27 -4 35 21 31 98 -2 42 -7 56 -20 58 -9 2 -18 -1 -21 -5z"/> <path d="M2099 3124 c-19 -23 -25 -124 -8 -135 22 -13 39 11 39 57 0 23 5 46 10 49 6 3 10 15 10 26 0 23 -32 26 -51 3z"/> <path d="M2804 3105 c-8 -21 4 -35 30 -35 12 0 27 -5 33 -11 6 -6 48 -13 94 -16 46 -3 90 -10 97 -16 17 -14 144 -20 162 -8 26 18 -5 34 -72 39 -35 2 -68 8 -74 13 -5 4 -43 11 -83 14 -40 4 -88 13 -106 21 -44 18 -74 18 -81 -1z"/> <path d="M1187 3060 c-37 -4 -73 -12 -79 -18 -7 -7 -24 -12 -39 -12 -37 0 -59 -9 -59 -25 0 -25 86 -27 117 -3 7 6 36 10 64 10 29 -1 61 4 71 9 20 11 25 50 6 48 -7 -1 -44 -5 -81 -9z"/> <path d="M3274 3018 c-13 -21 28 -38 96 -38 36 0 71 -5 77 -11 7 -7 47 -14 90 -16 43 -3 92 -11 110 -19 44 -20 122 -19 130 2 7 20 -13 34 -52 34 -16 0 -48 7 -70 15 -22 8 -68 14 -101 15 -34 0 -74 7 -90 15 -35 18 -179 21 -190 3z"/> <path d="M2053 2930 c-3 -17 -10 -33 -14 -36 -18 -10 -9 -44 10 -44 42 0 69 68 39 98 -19 19 -28 14 -35 -18z"/> <path d="M2626 2942 c-4 -10 -20 -33 -37 -50 -33 -34 -33 -62 -1 -62 27 0 102 88 102 120 0 19 -58 11 -64 -8z"/> <path d="M6727 2919 c-15 -11 -27 -27 -27 -35 0 -8 -4 -14 -10 -14 -21 0 -10 -85 15 -123 60 -87 151 -12 132 108 -11 65 -67 98 -110 64z m54 -49 c34 -19 19 -110 -18 -110 -39 0 -59 81 -25 106 21 16 19 16 43 4z"/> <path d="M7425 2928 c-48 -27 -46 -59 5 -109 50 -50 51 -63 4 -55 -34 7 -35 6 -32 -21 3 -25 8 -28 42 -31 32 -3 43 1 58 20 33 43 14 95 -41 113 -12 3 -21 15 -21 25 0 16 5 18 30 14 26 -6 30 -3 30 14 0 12 -9 26 -19 32 -24 12 -31 12 -56 -2z"/> <path d="M6404 2918 c-4 -6 -11 -50 -15 -97 -7 -90 -1 -111 32 -111 18 0 23 8 20 40 0 8 2 20 7 25 8 12 69 55 77 55 3 0 5 -27 5 -61 0 -52 2 -60 17 -57 9 2 20 14 23 28 9 37 36 37 49 0 6 -19 16 -30 23 -27 15 5 13 60 -2 65 -13 5 -13 29 0 34 6 2 13 19 16 39 12 70 -64 104 -116 54 l-27 -26 -17 26 c-12 19 -25 25 -51 25 -18 0 -37 -5 -41 -12z m70 -79 c-20 -22 -34 -16 -34 15 0 32 11 39 32 19 17 -15 17 -18 2 -34z m146 15 c0 -17 -15 -25 -34 -18 -19 7 -21 25 -4 42 13 13 38 -2 38 -24z"/> <path d="M6920 2910 c-6 -12 -10 -51 -8 -88 3 -63 2 -67 -18 -64 -24 3 -52 -24 -38 -38 13 -12 45 -15 72 -6 21 7 22 13 22 106 0 99 -10 128 -30 90z"/> <path d="M7000 2915 c-15 -19 -22 -174 -7 -192 5 -7 31 -13 58 -13 42 0 49 3 49 20 0 15 -7 20 -27 20 -16 0 -34 4 -42 9 -17 11 -7 41 12 41 8 0 20 7 27 15 10 12 6 17 -22 28 l-33 14 25 11 c14 6 33 13 43 16 11 4 17 13 15 23 -4 25 -79 31 -98 8z"/> <path d="M7143 2897 c-49 -72 -17 -187 52 -187 17 0 36 5 43 12 17 17 15 58 -3 58 -8 0 -15 -4 -15 -10 0 -16 -47 -11 -54 6 -8 21 -7 67 2 80 4 6 30 14 58 18 67 8 75 -1 64 -79 -9 -65 3 -94 34 -82 13 5 16 22 16 79 0 59 4 76 21 94 30 32 16 44 -51 44 -46 0 -59 -4 -65 -17 -6 -17 -7 -17 -16 0 -17 29 -61 21 -86 -16z"/> <path d="M2475 2803 c-52 -36 -67 -74 -33 -81 24 -5 108 57 108 78 0 38 -24 38 -75 3z"/> <path d="M2017 2767 c-31 -53 -37 -124 -11 -134 21 -8 34 14 34 58 0 20 7 42 15 49 19 15 19 31 2 54 -13 17 -16 15 -40 -27z"/> <path d="M2330 2715 c-7 -8 -18 -15 -26 -15 -17 0 -44 -28 -44 -46 0 -23 27 -28 63 -10 54 26 81 52 74 70 -8 20 -50 21 -67 1z"/> <path d="M3361 2716 c-16 -19 -56 -25 -124 -17 -54 7 -57 6 -51 -13 10 -34 19 -38 93 -38 48 -1 78 4 95 15 21 14 26 14 36 2 7 -8 21 -15 31 -15 10 0 21 -4 24 -10 3 -5 22 -10 41 -10 19 0 34 5 34 10 0 15 36 12 50 -5 7 -8 22 -15 34 -15 11 0 30 -7 40 -15 39 -29 95 -10 76 25 -6 11 -33 22 -72 30 -35 8 -68 20 -74 28 -8 12 -19 13 -50 5 -44 -10 -114 2 -127 24 -10 17 -41 17 -56 -1z"/> <path d="M4098 2632 c-3 -11 -3 -63 0 -116 4 -82 7 -96 21 -94 14 3 16 20 16 113 0 93 -2 110 -16 113 -9 2 -19 -5 -21 -16z"/> <path d="M1400 2626 c0 -8 8 -28 17 -45 20 -34 11 -51 -17 -33 -11 7 -22 12 -24 12 -13 0 -28 -94 -36 -227 -9 -147 -22 -206 -57 -245 -18 -20 -10 -25 47 -30 30 -3 35 -7 38 -30 4 -31 11 -35 31 -15 8 8 43 12 99 12 80 0 87 2 87 20 0 17 -8 20 -61 23 l-61 3 -1 240 c-1 203 1 241 13 246 19 7 20 63 2 63 -7 0 -18 -5 -24 -11 -8 -8 -14 -5 -22 10 -13 24 -31 28 -31 7z m30 -146 c0 -23 -5 -30 -19 -30 -11 0 -27 7 -35 16 -28 27 -18 44 26 44 24 0 28 -4 28 -30z m-4 -96 c4 -14 2 -41 -3 -59 -6 -19 -7 -39 -2 -46 15 -24 10 -55 -12 -75 -17 -16 -22 -16 -29 -4 -14 22 -12 53 4 75 12 16 12 24 -1 51 -20 40 -11 84 17 84 13 0 22 -9 26 -26z m4 -270 c0 -43 -13 -64 -25 -44 -4 6 -18 15 -31 20 -32 12 -30 39 4 66 35 29 52 16 52 -42z"/> <path d="M2214 2632 c-21 -16 -34 -55 -34 -102 l0 -51 31 3 32 3 3 71 c3 53 0 73 -9 77 -8 3 -18 2 -23 -1z"/> <path d="M7325 2600 c-19 -38 -20 -129 -1 -144 11 -8 15 -38 16 -116 1 -58 1 -111 1 -117 -1 -18 -31 -16 -31 1 0 7 -7 19 -15 26 -19 16 -19 57 0 90 18 32 20 120 2 120 -7 0 -18 -9 -25 -20 -7 -11 -20 -20 -30 -20 -38 0 -132 -114 -147 -178 -6 -29 -10 -32 -46 -32 -22 0 -47 -4 -57 -9 -9 -6 -29 -12 -44 -16 -65 -13 -5 -65 75 -65 31 0 47 5 51 15 4 12 27 15 116 15 105 0 112 -1 134 -25 21 -22 23 -32 19 -102 -5 -93 -10 -110 -24 -96 -6 6 -11 52 -12 102 -2 85 -10 111 -23 76 -8 -19 -51 -19 -84 0 -24 14 -130 21 -130 9 0 -4 14 -22 30 -41 17 -18 30 -40 30 -48 0 -20 98 -115 118 -115 10 0 27 -7 39 -15 20 -14 25 -30 39 -127 3 -21 12 -42 20 -49 21 -17 54 45 54 104 0 38 5 53 23 68 12 10 29 18 38 19 24 0 119 94 119 117 0 11 9 30 20 43 11 13 20 29 20 37 0 9 14 13 45 13 24 0 56 5 70 12 34 15 33 46 -2 54 -16 3 -38 10 -51 15 -13 5 -33 9 -45 9 -16 0 -27 11 -41 43 -10 23 -22 49 -27 57 -5 8 -12 21 -16 29 -9 20 -41 51 -52 51 -5 0 -14 7 -21 15 -7 8 -27 17 -46 21 -32 6 -34 9 -34 47 0 22 -4 54 -10 71 -5 17 -12 43 -15 59 -7 35 -31 35 -50 -3z m77 -283 c2 -69 7 -97 16 -97 6 0 12 5 12 10 0 15 32 12 54 -5 11 -8 37 -15 58 -15 26 0 38 -4 38 -14 0 -11 -19 -15 -82 -18 -78 -3 -84 -2 -105 22 -20 22 -22 36 -23 121 0 53 3 99 7 103 16 15 23 -16 25 -107z m-122 61 c-1 -18 -50 -52 -60 -42 -16 17 8 54 35 54 14 0 25 -6 25 -12z m192 -5 c20 -18 24 -43 7 -43 -7 0 -18 -8 -25 -17 -7 -10 -16 -15 -20 -11 -4 4 -1 15 6 23 10 12 10 19 2 27 -15 15 -15 38 0 38 6 0 20 -7 30 -17z m-272 -72 c0 -23 -28 -61 -45 -61 -22 0 -28 20 -12 38 7 9 17 25 20 34 8 22 37 13 37 -11z m353 -27 c3 -17 0 -28 -10 -31 -21 -8 -36 11 -28 36 9 29 32 26 38 -5z m-263 -54 c11 -11 20 -24 20 -30 0 -13 -197 -14 -204 -1 -7 11 17 21 53 21 15 0 36 7 47 15 27 20 61 18 84 -5z m323 -85 c-1 -5 -22 -12 -45 -15 -24 -3 -53 -11 -65 -18 -31 -17 -64 -15 -79 5 -18 25 -30 8 -14 -21 10 -19 10 -34 1 -70 -6 -25 -11 -63 -11 -85 0 -30 -4 -41 -15 -41 -12 0 -15 18 -16 95 -1 52 -2 100 -3 105 -1 6 8 22 19 35 19 23 24 24 125 22 64 -1 104 -6 103 -12z m-417 -81 c7 -27 -1 -44 -22 -44 -8 0 -14 10 -14 24 0 13 -8 27 -17 30 -14 6 -15 9 -4 15 21 13 51 1 57 -25z m369 26 c18 -7 19 -8 3 -15 -10 -4 -18 -18 -18 -31 0 -15 -6 -24 -15 -24 -22 0 -28 22 -16 53 11 29 15 30 46 17z m-297 -103 c23 -25 20 -37 -9 -37 -18 0 -39 27 -39 49 0 19 26 12 48 -12z m222 5 c0 -23 -19 -42 -42 -42 -22 0 -23 18 -1 42 21 23 43 23 43 0z"/> <path d="M396 2567 c-10 -23 -25 -55 -32 -71 -8 -16 -14 -34 -14 -39 0 -5 -9 -28 -19 -51 -36 -76 -51 -114 -51 -124 0 -6 -6 -23 -14 -39 -25 -48 -46 -100 -46 -115 0 -7 -7 -22 -15 -32 -8 -11 -15 -30 -15 -43 0 -13 -4 -23 -9 -23 -5 0 -13 -15 -16 -32 -4 -18 -14 -42 -21 -53 -8 -11 -14 -30 -14 -42 0 -13 -4 -23 -10 -23 -5 0 -12 -12 -16 -27 -3 -16 -12 -41 -19 -58 -33 -73 -45 -104 -45 -112 0 -6 -7 -25 -16 -42 -19 -39 -33 -168 -17 -158 6 4 14 23 17 42 4 19 11 35 16 35 4 0 12 15 15 33 4 17 14 41 21 52 8 11 14 30 14 42 0 13 4 23 10 23 5 0 12 12 16 28 6 26 24 71 51 124 7 14 13 33 13 41 0 9 6 28 14 44 27 51 46 101 46 116 0 9 4 18 9 21 5 3 12 18 15 33 4 16 13 42 21 58 30 66 45 104 45 117 0 7 7 22 15 32 8 11 15 30 15 43 0 13 4 23 9 23 5 0 12 18 16 40 4 22 11 42 16 46 5 3 9 15 9 28 0 12 7 31 15 42 18 23 20 64 3 64 -7 0 -21 -20 -32 -43z"/> <path d="M1972 2598 c-7 -7 -12 -24 -12 -39 0 -15 -7 -40 -15 -55 -8 -16 -15 -45 -15 -64 0 -19 -7 -44 -15 -54 -20 -27 -20 -105 0 -113 22 -8 26 -1 32 49 3 24 12 52 19 63 8 11 14 38 14 60 0 22 7 49 15 59 30 40 9 126 -23 94z"/> <path d="M6050 2585 c0 -8 7 -15 15 -15 8 0 15 7 15 15 0 8 -7 15 -15 15 -8 0 -15 -7 -15 -15z"/> <path d="M6669 2491 c-13 -9 -25 -19 -27 -23 -6 -14 -72 -8 -97 8 -27 18 -55 13 -55 -10 0 -23 63 -56 106 -56 22 0 52 9 69 20 31 20 58 18 83 -6 14 -14 87 -19 116 -8 9 3 16 12 16 19 0 17 -23 25 -76 25 -24 0 -44 4 -44 8 0 4 -15 15 -33 23 -30 14 -36 14 -58 0z"/> <path d="M2237 2443 c-16 -15 -5 -52 27 -86 65 -72 99 -35 39 42 -37 48 -52 59 -66 44z"/> <path d="M3703 2384 c-35 -17 -44 -50 -18 -60 8 -3 40 3 72 14 42 15 58 25 58 39 0 25 -68 29 -112 7z"/> <path d="M3858 2388 c-12 -31 4 -38 79 -38 71 0 74 1 71 23 -3 20 -9 22 -74 25 -52 2 -73 -1 -76 -10z"/> <path d="M5463 2393 c-28 -11 -13 -33 23 -33 19 0 44 -5 55 -10 16 -9 19 -7 19 9 0 32 -55 51 -97 34z"/> <path d="M4054 2355 c-7 -18 10 -35 38 -35 9 0 20 -4 23 -10 3 -5 21 -10 39 -10 25 0 35 5 39 19 8 32 -9 43 -72 48 -51 4 -62 2 -67 -12z"/> <path d="M6157 2354 c-7 -8 2 -36 17 -49 14 -12 56 -98 56 -114 0 -6 6 -11 14 -11 24 0 26 42 4 90 -35 71 -70 104 -91 84z"/> <path d="M4505 2343 c-69 -8 -75 -12 -75 -44 0 -29 2 -31 28 -25 15 4 44 11 65 15 51 11 63 24 42 45 -9 9 -19 15 -23 15 -4 -1 -20 -4 -37 -6z"/> <path d="M2113 2319 c-57 -36 -29 -79 29 -46 17 9 36 17 43 17 22 0 26 29 5 40 -27 14 -41 12 -77 -11z"/> <path d="M3541 2301 c-69 -64 -25 -87 55 -29 46 33 55 52 28 62 -29 11 -40 6 -83 -33z"/> <path d="M4242 2327 c-16 -19 7 -44 46 -53 15 -3 35 -7 45 -9 30 -6 47 5 47 30 0 30 -3 32 -71 40 -43 5 -58 4 -67 -8z"/> <path d="M2360 2311 c0 -24 15 -36 70 -55 67 -23 82 -21 78 11 -2 21 -11 30 -33 36 -16 5 -38 13 -47 18 -32 16 -68 11 -68 -10z"/> <path d="M2545 2260 c-13 -22 15 -49 59 -55 59 -9 81 -4 81 20 0 15 -8 21 -30 23 -16 2 -34 8 -39 13 -13 12 -63 12 -71 -1z"/> <path d="M4716 2261 c-3 -4 -24 -11 -46 -15 -36 -6 -67 -20 -105 -48 -50 -37 -74 -61 -69 -69 10 -17 39 -9 69 18 37 35 89 63 115 63 24 0 100 39 100 51 0 12 -57 12 -64 0z"/> <path d="M4096 2205 c-10 -26 -7 -114 4 -135 6 -12 16 -17 26 -13 22 8 16 156 -7 161 -9 2 -19 -4 -23 -13z"/> <path d="M1862 2130 c-16 -15 -22 -32 -22 -64 0 -24 -7 -57 -15 -72 -8 -16 -15 -48 -15 -71 0 -23 -5 -43 -11 -45 -6 -2 -14 -28 -17 -58 -2 -30 -11 -64 -18 -75 -8 -11 -14 -36 -14 -56 0 -20 -7 -50 -15 -65 -19 -37 -19 -78 -1 -93 12 -10 17 -8 25 8 6 11 11 26 11 34 0 8 7 28 15 43 8 16 15 45 15 65 0 20 7 50 15 65 8 16 15 43 15 60 0 18 7 45 15 60 8 16 15 47 15 69 0 22 7 49 15 59 8 11 15 39 15 62 0 24 5 46 10 49 15 9 12 45 -3 45 -7 0 -23 -9 -35 -20z"/> <path d="M4425 2140 c-3 -5 -19 -10 -35 -10 -34 0 -96 -48 -81 -63 7 -7 21 -4 44 7 19 9 42 16 51 16 18 0 56 34 56 50 0 6 -6 10 -14 10 -8 0 -18 -4 -21 -10z"/> <path d="M5861 1966 c-7 -8 -23 -17 -36 -20 -25 -6 -30 -21 -19 -50 6 -16 30 -22 36 -8 2 4 21 17 43 28 51 28 61 64 17 64 -16 0 -35 -6 -41 -14z"/> <path d="M6652 1948 c-7 -7 -12 -18 -12 -25 0 -7 -4 -13 -9 -13 -5 0 -12 -13 -16 -30 -4 -16 -11 -30 -16 -30 -5 0 -11 -11 -15 -25 -3 -13 -12 -29 -20 -36 -8 -6 -14 -19 -14 -29 0 -10 -7 -23 -15 -30 -8 -7 -15 -20 -15 -29 0 -9 -9 -27 -20 -41 -17 -22 -19 -23 -25 -7 -13 32 -44 19 -75 -30 -16 -27 -30 -53 -30 -58 0 -6 -8 -15 -19 -22 -10 -6 -21 -25 -24 -42 -4 -17 -15 -50 -25 -73 -11 -24 -22 -51 -25 -60 -3 -10 -19 -20 -34 -24 -38 -10 -73 -33 -73 -50 0 -16 65 -20 75 -4 3 6 30 10 59 10 62 0 81 -15 72 -57 -4 -17 0 -40 9 -57 8 -15 15 -40 15 -55 0 -35 21 -64 41 -56 13 5 14 15 8 56 -4 28 -13 56 -18 63 -6 7 -12 28 -13 47 l-3 34 53 -3 c30 -2 66 -10 80 -18 15 -8 44 -14 64 -14 20 0 38 -4 40 -10 5 -17 102 -30 142 -19 20 5 36 14 36 18 0 5 11 12 25 15 14 4 25 11 25 16 0 6 5 10 10 10 6 0 24 10 40 21 25 19 37 21 87 15 32 -4 62 -11 67 -16 15 -15 78 -11 100 5 13 10 39 13 94 9 42 -2 78 -8 81 -12 8 -11 126 -82 137 -82 4 0 15 -6 23 -14 9 -7 33 -16 53 -19 31 -5 38 -2 44 15 7 22 -9 38 -37 38 -9 0 -45 16 -80 35 -35 20 -78 42 -96 50 -17 8 -34 19 -38 25 -3 5 -28 10 -54 10 -55 0 -72 13 -125 92 -19 29 -44 63 -55 75 -12 12 -21 25 -21 28 0 5 -69 101 -117 162 -10 13 -22 23 -28 22 -5 0 -28 -24 -50 -53 -33 -45 -43 -52 -58 -44 -10 5 -20 22 -24 39 -3 16 -9 29 -13 29 -5 0 -11 14 -15 30 -4 17 -10 30 -15 30 -4 0 -11 12 -15 27 -3 15 -10 30 -14 33 -5 3 -20 31 -34 62 -28 61 -56 85 -75 66z m32 -188 c8 -166 22 -303 33 -325 15 -29 26 -172 14 -180 -6 -3 -31 3 -55 15 -25 11 -58 20 -73 20 -16 0 -34 5 -41 12 -6 6 -44 15 -84 19 -164 18 -175 25 -139 82 12 19 21 42 21 51 0 9 4 16 9 16 5 0 12 11 15 25 4 14 21 49 38 77 31 50 32 51 46 30 11 -17 17 -19 37 -10 13 6 26 22 30 37 4 14 10 28 14 31 12 8 51 89 51 105 0 8 4 15 9 15 5 0 12 14 16 30 4 17 10 30 15 30 4 0 10 10 14 22 12 46 25 1 30 -102z m101 -85 c23 -49 68 -143 100 -208 55 -113 57 -119 39 -132 -11 -8 -24 -15 -31 -15 -6 0 -18 -6 -25 -13 -24 -23 -67 -47 -84 -47 -14 0 -15 8 -10 63 4 37 3 80 -4 107 -7 25 -16 83 -21 129 -5 46 -14 91 -19 100 -13 26 -24 117 -15 138 6 16 8 15 17 -7 6 -14 30 -65 53 -115z m193 -70 c2 -27 10 -58 18 -69 8 -11 14 -39 14 -62 0 -28 5 -44 15 -48 21 -8 20 -75 -1 -83 -16 -6 -63 40 -64 62 0 6 -16 42 -35 79 -19 38 -35 78 -35 89 0 22 59 87 75 83 6 -1 11 -24 13 -51z m59 -22 c8 -20 77 -120 120 -172 46 -56 47 -60 16 -72 -18 -7 -41 -8 -63 -2 -32 7 -35 12 -38 47 -2 21 -10 45 -18 53 -8 8 -14 32 -14 52 0 22 -6 44 -15 51 -17 14 -21 60 -5 60 6 0 14 -8 17 -17z"/> <path d="M6372 1934 c-12 -8 -22 -21 -22 -28 0 -14 -76 -86 -91 -86 -14 0 -11 -28 3 -32 16 -6 73 33 99 66 21 27 44 84 37 91 -2 3 -14 -2 -26 -11z"/> <path d="M5720 1900 c0 -5 -11 -10 -25 -10 -14 0 -37 -12 -52 -26 -23 -23 -24 -27 -10 -41 13 -13 18 -13 48 0 19 9 44 18 56 22 23 6 39 38 28 55 -8 13 -45 13 -45 0z"/> <path d="M5525 1830 c-39 -8 -87 -40 -82 -53 8 -26 37 -32 69 -15 18 9 43 19 56 23 51 14 11 57 -43 45z"/> <path d="M5340 1756 c-7 -9 -18 -16 -25 -16 -24 0 -36 -25 -21 -46 14 -19 16 -18 71 10 39 19 55 33 53 45 -4 22 -61 27 -78 7z"/> <path d="M5774 1755 c-22 -17 -70 -20 -79 -5 -10 16 -35 12 -35 -6 0 -43 76 -69 116 -39 10 8 26 15 35 15 9 0 22 7 30 16 25 30 -31 46 -67 19z"/> <path d="M6120 1733 c-39 -22 -58 -26 -141 -27 -90 -1 -99 -3 -123 -27 -22 -22 -24 -28 -12 -38 11 -9 17 -8 28 3 11 10 46 15 123 18 75 2 110 7 113 16 2 6 12 12 21 12 24 0 71 37 71 56 0 21 -29 16 -80 -13z"/> <path d="M6259 1737 c-12 -27 -5 -97 10 -97 5 0 11 -23 13 -51 5 -52 21 -80 37 -64 14 17 -16 206 -37 227 -8 8 -14 4 -23 -15z"/> <path d="M1500 1742 c-74 -12 -54 -52 27 -52 39 0 55 4 60 16 3 8 2 19 -3 23 -13 12 -55 18 -84 13z"/> <path d="M425 1716 c-18 -15 -26 -30 -22 -40 8 -20 31 -21 48 0 9 11 22 14 47 9 39 -7 92 10 92 30 0 14 -32 22 -96 24 -29 1 -48 -5 -69 -23z"/> <path d="M3491 1731 c-17 -11 -7 -41 13 -41 7 0 16 -7 20 -15 3 -8 12 -15 21 -15 27 0 29 29 5 56 -25 26 -37 29 -59 15z"/> <path d="M7806 1725 c-16 -17 -91 -21 -101 -5 -8 13 -42 13 -50 0 -3 -5 5 -21 19 -35 20 -20 35 -25 75 -25 31 0 55 6 65 15 8 8 21 15 29 15 8 0 20 -7 27 -15 18 -22 118 -21 127 1 8 22 -14 34 -63 34 -25 0 -47 6 -54 15 -7 8 -23 15 -36 15 -12 0 -29 -7 -38 -15z"/> <path d="M5229 1673 c-8 -2 -26 -27 -38 -55 -18 -42 -20 -56 -12 -76 11 -22 13 -23 34 -9 12 8 24 28 28 44 3 17 13 41 22 53 12 18 14 27 5 37 -11 13 -12 14 -39 6z"/> <path d="M4718 1634 c-20 -21 -113 -23 -158 -4 -39 16 -49 7 -28 -28 16 -25 21 -27 101 -30 66 -2 87 1 97 13 16 19 47 19 66 0 21 -20 147 -21 163 -1 18 22 -16 36 -84 36 -37 0 -62 5 -71 15 -20 20 -66 19 -86 -1z"/> <path d="M3763 1544 c-7 -20 43 -63 74 -64 25 0 53 24 53 46 0 17 -8 20 -73 28 -38 5 -49 2 -54 -10z"/> <path d="M2020 1534 c0 -8 5 -24 10 -35 9 -16 22 -19 90 -19 44 0 80 -4 80 -9 0 -5 10 -13 23 -16 12 -4 36 -14 53 -22 34 -18 64 -12 64 11 0 8 -9 18 -20 21 -11 3 -20 10 -20 16 0 5 -18 12 -39 15 -22 4 -42 13 -45 20 -4 10 -26 14 -80 14 -41 0 -78 5 -81 10 -10 16 -35 12 -35 -6z"/> <path d="M5223 1493 c-19 -7 -16 -27 10 -54 45 -47 79 -70 93 -65 15 6 20 56 5 56 -4 0 -23 16 -42 35 -34 34 -42 38 -66 28z"/> <path d="M382 1478 c-16 -16 -15 -50 3 -95 8 -21 19 -58 23 -83 7 -39 11 -45 32 -45 22 0 25 5 28 39 2 26 -1 42 -11 47 -8 5 -20 35 -27 69 -14 65 -29 87 -48 68z"/> <path d="M572 1458 c-6 -6 -12 -36 -12 -64 0 -53 -15 -81 -26 -47 -21 71 -57 91 -62 35 -3 -25 3 -40 22 -59 14 -14 26 -34 26 -43 0 -22 22 -41 36 -32 6 4 14 16 19 27 8 20 33 131 38 170 2 23 -23 31 -41 13z"/> <path d="M664 1462 c-17 -11 -24 -199 -9 -212 20 -16 38 14 30 50 -10 48 19 38 44 -15 15 -31 25 -43 36 -39 20 8 19 34 -1 63 -16 22 -16 25 0 51 22 38 20 57 -9 85 -24 25 -68 33 -91 17z m64 -41 c21 -13 10 -46 -16 -49 -24 -4 -38 18 -28 43 6 17 24 19 44 6z"/> <path d="M897 1464 c-14 -15 -6 -30 20 -40 26 -9 26 -10 24 -92 -2 -68 1 -83 14 -88 26 -10 30 3 30 94 l0 87 28 3 c20 3 27 8 25 20 -3 14 -17 18 -69 20 -35 2 -68 0 -72 -4z"/> <path d="M1071 1451 c-7 -13 -11 -58 -9 -114 2 -74 6 -92 18 -92 12 0 16 20 18 104 3 106 -7 141 -27 102z"/> <path d="M1262 1461 c-11 -6 -11 -16 -3 -47 17 -60 15 -67 -14 -48 -13 9 -32 33 -42 55 -14 30 -24 39 -43 39 l-26 0 -2 -105 c-2 -99 -1 -105 18 -105 23 0 35 36 26 81 -5 25 -3 30 11 27 9 -2 21 -12 27 -23 6 -11 14 -22 18 -25 4 -3 11 -18 17 -33 7 -19 18 -27 35 -27 24 0 24 0 22 107 -1 87 -4 108 -16 110 -8 2 -21 -1 -28 -6z"/> <path d="M1365 1443 c-21 -23 -25 -37 -25 -88 0 -51 4 -65 25 -88 51 -54 135 -25 135 47 0 40 -19 59 -56 54 -34 -4 -43 -24 -15 -33 30 -9 28 -45 -2 -45 -50 0 -73 62 -41 108 11 16 25 22 55 22 27 0 42 5 46 16 8 21 -14 34 -59 34 -28 0 -44 -7 -63 -27z"/> <path d="M824 1447 c-3 -8 -3 -56 -2 -108 2 -77 6 -94 19 -97 25 -5 30 22 23 124 -5 70 -10 94 -21 94 -7 0 -16 -6 -19 -13z"/> <path d="M5377 1393 c-16 -16 -5 -44 21 -55 15 -6 41 -17 58 -26 37 -18 64 -11 64 16 0 25 -19 40 -59 48 -17 4 -34 11 -37 15 -6 11 -38 12 -47 2z"/> <path d="M4520 1350 c-14 -4 -46 -8 -72 -9 -53 -1 -56 -5 -29 -38 20 -24 65 -31 76 -13 3 6 31 10 61 10 30 0 54 -4 54 -10 0 -19 51 -10 76 14 32 29 20 40 -46 42 -25 0 -56 3 -70 7 -14 3 -36 2 -50 -3z"/> <path d="M5570 1335 c-22 -26 -3 -53 44 -60 61 -10 100 -3 104 17 2 12 -5 19 -25 23 -15 4 -45 13 -66 21 -46 17 -42 17 -57 -1z"/> <path d="M5757 1314 c-16 -16 -5 -42 22 -53 15 -7 48 -11 72 -9 42 3 44 5 44 33 0 30 0 30 -65 33 -36 2 -69 0 -73 -4z"/> <path d="M5954 1305 c-12 -30 12 -42 78 -37 68 5 90 15 81 38 -8 21 -151 20 -159 -1z"/> <path d="M2354 1245 c-11 -27 7 -35 77 -35 55 0 71 3 76 16 9 24 -15 34 -85 34 -46 0 -64 -4 -68 -15z"/> <path d="M2858 1253 c-10 -2 -18 -13 -18 -24 0 -17 8 -19 83 -19 55 0 90 5 102 14 18 13 18 14 -3 25 -20 11 -129 14 -164 4z"/> <path d="M3107 1253 c-15 -14 -5 -32 27 -52 39 -25 79 -27 96 -6 7 8 19 15 27 15 8 0 21 -7 29 -15 19 -19 78 -19 93 -1 17 20 -5 64 -22 47 -16 -16 -54 -14 -61 4 -7 20 -41 19 -77 -2 -27 -16 -31 -16 -58 0 -31 18 -44 21 -54 10z"/> <path d="M4940 1179 c-25 -14 -46 -18 -75 -14 -49 7 -75 -6 -57 -28 18 -22 65 -28 125 -16 47 10 59 9 100 -10 58 -26 81 -26 123 0 58 35 34 78 -24 44 -28 -17 -32 -17 -78 1 -27 10 -53 24 -57 31 -10 17 -15 16 -57 -8z"/> <path d="M7100 1185 c-8 -9 -29 -15 -57 -15 -46 0 -70 -23 -42 -41 19 -12 93 -11 105 1 7 7 20 7 35 2 46 -17 63 4 30 37 -28 28 -56 34 -71 16z"/> <path d="M3548 1133 c-24 -6 -23 -13 7 -46 23 -24 33 -27 86 -27 37 0 69 -6 84 -16 14 -9 40 -14 67 -12 35 2 43 7 43 23 0 16 -8 21 -39 23 -22 2 -49 10 -60 18 -12 8 -45 14 -82 14 -46 0 -63 4 -68 15 -6 15 -8 16 -38 8z"/> <path d="M4101 1096 c-7 -8 -8 -67 -4 -175 5 -140 8 -161 22 -159 14 3 16 27 19 169 2 138 0 168 -12 172 -8 3 -19 0 -25 -7z"/> </g> </svg> 