<?xml version="1.0" standalone="no"?>
<!DOCTYPE svg PUBLIC "-//W3C//DTD SVG 20010904//EN"
 "http://www.w3.org/TR/2001/REC-SVG-20010904/DTD/svg10.dtd">
<svg version="1.0" xmlns="http://www.w3.org/2000/svg"
 width="300.000000pt" height="450.000000pt" viewBox="0 0 300.000000 450.000000"
 preserveAspectRatio="xMidYMid meet">
<metadata>
Created by potrace 1.10, written by Peter Selinger 2001-2011
</metadata>
<g transform="translate(0.000000,450.000000) scale(0.100000,-0.100000)"
fill="#000000" stroke="none">
<path d="M1263 4332 c-96 -34 -150 -81 -228 -197 -66 -98 -93 -125 -127 -125
-16 0 -31 7 -34 15 -10 24 -34 -2 -34 -36 0 -28 22 -60 51 -73 12 -5 12 -7 1
-12 -27 -12 -83 -67 -98 -95 -26 -50 -18 -107 22 -165 37 -54 39 -79 8 -91 -9
-3 -25 -1 -35 5 -26 16 -29 15 -29 -9 0 -49 38 -88 88 -89 l33 0 -30 -37 c-38
-46 -41 -97 -10 -137 25 -32 53 -36 44 -6 -3 11 -2 20 3 20 5 0 13 -16 16 -36
8 -39 -8 -69 -32 -59 -47 18 -28 -39 21 -60 l31 -13 -40 -20 c-109 -55 -170
-130 -215 -259 -22 -66 -61 -294 -89 -528 -10 -88 -26 -180 -35 -205 -11 -31
-14 -61 -10 -95 3 -27 1 -66 -5 -85 -6 -19 -26 -120 -45 -224 -34 -183 -42
-280 -26 -319 4 -11 3 -50 -3 -89 -6 -48 -6 -72 2 -76 7 -5 1 -45 -19 -122
-31 -125 -35 -175 -18 -265 16 -90 67 -172 110 -179 8 -1 19 -5 26 -9 23 -14
113 4 124 25 13 24 -2 72 -33 105 l-21 23 31 0 c17 0 34 6 39 13 4 6 9 48 10
92 5 162 14 261 28 292 8 17 15 36 15 41 0 6 19 1 43 -11 23 -12 43 -22 44
-22 1 0 -4 -102 -12 -225 -21 -350 -29 -763 -16 -845 15 -99 30 -145 45 -145
11 0 9 16 -5 78 -15 62 -19 117 -19 287 0 193 27 825 36 834 2 2 30 -4 62 -13
32 -9 73 -16 90 -16 37 0 49 22 59 104 l6 49 81 -7 c44 -4 81 -8 83 -9 4 -5
22 -232 18 -236 -2 -2 -34 6 -71 17 -64 20 -90 21 -79 3 8 -14 179 -52 241
-54 57 -2 59 -3 60 -32 1 -17 8 -73 15 -126 10 -84 10 -105 -4 -161 -9 -36
-34 -165 -56 -287 -31 -170 -38 -228 -30 -243 6 -11 8 -30 5 -42 -9 -34 15
-146 32 -146 12 0 13 9 6 48 -4 26 -8 67 -8 92 -1 25 -5 51 -10 58 -4 8 9 115
34 260 45 264 51 292 57 252 2 -14 26 -162 54 -330 27 -168 52 -322 55 -343 3
-21 11 -37 19 -37 15 0 14 16 -11 160 -8 47 -41 245 -74 440 -32 195 -62 369
-65 385 l-7 31 66 -4 c93 -6 85 15 -10 23 -41 4 -77 13 -79 19 -2 6 -6 64 -10
129 l-6 118 53 -3 53 -3 8 -55 c11 -79 28 -100 80 -100 57 0 221 25 340 51 53
12 99 20 102 18 11 -11 -15 -194 -41 -291 -31 -117 -28 -144 16 -142 20 1 21
-3 16 -41 -4 -23 -9 -131 -12 -241 -7 -286 -11 -382 -19 -394 -8 -13 5 -100
15 -100 5 0 8 24 7 53 0 28 2 108 6 177 3 69 7 179 8 245 1 66 4 125 6 132 7
18 27 16 46 -4 14 -16 14 -36 -3 -222 -12 -132 -15 -211 -9 -222 6 -11 5 -27
-1 -44 -7 -18 -7 -33 0 -45 5 -10 10 -30 10 -44 0 -17 6 -26 15 -26 11 0 14 7
10 25 -3 14 -7 36 -10 50 -3 14 -1 34 5 45 8 14 7 26 0 41 -9 15 -7 73 6 228
l18 207 36 17 c19 9 48 19 63 23 106 24 203 246 183 418 -4 40 -2 51 14 65 13
10 22 34 27 66 3 30 17 66 34 90 36 52 44 85 68 290 44 371 45 403 21 590 -50
400 -108 692 -156 787 -45 90 -142 161 -271 199 -34 10 -43 17 -43 35 0 28
-39 76 -87 105 l-37 23 30 8 c37 9 63 36 66 69 3 23 0 24 -39 21 -37 -3 -43
-1 -43 16 0 12 17 34 39 51 53 42 59 72 27 134 -31 58 -31 57 -8 57 26 0 53
32 55 66 2 24 -2 28 -18 26 -77 -13 -97 9 -51 57 31 33 47 82 40 121 -4 15
-25 50 -48 76 -23 27 -58 78 -78 114 -47 84 -88 125 -146 145 -26 9 -76 30
-111 46 -54 26 -75 30 -140 29 -42 0 -110 2 -151 5 -58 4 -86 1 -127 -13z
m212 -24 c28 -6 58 -15 69 -20 13 -7 16 -7 12 1 -13 20 64 12 123 -13 77 -33
95 -39 104 -37 5 1 23 -8 41 -19 35 -21 73 -71 101 -132 9 -21 34 -57 56 -82
68 -77 73 -121 18 -183 -33 -38 -35 -50 -13 -81 11 -16 25 -22 51 -22 35 0 36
0 18 -20 -10 -11 -29 -20 -42 -20 -30 0 -30 -24 2 -75 33 -54 31 -72 -9 -109
-46 -42 -59 -77 -40 -105 9 -12 26 -21 40 -21 33 0 22 -18 -21 -36 -30 -12
-38 -11 -79 6 -25 12 -48 26 -52 32 -11 17 -44 -53 -37 -79 6 -25 6 -25 -69
-27 l-47 -1 57 59 c31 32 64 66 73 76 15 16 49 127 49 161 0 8 6 26 14 40 11
21 11 38 3 79 -7 39 -7 65 1 97 16 58 15 73 -5 90 -13 10 -15 16 -6 19 16 7 4
32 -44 91 -19 24 -40 65 -47 93 -7 28 -23 62 -36 75 -28 29 -70 41 -85 23 -10
-14 -33 -17 -50 -7 -25 15 -70 19 -101 9 -41 -14 -59 -50 -69 -137 -9 -69 -20
-83 -90 -118 -80 -39 -125 -101 -95 -131 6 -6 -4 -23 -27 -49 -20 -22 -38 -47
-39 -55 -1 -8 -9 -37 -18 -63 -17 -47 -17 -50 3 -88 12 -22 20 -54 19 -72 -1
-17 2 -84 7 -148 7 -103 6 -120 -11 -147 -14 -24 -21 -29 -35 -22 -9 5 -36 11
-60 12 -24 2 -49 9 -55 17 -9 12 -19 11 -62 -4 -45 -16 -55 -17 -77 -5 l-26
14 22 17 c20 15 21 21 14 83 l-7 67 -24 -15 c-35 -23 -44 -20 -44 18 0 33 36
98 69 123 17 13 11 16 -32 13 -30 -2 -87 17 -87 29 0 4 15 14 33 22 45 20 49
64 8 122 -61 89 -48 138 56 223 l52 43 -37 18 c-46 23 -56 51 -15 46 44 -6 85
28 156 129 134 193 229 237 422 196z m200 -189 c72 2 89 -11 100 -76 6 -38 24
-65 69 -101 9 -7 16 -22 16 -34 l0 -21 -23 21 c-13 12 -32 22 -42 22 -30 0
-85 -23 -85 -35 0 -20 10 -23 43 -13 25 8 42 6 71 -6 l38 -16 -5 -148 c-5
-168 -20 -230 -73 -309 -49 -72 -97 -103 -160 -103 -101 0 -242 54 -331 127
-33 26 -43 41 -43 63 0 19 -9 35 -26 49 l-26 20 18 48 c10 26 32 62 50 79 37
35 54 71 54 114 0 45 9 58 64 89 82 47 98 70 105 148 5 59 9 69 31 81 16 8 38
10 60 6 19 -4 62 -6 95 -5z m-399 -699 c72 -79 262 -166 346 -158 l38 4 0 -65
c0 -61 -2 -65 -37 -99 -108 -102 -276 -122 -379 -47 -26 20 -30 28 -26 60 3
25 8 35 18 31 20 -8 27 66 15 180 -6 56 -13 108 -17 117 -10 27 4 20 42 -23z
m654 -126 c112 -68 153 -112 118 -127 -315 -131 -410 -194 -470 -311 -31 -60
-33 -31 -3 47 19 51 140 320 150 335 1 1 16 -3 34 -9 37 -13 69 -7 102 19 l23
19 -22 23 c-22 24 -29 50 -14 50 4 0 41 -21 82 -46z m-855 -180 c14 -3 40 -3
58 0 l33 6 -8 -72 c-4 -40 -6 -84 -3 -96 3 -13 2 -22 -2 -20 -15 6 -173 178
-173 188 0 5 12 16 28 24 25 13 28 13 34 -5 4 -10 19 -21 33 -25z m1100 -15
l75 -31 -30 -25 c-17 -14 -41 -44 -55 -67 -31 -54 -74 -202 -81 -286 -4 -38
-9 -72 -13 -77 -3 -4 -106 -7 -227 -5 l-222 3 -4 24 c-3 13 -1 31 4 40 6 9 7
37 3 63 -6 45 -4 49 40 99 32 37 45 60 45 82 l0 31 69 -25 c106 -38 104 -40
100 60 l-4 84 53 20 53 21 71 -25 c39 -14 82 -32 94 -40 27 -17 34 -19 34 -6
0 12 -99 59 -141 68 -30 6 -31 7 -13 20 24 18 53 12 149 -28z m-1212 7 c3 -8
-5 -18 -20 -25 -39 -18 -123 -75 -123 -83 0 -5 17 2 38 15 20 13 56 34 79 46
42 21 42 21 53 1 8 -15 5 -30 -15 -69 -14 -28 -25 -58 -25 -67 0 -17 -2 -17
88 3 17 4 21 2 16 -11 -3 -9 1 -27 10 -41 19 -29 21 -92 4 -146 -8 -29 -8 -45
0 -61 11 -23 11 -23 6 2 -3 14 2 42 11 63 9 21 13 48 9 62 -11 43 5 27 31 -31
14 -31 25 -71 25 -89 0 -27 -4 -34 -25 -37 -23 -5 -25 -3 -25 36 -1 28 -3 36
-9 26 -5 -8 -7 -26 -6 -40 2 -14 4 -31 4 -37 1 -9 8 -10 27 -2 15 5 29 7 31 5
16 -16 -4 -584 -28 -806 -25 -223 -80 -615 -88 -623 -12 -12 -162 27 -214 55
-45 25 -52 41 -42 95 5 28 10 33 23 27 41 -17 218 -64 232 -61 8 2 -5 10 -30
17 -25 7 -46 14 -47 15 -1 0 4 21 11 45 43 142 83 510 92 845 3 110 8 220 10
245 3 25 8 71 11 104 l5 59 -69 -6 c-37 -4 -104 -7 -148 -8 l-80 -2 -8 79 c-4
43 -6 127 -5 186 4 124 7 129 112 192 67 40 72 42 79 22z m283 -289 c20 -51
45 -107 56 -124 11 -18 15 -33 9 -33 -15 0 -87 154 -106 225 -8 32 -14 84 -14
115 l2 55 8 -73 c5 -44 24 -111 45 -165z m609 178 c4 -31 5 -58 2 -61 -4 -5
-55 9 -131 36 -16 5 -9 13 40 43 32 20 64 37 71 37 7 0 14 -23 18 -55z m454
29 c36 -30 74 -90 96 -153 42 -120 145 -757 145 -899 0 -80 -57 -579 -72 -622
-6 -19 -22 -49 -34 -66 -13 -17 -28 -54 -34 -83 -5 -29 -12 -56 -14 -60 -3 -4
-38 1 -78 11 -40 10 -99 21 -131 25 -32 3 -60 9 -62 13 -3 4 0 32 6 62 9 47 9
60 -6 87 -14 29 -15 46 -6 139 24 240 29 333 25 452 -4 149 -19 318 -41 455
-17 109 -13 196 13 338 17 93 50 200 72 237 19 31 73 90 83 90 4 0 21 -12 38
-26z m-1070 2 c6 -7 37 -21 67 -31 74 -23 164 -15 234 20 29 15 54 25 56 23 2
-2 -5 -18 -15 -34 -30 -49 -82 -69 -181 -69 -72 1 -93 5 -137 28 -42 22 -53
32 -53 52 0 28 12 32 29 11z m-179 -36 c25 -21 31 -30 20 -33 -43 -12 -105
-25 -108 -22 -5 5 38 85 46 85 4 0 23 -14 42 -30z m-309 -85 c-7 -84 7 -373
19 -396 12 -24 33 -462 26 -555 -3 -45 -17 -159 -31 -254 -28 -193 -30 -232
-11 -275 7 -17 10 -38 5 -50 -4 -11 -11 -29 -15 -40 -4 -11 -12 -42 -18 -68
-6 -27 -14 -48 -19 -48 -4 0 -31 4 -60 10 -28 5 -78 13 -109 16 l-56 6 0 82
c0 45 -1 107 -2 137 -2 57 49 366 76 455 9 31 12 66 8 96 -4 31 -1 64 9 95 9
27 23 110 32 184 31 256 65 468 86 531 20 62 60 153 64 147 1 -2 -1 -34 -4
-73z m525 38 c72 -34 165 -38 232 -10 50 20 51 21 -30 -83 -32 -41 -62 -79
-66 -85 -4 -5 -22 -31 -40 -57 -18 -27 -35 -48 -37 -48 -7 0 -46 79 -70 144
-26 70 -56 166 -51 166 2 0 30 -12 62 -27z m414 -22 c0 -10 -9 -26 -21 -37
-29 -26 -107 -155 -135 -222 -27 -65 -32 -96 -11 -67 11 14 21 17 48 11 25 -5
31 -4 22 5 -6 6 -23 12 -37 12 l-26 0 38 68 c33 60 38 66 45 46 4 -12 4 -31
-1 -42 -5 -11 -8 -60 -7 -109 1 -74 5 -92 21 -105 17 -14 19 -28 16 -131 l-3
-115 86 -58 86 -59 92 59 92 59 3 112 c2 86 6 114 17 118 8 3 19 30 26 60 7
30 15 54 19 54 4 0 10 -46 13 -102 3 -57 13 -166 22 -243 9 -77 19 -201 21
-275 2 -74 5 -142 5 -150 2 -18 -33 -414 -36 -418 -6 -7 -212 -54 -295 -67
-150 -23 -133 -37 -154 128 -30 250 -35 344 -37 712 l-2 360 -10 -240 c-13
-322 6 -678 49 -937 6 -38 5 -38 -28 -38 -18 0 -40 -5 -48 -11 -44 -31 357 21
505 66 17 5 23 0 33 -28 12 -34 16 -77 7 -77 -3 0 -39 -9 -80 -20 -93 -25
-340 -68 -415 -72 -50 -3 -56 -1 -67 22 -12 27 -36 224 -53 455 -6 77 -11 291
-12 475 -1 342 11 499 47 603 27 78 136 234 156 221 5 -3 9 -13 9 -23z m-561
-7 c16 -21 21 -41 21 -93 l0 -65 -40 77 c-38 75 -42 107 -15 107 8 0 23 -12
34 -26z m66 -49 c3 -22 28 -80 54 -130 44 -85 46 -93 39 -139 -5 -26 -8 -78
-6 -115 3 -71 12 -80 64 -67 25 7 25 8 23 106 l-2 99 48 63 c67 87 105 130
105 121 0 -5 -5 -24 -11 -43 -43 -136 -51 -221 -56 -560 -4 -280 -1 -379 16
-600 12 -146 21 -268 21 -272 0 -12 -168 -10 -295 3 l-111 11 27 198 c51 378
64 597 63 1063 -1 308 3 360 21 262z m349 23 c-22 -44 -163 -232 -176 -237 -7
-2 -8 2 -3 10 16 27 187 259 191 259 3 0 -3 -15 -12 -32z m-194 -272 c0 -8 -7
-17 -16 -20 -23 -9 -24 -8 -24 14 0 13 7 20 20 20 11 0 20 -6 20 -14z m-336
-31 c-6 -23 -54 -65 -75 -65 -4 0 -10 11 -13 25 -5 18 -13 25 -30 25 -24 0
-41 -24 -30 -41 8 -14 -9 -11 -34 7 -12 8 -22 12 -22 7 0 -11 67 -53 85 -53 8
0 39 12 69 26 46 22 56 31 63 62 12 51 33 54 33 3 0 -37 -4 -43 -40 -66 -22
-14 -60 -35 -85 -47 l-44 -21 -56 37 c-55 36 -56 38 -53 79 l3 42 115 5 c63 3
116 4 118 4 2 -1 0 -14 -4 -29z m954 1 c5 -3 7 -18 4 -34 -3 -25 -12 -32 -62
-50 l-58 -20 2 31 c1 29 -2 32 -28 32 -37 0 -56 -27 -38 -55 16 -26 14 -25
-54 7 -36 17 -59 35 -65 51 -12 31 -24 22 -15 -11 4 -17 21 -31 56 -46 78 -34
98 -34 186 -7 83 26 94 36 94 82 0 14 6 24 14 24 21 0 24 -10 14 -56 l-9 -42
-103 -36 -103 -36 -64 29 c-35 16 -72 31 -82 35 -19 6 -37 45 -37 79 0 22 3
22 170 25 93 2 174 1 178 -2z m-620 -78 c-3 -67 -5 -73 -25 -76 -22 -3 -23 0
-23 72 0 75 0 76 25 76 26 0 26 -1 23 -72z m-299 -55 c-1 -27 -4 -76 -8 -110
l-6 -63 -70 -45 -70 -45 -41 43 -42 42 -6 104 c-6 92 -5 102 9 91 11 -9 15
-34 15 -96 0 -52 4 -85 12 -90 8 -5 9 15 5 80 l-7 87 30 -16 c29 -15 33 -14
74 10 23 14 46 25 51 25 4 0 5 -43 2 -96 -4 -62 -2 -93 4 -87 5 5 9 50 7 99
-2 70 0 92 12 101 25 21 30 15 29 -34z m684 -28 l65 -35 77 29 77 30 -6 -47
c-9 -73 -11 -141 -4 -147 3 -4 9 33 13 82 8 117 8 116 24 121 10 3 12 -1 8
-19 -4 -13 -7 -61 -7 -106 l0 -83 -42 -27 c-24 -15 -62 -39 -86 -54 l-43 -28
-77 55 -77 55 3 104 c2 58 5 105 7 105 2 0 32 -16 68 -35z m-697 -317 c-7
-163 -30 -414 -47 -513 -12 -76 -50 -245 -54 -245 -1 0 -33 9 -69 20 -109 34
-114 65 -66 408 16 116 21 190 18 306 l-3 154 38 -34 c37 -34 38 -34 69 -18
17 9 49 29 71 45 22 16 42 29 45 29 3 0 2 -69 -2 -152z m299 -808 l32 0 7
-117 c8 -125 7 -140 -9 -134 -5 2 -23 7 -40 10 -33 8 -37 20 -49 170 -6 74 -5
83 9 77 9 -3 31 -6 50 -6z m761 -107 c-1 -30 -46 -123 -59 -123 -1 0 -1 33 1
74 3 60 7 76 20 79 37 10 40 7 38 -30z m-1476 13 l65 -11 -3 -95 c-1 -52 -3
-132 -4 -177 -1 -79 -2 -83 -24 -83 -40 0 -54 25 -54 99 0 42 -5 74 -14 87
-14 18 -15 18 -38 -10 -12 -17 -26 -37 -30 -45 -13 -31 -8 -178 7 -214 32 -78
3 -86 -41 -11 -35 60 -56 182 -42 254 10 57 47 199 55 213 6 9 43 7 123 -7z
m1640 -69 l105 -22 3 -84 c4 -103 -10 -172 -49 -250 -28 -55 -87 -121 -109
-121 -5 0 8 25 30 56 21 30 41 69 44 85 3 16 9 43 12 59 10 54 -15 32 -32 -27
-28 -97 -118 -213 -165 -213 -26 0 -24 15 4 33 52 34 125 190 110 235 -9 25
-19 10 -32 -48 -16 -71 -71 -155 -119 -183 -46 -27 -51 -14 -13 38 42 58 62
107 71 175 7 55 -4 112 -19 94 -4 -5 -15 -35 -25 -66 -10 -36 -27 -65 -43 -78
-28 -22 -49 -22 -46 1 5 39 34 140 52 182 27 63 90 157 104 157 7 -1 59 -11
117 -23z m-1688 -177 c-8 -57 8 -118 49 -178 21 -33 39 -65 39 -71 0 -18 -30
-13 -37 7 -4 9 -19 37 -35 61 -23 37 -28 56 -28 110 0 46 -3 62 -10 51 -5 -8
-10 -39 -10 -69 0 -41 7 -66 32 -111 20 -37 29 -64 24 -75 -9 -25 -28 -5 -33
35 -1 17 -10 42 -19 55 -30 46 -10 215 25 215 4 0 6 -14 3 -30z m1492 -187
c-27 -57 -28 -57 -32 -27 -2 24 4 39 25 61 15 16 30 28 32 26 1 -1 -10 -28
-25 -60z"/>
<path d="M1306 3971 c-15 -16 -45 -37 -67 -46 -21 -10 -37 -20 -35 -22 9 -9
112 47 124 68 20 32 9 32 -22 0z"/>
<path d="M1454 3901 c-31 -19 -67 -61 -60 -69 3 -2 19 7 36 20 23 17 47 24 88
25 32 1 60 2 65 3 14 0 7 28 -9 34 -31 12 -90 6 -120 -13z"/>
<path d="M1680 3831 c0 -10 13 -63 29 -117 34 -112 33 -114 -43 -114 -57 0
-53 -17 7 -27 42 -6 87 17 87 45 0 10 -13 56 -30 102 -16 47 -30 95 -30 108 0
12 -4 22 -10 22 -5 0 -10 -8 -10 -19z"/>
<path d="M1745 3840 c-7 -11 0 -13 29 -10 14 1 17 -2 12 -17 -9 -21 -9 -22 -7
-45 2 -27 30 -21 37 8 10 37 -10 74 -40 74 -14 0 -28 -4 -31 -10z"/>
<path d="M1490 3825 c-16 -19 -5 -34 12 -17 7 7 18 12 26 12 11 0 12 -3 2 -14
-14 -18 -10 -58 7 -64 21 -6 38 44 25 73 -13 29 -52 34 -72 10z"/>
<path d="M1460 3531 c0 -22 54 -71 95 -87 65 -24 122 -15 158 27 34 42 34 53
0 46 -15 -3 -68 1 -117 9 -108 16 -136 17 -136 5z m125 -26 c44 -8 86 -14 94
-15 11 0 11 -3 1 -15 -16 -19 -92 -20 -129 -1 -24 13 -61 46 -50 46 2 0 40 -7
84 -15z"/>
<path d="M1863 3151 c-54 -35 -84 -61 -69 -61 3 0 33 18 67 40 34 22 66 40 71
40 4 0 8 5 8 10 0 17 -15 11 -77 -29z"/>
<path d="M2100 2943 c-33 -80 -64 -229 -49 -239 5 -3 9 10 9 28 0 46 35 169
65 229 28 54 29 59 16 59 -5 0 -24 -35 -41 -77z"/>
<path d="M1698 2653 c-33 -2 -58 -9 -58 -15 0 -7 13 -8 38 -4 20 3 115 6 211
6 96 0 172 3 168 6 -7 7 -274 12 -359 7z"/>
<path d="M796 2948 c-10 -38 -7 -256 4 -263 6 -4 10 45 10 139 0 80 -2 146 -4
146 -2 0 -6 -10 -10 -22z"/>
<path d="M805 2660 c-25 -11 65 -11 175 0 73 7 72 7 -40 8 -63 0 -124 -3 -135
-8z"/>
<path d="M1080 2275 c-16 -19 -9 -49 14 -53 26 -5 40 12 32 42 -7 29 -27 34
-46 11z"/>
<path d="M1054 1896 c-10 -26 1 -51 22 -54 24 -3 38 20 29 49 -7 22 -43 25
-51 5z"/>
<path d="M1011 1541 c-15 -27 -3 -53 23 -49 16 2 21 10 21 33 0 36 -28 46 -44
16z"/>
<path d="M964 1275 c-8 -21 2 -45 19 -45 20 0 40 27 33 45 -7 19 -45 20 -52 0z"/>
<path d="M2283 1992 c-86 -43 -111 -63 -80 -62 21 1 180 85 185 98 6 18 -5 15
-105 -36z"/>
<path d="M2205 1851 c-5 -9 162 -21 171 -12 2 2 1 8 -2 12 -7 12 -161 11 -169
0z"/>
<path d="M2174 1311 c3 -4 38 -11 78 -15 40 -3 89 -9 108 -12 51 -9 25 11 -32
25 -55 13 -162 15 -154 2z"/>
<path d="M630 2065 c13 -15 122 -85 134 -85 22 0 -4 25 -62 60 -72 42 -92 50
-72 25z"/>
<path d="M622 1878 c3 -9 28 -14 74 -16 86 -4 75 13 -15 22 -50 6 -62 4 -59
-6z"/>
<path d="M525 1380 c3 -5 21 -10 38 -10 18 -1 56 -9 85 -19 37 -13 52 -15 52
-6 0 7 -26 20 -58 29 -66 18 -126 21 -117 6z"/>
<path d="M1510 2231 c0 -11 49 -21 55 -11 5 9 -18 20 -41 20 -8 0 -14 -4 -14
-9z"/>
<path d="M1704 1993 c12 -299 43 -633 59 -633 6 0 7 17 3 41 -15 92 -37 386
-43 567 -4 117 -10 192 -16 192 -7 0 -8 -58 -3 -167z"/>
<path d="M1921 2100 c-2 -104 52 -654 65 -669 14 -15 14 21 0 113 -9 58 -23
195 -31 304 -9 108 -19 224 -24 257 l-8 60 -2 -65z"/>
<path d="M1814 2018 c3 -46 8 -128 11 -183 8 -134 34 -411 41 -441 11 -42 22
-26 14 19 -12 59 -38 374 -46 545 -4 78 -11 142 -16 142 -6 0 -7 -34 -4 -82z"/>
<path d="M1500 1860 c0 -5 14 -10 30 -10 17 0 30 5 30 10 0 6 -13 10 -30 10
-16 0 -30 -4 -30 -10z"/>
<path d="M1535 1520 c-4 -6 7 -10 24 -10 17 0 31 5 31 10 0 6 -11 10 -24 10
-14 0 -28 -4 -31 -10z"/>
<path d="M1555 1230 c8 -13 75 -13 95 0 11 7 -2 10 -43 10 -36 0 -56 -4 -52
-10z"/>
<path d="M1295 1612 c-55 -8 -102 -16 -104 -18 -14 -13 19 -13 114 1 60 8 110
15 112 15 2 0 3 5 3 10 0 11 7 12 -125 -8z"/>
<path d="M1249 1499 c23 -11 68 -22 100 -25 l56 -4 -70 18 c-124 32 -135 33
-86 11z"/>
<path d="M1681 2358 c0 -46 4 -92 9 -103 6 -13 9 13 9 77 1 55 -3 100 -9 103
-6 4 -10 -24 -9 -77z"/>
<path d="M848 2015 c-6 -142 -45 -464 -63 -512 -2 -7 0 -15 4 -18 27 -16 87
531 72 650 -5 36 -9 1 -13 -120z"/>
<path d="M950 2168 c0 -111 -75 -696 -96 -752 -3 -9 -2 -16 4 -16 20 0 61 253
87 535 8 94 17 187 20 208 3 21 1 37 -5 37 -5 0 -10 -5 -10 -12z"/>
<path d="M1220 1010 c-25 -16 15 -23 87 -16 65 7 65 7 59 -16 -29 -105 -98
-592 -103 -723 -2 -66 -4 -127 -6 -135 -1 -8 2 -39 6 -67 15 -101 25 -52 20
100 -4 126 0 186 22 351 14 110 35 249 46 310 35 198 35 192 8 199 -36 10
-122 8 -139 -3z"/>
</g>
</svg>
