<?xml version="1.0" standalone="no"?>
<!DOCTYPE svg PUBLIC "-//W3C//DTD SVG 20010904//EN"
 "http://www.w3.org/TR/2001/REC-SVG-20010904/DTD/svg10.dtd">
<svg version="1.0" xmlns="http://www.w3.org/2000/svg"
 width="300.000000pt" height="450.000000pt" viewBox="0 0 300.000000 450.000000"
 preserveAspectRatio="xMidYMid meet">
<metadata>
Created by potrace 1.10, written by Peter Selinger 2001-2011
</metadata>
<g transform="translate(0.000000,450.000000) scale(0.100000,-0.100000)"
fill="#000000" stroke="none">
<path d="M1310 4311 c-77 -30 -126 -68 -170 -130 -41 -58 -101 -101 -141 -101
-28 0 -59 -31 -69 -70 -14 -54 0 -105 45 -157 41 -48 43 -58 14 -73 -16 -9
-26 -8 -44 4 -35 23 -45 20 -45 -14 0 -36 30 -68 69 -76 l28 -6 -29 -28 c-45
-45 -33 -121 27 -168 14 -11 25 -27 25 -35 0 -18 -32 -28 -51 -16 -46 29 -53
-19 -10 -62 16 -16 39 -29 51 -29 33 0 20 -21 -41 -62 -70 -48 -112 -95 -106
-118 4 -14 -5 -21 -41 -31 -56 -16 -152 -79 -184 -122 -68 -88 -99 -185 -154
-477 -79 -427 -75 -383 -77 -775 l-2 -360 28 -57 c19 -40 27 -72 27 -110 0
-30 4 -58 9 -64 6 -5 5 -55 -2 -127 -9 -102 -9 -124 6 -171 22 -68 55 -117 92
-136 17 -9 43 -24 58 -34 15 -10 45 -22 65 -27 20 -4 49 -11 65 -15 30 -7 57
9 57 35 0 9 -13 33 -30 53 -41 50 -50 79 -49 161 1 65 2 69 11 37 23 -81 41
-121 59 -131 11 -5 23 -8 28 -5 19 12 51 -552 34 -601 -9 -24 -8 -37 2 -57 10
-18 11 -35 4 -58 -12 -42 -12 -98 0 -98 16 0 34 136 21 160 -8 15 -8 29 0 53
9 24 7 100 -8 322 -10 160 -16 296 -12 303 4 8 3 37 -2 65 -8 49 -13 336 -5
343 1 2 13 1 25 -3 22 -5 22 -8 22 -177 0 -158 8 -372 29 -769 5 -94 4 -180
-2 -213 -5 -30 -6 -62 -1 -72 5 -11 11 6 19 54 9 55 8 120 -2 280 -7 115 -16
360 -19 545 l-7 336 84 -18 c46 -11 142 -22 212 -26 147 -7 143 -9 152 77 11
95 6 90 101 90 l86 0 -8 -125 -7 -125 35 0 c38 0 75 28 83 63 10 42 24 171 19
179 -3 4 24 8 59 8 l64 0 7 -67 c4 -38 11 -74 15 -82 11 -18 106 -8 194 19 33
11 64 17 67 15 7 -4 21 -145 40 -414 6 -74 10 -245 10 -380 0 -207 -4 -259
-20 -331 -23 -100 -24 -113 -9 -108 7 2 22 47 35 98 20 82 23 121 24 288 0
234 -19 567 -46 817 -5 48 -4 51 25 67 29 16 31 21 31 74 0 55 1 56 18 40 12
-10 24 -44 31 -86 7 -39 20 -77 28 -85 11 -12 13 -27 8 -63 -4 -30 0 -72 10
-117 11 -46 14 -88 10 -122 -6 -47 -4 -55 19 -77 l24 -25 -19 -26 c-26 -32
-22 -79 6 -83 11 -2 30 -8 41 -14 15 -7 28 -7 42 1 11 6 29 11 39 11 38 0 86
68 109 155 23 85 14 185 -29 327 -11 34 -12 49 -3 58 6 6 12 39 12 73 1 34 5
103 9 152 5 69 2 124 -14 233 -12 79 -21 170 -21 202 0 35 -7 74 -17 95 -14
30 -15 43 -6 78 11 42 8 79 -15 162 -6 22 -25 150 -42 285 -17 135 -38 277
-46 315 -18 86 -61 179 -104 223 -32 34 -118 82 -145 82 -24 0 -17 17 10 24
31 8 33 33 3 38 -31 4 -35 35 -8 62 36 40 44 89 21 141 -11 25 -25 45 -30 45
-6 0 -11 5 -11 10 0 6 11 10 24 10 33 0 76 37 76 65 0 22 -4 24 -37 22 -33 -2
-38 1 -41 21 -2 13 8 36 27 59 25 31 31 47 31 86 0 57 -10 79 -58 130 -20 20
-31 37 -24 37 24 0 52 40 52 73 0 44 -6 48 -41 29 -26 -15 -31 -16 -56 -2 -16
8 -51 51 -79 94 -67 100 -113 147 -184 185 -82 44 -164 59 -315 59 -100 1
-140 -4 -175 -17z m98 -22 c-10 -5 -18 -14 -18 -20 0 -5 12 -2 27 8 21 14 49
17 142 17 105 0 123 -2 183 -28 88 -36 145 -88 213 -192 62 -94 88 -115 140
-117 21 -1 35 -6 35 -14 0 -15 -32 -33 -59 -33 -32 0 -26 -12 33 -71 75 -75
81 -109 32 -188 -20 -33 -36 -65 -36 -72 0 -18 41 -59 59 -59 34 0 -15 -30
-52 -32 -23 -1 -34 -5 -30 -12 4 -6 20 -31 35 -55 33 -52 35 -89 9 -122 -34
-45 -42 -68 -31 -88 12 -24 -7 -42 -21 -20 -7 11 -9 10 -9 -3 0 -26 -21 -21
-58 13 -30 27 -33 33 -23 60 6 18 6 29 0 29 -5 0 -9 -7 -9 -15 0 -8 -15 -21
-34 -29 -18 -8 -37 -19 -40 -25 -11 -18 -26 -13 -20 7 3 9 -4 0 -16 -22 -12
-21 -19 -47 -17 -58 5 -17 2 -18 -24 -13 -26 6 -29 4 -29 -21 0 -41 -61 -108
-127 -140 -49 -23 -66 -26 -120 -21 -75 6 -130 32 -161 77 -12 18 -21 35 -19
36 1 2 27 -9 56 -23 77 -39 199 -44 255 -11 22 13 53 40 69 60 28 35 29 39 14
56 -9 10 -23 35 -32 56 -15 35 -15 42 1 92 14 46 15 61 5 94 -7 23 -9 62 -6
91 5 45 2 57 -22 93 -23 35 -27 50 -25 104 1 62 1 62 -37 88 -26 17 -41 35
-45 56 -11 57 -43 94 -110 127 l-63 32 -6 58 c-4 32 -9 65 -12 73 -10 25 -59
41 -104 33 -43 -7 -55 7 -29 33 9 9 9 12 1 12 -17 0 -58 -57 -98 -138 -20 -39
-48 -81 -63 -93 -15 -11 -27 -25 -27 -30 0 -5 -7 -14 -15 -20 -12 -8 -11 -9 5
-7 23 3 23 -9 10 -233 -7 -109 -6 -123 20 -214 27 -95 27 -97 9 -115 -11 -10
-32 -22 -48 -26 -26 -6 -27 -5 -17 14 15 29 15 29 -23 42 -44 14 -68 40 -37
40 21 0 61 32 61 49 0 6 -18 31 -40 56 -50 58 -52 95 -10 145 37 42 37 50 5
50 -26 0 -75 26 -75 39 0 4 13 6 29 3 22 -3 36 2 56 22 24 24 25 27 11 54 -8
16 -22 35 -32 43 -9 8 -23 28 -31 46 -29 72 -7 124 62 142 58 16 90 40 140
108 36 50 57 67 116 97 44 22 86 36 108 36 29 -1 33 -3 19 -11z m-42 -177 c6
-4 15 -34 19 -66 4 -33 9 -66 13 -74 3 -8 33 -27 68 -43 70 -32 92 -56 101
-113 4 -29 15 -44 43 -65 l37 -26 -5 -67 c-4 -65 -4 -67 28 -97 33 -29 33 -30
22 -83 -8 -42 -7 -62 4 -96 13 -37 13 -45 -1 -64 -22 -32 -19 -116 5 -155 11
-18 24 -33 30 -33 22 0 -24 -50 -63 -69 -67 -32 -105 -34 -178 -12 -130 41
-199 124 -166 202 14 33 19 36 67 42 103 12 224 89 265 167 23 45 0 47 -30 2
-46 -69 -144 -125 -251 -142 -111 -18 -173 7 -216 87 -40 73 -51 156 -43 322
l7 143 50 -4 c45 -5 49 -3 46 15 -5 31 -32 44 -67 30 -44 -16 -45 -5 -5 40 35
38 84 129 84 155 0 13 116 17 136 4z m-216 -819 c1 -37 58 -83 102 -83 27 0
29 -4 88 -188 33 -104 60 -193 60 -198 0 -5 -16 23 -35 61 -39 82 -123 169
-201 208 -59 30 -173 66 -240 75 l-49 7 37 35 c25 24 65 45 125 66 106 38 113
39 113 17z m123 -17 c24 -8 12 -26 -17 -26 -21 0 -43 17 -60 48 -6 9 1 9 26
-2 18 -8 41 -17 51 -20z m713 -97 c22 -17 40 -32 42 -34 2 -1 -44 -49 -101
-106 -67 -68 -107 -116 -115 -139 -9 -28 -10 -16 -4 65 3 55 6 110 5 122 -1
20 5 22 55 25 33 2 57 8 60 16 2 7 -5 12 -17 12 -30 0 -28 42 2 56 32 17 31
17 73 -17z m-1021 -49 c3 -5 -34 -21 -85 -36 -49 -15 -90 -31 -90 -35 0 -15
163 33 190 56 12 10 25 10 67 -2 47 -14 51 -17 43 -37 -4 -12 -9 -46 -11 -76
l-4 -55 94 2 c92 2 93 2 75 -18 -17 -19 -16 -21 13 -52 28 -29 32 -41 38 -116
l7 -84 -191 7 c-130 5 -191 4 -191 -4 0 -6 41 -10 113 -10 144 0 277 -11 277
-22 0 -4 -93 -7 -207 -6 l-208 3 -6 52 c-19 150 -69 293 -122 343 -33 31 -33
34 1 50 84 40 184 60 197 40z m1193 -30 c57 -27 82 -45 82 -57 0 -10 -7 -102
-17 -204 l-17 -187 -91 -7 c-50 -3 -95 -6 -100 -5 -6 1 -42 2 -81 1 l-72 -1 5
-47 c3 -27 11 -55 18 -63 7 -8 15 -61 19 -120 10 -147 9 -145 82 -186 64 -36
65 -36 92 -18 76 49 68 67 64 -149 -2 -106 1 -248 8 -317 23 -251 24 -277 7
-303 -16 -24 -108 -61 -184 -73 l-38 -6 -23 189 c-13 103 -27 269 -32 368 -14
266 -30 739 -25 743 2 3 76 7 165 10 96 3 160 9 160 15 0 6 -57 7 -163 3
l-163 -7 -2 40 c-3 40 31 124 66 163 12 15 13 20 1 34 -12 14 -8 15 32 13 51
-4 57 7 41 79 -9 39 -8 44 24 77 19 20 34 41 34 46 0 17 25 10 108 -31z m-988
-41 c45 -27 80 -59 80 -74 0 -11 -137 -31 -147 -22 -8 9 11 117 21 117 6 0 27
-10 46 -21z m-422 -32 c55 -58 109 -235 119 -387 6 -105 -9 -336 -33 -488 -21
-132 -32 -286 -40 -542 -5 -157 -10 -221 -20 -237 -9 -14 -14 -50 -14 -92 l0
-70 -52 -5 c-29 -3 -90 -7 -134 -9 l-82 -4 -4 62 c-3 34 -13 73 -22 87 -30 46
-35 86 -35 331 -2 350 6 471 39 642 16 83 38 202 50 265 44 241 85 360 151
435 36 41 48 43 77 12z m1222 -21 c0 -13 3 -31 6 -39 4 -12 -3 -15 -35 -14
-48 2 -50 11 -14 49 33 34 43 35 43 4z m-210 1 c0 -21 -46 -130 -101 -240
l-50 -99 -52 67 c-61 79 -169 247 -162 253 2 2 16 -5 30 -16 34 -27 125 -45
178 -37 54 9 113 40 127 65 12 23 30 27 30 7z m10 -70 c-28 -76 -129 -281
-136 -274 -3 3 24 65 60 138 35 74 70 154 77 178 7 24 15 38 17 32 2 -7 -6
-40 -18 -74z m539 13 c27 -58 37 -102 61 -272 16 -112 34 -246 40 -298 6 -52
21 -131 32 -175 17 -70 18 -87 8 -131 -10 -41 -10 -55 1 -75 8 -13 16 -60 20
-104 3 -44 16 -154 29 -245 20 -146 21 -172 9 -230 -7 -36 -11 -85 -10 -110
l2 -45 -74 3 c-52 3 -84 -1 -112 -12 -46 -20 -50 -15 -60 60 -4 35 -14 61 -31
79 -18 20 -24 37 -24 75 0 26 -7 108 -17 182 -19 158 -22 499 -4 633 6 50 14
120 18 157 3 38 12 73 19 79 10 8 14 35 14 83 0 39 7 127 15 196 8 69 15 146
15 173 0 26 4 47 9 47 4 0 23 -31 40 -70z m-987 -33 c80 -126 97 -247 98 -667
0 -277 -12 -485 -46 -784 -29 -262 -30 -266 -57 -266 -184 0 -527 80 -527 122
0 9 16 63 25 85 1 2 24 -6 52 -17 81 -31 201 -58 305 -69 124 -14 188 -14 168
-1 -8 5 -30 10 -49 10 -32 0 -33 1 -27 33 6 31 17 133 37 332 26 272 29 1052
4 1120 -12 32 45 -53 61 -90 18 -44 18 -45 -6 -45 -11 0 -20 -3 -20 -7 0 -5
11 -8 25 -8 21 0 25 5 25 31 0 41 -43 125 -90 173 -35 36 -38 42 -27 65 7 14
14 26 17 26 3 0 17 -19 32 -43z m529 -98 c-34 -67 -44 -99 -47 -147 -3 -47 0
-62 10 -62 10 0 12 11 9 44 -3 24 -1 52 5 61 7 13 12 -80 16 -301 9 -492 30
-787 71 -1031 6 -31 4 -33 -24 -33 -16 0 -33 -4 -36 -10 -17 -28 168 8 276 54
13 6 17 -1 22 -30 8 -50 -3 -67 -65 -94 -52 -22 -228 -63 -236 -55 -9 8 -51
389 -63 565 -15 226 -6 890 15 1001 13 70 33 125 59 157 8 10 12 7 21 -10 10
-19 5 -35 -33 -109z m-303 -97 c24 -29 41 -56 38 -60 -4 -3 -18 7 -32 23 -41
50 -164 235 -164 248 0 6 25 -26 56 -73 31 -47 77 -109 102 -138z m227 126
c-8 -50 -13 -166 -21 -498 -6 -301 1 -527 28 -795 6 -66 12 -133 12 -150 l1
-30 -197 0 c-108 0 -198 2 -201 5 -2 3 2 55 9 115 30 263 38 416 38 750 0 229
-5 378 -13 430 -7 44 -14 91 -16 105 -9 53 11 54 45 4 18 -27 49 -69 69 -94
35 -43 36 -47 41 -150 5 -114 10 -121 63 -101 27 10 27 11 27 114 l0 104 56
112 c31 61 58 111 61 111 2 0 1 -15 -2 -32z m-852 -280 c3 -34 10 -64 15 -66
6 -2 8 -48 5 -121 l-6 -118 84 -50 83 -51 76 40 c41 23 80 46 87 52 7 7 15 58
19 129 4 65 12 120 17 124 23 14 -9 -751 -43 -1033 -18 -149 -15 -143 -63
-138 -99 11 -227 38 -297 62 l-75 27 0 180 c0 189 14 398 39 575 9 58 21 183
28 278 6 94 15 172 19 172 3 0 9 -28 12 -62z m1277 42 c0 -8 3 -25 6 -38 5
-19 -3 -32 -41 -68 -26 -24 -58 -44 -69 -44 -26 0 -187 76 -198 93 -4 7 -8 26
-8 42 l0 30 155 0 c133 1 155 -2 155 -15z m-902 -36 l3 -42 -84 -43 -84 -43
-89 38 c-49 21 -90 39 -91 40 0 0 -4 22 -8 49 l-7 47 178 -2 179 -3 3 -41z
m342 -34 c0 -44 -4 -80 -9 -80 -5 0 -16 -3 -25 -6 -14 -5 -16 6 -16 80 0 85 0
86 25 86 25 0 25 -1 25 -80z m301 -40 c16 -9 19 -23 21 -108 l2 -97 3 93 c2
50 6 92 9 92 2 0 28 -12 57 -26 44 -23 56 -25 80 -16 l29 11 -7 -75 c-5 -52
-4 -74 4 -74 26 0 7 -27 -40 -58 l-50 -33 -54 31 c-60 34 -61 37 -70 135 -3
39 -8 85 -11 103 -5 35 -2 37 27 22z m-950 -111 l5 -94 2 88 c1 48 6 87 11 87
5 0 30 -9 56 -20 58 -25 81 -25 130 0 21 11 41 18 43 15 3 -2 -1 -39 -7 -81
-10 -69 -9 -96 3 -83 2 2 9 44 15 93 10 84 16 105 25 95 8 -8 -11 -223 -20
-226 -5 -2 -40 -20 -78 -41 l-70 -38 -72 41 -73 40 -1 113 c0 87 3 113 13 110
8 -3 14 -37 18 -99z m1174 1 l-13 -85 -1 76 c-1 46 4 80 11 87 6 6 12 11 13 9
1 -1 -3 -40 -10 -87z m-500 -1092 c-11 -91 -26 -156 -38 -166 -7 -6 -25 -14
-40 -17 -28 -7 -28 -7 -22 26 3 19 7 73 8 121 l2 88 48 0 48 0 -6 -52z m-851
-24 c13 -5 16 -23 16 -98 l0 -91 -19 41 c-10 23 -23 44 -27 47 -11 6 -5 107 6
107 5 0 15 -3 24 -6z m1690 -144 c41 -176 30 -302 -35 -384 -41 -52 -53 -22
-18 45 34 67 30 135 -11 213 -19 36 -40 66 -46 66 -15 0 -24 -48 -24 -129 0
-69 -10 -91 -41 -91 -14 0 -18 15 -23 98 -3 53 -9 121 -12 150 -8 74 2 121 29
132 12 5 52 9 89 9 l66 1 26 -110z m-1736 23 c31 -45 53 -104 62 -168 5 -33
11 -79 15 -102 7 -39 6 -43 -13 -43 -28 0 -48 32 -62 102 -11 57 -30 85 -50
73 -15 -9 -13 -189 4 -228 7 -18 25 -43 40 -56 33 -31 33 -41 -1 -41 -57 0
-133 121 -133 213 0 18 -4 27 -12 24 -26 -8 5 -142 44 -192 27 -34 20 -39 -19
-14 -39 25 -93 127 -93 176 0 18 -4 33 -10 33 -17 0 -11 -73 10 -119 26 -57
18 -64 -14 -12 -45 70 -55 131 -43 258 l10 112 91 4 c50 1 105 4 123 5 24 2
36 -4 51 -25z m1681 -258 c0 -59 -47 -178 -72 -183 -23 -5 -21 20 3 51 48 61
63 139 35 187 -8 14 -14 36 -15 50 0 22 3 21 25 -15 17 -29 24 -54 24 -90z
m-43 -12 c-7 -53 -74 -169 -89 -154 -7 7 4 32 31 74 30 46 42 74 42 101 0 25
4 35 11 30 7 -4 9 -23 5 -51z"/>
<path d="M1327 4192 c-11 -5 3 -8 38 -8 48 0 59 -3 76 -24 10 -14 19 -20 19
-14 0 32 -90 64 -133 46z"/>
<path d="M1462 4075 l3 -60 70 -33 c38 -19 74 -39 78 -45 6 -9 8 -8 5 1 -4 14
-51 42 -109 65 -34 14 -35 17 -38 68 -1 29 -4 56 -7 58 -3 3 -4 -21 -2 -54z"/>
<path d="M1626 3922 c-3 -6 -2 -13 2 -16 5 -3 9 -20 10 -37 0 -17 5 -36 11
-42 6 -6 8 6 4 34 -7 52 -17 76 -27 61z"/>
<path d="M1311 3907 c-42 -21 -34 -32 18 -29 28 2 74 -3 103 -12 29 -8 54 -13
56 -11 17 16 -74 65 -123 65 -16 0 -41 -6 -54 -13z"/>
<path d="M1210 3822 c0 -10 -18 -55 -40 -101 -45 -92 -49 -116 -22 -130 22
-11 109 -18 118 -9 15 15 -11 28 -56 28 -27 0 -51 4 -55 9 -3 6 10 41 29 78
44 88 60 143 40 143 -8 0 -14 -8 -14 -18z"/>
<path d="M1150 3815 c-15 -18 -5 -68 13 -62 22 7 29 77 7 77 -4 0 -13 -7 -20
-15z"/>
<path d="M1340 3794 c-13 -34 -13 -39 6 -55 20 -17 34 2 34 49 0 40 -26 44
-40 6z"/>
<path d="M1265 3525 c-62 -8 -84 -14 -72 -20 19 -8 142 0 174 12 17 6 17 5 -1
-15 -26 -30 -89 -46 -128 -33 -22 8 -29 8 -25 -2 6 -19 51 -30 92 -23 24 5 51
20 72 41 59 59 50 62 -112 40z"/>
<path d="M1035 3201 c3 -5 18 -12 35 -16 16 -3 48 -20 70 -36 45 -33 71 -31
30 2 -50 40 -153 78 -135 50z"/>
<path d="M800 3039 c0 -3 13 -32 29 -64 16 -32 42 -103 57 -159 30 -109 31
-112 40 -103 8 8 -41 175 -70 240 -22 49 -55 99 -56 86z"/>
<path d="M2074 3096 c11 -9 46 -26 78 -38 67 -26 65 -19 43 -173 -17 -113 -19
-173 -6 -140 11 27 34 244 30 275 -3 19 -17 31 -59 51 -30 14 -66 29 -80 33
-24 7 -24 6 -6 -8z"/>
<path d="M2112 1980 c-2 -252 14 -420 40 -420 6 0 7 7 4 16 -16 42 -28 178
-35 394 l-8 235 -1 -225z"/>
<path d="M1953 2003 c4 -104 11 -226 17 -273 20 -163 43 -290 53 -290 5 0 7
13 3 33 -26 126 -47 330 -53 510 -4 127 -10 207 -16 207 -7 0 -8 -65 -4 -187z"/>
<path d="M2040 1972 c0 -222 35 -522 61 -522 6 0 8 8 5 18 -22 69 -39 244 -43
450 -3 127 -9 232 -14 232 -5 0 -9 -80 -9 -178z"/>
<path d="M570 2094 c0 -5 37 -32 82 -59 94 -58 98 -60 98 -47 0 6 -33 31 -73
56 -82 51 -107 62 -107 50z"/>
<path d="M563 1886 c5 -14 178 -15 175 -2 -2 6 -42 10 -91 11 -58 1 -86 -2
-84 -9z"/>
<path d="M575 1343 c-58 -5 -87 -12 -81 -21 3 -5 42 -4 88 0 46 5 98 6 116 3
17 -3 32 -2 32 3 0 21 -43 25 -155 15z"/>
<path d="M2281 2035 c-87 -45 -115 -65 -93 -65 15 0 138 62 167 83 43 33 6 23
-74 -18z"/>
<path d="M2280 1868 c-93 -13 -105 -32 -15 -24 83 8 105 14 105 27 0 10 0 10
-90 -3z"/>
<path d="M2345 1401 c-38 -9 -78 -31 -71 -38 3 -3 26 0 51 7 26 7 70 14 98 15
64 3 66 3 47 15 -17 11 -81 11 -125 1z"/>
<path d="M1330 2630 c0 -5 14 -10 31 -10 17 0 28 4 24 10 -3 6 -17 10 -31 10
-13 0 -24 -4 -24 -10z"/>
<path d="M1344 2286 c-10 -26 4 -48 28 -44 17 2 23 10 23 28 0 18 -6 26 -23
28 -13 2 -25 -3 -28 -12z"/>
<path d="M1334 1886 c-9 -24 4 -48 23 -44 24 4 24 52 0 56 -9 2 -20 -4 -23
-12z"/>
<path d="M1312 1558 c-16 -16 -15 -33 4 -48 22 -19 54 12 38 37 -14 22 -27 26
-42 11z"/>
<path d="M1255 1280 c-12 -20 6 -51 28 -48 31 4 31 52 0 56 -11 2 -24 -2 -28
-8z"/>
<path d="M1860 1280 c-11 -7 -5 -10 23 -10 20 0 37 5 37 10 0 13 -40 13 -60 0z"/>
<path d="M1590 1650 c-52 -21 -104 -41 -115 -44 -10 -3 -16 -8 -13 -11 8 -8
130 35 193 68 70 36 47 32 -65 -13z"/>
<path d="M1500 1532 c0 -14 184 -26 207 -13 14 8 -6 10 -79 11 -53 0 -103 3
-112 6 -9 3 -16 2 -16 -4z"/>
<path d="M986 2133 c-3 -38 -8 -108 -11 -158 -4 -49 -17 -177 -31 -284 -27
-216 -27 -221 -16 -221 15 0 60 406 75 668 4 84 -9 79 -17 -5z"/>
<path d="M1206 2068 c-8 -136 -27 -327 -54 -545 -10 -79 -14 -143 -10 -143 4
0 10 10 13 23 15 70 74 670 75 760 0 15 -4 27 -9 27 -4 0 -11 -55 -15 -122z"/>
<path d="M1082 1913 c-21 -200 -44 -391 -57 -485 -3 -21 -1 -38 4 -38 9 0 31
156 61 440 11 107 23 219 26 248 3 28 2 52 -3 52 -5 0 -19 -98 -31 -217z"/>
<path d="M1920 2588 c0 -22 10 -33 60 -63 33 -20 65 -35 72 -33 6 2 -14 18
-45 36 -31 17 -63 44 -71 59 l-15 28 -1 -27z"/>
<path d="M2128 2535 c-26 -25 -42 -45 -36 -45 15 0 98 69 98 81 0 17 -15 9
-62 -36z"/>
<path d="M2060 2554 c-11 -12 -10 -18 3 -32 16 -15 18 -15 34 0 13 14 14 20 3
32 -7 9 -16 16 -20 16 -4 0 -13 -7 -20 -16z"/>
<path d="M972 2579 c3 -27 12 -36 76 -71 66 -37 75 -39 102 -28 55 23 117 68
123 89 7 27 -5 27 -18 0 -6 -11 -36 -35 -68 -52 l-58 -32 -67 36 c-54 28 -68
40 -70 62 -2 15 -8 27 -13 27 -6 0 -9 -14 -7 -31z"/>
<path d="M1106 2544 c-4 -10 -2 -22 3 -27 15 -15 46 -3 46 18 0 26 -40 33 -49
9z"/>
<path d="M1750 1117 c-106 -17 -165 -30 -153 -34 20 -7 196 16 207 27 15 15 5
17 -54 7z"/>
<path d="M1363 1087 c-8 -13 25 -19 92 -15 36 1 65 0 65 -4 0 -4 -11 -62 -25
-130 -14 -68 -43 -231 -66 -363 -22 -132 -48 -278 -58 -325 -25 -114 -34 -250
-16 -250 9 0 15 26 20 88 3 48 15 125 25 172 10 47 37 200 60 340 22 140 44
264 49 274 7 18 83 -343 109 -519 12 -75 9 -187 -5 -240 -23 -83 -25 -115 -8
-115 9 0 15 9 15 25 0 14 9 52 20 84 15 45 17 66 10 91 -6 21 -6 39 1 51 14
28 -68 487 -115 643 -11 37 -13 61 -6 92 5 23 9 57 8 75 l-1 34 -85 0 c-46 0
-86 -3 -89 -8z"/>
<path d="M1561 1054 c-1 -6 19 -93 44 -193 94 -381 122 -623 89 -766 -16 -69
-17 -95 -6 -95 15 0 46 185 34 205 -7 13 -7 27 0 44 18 49 -26 321 -102 621
-29 114 -58 205 -59 184z"/>
<path d="M1580 1051 c0 -9 70 -19 89 -13 6 2 9 8 5 13 -7 12 -94 12 -94 0z"/>
</g>
</svg>
