<?xml version="1.0" standalone="no"?>
<!DOCTYPE svg PUBLIC "-//W3C//DTD SVG 20010904//EN"
 "http://www.w3.org/TR/2001/REC-SVG-20010904/DTD/svg10.dtd">
<svg version="1.0" xmlns="http://www.w3.org/2000/svg"
 width="300.000000pt" height="450.000000pt" viewBox="0 0 300.000000 450.000000"
 preserveAspectRatio="xMidYMid meet">
<metadata>
Created by potrace 1.10, written by Peter Selinger 2001-2011
</metadata>
<g transform="translate(0.000000,450.000000) scale(0.100000,-0.100000)"
fill="#000000" stroke="none">
<path d="M1490 4327 c-16 -9 -50 -12 -96 -9 -62 4 -80 0 -133 -23 -51 -23 -81
-50 -194 -169 -74 -77 -139 -151 -145 -163 -16 -29 -15 -62 2 -111 11 -29 11
-43 3 -51 -17 -17 -27 -14 -57 19 -28 30 -29 30 -40 11 -14 -28 -3 -67 27 -91
l24 -19 -20 -20 c-49 -49 -39 -104 29 -161 27 -23 50 -48 50 -55 0 -19 -36
-24 -65 -9 -50 26 -61 -6 -19 -55 16 -19 35 -31 50 -31 29 0 29 -3 7 -37 -9
-14 -18 -42 -19 -62 -3 -69 -22 -95 -85 -120 -86 -33 -170 -92 -203 -141 -15
-23 -39 -75 -52 -114 -22 -63 -38 -136 -115 -511 -14 -70 -19 -122 -16 -171 4
-59 2 -76 -14 -100 -22 -33 -24 -62 -7 -99 8 -19 8 -34 -1 -62 -7 -21 -14 -74
-15 -118 -2 -44 -6 -121 -11 -171 -7 -83 -6 -96 14 -136 13 -29 21 -64 21 -99
0 -30 4 -59 9 -65 5 -5 3 -44 -5 -94 -16 -96 -7 -184 26 -237 38 -63 227 -139
251 -102 13 21 12 24 -31 74 -48 56 -70 104 -70 154 1 45 15 24 25 -36 11 -70
65 -112 99 -77 14 13 15 31 10 112 -3 54 -12 118 -20 144 -10 34 -11 54 -4 73
6 14 10 44 10 65 0 21 4 41 9 44 5 3 6 -14 4 -38 -5 -41 -3 -46 28 -66 l34
-22 0 -472 0 -471 28 -65 c16 -36 51 -134 78 -218 36 -111 54 -152 65 -152 10
0 14 6 11 14 -3 8 -29 86 -58 173 -28 87 -60 176 -71 197 -30 59 -41 267 -35
645 3 178 7 325 9 326 2 2 41 -8 88 -21 104 -31 214 -42 225 -24 4 7 13 49 20
94 10 71 14 81 31 78 10 -1 54 -7 97 -14 l77 -12 0 -42 c0 -23 3 -55 6 -72 l6
-31 -76 23 c-42 13 -76 20 -76 16 0 -14 11 -18 111 -45 51 -13 96 -30 101 -37
6 -10 8 -10 8 0 0 7 5 10 11 6 8 -4 7 -9 -2 -15 -7 -4 -19 -4 -25 2 -10 8
-191 -15 -203 -27 -14 -13 18 -14 95 0 49 8 90 14 91 12 2 -1 -6 -28 -17 -60
-18 -54 -46 -175 -111 -484 -24 -117 -28 -146 -18 -165 7 -12 12 -38 10 -58
-1 -19 8 -56 19 -82 12 -26 40 -125 64 -219 23 -95 48 -174 54 -176 7 -2 12 4
12 13 0 34 -91 370 -109 406 -11 21 -17 46 -14 59 3 12 0 38 -6 58 -11 33 -8
60 33 247 58 264 97 426 106 444 5 10 9 6 14 -15 15 -73 57 -352 71 -469 8
-71 20 -163 26 -202 9 -55 9 -79 0 -100 -9 -22 -9 -37 2 -68 9 -26 11 -52 6
-80 -5 -22 -10 -97 -11 -168 -2 -96 0 -127 10 -127 6 0 12 1 12 3 12 121 17
363 8 381 -8 18 -7 33 1 56 9 26 6 69 -14 214 -14 99 -32 232 -40 294 -9 63
-24 157 -35 210 -11 53 -18 97 -17 98 2 2 43 -3 92 -10 50 -8 94 -11 99 -8 18
10 -26 23 -104 29 l-80 6 0 87 0 87 77 7 c130 11 118 17 131 -76 13 -87 21
-99 62 -93 14 3 59 9 100 15 78 11 171 32 204 45 19 8 19 4 12 -126 -3 -74
-13 -219 -21 -324 -8 -104 -17 -219 -20 -255 -2 -36 -8 -101 -11 -145 -4 -44
-8 -109 -9 -145 0 -36 -5 -129 -10 -207 -6 -106 -5 -143 3 -143 7 0 13 1 13 3
2 4 20 289 23 372 2 44 11 168 20 275 15 187 46 642 46 687 0 13 12 28 35 42
35 20 35 21 35 93 l1 73 18 -37 c12 -23 20 -65 22 -110 3 -60 0 -80 -19 -115
-15 -29 -22 -60 -22 -98 0 -31 -5 -76 -11 -101 -9 -34 -9 -47 1 -59 31 -37 77
-8 96 61 l14 49 -4 -48 c-2 -31 -13 -61 -32 -88 -61 -87 -61 -87 -42 -105 19
-19 9 -21 160 32 80 27 119 81 139 191 6 32 9 90 7 129 -4 58 -2 75 14 93 11
15 18 39 18 67 0 25 9 61 22 86 28 53 36 194 19 345 -7 66 -7 111 -1 134 7 25
6 48 -5 87 -12 41 -13 61 -5 92 9 33 6 69 -19 207 -17 93 -35 204 -41 248 -34
236 -82 389 -146 464 -28 33 -154 101 -216 116 -21 5 -28 13 -28 32 0 13 -12
35 -26 48 -24 22 -25 27 -14 59 11 33 6 53 -28 119 -2 4 6 7 18 7 29 0 70 44
70 76 0 21 -3 25 -17 19 -33 -14 -71 -17 -77 -6 -4 6 11 37 34 68 67 97 69
150 8 213 l-33 34 28 27 c17 18 27 38 27 58 0 33 -16 49 -33 32 -18 -18 -62
-12 -84 12 -11 12 -46 63 -77 113 -83 136 -156 193 -293 228 -73 19 -72 19
-103 3z m108 -36 c125 -33 185 -82 272 -226 62 -103 96 -135 142 -135 43 0 47
-9 18 -35 -13 -12 -27 -15 -45 -11 -33 8 -32 -9 1 -31 15 -9 40 -35 55 -57 37
-51 38 -100 3 -147 -14 -19 -35 -51 -45 -72 -19 -37 -19 -40 -3 -58 10 -11 30
-19 48 -19 l30 0 -22 -16 c-12 -8 -35 -17 -50 -19 -15 -2 -29 -4 -31 -4 -3 -1
5 -11 17 -23 29 -31 43 -73 36 -106 l-6 -29 -54 21 c-29 12 -54 27 -54 34 0 6
-4 12 -10 12 -5 0 -10 -8 -10 -18 0 -10 -16 -33 -35 -52 -20 -19 -35 -44 -35
-56 0 -21 -2 -22 -30 -12 -17 5 -39 8 -49 5 -35 -9 -45 9 -49 85 -4 69 -2 75
26 111 41 51 62 120 77 247 12 97 11 107 -5 125 -10 11 -23 40 -30 64 -18 67
-34 85 -110 120 -66 31 -70 36 -88 84 -14 38 -27 56 -50 68 -25 13 -29 19 -19
29 7 8 -1 6 -16 -4 -33 -20 -38 -18 -31 12 7 26 35 36 79 28 27 -5 36 -14 46
-41 14 -36 29 -47 29 -19 0 25 -65 84 -92 84 -29 0 -68 -26 -68 -45 0 -23 -20
-28 -39 -11 -44 40 -76 7 -90 -96 -12 -89 -22 -108 -65 -134 -17 -10 -52 -37
-77 -61 -43 -40 -47 -42 -52 -22 -3 12 1 27 12 37 33 32 61 52 71 52 21 0 58
67 64 118 5 37 4 52 -4 47 -5 -3 -10 -16 -10 -28 0 -60 -20 -94 -75 -131 -59
-39 -79 -72 -69 -112 6 -23 24 -34 24 -14 0 5 10 14 21 21 21 11 22 10 15 -22
-3 -19 -18 -50 -31 -71 -17 -25 -20 -35 -10 -32 12 5 15 -3 15 -38 0 -108 33
-210 84 -257 25 -24 26 -29 21 -95 -7 -85 -26 -121 -55 -106 -14 7 -20 7 -20
0 0 -5 -6 -10 -14 -10 -19 0 -57 49 -49 64 3 6 3 8 -2 4 -4 -4 -16 4 -27 17
-24 31 -40 31 -105 0 -43 -19 -53 -21 -53 -9 0 19 36 90 50 99 20 12 9 21 -22
17 -19 -2 -41 3 -53 12 -19 15 -19 15 9 16 16 0 37 7 47 16 24 22 11 53 -46
107 -60 58 -60 86 0 144 49 46 57 60 24 43 -16 -9 -26 -8 -45 5 -31 20 -30 22
9 17 43 -5 71 20 63 57 -3 14 -9 47 -12 73 l-7 47 80 83 c44 46 104 109 134
141 29 33 73 70 96 83 54 32 138 46 178 30 26 -11 34 -10 60 6 36 22 27 22
113 -1z m-209 -125 c9 -11 6 -15 -14 -18 -30 -6 -39 1 -24 19 14 17 24 17 38
-1z m138 -95 c17 -58 45 -87 103 -106 56 -19 88 -46 95 -83 3 -15 11 -40 18
-57 18 -45 15 -209 -6 -278 -23 -74 -80 -138 -161 -179 -50 -25 -68 -29 -115
-26 -75 5 -140 40 -205 108 -59 62 -70 93 -82 238 -5 55 -3 81 5 86 6 4 11 20
11 36 0 49 17 76 64 104 53 31 75 67 83 139 3 29 10 55 16 58 5 4 43 6 85 5
l76 -1 13 -44z m-222 -701 c31 -34 123 -63 186 -57 58 5 125 33 150 63 12 15
15 7 19 -72 4 -76 7 -89 22 -88 16 2 16 -1 2 -35 -20 -48 -48 -76 -101 -102
-96 -46 -267 -9 -320 71 -26 38 -30 70 -8 70 18 0 28 52 24 119 -4 56 -1 60
26 31z m-237 -137 c14 -26 73 -47 108 -39 22 6 24 3 25 -26 0 -18 6 -66 13
-105 7 -40 9 -73 5 -73 -5 0 -9 4 -9 9 0 32 -188 211 -221 211 -23 0 -3 -22
55 -64 35 -25 81 -65 102 -89 40 -46 90 -134 81 -144 -3 -3 -15 14 -27 37 -29
58 -80 103 -189 168 -119 72 -127 84 -82 123 19 15 53 37 75 48 l41 19 6 -27
c3 -14 11 -36 17 -48z m931 39 c55 -34 69 -55 52 -76 -7 -8 -58 -43 -114 -78
-116 -71 -187 -133 -224 -196 -31 -52 -42 -49 -17 5 25 52 155 181 232 227 58
36 76 56 51 56 -32 0 -207 -144 -249 -206 -18 -25 -33 -44 -35 -42 -2 2 5 39
16 83 10 44 19 100 19 124 0 37 2 42 18 36 35 -15 73 -17 102 -5 32 13 40 30
15 30 -23 0 -18 21 13 51 32 32 57 31 121 -9z m-1109 -112 c12 -7 11 -10 -5
-16 -54 -19 -169 -77 -160 -80 6 -2 50 13 99 35 75 33 92 38 113 28 21 -9 24
-16 18 -41 -4 -17 -9 -48 -12 -70 l-6 -38 82 7 c72 6 81 5 75 -9 -4 -11 3 -24
20 -37 23 -18 26 -28 26 -77 0 -31 -3 -88 -7 -125 l-6 -69 -86 6 c-47 3 -129
8 -181 12 l-96 6 -18 106 c-9 59 -26 145 -37 190 -10 46 -16 88 -13 94 6 9
161 87 174 88 3 0 12 -4 20 -10z m1249 -10 c43 -17 129 -56 138 -64 2 -1 -7
-27 -18 -57 -12 -30 -34 -117 -50 -194 -17 -76 -32 -141 -34 -143 -7 -7 -213
-21 -314 -21 l-93 -1 6 108 c7 105 8 107 42 140 19 18 34 41 34 52 0 22 2 22
90 -1 68 -17 68 -16 45 112 -7 33 -5 37 23 48 27 11 38 8 127 -33 54 -26 100
-44 103 -41 11 11 -22 33 -98 64 -44 18 -80 37 -80 42 0 14 20 11 79 -11z
m-1046 -115 c15 -10 6 -14 -54 -22 l-71 -9 6 29 c3 16 6 38 6 49 0 19 3 18 48
-8 26 -15 55 -33 65 -39z m310 -265 c20 -29 34 -56 31 -59 -21 -21 -179 270
-199 364 -3 17 25 -33 63 -110 37 -77 85 -165 105 -195z m251 287 c-52 -109
-320 -112 -375 -4 -14 27 -17 38 -7 34 114 -50 138 -57 194 -57 66 0 130 18
173 49 14 11 27 18 29 16 2 -1 -5 -18 -14 -38z m40 11 c-29 -96 -192 -373
-209 -356 -3 3 18 41 47 85 29 43 76 127 103 186 28 58 54 106 58 107 5 0 5
-10 1 -22z m271 -37 c6 -38 5 -43 -9 -38 -9 4 -38 9 -66 13 -27 4 -50 9 -50
13 0 11 105 70 111 63 4 -4 10 -27 14 -51z m-1244 -245 c11 -77 19 -154 16
-172 -3 -17 -1 -36 5 -42 5 -5 12 -126 15 -293 5 -274 4 -289 -21 -431 -25
-146 -35 -266 -22 -287 4 -6 0 -21 -8 -33 -8 -13 -18 -45 -21 -71 -6 -39 -11
-47 -24 -42 -65 25 -169 27 -213 3 -16 -8 -18 -3 -18 52 0 39 -6 69 -16 86
-14 21 -16 40 -9 122 5 53 9 134 10 178 2 45 8 98 15 118 9 28 9 43 -1 70 -11
30 -10 40 6 77 14 31 18 60 16 114 -2 56 9 128 44 302 73 360 89 414 148 497
l21 30 18 -70 c10 -38 27 -132 39 -208z m1609 245 c49 -69 86 -203 120 -431
12 -80 33 -205 46 -277 20 -109 22 -140 14 -175 -8 -33 -8 -54 4 -91 10 -34
12 -57 5 -80 -6 -20 -5 -71 2 -139 16 -154 9 -292 -19 -345 -13 -26 -22 -60
-22 -89 0 -40 -2 -45 -17 -39 -66 25 -191 31 -233 12 -13 -6 -14 2 -12 49 3
41 0 60 -12 73 -57 63 -74 769 -26 1041 61 350 101 520 121 520 4 0 17 -13 29
-29z m-1155 -84 c24 -42 58 -127 50 -127 -2 0 -17 24 -34 53 -16 29 -41 63
-55 76 -20 19 -23 27 -15 38 15 17 24 10 54 -40z m611 -19 c-23 -24 -58 -76
-79 -116 -21 -39 -40 -72 -42 -72 -5 0 30 101 45 132 7 12 31 47 53 76 35 46
43 52 52 38 10 -13 4 -23 -29 -58z m-432 47 c63 -19 171 -19 225 0 22 8 41 11
41 8 0 -19 -149 -253 -161 -253 -4 0 -21 19 -37 43 -29 43 -126 217 -120 217
2 0 25 -7 52 -15z m-57 -93 c23 -48 58 -108 77 -134 35 -45 35 -47 38 -154 l3
-109 28 -3 c49 -6 57 10 57 118 0 75 4 100 15 110 17 14 90 130 130 205 l26
50 -5 -40 c-40 -305 -41 -319 -40 -735 0 -247 6 -473 13 -558 7 -79 11 -145 9
-147 -2 -3 -53 -6 -114 -9 -120 -4 -255 7 -324 27 l-45 13 3 45 c2 24 12 105
22 179 38 267 52 515 54 927 0 167 3 303 6 302 3 0 24 -40 47 -87z m-86 -109
c17 -52 18 -67 4 -376 -16 -363 -25 -468 -63 -752 l-27 -200 -35 3 c-19 2 -38
7 -42 10 -7 7 -2 60 32 312 31 227 48 419 56 620 4 102 8 192 10 200 1 8 3 25
3 38 1 21 4 23 31 17 18 -4 30 -3 30 4 0 5 -16 13 -36 17 -30 6 -35 10 -30 28
3 11 9 59 13 105 6 80 7 82 21 56 7 -15 22 -52 33 -82z m544 -1 c-6 -66 -8
-69 -31 -64 -14 2 -24 0 -24 -7 0 -6 11 -11 24 -11 14 0 28 -4 31 -10 4 -6 -6
-10 -24 -10 -38 0 -62 -10 -55 -21 3 -5 21 -7 40 -3 l34 6 -2 -408 c-1 -390 9
-590 38 -766 l7 -38 -47 0 c-25 0 -46 -4 -46 -10 0 -13 24 -13 149 5 115 17
271 60 271 75 0 13 0 13 -51 -6 -38 -13 -224 -54 -248 -54 -5 0 -11 14 -15 31
-15 76 -37 368 -39 524 -3 246 5 660 12 595 6 -51 9 -56 43 -75 l38 -20 0 -92
c0 -63 4 -93 11 -93 8 0 10 26 5 90 -4 50 -6 90 -4 90 2 0 25 -8 52 -19 49
-18 51 -18 105 0 30 11 56 19 59 19 3 0 2 -38 -2 -85 -4 -49 -3 -85 2 -85 5 0
12 42 16 92 7 85 15 107 40 108 4 0 5 -16 2 -35 -26 -137 -31 -472 -12 -728 8
-107 10 -191 5 -210 -5 -18 -11 -58 -14 -90 -6 -50 -10 -59 -34 -72 -53 -27
-374 -97 -386 -83 -1 2 -10 62 -19 133 -25 196 -38 533 -34 890 l3 320 48 99
c26 55 50 96 53 93 3 -3 3 -37 -1 -75z m-270 -102 c-3 -5 -17 -10 -30 -10 -13
0 -27 5 -30 10 -4 6 8 10 30 10 22 0 34 -4 30 -10z m-693 -38 c-4 -36 -1 -41
33 -61 50 -29 69 -21 21 8 -31 20 -37 28 -34 54 l3 30 80 -2 c112 -2 165 -11
165 -26 0 -30 -14 -46 -58 -65 -25 -11 -43 -23 -40 -26 3 -3 28 5 54 18 39 18
50 29 54 52 3 16 11 31 19 34 11 4 12 -3 7 -34 -9 -50 -16 -56 -104 -87 l-73
-27 -67 34 c-83 42 -91 51 -85 99 7 50 30 49 25 -1z m1358 -67 c-6 -7 -46 -27
-89 -45 l-78 -31 -89 33 -89 33 -3 48 c-4 55 15 65 20 10 3 -34 7 -39 56 -60
32 -14 52 -19 50 -11 -2 6 -23 18 -45 27 -35 12 -42 19 -45 48 l-4 33 71 0
c38 0 100 3 138 7 l67 6 0 -40 c0 -37 -3 -40 -46 -61 -26 -13 -44 -25 -41 -28
2 -3 27 5 53 18 45 21 49 26 52 63 2 22 9 43 15 47 16 10 22 -79 7 -97z
m-1035 -196 c-17 -303 -47 -593 -91 -877 -6 -37 -1 -38 -151 9 -129 41 -138
51 -136 136 1 37 14 133 28 213 27 143 27 149 20 419 -6 227 -5 273 7 269 9
-3 14 -31 16 -101 1 -53 7 -97 12 -97 6 0 7 35 3 91 l-6 91 51 -26 51 -26 93
38 93 38 9 52 c5 29 11 51 13 48 2 -2 -3 -127 -12 -277z m365 206 c0 -73 -1
-75 -25 -75 -24 0 -25 2 -25 75 0 73 1 75 25 75 24 0 25 -2 25 -75z m-590
-1098 c47 -15 118 -31 159 -38 l73 -11 -7 -51 c-3 -29 -8 -53 -10 -56 -6 -6
-134 20 -205 41 -36 11 -84 31 -107 45 -41 24 -43 27 -43 74 l0 50 28 -15 c15
-7 65 -25 112 -39z m528 -27 l27 0 0 -80 c0 -44 -3 -80 -6 -80 -3 0 -20 5 -38
11 -25 9 -31 17 -31 39 0 15 -3 49 -7 75 -5 43 -4 48 11 42 10 -4 30 -7 44 -7z
m-825 -46 c43 -6 48 -10 68 -52 15 -30 25 -76 30 -136 4 -50 11 -99 14 -108 5
-12 1 -20 -11 -25 -22 -8 -54 29 -54 63 0 77 -61 128 -75 63 -14 -63 11 -133
72 -200 40 -45 39 -58 -5 -35 -57 29 -114 110 -127 179 -4 20 -11 37 -16 37
-25 0 13 -121 52 -165 17 -19 27 -35 21 -35 -21 0 -72 73 -87 125 -9 30 -20
53 -25 50 -8 -5 5 -59 25 -109 6 -13 5 -17 -3 -13 -24 16 -45 109 -39 181 9
118 25 174 50 179 37 7 62 7 110 1z m1848 -61 c8 -8 10 -53 7 -140 -4 -136
-19 -183 -67 -227 -26 -24 -27 -13 -2 22 10 15 26 51 35 81 19 65 19 64 5 59
-6 -2 -20 -30 -31 -63 -21 -65 -57 -118 -90 -136 -18 -10 -18 -7 5 23 43 57
74 168 47 168 -5 0 -10 -6 -10 -13 0 -69 -87 -207 -131 -207 -26 0 -24 5 15
59 52 71 74 183 42 210 -18 15 -33 -10 -51 -78 -10 -42 -37 -73 -50 -59 -4 4
-2 30 4 58 6 28 11 72 11 97 0 32 9 63 33 105 l32 60 92 -4 c51 -2 98 -9 104
-15z"/>
<path d="M1590 4110 c0 -44 69 -105 92 -82 9 9 7 12 -8 12 -24 0 -64 39 -64
63 0 9 -4 17 -10 17 -5 0 -10 -5 -10 -10z"/>
<path d="M1275 3902 c-73 -45 -71 -85 3 -46 35 19 57 24 84 21 43 -6 60 10 33
30 -26 19 -85 16 -120 -5z"/>
<path d="M1523 3910 c-13 -5 -23 -15 -23 -23 0 -10 17 -13 69 -13 59 1 73 -2
93 -21 31 -29 40 -29 36 -1 -7 51 -109 84 -175 58z"/>
<path d="M1574 3826 c-3 -8 -4 -31 -2 -52 4 -45 28 -53 41 -14 15 44 -23 108
-39 66z"/>
<path d="M1317 3824 c-11 -11 -8 -82 3 -89 21 -13 41 17 38 54 -3 34 -24 52
-41 35z"/>
<path d="M1425 3803 c-3 -16 -14 -61 -24 -101 -21 -85 -14 -102 44 -102 44 0
65 9 65 27 0 11 -5 13 -17 8 -68 -29 -85 -15 -68 52 22 85 29 143 16 143 -6 0
-13 -12 -16 -27z"/>
<path d="M1555 3568 c-22 -5 -86 -7 -142 -4 -58 3 -105 1 -108 -4 -3 -5 1 -23
10 -40 31 -60 150 -89 228 -56 39 16 89 72 85 95 -4 20 -22 22 -73 9z m13 -53
c-35 -32 -43 -35 -100 -35 -45 0 -72 6 -95 20 -52 31 -41 40 40 34 39 -3 90
-1 112 4 77 19 84 15 43 -23z"/>
<path d="M724 3024 c10 -25 36 -183 36 -215 0 -15 5 -31 11 -35 9 -5 10 12 5
62 -10 95 -36 204 -48 204 -6 0 -7 -7 -4 -16z"/>
<path d="M785 2722 c11 -11 315 -31 321 -20 8 13 -13 16 -171 23 -107 5 -157
4 -150 -3z"/>
<path d="M2191 2944 c-30 -131 -37 -189 -23 -180 7 4 12 15 12 26 0 19 34 187
46 228 3 12 2 22 -3 22 -5 0 -20 -43 -32 -96z"/>
<path d="M1800 2710 c0 -6 63 -10 169 -10 103 0 172 4 176 10 4 7 -55 10 -169
10 -111 0 -176 -4 -176 -10z"/>
<path d="M540 2150 c0 -5 27 -24 61 -40 85 -44 107 -51 114 -39 4 5 -32 27
-78 49 -92 43 -97 45 -97 30z"/>
<path d="M545 2000 c-10 -17 -7 -18 70 -20 86 -3 94 -2 75 9 -27 16 -137 24
-145 11z"/>
<path d="M482 1542 c-13 -4 -22 -11 -20 -17 2 -5 7 -9 11 -7 25 8 108 9 147 2
48 -9 60 -6 44 10 -12 12 -151 22 -182 12z"/>
<path d="M2365 2109 c-16 -11 -60 -36 -97 -55 -38 -19 -68 -39 -68 -44 0 -6 3
-10 8 -10 16 1 206 107 210 118 6 18 -19 13 -53 -9z"/>
<path d="M2222 1888 c3 -9 31 -14 81 -16 64 -2 77 0 77 13 0 12 -15 15 -81 15
-60 0 -80 -3 -77 -12z"/>
<path d="M2268 1503 c-44 -18 -52 -40 -10 -27 15 5 66 9 115 9 48 0 87 3 87 7
0 12 -63 28 -109 27 -25 0 -63 -7 -83 -16z"/>
<path d="M1528 1798 c-7 -7 -17 -13 -23 -13 -5 -1 -48 -13 -94 -28 -47 -15
-104 -31 -128 -34 -24 -3 -43 -10 -43 -14 0 -13 15 -11 105 11 128 31 227 71
207 84 -6 3 -16 1 -24 -6z"/>
<path d="M1203 1663 c7 -11 83 -33 116 -33 44 0 19 18 -33 24 -30 3 -62 9 -72
13 -11 4 -15 3 -11 -4z"/>
<path d="M1350 1630 c0 -6 37 -10 90 -10 53 0 90 4 90 10 0 6 -37 10 -90 10
-53 0 -90 -4 -90 -10z"/>
<path d="M1165 2700 c3 -5 17 -10 31 -10 13 0 24 5 24 10 0 6 -14 10 -31 10
-17 0 -28 -4 -24 -10z"/>
<path d="M1163 2353 c-15 -5 -17 -49 -4 -57 17 -11 41 6 41 29 0 24 -16 35
-37 28z"/>
<path d="M1127 1963 c-12 -11 -8 -40 7 -52 21 -18 50 14 36 40 -11 19 -31 25
-43 12z"/>
<path d="M1093 1663 c-7 -2 -13 -16 -13 -29 0 -19 5 -24 26 -24 22 0 25 4 22
27 -3 27 -14 35 -35 26z"/>
<path d="M1810 2405 c0 -63 4 -105 10 -105 6 0 10 42 10 105 0 63 -4 105 -10
105 -6 0 -10 -42 -10 -105z"/>
<path d="M1665 2340 c3 -5 19 -10 36 -10 16 0 29 5 29 10 0 6 -16 10 -36 10
-21 0 -33 -4 -29 -10z"/>
<path d="M2045 2274 c-27 -18 -55 -34 -63 -34 -7 0 -40 14 -73 31 -34 17 -64
28 -67 25 -3 -3 -3 -8 -1 -10 12 -11 130 -66 142 -66 18 0 127 69 127 81 0 15
-12 10 -65 -27z"/>
<path d="M1860 2103 c-1 -132 33 -544 48 -583 14 -40 12 36 -7 218 -11 108
-22 268 -23 354 -2 87 -6 158 -10 158 -5 0 -8 -66 -8 -147z"/>
<path d="M2068 2237 c-19 -45 5 -573 26 -594 13 -13 14 6 4 77 -5 41 -13 179
-16 305 -4 127 -10 222 -14 212z"/>
<path d="M1973 2019 c4 -96 11 -210 16 -254 5 -44 13 -115 16 -159 4 -43 11
-74 15 -70 8 9 4 63 -19 309 -6 61 -11 160 -11 222 0 74 -4 114 -12 119 -8 5
-10 -36 -5 -167z"/>
<path d="M1672 1982 c-7 -2 -10 -8 -6 -13 7 -12 64 -12 64 0 0 10 -40 19 -58
13z"/>
<path d="M1687 1644 c-4 -4 -5 -10 -2 -14 6 -9 65 0 65 11 0 10 -53 12 -63 3z"/>
<path d="M1753 1383 c-18 -2 -33 -9 -33 -14 0 -15 73 -6 78 9 2 6 0 11 -5 10
-4 0 -23 -3 -40 -5z"/>
<path d="M891 2592 c-7 -14 -6 -24 4 -38 18 -25 50 -7 50 27 0 31 -39 39 -54
11z"/>
<path d="M1951 2586 c-9 -10 -7 -19 7 -36 16 -19 22 -21 40 -11 23 12 26 20
16 45 -8 20 -47 21 -63 2z"/>
<path d="M1068 2504 c-5 -4 -8 -37 -8 -73 0 -101 -4 -108 -82 -147 -74 -37
-72 -38 -135 13 -24 19 -43 30 -43 25 0 -14 90 -92 106 -92 7 0 46 18 87 40
l75 41 7 83 c7 87 5 123 -7 110z"/>
<path d="M1016 2489 c-9 -30 -14 -159 -6 -164 9 -6 26 163 16 172 -3 3 -8 0
-10 -8z"/>
<path d="M824 2118 c-1 -94 -9 -180 -28 -292 -23 -139 -26 -181 -12 -165 2 2
15 78 30 169 26 162 37 420 18 420 -4 0 -8 -60 -8 -132z"/>
<path d="M1006 2188 c-3 -35 -8 -99 -11 -143 -4 -44 -20 -174 -36 -288 -32
-227 -34 -257 -19 -257 6 0 10 17 10 38 0 20 9 93 20 162 33 208 61 532 48
546 -4 3 -9 -23 -12 -58z"/>
<path d="M906 2188 c-3 -13 -7 -77 -10 -143 -2 -66 -14 -181 -24 -255 -28
-188 -34 -250 -23 -250 5 0 12 30 16 68 3 37 15 123 26 192 20 126 38 410 26
410 -4 0 -9 -10 -11 -22z"/>
<path d="M1027 1397 c-3 -8 1 -23 8 -34 11 -14 18 -16 32 -7 28 17 23 48 -8
52 -16 2 -29 -3 -32 -11z"/>
<path d="M1146 441 c-40 -24 -54 -37 -43 -39 20 -4 104 46 112 65 7 19 -3 15
-69 -26z"/>
</g>
</svg>
