<?xml version="1.0" standalone="no"?>
<!DOCTYPE svg PUBLIC "-//W3C//DTD SVG 20010904//EN"
 "http://www.w3.org/TR/2001/REC-SVG-20010904/DTD/svg10.dtd">
<svg version="1.0" xmlns="http://www.w3.org/2000/svg"
 width="900.000000pt" height="600.000000pt" viewBox="0 0 900.000000 600.000000"
 preserveAspectRatio="xMidYMid meet">
<metadata>
Created by potrace 1.10, written by Peter Selinger 2001-2011
</metadata>
<g transform="translate(0.000000,600.000000) scale(0.100000,-0.100000)"
fill="#000000" stroke="none">
<path d="M6140 5770 c-24 -24 -25 -41 -5 -79 20 -40 23 -440 3 -452 -22 -14
-37 -10 -61 17 -12 14 -33 39 -47 54 -14 16 -63 81 -110 144 -54 73 -94 118
-109 122 -20 6 -33 -3 -80 -53 -86 -93 -124 -136 -151 -174 -13 -18 -34 -45
-46 -59 -12 -14 -31 -36 -42 -49 -18 -23 -25 -24 -140 -26 -68 0 -126 -6 -134
-12 -7 -6 -39 -13 -71 -16 -32 -3 -64 -10 -70 -15 -7 -5 -33 -13 -59 -16 -26
-4 -50 -11 -53 -15 -2 -5 -27 -11 -54 -15 -28 -4 -53 -11 -56 -16 -3 -6 -13
-10 -21 -10 -14 0 -45 -12 -141 -56 -17 -8 -36 -14 -41 -14 -6 0 -12 -3 -14
-7 -1 -5 -19 -16 -38 -26 -19 -10 -55 -35 -79 -57 l-43 -39 -59 52 c-62 54
-103 81 -179 117 -91 43 -106 49 -137 55 -18 4 -33 11 -33 16 0 5 -12 9 -27 9
-16 0 -41 7 -57 15 -15 8 -40 15 -55 15 -14 0 -39 7 -56 16 -16 9 -57 18 -90
21 -33 2 -69 8 -80 13 -22 10 -130 26 -275 41 -52 6 -111 15 -130 20 -86 24
-892 48 -1025 30 -44 -6 -160 -13 -258 -16 -98 -2 -204 -9 -235 -15 -70 -12
-272 -30 -407 -37 -72 -3 -123 0 -181 13 -129 27 -163 13 -164 -67 0 -14 -4
-29 -10 -35 -5 -5 -13 -39 -16 -74 -4 -36 -11 -70 -15 -76 -5 -6 -12 -40 -15
-75 -4 -35 -11 -72 -16 -83 -6 -10 -12 -50 -14 -88 -2 -38 -8 -77 -13 -86 -4
-9 -11 -39 -15 -65 -3 -27 -9 -54 -13 -60 -5 -7 -13 -43 -20 -82 -6 -38 -19
-104 -27 -145 -9 -41 -21 -104 -26 -139 -5 -35 -14 -77 -19 -95 -11 -34 -27
-119 -40 -207 -5 -30 -13 -65 -20 -77 -6 -11 -11 -40 -11 -64 -1 -24 -7 -61
-15 -83 -8 -22 -15 -54 -15 -71 0 -17 -7 -51 -15 -74 -8 -23 -15 -62 -15 -85
0 -23 -7 -59 -15 -78 -8 -20 -15 -58 -15 -84 0 -26 -7 -57 -15 -67 -8 -11 -15
-40 -15 -65 -1 -25 -7 -64 -15 -86 -8 -22 -15 -57 -15 -78 0 -21 -7 -54 -15
-74 -8 -19 -15 -56 -15 -82 -1 -25 -7 -57 -15 -71 -8 -14 -15 -45 -15 -70 -1
-25 -7 -63 -15 -85 -8 -22 -15 -56 -15 -75 -1 -19 -7 -53 -15 -75 -8 -22 -15
-56 -15 -76 0 -20 -7 -53 -15 -72 -8 -20 -15 -55 -15 -77 0 -22 -7 -57 -15
-77 -8 -19 -15 -55 -15 -78 0 -23 -7 -62 -15 -85 -8 -23 -15 -65 -15 -92 0
-27 -5 -59 -12 -71 -7 -12 -15 -47 -19 -77 -3 -30 -11 -75 -17 -100 -19 -80
-33 -153 -42 -226 -4 -40 -13 -81 -19 -92 -6 -12 -11 -45 -11 -74 -1 -29 -7
-64 -15 -78 -8 -14 -14 -48 -15 -76 0 -28 -7 -68 -15 -87 -8 -20 -15 -56 -15
-79 -1 -24 -7 -54 -15 -68 -8 -14 -15 -47 -15 -75 -1 -27 -7 -68 -15 -90 -8
-22 -15 -65 -15 -95 0 -59 20 -89 67 -104 11 -4 207 -7 435 -8 227 0 421 -4
430 -9 9 -5 19 -6 22 -1 7 11 184 13 191 2 3 -6 15 -5 29 1 17 8 29 8 45 0 11
-6 31 -9 43 -6 45 10 168 13 174 3 3 -5 23 -6 46 -3 22 4 103 9 181 11 78 2
149 4 157 5 8 0 184 0 390 0 533 0 770 7 787 21 10 8 17 8 25 0 7 -7 29 -12
49 -12 20 0 42 -7 49 -15 11 -14 14 -14 24 0 9 12 64 16 350 20 196 3 344 9
351 15 17 14 79 -22 83 -48 2 -14 15 -25 38 -32 19 -6 34 -15 34 -20 0 -4 24
-11 53 -15 28 -4 58 -12 66 -18 23 -19 375 -13 441 7 90 28 145 58 148 84 6
42 30 46 317 44 149 -1 342 -5 430 -7 376 -12 520 -15 870 -20 518 -9 600 -11
680 -22 39 -6 79 -7 91 -2 12 4 50 4 85 0 108 -12 1341 -7 1364 6 11 6 33 16
48 22 l29 11 -7 73 c-3 39 -13 101 -21 136 -9 35 -14 72 -11 82 3 10 -1 26 -8
36 -7 10 -15 45 -18 78 -6 70 -22 164 -43 255 -8 36 -17 87 -20 114 -2 27 -9
66 -14 85 -5 20 -10 59 -10 87 0 31 -5 56 -14 63 -8 7 -16 43 -20 89 -4 42
-11 95 -17 117 -5 22 -12 62 -14 88 -3 27 -8 53 -12 60 -7 12 -26 124 -44 261
-5 44 -17 88 -25 100 -8 12 -14 45 -14 81 -1 35 -6 68 -14 78 -9 11 -14 44
-15 81 0 35 -5 74 -10 87 -6 13 -15 56 -21 94 -5 39 -16 104 -24 145 -8 41
-20 107 -26 145 -6 39 -15 84 -20 100 -5 17 -12 59 -15 95 -4 36 -11 70 -16
76 -5 6 -9 35 -10 65 -1 30 -6 63 -12 74 -6 11 -17 61 -24 110 -24 164 -38
240 -46 252 -4 6 -9 39 -12 73 -3 34 -8 66 -12 72 -8 14 -29 141 -43 257 -6
47 -14 90 -19 95 -5 6 -11 40 -15 75 -3 36 -10 68 -16 71 -5 3 -12 39 -16 80
-4 41 -11 81 -17 88 -6 7 -11 36 -11 65 -1 29 -9 77 -17 107 -23 79 -40 167
-44 224 -2 26 -8 53 -14 59 -6 6 -11 21 -11 34 0 31 -43 67 -87 73 -36 5 -51
27 -67 101 -7 31 -49 57 -68 41 -13 -10 -91 -23 -248 -42 -41 -5 -143 -9 -226
-9 l-152 -1 -33 38 c-177 198 -158 182 -208 182 -44 0 -49 -3 -121 -80 l-75
-79 -215 -2 -215 -1 0 93 0 94 60 -1 c33 0 103 -2 156 -4 80 -3 101 0 129 16
46 26 160 143 160 164 0 24 -10 30 -29 19 -19 -11 -96 -38 -129 -46 -26 -6
-85 20 -121 55 -54 51 -156 75 -176 41 -4 -5 -18 -9 -32 -9 -25 0 -25 1 -19
54 6 48 5 56 -13 65 -30 17 -59 13 -81 -9z m263 -193 c17 -11 17 -15 3 -49
-14 -33 -19 -36 -61 -40 -58 -4 -75 5 -75 43 0 50 17 71 50 64 16 -3 31 -2 35
4 4 7 10 8 18 1 7 -6 20 -16 30 -23z m-583 -97 c7 -28 16 -53 21 -56 5 -3 9
-16 9 -29 0 -13 5 -36 12 -50 10 -22 16 -25 40 -20 26 6 28 5 28 -28 0 -40 -8
-51 -27 -35 -7 6 -16 8 -19 6 -8 -9 7 -58 18 -58 6 0 21 -11 34 -25 29 -31 44
-32 44 -1 0 17 -7 26 -25 30 -14 4 -25 11 -25 16 0 6 11 10 25 10 29 0 32 8 8
25 -9 7 -14 19 -10 29 8 22 22 20 33 -3 5 -11 55 -67 112 -126 83 -86 102
-111 102 -135 0 -17 -4 -30 -10 -30 -15 0 -110 92 -110 106 0 8 -7 14 -15 14
-13 0 -14 -17 -8 -120 5 -91 3 -120 -6 -120 -7 0 -45 34 -85 75 -83 85 -115
98 -127 50 -5 -16 -14 -55 -22 -85 -16 -64 -43 -120 -57 -120 -6 0 -10 -11
-10 -25 0 -21 5 -25 30 -25 24 0 30 -4 30 -21 0 -12 -8 -28 -17 -35 -17 -12
-17 -14 1 -27 12 -9 17 -20 13 -31 -4 -9 -2 -16 3 -16 6 0 10 -9 10 -20 0 -11
-6 -20 -14 -20 -7 0 -26 -18 -41 -40 -15 -22 -32 -40 -36 -40 -12 0 -11 -37 1
-45 16 -10 11 -39 -10 -58 -11 -9 -20 -29 -20 -44 0 -46 -11 -71 -31 -76 -10
-3 -19 -10 -19 -16 0 -17 31 -13 46 7 13 16 15 16 29 -2 8 -11 15 -28 15 -38
0 -23 -27 -35 -43 -19 -6 6 -28 11 -48 11 -29 0 -39 -5 -44 -20 -7 -21 -22
-25 -44 -11 -22 14 -6 79 27 115 16 17 32 39 35 48 8 22 -9 33 -20 14 -4 -7
-33 -33 -63 -57 -51 -41 -59 -44 -122 -46 -95 -2 -102 11 -38 77 27 28 50 56
50 62 0 5 9 22 20 36 15 18 19 34 15 54 -4 17 -2 28 4 28 6 0 11 -4 11 -10 0
-5 4 -10 10 -10 5 0 7 13 4 30 -5 25 0 35 33 67 35 34 40 43 42 93 1 41 7 59
22 70 20 16 20 16 -1 39 -27 32 -25 41 6 41 17 0 28 6 31 19 3 11 16 22 30 26
21 5 23 8 12 21 -6 8 -9 18 -5 22 4 4 14 -1 21 -12 31 -42 49 24 19 69 -9 14
-22 25 -30 25 -7 0 -34 -27 -59 -60 -30 -39 -53 -60 -67 -60 -19 0 -20 4 -13
63 4 34 14 71 21 82 14 19 20 75 8 75 -14 0 -48 -25 -89 -65 -44 -45 -85 -59
-85 -30 0 26 36 83 93 147 30 35 66 76 79 93 13 16 30 37 38 46 22 23 54 61
70 85 28 39 122 144 130 144 4 0 13 -23 20 -50z m72 -105 c0 -5 -5 -11 -11
-13 -6 -2 -11 4 -11 13 0 9 5 15 11 13 6 -2 11 -8 11 -13z m1011 -54 c9 -16
17 -41 17 -55 0 -14 6 -29 13 -33 17 -11 47 -71 47 -95 0 -11 8 -22 20 -25 15
-4 18 -11 14 -32 -7 -32 23 -95 55 -118 20 -13 20 -13 14 19 -3 18 -12 40 -19
49 -20 23 -17 38 7 32 12 -3 25 0 29 7 7 11 13 10 34 -4 14 -9 26 -20 26 -24
0 -5 23 -32 50 -60 28 -29 50 -56 50 -62 0 -18 -26 -10 -50 15 -35 37 -50 32
-50 -15 0 -22 -4 -48 -9 -58 -5 -9 -12 -25 -15 -34 -8 -27 -27 -22 -86 22 -79
59 -127 53 -128 -17 0 -18 -4 -38 -7 -44 -10 -16 -43 18 -71 73 -13 25 -33 49
-44 53 -22 7 -60 -2 -60 -14 0 -12 -70 -81 -82 -81 -11 0 -8 38 12 129 7 31 8
57 2 63 -10 10 -67 -13 -99 -41 -28 -24 -29 -31 -4 -31 42 0 51 -11 51 -60 0
-55 24 -108 54 -119 17 -7 27 -2 51 25 17 18 44 36 61 39 29 5 36 2 69 -39 21
-26 43 -46 51 -46 7 0 23 15 35 33 12 17 24 34 25 36 2 1 7 0 13 -3 6 -4 6
-18 1 -35 -4 -15 -4 -34 0 -42 5 -7 5 -21 0 -30 -7 -12 -2 -30 15 -62 19 -37
21 -46 10 -51 -8 -3 -18 2 -23 11 -6 10 -14 13 -22 8 -10 -6 -9 -11 4 -21 30
-22 9 -34 -51 -30 -66 4 -100 29 -70 50 21 16 22 39 1 57 -9 7 -19 22 -23 33
-5 13 -12 -4 -21 -58 -7 -42 -16 -79 -21 -81 -15 -10 -40 8 -34 25 3 9 -1 23
-10 30 -8 7 -15 21 -15 31 0 22 -11 24 -28 7 -17 -17 -15 -38 3 -38 8 0 15 -4
15 -10 0 -15 -32 -11 -61 8 -14 9 -50 36 -79 60 -28 23 -55 42 -60 42 -4 0
-11 11 -14 24 -3 13 -17 34 -31 47 -13 13 -25 31 -25 40 0 8 -7 24 -15 35 -21
27 -18 39 11 59 17 11 30 13 36 7 7 -7 20 -4 38 6 23 13 28 22 23 43 -7 35 24
83 122 187 42 45 90 98 105 117 65 81 113 97 143 46z m-4013 -57 c168 -3 313
-10 322 -15 9 -5 70 -12 135 -15 65 -4 123 -11 129 -16 7 -5 50 -13 95 -17 46
-5 102 -14 124 -20 22 -6 60 -11 85 -11 25 0 54 -7 64 -15 11 -8 39 -15 62
-15 28 0 44 -5 48 -15 3 -10 19 -15 44 -15 23 0 45 -6 52 -15 7 -8 25 -15 40
-15 15 0 33 -7 40 -15 7 -8 21 -15 31 -15 11 0 28 -9 39 -20 11 -11 29 -20 40
-20 11 0 20 -7 20 -16 0 -11 6 -14 20 -9 15 5 22 0 30 -20 5 -14 16 -25 22
-24 25 3 58 -13 58 -28 0 -11 -7 -13 -26 -9 -17 5 -23 3 -19 -4 3 -5 19 -10
35 -10 36 0 39 -10 40 -188 0 -130 -2 -147 -22 -183 -12 -21 -19 -42 -15 -46
4 -3 7 2 7 11 0 30 24 11 31 -24 4 -19 5 -66 2 -105 -2 -38 -5 -92 -5 -120 -2
-72 9 -386 13 -410 4 -18 -2 -20 -70 -23 -61 -2 -79 -7 -108 -29 l-35 -27 4
-90 3 -91 -65 -5 c-66 -5 -120 -30 -120 -55 0 -7 -7 -18 -15 -25 -18 -15 -19
-59 -2 -80 31 -39 67 -51 161 -53 85 -2 96 0 118 21 14 12 37 22 54 22 40 0
156 25 182 39 12 6 51 11 87 9 73 -2 93 8 71 37 -11 15 -27 19 -77 20 l-64 0
-3 59 c-3 65 14 96 54 96 13 0 25 4 28 9 4 5 31 17 62 27 54 17 57 17 66 0 7
-12 17 -16 34 -12 14 4 24 2 24 -4 0 -5 5 -10 11 -10 6 0 9 6 6 14 -7 19 12
36 41 36 l24 0 -4 -108 c-3 -60 -8 -114 -12 -120 -10 -16 -48 -15 -71 2 -18
13 -18 14 3 20 27 9 29 26 3 33 -16 4 -18 11 -14 37 3 22 0 36 -10 45 -18 14
-21 0 -31 -111 -4 -57 -4 -57 32 -78 30 -18 45 -21 96 -15 34 3 81 7 106 9 25
1 53 6 63 10 10 5 23 3 31 -3 11 -9 15 -5 20 20 3 18 4 35 1 38 -3 3 -34 5
-68 6 -34 0 -65 5 -69 10 -4 6 -8 61 -8 123 l0 112 90 0 90 0 0 -117 c0 -65
-4 -124 -9 -131 -4 -8 -5 -28 -2 -45 7 -32 7 -32 75 -35 55 -2 78 2 115 19 25
13 54 22 64 20 22 -3 47 16 47 36 0 12 -10 14 -50 8 -58 -8 -59 -6 -63 115 -2
87 8 95 74 61 22 -12 48 -21 58 -21 10 0 26 -9 37 -21 16 -18 18 -33 16 -99
-4 -79 7 -120 32 -120 8 0 19 -7 26 -15 7 -8 20 -15 30 -15 10 0 29 -12 42
-27 46 -55 69 -63 180 -63 70 1 111 5 128 15 14 8 34 14 45 15 33 0 85 37 79
55 -4 8 -15 15 -25 15 -14 0 -19 7 -19 28 -1 62 -120 150 -187 137 -38 -7 -36
-13 -34 100 1 44 -2 86 -7 93 -12 18 -83 52 -109 52 -13 0 -26 -7 -29 -15 -4
-10 -21 -15 -54 -15 -33 0 -50 5 -54 15 -3 8 -12 15 -19 15 -8 0 -20 7 -27 15
-7 8 -20 15 -30 15 -10 0 -23 7 -30 15 -7 8 -23 15 -35 15 -12 0 -28 7 -35 15
-7 8 -27 15 -44 15 -17 0 -41 7 -54 15 -33 24 -471 24 -488 1 -8 -11 -27 -16
-61 -16 -33 0 -55 -5 -63 -15 -7 -8 -23 -15 -35 -15 -12 0 -28 -7 -35 -15 -7
-8 -21 -15 -31 -15 -10 0 -21 -5 -24 -11 -4 -5 -18 -14 -31 -19 -13 -5 -24
-14 -24 -20 0 -15 36 -12 50 5 7 8 20 15 29 15 9 0 25 7 35 15 11 8 29 15 40
15 12 0 30 7 40 15 11 8 37 15 58 15 25 0 41 5 44 15 5 13 41 15 240 15 199 0
235 -2 240 -15 4 -8 18 -15 33 -15 27 0 240 -99 241 -112 0 -14 -38 -8 -54 7
-8 8 -24 15 -36 15 -11 0 -23 7 -26 15 -4 9 -19 15 -39 15 -18 0 -38 7 -45 15
-7 8 -28 15 -47 15 -18 0 -44 7 -58 16 -20 13 -54 15 -206 12 -135 -2 -183 -6
-187 -15 -2 -9 -25 -13 -67 -13 -43 0 -66 -5 -75 -15 -7 -8 -25 -15 -40 -15
-15 0 -33 -7 -40 -15 -7 -8 -23 -15 -36 -15 -13 0 -28 -9 -34 -20 -6 -11 -17
-20 -25 -20 -8 0 -29 -9 -47 -20 -42 -26 -48 -25 -48 4 0 17 7 26 25 30 25 6
25 7 9 38 -13 25 -14 36 -4 57 7 14 13 85 15 159 2 74 6 136 9 139 3 4 1 12
-5 20 -9 9 -8 21 1 43 9 22 9 37 1 61 -8 24 -8 41 0 63 7 21 8 60 2 124 -5 51
-5 96 -1 98 4 3 8 74 8 158 l0 153 40 36 c21 21 43 37 48 37 5 0 15 7 22 15 7
8 20 15 30 15 10 0 23 7 30 15 7 8 23 15 37 15 13 0 26 7 29 15 4 8 16 15 28
15 12 0 31 7 42 15 10 8 31 15 46 15 15 0 33 7 42 15 8 8 27 15 43 15 15 0 39
6 53 13 15 8 48 17 74 20 27 4 54 11 60 16 6 4 40 11 75 15 35 3 69 10 75 15
14 12 141 25 155 16 12 -7 -1 -38 -26 -64 -8 -8 -26 -33 -41 -55 -43 -68 -176
-206 -199 -206 -7 0 -13 -4 -13 -9 0 -5 -8 -12 -17 -15 -10 -3 -45 -33 -78
-66 -33 -33 -66 -60 -73 -60 -13 0 -63 -29 -72 -42 -3 -4 -17 -12 -30 -17 -25
-11 -61 -32 -70 -41 -12 -12 -70 -50 -76 -50 -13 0 -54 -51 -54 -68 0 -24 54
-49 125 -57 50 -6 66 -13 103 -46 44 -38 47 -39 121 -39 72 0 79 -2 111 -32
30 -27 44 -33 98 -36 49 -3 66 -9 80 -26 31 -39 69 -56 124 -56 44 0 57 -5 83
-29 38 -37 147 -57 207 -39 21 6 38 15 38 20 0 11 37 10 59 -2 31 -16 188 -14
224 3 18 8 71 20 119 25 68 7 97 15 128 36 22 14 40 33 40 41 0 17 39 35 75
35 32 0 80 28 124 71 28 27 36 44 36 70 0 33 1 34 45 37 35 3 51 10 72 33 26
28 30 29 117 29 49 0 92 -4 95 -8 3 -5 40 -2 83 6 43 7 110 16 150 17 39 2 89
11 110 20 23 11 74 18 134 20 99 4 173 18 184 36 4 5 15 7 24 4 10 -3 24 1 31
10 18 21 0 39 -41 41 -22 1 -48 19 -98 65 -38 35 -69 68 -70 73 0 4 -12 17
-26 28 -14 11 -32 34 -39 51 -7 18 -24 44 -37 58 -30 32 -69 80 -89 109 -8 12
-27 35 -42 50 -16 16 -28 32 -28 37 0 4 102 8 227 8 150 0 238 4 258 12 17 6
49 14 73 16 42 5 43 4 63 -36 11 -23 22 -69 26 -102 3 -33 12 -72 19 -87 8
-15 14 -42 14 -61 0 -19 7 -54 15 -77 8 -23 15 -57 15 -76 0 -18 4 -44 10 -58
5 -14 14 -65 21 -113 6 -48 15 -96 20 -105 15 -27 -1 -47 -46 -61 -39 -11 -42
-14 -34 -36 8 -20 14 -23 44 -18 43 7 49 -1 64 -93 7 -41 17 -86 23 -100 5
-14 14 -56 18 -95 9 -74 22 -140 46 -242 8 -34 14 -80 14 -103 0 -23 4 -49 10
-59 5 -10 14 -52 20 -92 6 -41 14 -81 17 -89 3 -8 7 -28 8 -45 1 -16 5 -58 10
-93 l7 -62 -56 -26 c-62 -28 -71 -44 -26 -44 80 0 130 -59 130 -154 0 -29 7
-73 15 -96 8 -23 15 -61 15 -84 0 -24 6 -62 14 -87 8 -24 18 -74 21 -111 4
-37 11 -70 16 -73 5 -4 9 -30 9 -59 0 -30 7 -73 15 -96 8 -23 15 -62 15 -86 0
-23 5 -55 11 -71 6 -15 15 -64 19 -108 5 -44 13 -98 19 -120 11 -45 29 -148
41 -245 5 -36 13 -83 19 -105 14 -53 14 -102 -1 -111 -6 -4 -41 -15 -77 -24
-88 -23 -88 -43 -1 -50 88 -7 115 -27 135 -105 8 -32 15 -75 15 -95 0 -19 7
-62 15 -95 8 -33 14 -78 15 -101 0 -22 7 -61 16 -86 8 -26 14 -61 12 -80 l-3
-33 -467 -5 c-257 -3 -536 -2 -620 2 -126 6 -156 4 -169 -8 -20 -18 -33 -18
-26 1 4 8 3 17 -2 19 -4 3 -70 8 -147 11 -76 3 -177 10 -224 16 -47 5 -134 11
-195 14 -60 2 -123 9 -140 15 -16 7 -91 14 -165 16 -74 3 -151 10 -170 15 -55
17 -877 24 -915 8 -16 -7 -48 -14 -70 -15 -88 -5 -160 -16 -166 -26 -3 -5 -32
-11 -64 -13 -32 -2 -62 -8 -68 -14 -6 -6 -23 -11 -38 -11 -15 0 -41 -7 -58
-15 -17 -8 -45 -22 -62 -30 -17 -8 -39 -15 -49 -15 -9 0 -23 -7 -30 -15 -7 -8
-20 -15 -30 -15 -10 0 -20 -7 -24 -15 -3 -8 -11 -15 -18 -15 -19 0 -88 -64
-88 -82 0 -24 28 -30 56 -12 13 9 24 19 24 23 0 9 77 41 99 41 10 0 21 7 25
15 3 8 17 15 31 15 14 0 25 4 25 10 0 18 74 43 139 47 35 2 74 11 86 19 13 9
39 14 57 12 28 -3 33 -7 30 -27 -2 -20 1 -22 20 -16 13 4 43 9 68 12 69 6 91
13 84 24 -4 7 -36 9 -83 7 -42 -1 -75 1 -74 5 7 30 12 32 107 30 94 -2 97 -1
106 23 12 30 18 30 30 -1 11 -28 54 -35 64 -10 6 16 52 20 74 6 8 -5 11 -17 7
-33 -9 -34 8 -43 40 -22 24 15 24 17 8 29 -22 16 -11 29 25 32 148 10 331 -4
318 -25 -3 -5 -1 -14 4 -22 7 -12 12 -12 21 -3 9 9 9 16 -1 28 -11 13 -9 15
14 15 19 0 26 -5 26 -20 0 -12 10 -24 24 -30 13 -5 27 -14 31 -19 11 -18 35
-12 35 9 0 14 -7 20 -24 20 -30 0 -54 26 -38 42 9 9 18 9 34 0 31 -15 80 -22
168 -25 68 -2 75 -4 73 -22 -2 -23 13 -35 45 -35 30 0 28 18 -3 30 -14 5 -25
12 -25 15 0 3 38 5 85 5 78 0 85 -2 85 -20 0 -11 5 -20 10 -20 6 0 10 8 8 18
-2 12 3 16 17 14 11 -2 37 -6 57 -9 21 -3 42 -11 48 -18 9 -11 2 -15 -37 -21
-40 -6 -44 -9 -23 -14 37 -9 69 0 75 21 7 21 7 21 90 19 65 -2 77 -6 55 -20
-8 -5 -11 -12 -7 -17 5 -4 12 -2 16 5 4 7 21 13 37 13 16 0 90 0 166 0 87 0
139 -4 143 -11 4 -6 15 -8 25 -5 11 3 29 1 41 -6 16 -8 133 -12 388 -15 201
-1 397 -6 435 -9 37 -3 73 -1 80 4 13 10 125 9 144 -3 7 -4 25 -1 40 7 20 10
33 11 45 3 12 -8 21 -7 33 5 13 14 23 15 56 6 34 -8 46 -7 75 8 l34 18 29 -34
c23 -28 28 -40 24 -69 -5 -29 -1 -39 20 -57 17 -15 26 -33 26 -52 0 -46 -16
-52 -111 -42 -46 5 -365 9 -708 10 -343 1 -627 4 -631 6 -5 3 -68 7 -142 9
-73 3 -189 8 -258 11 -69 3 -219 8 -335 10 -115 2 -262 8 -325 14 -149 13
-965 14 -1050 0 -36 -5 -90 -12 -120 -15 -30 -3 -64 -11 -75 -18 -11 -7 -32
-16 -48 -20 -15 -3 -27 -11 -27 -16 0 -13 67 -13 72 0 2 6 51 12 111 15 59 3
115 10 125 16 12 7 36 7 85 -4 58 -12 70 -12 74 0 4 10 23 12 87 8 199 -14
270 -14 283 -3 11 9 16 9 22 -1 6 -10 48 -13 165 -13 86 1 161 4 166 7 6 4 16
2 23 -3 7 -6 44 -11 82 -11 39 -1 106 -2 150 -2 44 -1 100 -3 125 -5 47 -4 82
-5 220 -5 119 1 253 -7 303 -18 23 -5 113 -8 200 -6 87 1 160 -2 163 -7 3 -5
13 -3 23 6 13 12 25 13 61 5 25 -6 105 -10 178 -9 147 2 149 2 247 -4 170 -11
294 -13 345 -7 30 3 84 3 119 0 35 -4 76 -3 90 1 14 4 87 4 161 0 74 -3 143
-2 153 3 11 5 23 4 31 -2 19 -16 62 20 53 42 -9 24 -23 21 -32 -5 -6 -21 -8
-21 -12 -4 -3 10 1 22 8 27 10 6 10 10 0 22 -10 12 -10 20 1 36 11 18 10 22
-6 34 -16 12 -17 18 -8 45 9 26 8 32 -4 32 -7 0 -14 6 -14 14 0 7 -9 25 -21
40 -20 25 -20 28 -5 45 19 21 21 52 4 70 -11 10 -9 16 10 28 21 15 30 52 15
66 -3 4 -12 2 -20 -5 -7 -6 -16 -9 -18 -6 -7 7 19 58 30 58 17 0 33 -52 33
-107 1 -28 8 -66 17 -83 9 -17 13 -40 10 -51 -4 -11 2 -48 13 -82 11 -34 20
-69 20 -77 0 -8 3 -45 6 -82 5 -60 3 -70 -15 -87 -12 -11 -38 -22 -58 -25 -35
-6 -595 -10 -909 -6 -83 0 -156 -1 -161 -4 -5 -3 -14 1 -21 9 -11 13 -16 13
-42 -1 -23 -12 -33 -13 -44 -3 -9 8 -33 10 -69 6 -30 -3 -57 -1 -60 4 -4 5
-15 5 -27 -2 -12 -7 -35 -8 -57 -4 -20 4 -63 8 -95 9 -33 1 -61 6 -63 13 -3 7
-22 6 -65 -5 -49 -12 -78 -13 -152 -5 -50 5 -98 6 -107 2 -9 -5 -24 -2 -36 6
-11 8 -23 12 -26 9 -9 -9 -371 -6 -421 4 -34 7 -57 7 -73 -1 -17 -7 -38 -7
-78 3 -40 10 -61 10 -78 3 -16 -7 -40 -8 -71 -2 -27 5 -52 6 -57 3 -5 -3 -17
0 -28 6 -12 6 -22 6 -26 1 -5 -9 -26 -11 -100 -11 -15 0 -304 7 -465 12 -8 0
-26 0 -40 -1 -14 0 -88 -1 -166 -1 -77 0 -163 -4 -190 -10 -118 -24 -109 -25
-133 14 -15 24 -30 36 -46 36 -12 0 -28 7 -35 15 -7 8 -28 15 -47 15 -18 0
-50 7 -70 15 -40 17 -151 19 -192 3 -13 -4 -55 -13 -94 -18 -39 -6 -76 -15
-83 -21 -9 -7 -20 -3 -40 16 -15 14 -34 23 -41 21 -7 -3 -24 -1 -37 4 -14 5
-107 12 -208 17 -209 8 -205 8 -553 -1 -143 -4 -339 -9 -435 -11 -96 -3 -193
-7 -215 -11 -22 -3 -570 -8 -1217 -10 -1259 -5 -1200 -7 -1163 42 8 10 15 32
15 47 0 15 9 46 20 68 17 32 24 38 38 30 9 -5 31 -6 49 -4 18 3 52 -3 77 -12
48 -19 117 -17 235 4 30 6 56 9 58 7 9 -9 -11 -34 -35 -43 -26 -11 -26 -11 14
-12 26 -1 46 5 54 15 11 12 25 14 69 8 31 -4 59 -12 63 -18 4 -7 9 -4 14 7 7
19 45 24 41 5 -4 -20 43 -22 57 -2 14 18 87 23 140 9 19 -5 31 -4 36 5 7 11
14 11 39 0 17 -7 48 -10 68 -7 23 3 51 -2 71 -11 26 -11 38 -12 58 -4 18 9 31
9 49 0 22 -10 28 -8 46 10 12 13 31 21 47 21 23 -2 24 -2 5 -6 -15 -3 -23 -12
-23 -24 0 -15 7 -19 30 -19 18 0 33 6 36 15 5 11 10 12 24 3 15 -9 25 -9 45 2
19 10 28 11 37 2 17 -17 51 -15 45 2 -9 24 3 25 39 5 43 -24 44 -24 44 1 0 11
7 20 15 20 8 0 15 -9 15 -20 0 -26 21 -34 64 -26 22 4 36 13 39 26 4 15 14 20
41 20 20 0 36 -4 36 -10 0 -5 -16 -10 -36 -10 -23 0 -33 -4 -28 -11 7 -12 40
-9 142 11 49 10 65 10 77 0 12 -10 16 -9 21 4 3 9 16 16 29 16 12 0 28 7 35
15 9 11 16 12 26 5 7 -7 27 -8 47 -5 26 5 36 3 40 -9 7 -19 87 -19 87 1 0 19
18 25 39 11 18 -11 23 -10 35 7 11 16 17 17 27 8 9 -9 17 -9 33 -1 12 6 47 11
79 10 55 -2 57 -1 57 23 0 18 5 25 19 25 11 0 22 -4 25 -8 2 -4 28 -9 56 -10
63 -3 73 -8 65 -33 -8 -26 11 -24 25 2 10 17 14 18 27 8 12 -11 17 -10 24 4 6
9 15 17 21 17 6 0 16 7 22 16 11 15 68 20 308 27 42 1 80 5 83 9 4 4 16 3 27
-3 13 -7 29 -6 53 2 28 11 42 11 70 0 20 -7 90 -14 157 -15 105 -3 123 -6 135
-22 10 -14 25 -18 63 -16 37 1 52 -2 56 -13 4 -9 20 -15 43 -15 36 0 70 -14
60 -25 -3 -3 -25 -6 -47 -8 -23 -1 -42 -5 -42 -8 0 -9 39 -19 73 -19 17 0 27
-5 27 -15 0 -10 10 -15 31 -15 38 0 35 24 -4 28 -20 2 -27 9 -27 24 0 18 4 20
32 14 18 -3 34 -10 38 -14 7 -9 68 -52 74 -52 3 0 17 -11 32 -25 14 -13 36
-24 48 -23 11 0 28 -2 37 -6 28 -12 31 12 5 29 -19 12 -29 14 -44 6 -16 -9
-23 -6 -38 15 -11 15 -25 32 -31 39 -7 8 -13 20 -13 28 0 17 -24 29 -44 21 -7
-3 -16 1 -19 9 -3 8 -18 17 -32 21 -15 4 -33 13 -41 20 -7 8 -24 11 -38 9 -19
-4 -26 -1 -26 10 0 10 -15 17 -47 22 -27 4 -53 11 -59 16 -6 5 -51 12 -100 15
-49 4 -92 11 -95 16 -3 5 -111 11 -240 15 -203 5 -239 4 -273 -11 -26 -11 -68
-16 -130 -16 -50 0 -116 -7 -146 -15 -30 -8 -86 -15 -125 -15 -38 -1 -90 -6
-115 -11 -25 -6 -98 -15 -164 -20 -65 -4 -133 -13 -150 -18 -17 -6 -95 -12
-174 -15 -83 -2 -149 -9 -157 -16 -14 -12 -1157 -8 -1230 4 -22 4 -125 11
-230 16 -199 9 -341 22 -352 33 -3 4 -1 18 5 32 7 14 12 43 12 63 1 20 7 48
15 62 8 14 14 43 15 65 0 22 7 53 15 69 8 15 15 48 15 72 0 25 7 61 15 81 8
19 15 54 15 77 0 22 7 63 15 90 8 27 15 79 15 116 0 36 7 89 15 116 16 54 18
55 143 79 50 10 38 30 -26 43 -80 16 -96 30 -83 65 6 16 11 45 11 65 0 21 5
53 11 72 5 19 14 67 19 105 13 112 30 206 46 255 8 25 14 63 14 85 0 23 7 67
15 98 8 32 15 73 15 91 0 18 7 55 15 82 8 27 15 68 15 92 0 24 5 52 10 62 6
11 15 57 21 102 14 114 34 164 67 172 15 3 59 12 97 20 39 8 72 15 75 15 2 1
-1 6 -8 13 -7 7 -49 19 -94 28 l-83 16 4 70 c2 38 9 81 17 96 8 15 14 43 14
62 0 19 6 55 14 78 8 24 16 67 20 96 3 29 10 68 15 85 9 31 17 74 46 257 7 47
21 121 29 165 9 44 22 118 30 165 32 187 40 201 130 210 27 3 51 10 53 16 2 6
-16 19 -39 29 -74 32 -88 51 -81 104 3 25 10 51 14 57 5 6 12 40 15 75 4 35
11 72 16 82 5 9 13 45 18 80 5 34 15 88 21 120 13 58 13 59 43 54 144 -24 198
-27 321 -18 311 25 374 30 440 40 39 6 185 13 325 16 140 4 257 9 260 11 2 3
32 3 65 0 33 -3 197 -8 365 -12z m3290 -86 c0 -21 -7 -22 -43 -5 -25 11 -34
27 -21 39 11 12 64 -17 64 -34z m129 26 c7 -2 80 -5 162 -5 107 0 149 -4 149
-12 0 -7 -29 -42 -63 -78 -34 -36 -78 -85 -97 -110 -46 -57 -77 -89 -88 -89
-4 0 -33 33 -62 73 -30 39 -60 76 -67 80 -14 8 -19 137 -7 150 6 6 37 2 73 -9z
m762 -57 c20 -15 34 -57 19 -57 -21 0 -60 33 -60 51 0 22 17 24 41 6z m-919
-160 c7 -7 21 -16 31 -20 9 -3 17 -13 17 -21 0 -9 13 -22 29 -31 19 -9 37 -33
52 -65 12 -27 26 -50 30 -50 3 0 9 -13 13 -30 3 -18 12 -30 21 -30 23 0 30 28
11 49 -11 12 -14 27 -10 50 8 38 25 36 35 -3 4 -15 26 -46 48 -69 23 -22 41
-45 41 -50 0 -10 119 -128 145 -142 15 -9 16 -16 8 -40 -7 -24 -16 -31 -41
-33 -27 -3 -32 0 -32 17 0 16 -6 21 -25 21 -28 0 -33 -15 -9 -24 12 -5 13 -10
5 -19 -5 -7 -9 -26 -8 -43 2 -25 -1 -29 -20 -26 -12 2 -24 -2 -28 -8 -4 -7
-12 -7 -25 0 -21 11 -30 -4 -30 -49 0 -15 -5 -32 -12 -39 -17 -17 -63 -15
-100 4 -35 18 -44 13 -63 -42 -9 -29 -21 -41 -41 -48 -16 -4 -37 -12 -46 -17
-26 -13 -58 -11 -64 5 -3 8 -15 16 -26 19 -19 5 -19 7 8 43 25 32 26 37 9 30
-11 -5 -28 -11 -38 -14 -15 -4 -18 -11 -13 -37 11 -58 -47 -92 -59 -35 -6 26
-30 50 -49 50 -3 0 -6 -15 -6 -34 0 -28 -4 -35 -27 -41 l-28 -8 28 -10 c36
-14 34 -27 -3 -27 -16 0 -30 5 -30 12 0 6 -9 21 -20 33 -16 17 -21 38 -23 89
-2 37 -8 70 -13 74 -6 4 -14 28 -17 53 -5 41 -4 48 13 52 13 3 21 17 25 43 3
22 10 47 16 57 5 9 16 38 25 64 15 43 15 48 -1 59 -14 10 -15 16 -4 36 15 27
21 136 8 144 -5 3 -4 10 1 17 6 7 16 20 23 30 12 17 14 17 45 2 20 -10 32 -24
32 -36 0 -11 11 -30 24 -42 19 -18 22 -27 14 -41 -7 -13 -4 -33 12 -75 11 -31
18 -64 15 -72 -3 -8 8 -28 24 -46 16 -18 32 -46 36 -63 6 -26 10 -30 28 -24
17 5 19 4 10 -6 -8 -8 -9 -20 -3 -36 5 -13 7 -31 3 -41 -5 -13 -2 -15 16 -10
18 4 21 2 15 -15 -5 -17 -3 -19 14 -14 17 6 19 3 15 -15 -6 -21 -5 -21 19 -5
47 31 39 115 -13 131 -10 4 -19 11 -19 16 0 5 -5 9 -11 9 -17 0 -38 32 -39 57
0 29 -19 73 -42 99 -17 19 -18 31 -12 98 7 75 7 76 35 76 20 0 35 -9 51 -30
20 -27 48 -41 48 -22 0 4 -18 36 -40 72 -39 63 -50 100 -31 100 5 0 16 -6 23
-13z m-737 -39 c58 15 81 2 97 -53 6 -22 18 -48 26 -57 23 -28 5 -102 -26
-106 -19 -3 -23 -8 -18 -27 5 -20 3 -22 -15 -18 -18 5 -20 3 -15 -14 7 -21
-16 -87 -34 -98 -5 -3 -10 -14 -10 -24 0 -10 -9 -26 -20 -36 -23 -21 -27 -55
-5 -55 8 0 15 -6 15 -14 0 -12 -7 -13 -32 -5 -18 5 -33 9 -34 9 -1 0 1 -10 3
-23 3 -13 -2 -29 -11 -36 -8 -7 -13 -18 -10 -25 6 -16 -103 -28 -160 -19 -32
5 -36 9 -36 35 0 21 6 31 25 38 40 15 107 91 143 161 17 35 32 68 32 73 0 4
14 25 30 46 17 21 30 47 30 59 0 11 9 25 20 31 22 12 26 40 9 57 -18 18 -69
-38 -69 -75 0 -26 -5 -32 -35 -42 -24 -8 -35 -18 -35 -31 0 -25 -28 -80 -48
-95 -8 -6 -13 -18 -10 -26 4 -10 -1 -14 -15 -14 -13 1 -23 -7 -26 -19 -10 -34
-60 -105 -75 -105 -8 0 -16 -7 -20 -15 -8 -23 -29 -18 -23 5 3 13 0 20 -10 20
-8 0 -17 -9 -20 -20 -3 -11 -8 -20 -12 -21 -3 0 -17 -3 -31 -5 -40 -8 -70 4
-70 26 0 12 9 24 23 29 12 5 33 19 47 33 14 13 37 32 53 41 15 10 27 24 27 31
0 8 6 16 13 19 7 2 8 8 3 13 -5 5 -11 4 -13 -3 -6 -18 -43 -16 -43 1 0 8 7 16
15 20 19 7 20 26 1 26 -8 0 -27 -16 -42 -35 -14 -19 -32 -35 -39 -35 -6 0 -20
-9 -30 -20 -27 -30 -73 -50 -117 -50 -21 0 -38 3 -38 7 0 8 61 63 71 63 4 0
23 14 41 30 18 17 40 30 50 30 10 0 18 7 18 15 0 9 9 15 25 15 16 0 25 6 25
15 0 8 7 15 16 15 9 0 31 15 49 33 18 18 45 38 59 45 14 6 26 18 26 27 0 10
10 15 30 15 17 0 30 4 30 9 0 5 16 26 36 47 20 22 48 54 62 72 24 32 27 33 39
16 12 -16 18 -17 58 -6z m1819 -104 c9 -3 16 -10 16 -15 0 -5 20 -34 45 -65
25 -30 45 -61 45 -68 0 -8 7 -16 15 -20 19 -7 20 -36 1 -36 -8 0 -16 7 -20 15
-8 22 -33 18 -51 -7 -13 -19 -18 -21 -35 -10 -26 16 -27 16 -34 -14 -6 -21 -9
-24 -22 -14 -11 10 -12 16 -2 28 20 23 21 93 1 107 -25 19 -7 102 24 105 1 0
8 -3 17 -6z m-140 -83 c8 -14 25 -38 40 -54 15 -17 26 -41 28 -64 3 -33 0 -38
-25 -47 -41 -15 -78 9 -95 59 -7 22 -20 44 -28 48 -14 8 -14 11 -1 25 9 10 18
29 22 43 8 34 40 28 59 -10z m302 -23 c3 -13 13 -31 22 -40 12 -15 13 -18 1
-18 -13 0 -59 57 -59 73 0 17 29 5 36 -15z m609 -288 c24 -46 15 -100 -17
-100 -12 0 -9 45 4 58 9 9 7 16 -6 31 -10 11 -15 25 -11 30 9 16 13 14 30 -19z
m-2221 -116 c8 -20 -1 -34 -20 -34 -8 0 -14 10 -14 25 0 28 24 34 34 9z m2266
-38 c0 -8 -7 -17 -16 -20 -23 -9 -24 -8 -24 14 0 13 7 20 20 20 11 0 20 -6 20
-14z m0 -83 c0 -34 -1 -36 -16 -21 -10 10 -14 23 -9 37 10 34 25 24 25 -16z
m24 -94 c10 -53 8 -115 -5 -102 -14 14 -25 133 -12 133 6 0 13 -14 17 -31z
m24 -202 c2 -35 -1 -57 -8 -57 -5 0 -13 -1 -17 -2 -9 -3 -14 102 -6 115 13 22
28 -5 31 -56z m-2918 -107 c36 -5 82 -12 102 -15 35 -5 69 -38 54 -52 -10 -10
-115 8 -126 22 -6 8 -18 11 -25 8 -8 -2 -36 2 -63 11 -41 14 -54 15 -76 4 -21
-9 -32 -9 -46 0 -16 10 -24 7 -49 -14 -20 -17 -40 -25 -58 -23 -16 2 -34 0
-41 -5 -7 -4 -20 -2 -29 6 -10 8 -34 12 -65 10 -37 -3 -48 -1 -48 11 0 21 82
32 110 15 16 -10 22 -10 28 -1 4 6 21 19 36 27 32 16 169 14 296 -4z m2960
-32 c0 -19 -20 -15 -34 7 -23 35 -9 55 15 24 10 -13 19 -27 19 -31z m-3716
-17 c3 -4 -10 -19 -29 -33 -55 -39 -130 -21 -111 27 4 11 22 15 70 15 36 0 67
-4 70 -9z m986 -9 c0 -15 -24 -32 -47 -32 -25 0 -29 10 -11 28 13 13 58 16 58
4z m324 -11 c18 -19 17 -20 -20 -36 -31 -13 -44 -13 -66 -4 -42 17 -43 27 -6
43 46 20 72 19 92 -3z m2406 -17 c0 -8 -4 -14 -10 -14 -5 0 -10 9 -10 21 0 11
5 17 10 14 6 -3 10 -13 10 -21z m-2570 -60 c0 -18 -29 -18 -36 0 -3 8 -23 17
-45 21 -21 4 -39 12 -39 19 0 10 15 8 60 -6 36 -12 60 -25 60 -34z m-1020 20
c0 -9 -9 -18 -20 -21 -11 -3 -20 -11 -20 -17 0 -7 -16 -19 -35 -28 -33 -15
-35 -15 -35 3 0 12 11 24 28 32 15 6 33 20 40 29 16 22 42 23 42 2z m680 6
c14 -9 16 -43 11 -212 -1 -21 -6 -28 -20 -28 -27 0 -32 21 -29 143 3 106 7
117 38 97z m-858 -29 c20 -23 32 -108 23 -161 -6 -33 -10 -40 -25 -35 -9 3
-23 -1 -30 -10 -15 -18 -64 -20 -77 -2 -11 14 -18 167 -8 197 4 14 12 19 23
16 9 -3 24 -1 32 4 23 15 44 12 62 -9z m3764 -6 c-5 -19 -3 -23 8 -19 21 8 33
-98 16 -132 -19 -34 -30 -30 -23 10 3 19 1 36 -6 40 -6 4 -11 20 -11 37 0 16
-4 29 -10 29 -14 0 -13 33 2 48 20 20 31 14 24 -13z m-2449 -14 c21 21 35 -1
28 -45 -9 -63 -8 -106 6 -122 15 -19 3 -33 -43 -48 -66 -23 -69 -17 -65 106 4
116 15 142 47 113 12 -11 19 -12 27 -4z m-118 -109 c0 -20 -4 -46 -8 -57 -7
-16 -10 -12 -15 22 -8 46 0 87 15 78 5 -4 9 -23 8 -43z m-1383 -14 c4 -6 8
-24 9 -40 2 -16 11 -35 20 -42 14 -10 15 -15 5 -21 -8 -5 -18 -2 -25 8 -16 22
-21 21 -52 -3 -27 -21 -58 -14 -70 16 -8 22 38 83 67 87 14 2 28 5 32 6 4 0
10 -4 14 -11z m1697 -38 c32 -19 35 -24 33 -68 -1 -46 -1 -47 -41 -55 -144
-29 -154 -29 -180 -9 -28 22 -23 32 16 32 15 0 31 5 34 10 4 6 22 17 41 25 28
11 34 19 34 43 0 48 12 52 63 22z m2311 -46 c3 -9 6 -31 6 -50 0 -19 6 -37 13
-40 20 -7 22 -170 1 -178 -8 -3 -17 0 -19 7 -10 25 -23 112 -19 119 3 4 5 28
6 54 0 33 -4 51 -16 59 -9 7 -16 20 -16 29 0 21 36 21 44 0z m64 -339 c0 -35
4 -70 9 -77 18 -29 22 -140 6 -145 -9 -3 -13 6 -13 26 0 16 -5 33 -11 36 -6 4
-7 19 -4 37 5 19 2 35 -8 46 -20 24 -26 68 -14 108 17 57 35 42 35 -31z m27
-285 c28 0 52 -102 28 -122 -20 -17 -41 6 -27 30 8 13 5 27 -13 63 -12 26 -23
53 -22 60 0 8 5 4 11 -8 6 -13 16 -23 23 -23z m60 -218 c0 -67 -18 -72 -27 -8
-7 53 -3 69 15 63 7 -2 12 -25 12 -55z m16 -82 c15 -9 17 -15 9 -30 -14 -25
-40 -15 -40 16 0 27 3 28 31 14z m9 -135 c0 -8 9 -29 20 -47 21 -34 27 -83 11
-92 -21 -14 -40 8 -47 52 -4 26 -10 57 -15 68 -4 12 -5 25 -2 28 12 12 33 6
33 -9z m32 -192 c29 -34 43 -89 29 -119 -8 -19 -9 -30 -1 -38 14 -14 13 -26
-4 -26 -22 0 -28 16 -31 83 -2 34 -8 63 -14 65 -13 4 -15 52 -3 52 5 0 16 -8
24 -17z m68 -228 c0 -36 -10 -55 -31 -55 -23 0 -24 17 -3 59 17 34 34 33 34
-4z m12 -138 c-2 -15 1 -27 6 -27 6 0 12 -24 15 -52 3 -29 10 -75 16 -103 18
-89 45 -285 39 -290 -3 -4 -19 6 -34 20 -27 25 -28 28 -11 39 21 16 22 26 2
26 -10 0 -15 11 -15 35 0 29 -4 35 -21 35 -17 0 -20 5 -16 21 3 12 1 32 -6 46
-10 22 -8 27 12 42 15 12 20 21 13 25 -11 7 -13 19 -14 109 0 33 -5 47 -14 47
-16 0 -16 5 -8 38 9 34 40 25 36 -11z m87 -506 c8 -5 11 -16 8 -25 -4 -9 -1
-26 5 -36 10 -15 10 -22 1 -31 -9 -9 -9 -16 0 -31 10 -15 9 -21 -3 -28 -26
-17 -30 -11 -30 41 0 28 -5 59 -11 70 -11 21 -6 49 8 49 4 0 14 -4 22 -9z
m-8309 -457 c0 -15 -6 -24 -15 -24 -17 0 -18 4 -9 37 8 29 24 20 24 -13z m114
15 c-27 -11 -44 -11 -44 0 0 12 30 19 49 12 11 -3 10 -6 -5 -12z m-124 -114
c0 -19 -20 -29 -32 -17 -8 8 -7 16 2 26 14 17 30 12 30 -9z m2935 -118 c11 1
99 1 195 2 96 0 184 1 195 1 139 6 533 -4 563 -14 26 -9 27 -18 6 -51 -19 -28
-22 -29 -61 -14 -35 14 -521 21 -529 7 -3 -5 -13 -6 -22 -4 -39 12 -175 16
-188 5 -10 -9 -18 -8 -28 0 -10 8 -21 8 -41 1 -15 -6 -31 -7 -37 -4 -16 10
-79 11 -138 3 -94 -14 -679 -22 -1515 -20 -440 0 -811 1 -825 1 -14 0 -121 0
-237 -1 -212 -1 -300 9 -332 37 -17 15 -6 34 19 34 10 0 22 5 26 12 5 8 11 6
20 -6 12 -17 65 -18 806 -22 436 -2 798 -3 803 -3 234 -2 1000 16 1036 24 15
3 30 1 34 -4 10 -17 25 -13 25 5 0 14 9 16 63 11 34 -3 71 -2 82 3 11 5 29 6
40 2 11 -3 29 -6 40 -5z m1210 -26 c7 -13 88 -12 96 1 11 17 74 -6 71 -26 -2
-13 2 -15 22 -10 28 7 66 -10 66 -30 0 -15 -42 -46 -61 -46 -7 0 -21 7 -31 17
-17 15 -21 15 -56 -1 -59 -27 -159 -24 -204 5 -77 52 -76 50 -52 44 14 -4 24
0 28 10 3 8 16 15 30 15 13 0 26 7 30 15 6 16 51 21 61 6z m-166 -110 c62 -38
204 -61 259 -41 20 7 41 18 45 24 5 6 5 0 2 -12 -6 -21 -4 -23 13 -18 29 10
36 -9 8 -23 -36 -20 -282 -5 -310 18 -8 7 -20 10 -26 6 -5 -3 -24 3 -40 15
-18 13 -37 19 -49 15 -18 -5 -18 -3 -8 19 16 34 48 33 106 -3z m467 12 c13
-17 15 -17 28 0 14 18 66 24 66 7 0 -34 -93 -80 -160 -80 -51 0 -51 13 0 41
22 13 40 29 40 36 0 18 10 16 26 -4z"/>
<path d="M5714 4865 c-3 -8 -3 -19 1 -25 11 -18 25 -11 25 15 0 27 -17 34 -26
10z"/>
<path d="M5610 4588 c0 -6 -7 -19 -16 -29 -9 -10 -14 -24 -11 -31 3 -9 7 -7
13 7 4 11 14 26 21 33 15 16 17 32 3 32 -5 0 -10 -5 -10 -12z"/>
<path d="M5520 4405 c0 -27 25 -44 41 -28 10 10 -16 53 -32 53 -5 0 -9 -11 -9
-25z"/>
<path d="M6505 4870 c-4 -6 -3 -16 3 -22 6 -6 12 -6 17 2 4 6 3 16 -3 22 -6 6
-12 6 -17 -2z"/>
<path d="M3097 5122 c-9 -21 -17 -48 -17 -59 0 -11 -7 -26 -15 -33 -8 -7 -15
-18 -15 -25 0 -7 -7 -18 -15 -25 -8 -7 -14 -25 -12 -44 2 -25 -2 -32 -20 -34
-16 -2 -23 2 -23 12 0 9 -4 16 -10 16 -5 0 -10 8 -10 19 0 10 -7 24 -15 31 -8
7 -15 20 -15 29 0 9 -7 25 -15 35 -8 11 -15 30 -15 43 0 23 -33 49 -50 38 -14
-9 -40 -66 -40 -90 0 -13 -7 -28 -15 -35 -8 -7 -15 -19 -15 -27 0 -7 -13 -27
-30 -43 -33 -32 -39 -66 -14 -85 15 -11 13 -17 -22 -63 -21 -29 -42 -52 -46
-52 -15 0 -8 -58 7 -64 23 -9 18 -39 -14 -73 -15 -17 -31 -38 -34 -47 -4 -9
-11 -16 -17 -16 -18 0 -10 -39 10 -50 23 -13 20 -42 -9 -72 -50 -53 -52 -75
-8 -96 19 -9 27 -21 27 -39 0 -24 2 -25 43 -21 33 4 47 0 65 -16 22 -20 24
-20 36 -3 7 9 21 17 30 17 19 0 19 -10 6 -180 -8 -111 -8 -116 13 -132 27 -21
63 -22 97 -3 14 8 40 14 58 15 20 0 32 5 32 14 0 15 -30 26 -72 26 -25 0 -27
4 -33 55 -4 30 -5 61 -1 70 8 21 43 19 55 -3 7 -14 18 -18 42 -14 21 3 36 0
43 -10 6 -8 18 -17 26 -20 12 -4 14 -27 11 -134 l-3 -130 36 -16 c33 -16 37
-16 66 0 38 22 39 26 28 97 -5 32 -8 80 -6 105 3 38 6 45 26 48 13 2 25 -3 28
-12 3 -9 17 -16 30 -16 13 0 40 -9 60 -19 l36 -20 -1 -122 c0 -88 3 -125 12
-131 27 -17 85 -8 116 18 34 29 39 48 15 62 -16 9 -31 62 -38 134 -3 33 0 38
28 48 68 26 76 30 76 45 0 8 -5 15 -10 15 -6 0 -15 11 -20 25 -14 38 -38 31
-50 -16 -13 -46 -26 -47 -55 -1 -21 33 -45 42 -45 18 0 -18 -27 -46 -45 -46
-7 0 -16 13 -20 29 l-6 30 -31 -19 c-35 -21 -48 -18 -48 11 0 23 -18 26 -26 4
-14 -35 -44 -9 -44 37 0 20 -1 20 -19 4 -10 -10 -21 -13 -24 -8 -8 12 -5 112
4 117 11 7 31 -23 24 -35 -4 -6 1 -20 11 -31 13 -14 20 -16 31 -8 7 6 13 18
13 25 0 9 12 14 35 14 19 0 35 -4 35 -9 0 -8 59 -20 105 -21 10 -1 27 9 36 21
l17 22 11 -21 c13 -25 40 -28 74 -9 12 6 24 13 25 14 2 1 -2 17 -9 37 -14 38
-29 39 -29 1 0 -32 -11 -37 -39 -15 -18 13 -25 28 -25 54 -1 46 -12 47 -20 2
-9 -46 -38 -81 -60 -73 -12 5 -15 13 -11 27 3 11 2 27 -4 37 -8 16 -10 14 -16
-10 -8 -29 -41 -37 -63 -15 -9 9 -15 9 -24 0 -20 -20 -36 -14 -40 16 -2 19 -9
28 -26 30 -13 2 -26 11 -29 19 -5 13 -9 11 -23 -7 -22 -29 -45 -21 -53 19 -5
22 -12 31 -27 31 -11 0 -20 -6 -20 -13 0 -7 -10 -21 -22 -32 l-23 -20 43 -6
c23 -3 50 -13 59 -22 14 -14 15 -22 4 -59 -16 -55 -37 -88 -56 -88 -12 0 -13
9 -8 45 7 53 -4 57 -35 15 -26 -34 -52 -39 -52 -10 0 11 5 20 10 20 6 0 10 12
10 26 l0 26 -26 -31 c-31 -38 -54 -40 -54 -6 0 14 4 25 9 25 5 0 13 10 17 23
3 12 20 34 35 48 39 35 39 60 -1 53 -43 -9 -49 17 -16 66 14 22 31 40 36 40
10 0 40 52 40 69 0 5 -10 11 -22 13 -28 4 -26 36 3 57 24 17 24 31 0 31 -11 0
-28 10 -38 23 -10 12 -31 28 -46 34 -26 12 -28 11 -37 -13 -6 -14 -10 -30 -10
-35 0 -22 -31 -6 -46 24 -23 45 -23 45 -43 18 -24 -32 -58 -23 -39 10 11 18
10 23 -4 32 -15 10 -15 14 5 51 12 23 23 43 24 45 2 2 14 -1 27 -7 18 -8 28
-7 42 2 11 8 38 17 60 20 35 6 45 4 66 -16 49 -46 63 -95 26 -94 -14 1 -24 -6
-26 -16 -2 -11 3 -18 12 -18 8 0 23 -11 34 -25 24 -30 31 -31 48 -8 12 17 14
17 43 -5 30 -22 33 -22 93 -8 41 10 66 11 73 5 6 -7 5 -13 -4 -18 -15 -10 -23
-79 -9 -87 4 -3 8 -16 8 -30 0 -31 -23 -31 -48 1 -26 32 -52 33 -52 1 0 -28
-24 -51 -44 -43 -8 3 -16 20 -18 38 l-3 33 -27 -42 c-16 -23 -28 -44 -28 -47
0 -3 14 -5 31 -5 21 0 39 -9 59 -32 24 -26 30 -29 36 -15 3 9 3 20 0 25 -3 5
0 17 8 27 10 15 16 16 35 6 41 -22 45 -81 5 -81 -23 0 -23 -14 0 -43 l23 -29
32 32 c22 23 37 30 49 25 70 -30 71 -30 107 -11 35 19 36 19 49 1 12 -17 16
-18 32 -5 13 12 18 12 21 3 7 -20 23 -15 23 7 0 13 7 20 19 20 11 0 23 -9 26
-20 8 -25 35 -26 35 -1 0 10 3 39 6 65 7 51 -6 62 -24 21 -12 -25 -45 -34 -57
-15 -12 20 -35 10 -35 -15 0 -31 -34 -35 -50 -5 -15 29 -27 25 -46 -15 -9 -19
-20 -35 -25 -35 -14 0 -30 40 -24 60 3 10 1 21 -5 25 -5 3 -10 2 -10 -3 0 -5
-11 -22 -24 -37 -20 -24 -27 -26 -40 -16 -13 11 -12 16 6 47 17 28 17 34 5 34
-9 0 -19 -4 -22 -10 -9 -15 -25 -12 -25 5 0 18 8 29 66 91 l41 45 43 -25 c35
-20 52 -23 95 -19 39 4 58 1 79 -12 22 -15 31 -15 55 -5 16 6 51 12 78 12 69
1 95 25 49 46 -15 7 -27 23 -31 42 -10 45 -28 23 -23 -28 3 -39 3 -39 -22 -30
-14 5 -32 16 -41 24 -15 13 -17 12 -23 -11 -8 -32 -34 -32 -42 0 -6 26 -18 32
-29 15 -10 -17 -51 -11 -70 10 -10 11 -22 20 -26 20 -4 0 -11 -9 -14 -20 -6
-20 -45 -29 -45 -10 0 6 -9 10 -19 10 -11 0 -23 -4 -26 -10 -3 -5 -15 -10 -26
-10 -10 0 -19 -5 -19 -12 0 -6 -2 -9 -5 -6 -7 7 15 58 32 76 7 7 13 18 13 23
0 19 -44 69 -60 69 -27 0 -29 10 -9 44 21 36 70 76 93 76 17 0 51 -45 83 -110
33 -66 80 -130 97 -130 15 0 4 43 -16 59 -15 13 -19 24 -15 42 7 26 54 59 75
52 19 -7 58 -45 65 -63 5 -13 6 -13 6 1 1 18 48 44 71 40 8 -2 23 -10 33 -18
15 -15 17 -15 17 2 0 10 10 37 22 61 21 43 19 69 -4 46 -20 -20 -38 -14 -38
12 0 14 -7 31 -15 40 -8 8 -15 25 -15 38 0 13 -7 32 -15 42 -8 11 -15 30 -15
41 0 22 -28 55 -46 55 -5 0 -17 -24 -28 -52 -27 -81 -50 -127 -61 -127 -13 0
-40 37 -49 67 -4 12 -12 22 -17 22 -5 0 -9 12 -9 28 0 15 -7 36 -15 46 -8 11
-15 30 -15 43 0 29 -35 49 -56 32 -8 -6 -14 -19 -14 -28 0 -25 -46 -138 -61
-151 -8 -7 -36 -61 -43 -82 -3 -10 -15 -18 -26 -18 -11 0 -20 -5 -20 -11 0 -5
-5 -7 -11 -3 -8 4 -7 9 2 15 12 7 12 12 0 30 -12 20 -11 24 3 34 23 17 20 43
-10 75 -26 27 -50 78 -61 130 -6 26 -29 50 -48 50 -6 0 -19 -17 -28 -38z m39
-117 c-5 -19 0 -25 27 -35 l32 -13 -26 -10 c-25 -10 -59 -57 -59 -83 0 -24 19
-16 26 11 8 33 22 32 35 -2 6 -16 15 -36 20 -45 5 -10 9 -27 9 -38 0 -12 11
-31 23 -43 13 -12 29 -32 35 -43 10 -19 8 -23 -10 -28 -14 -3 -30 1 -41 11
-16 15 -19 15 -27 3 -6 -8 -10 -23 -10 -32 0 -10 -5 -18 -12 -18 -16 0 -48 31
-48 47 0 20 -21 15 -27 -7 -3 -11 -12 -20 -19 -20 -29 0 -27 34 6 96 18 35 31
67 28 70 -4 3 -9 -3 -12 -14 -7 -21 -45 -37 -59 -23 -8 8 23 71 36 71 4 0 7 9
7 20 0 13 7 20 20 20 11 0 20 6 20 14 0 8 3 21 6 30 9 24 -24 32 -41 10 -13
-18 -14 -18 -15 -1 0 9 5 17 10 17 6 0 10 7 10 15 0 20 38 57 51 49 6 -3 8
-17 5 -29z m-254 -71 c6 -13 17 -24 25 -24 7 0 13 -4 13 -10 0 -5 -6 -10 -14
-10 -7 0 -21 -12 -31 -26 -13 -21 -19 -23 -31 -13 -11 9 -14 28 -12 70 3 51 5
56 21 47 10 -5 23 -20 29 -34z m554 11 c11 -16 14 -34 9 -55 -8 -36 -28 -35
-33 1 -5 35 -19 44 -31 20 -14 -25 -44 -29 -34 -5 9 24 47 64 60 64 7 0 20
-11 29 -25z m-626 -23 c0 -18 -38 -48 -48 -37 -4 4 1 11 11 16 9 6 17 17 17
24 0 8 5 15 10 15 6 0 10 -8 10 -18z m875 -74 c0 -31 4 -60 8 -64 13 -13 7
-24 -12 -24 -10 0 -26 12 -36 26 -10 15 -22 23 -31 20 -8 -3 -21 -9 -29 -12
-10 -4 -18 2 -24 17 -7 20 -4 27 23 43 17 10 34 24 38 30 4 6 15 21 25 32 16
19 19 20 28 5 5 -9 9 -42 10 -73z m-725 16 c0 -17 -22 -14 -28 4 -2 7 3 12 12
12 9 0 16 -7 16 -16z m532 -44 c13 0 18 -8 18 -30 0 -37 -21 -40 -44 -5 -19
30 -23 66 -4 47 7 -7 20 -12 30 -12z m-622 -238 c58 6 83 -10 82 -52 -1 -41
-9 -51 -40 -48 -20 2 -27 -2 -32 -22 -9 -38 -36 -37 -44 2 -7 32 -8 32 -19 10
-14 -29 -42 -24 -44 8 0 14 -1 28 -2 32 -1 9 -51 -41 -51 -51 0 -5 16 -16 35
-25 19 -9 35 -21 35 -27 0 -6 5 -7 11 -4 33 21 99 -40 99 -92 0 -25 -22 -43
-28 -24 -2 7 -14 24 -26 38 l-22 25 -29 -42 c-31 -44 -31 -44 -49 12 -5 17 -7
17 -35 0 -16 -9 -33 -14 -36 -10 -9 9 14 78 26 78 5 0 9 5 9 11 0 6 -13 1 -29
-10 -15 -11 -31 -18 -34 -15 -7 7 22 60 51 92 16 18 21 33 17 49 -4 16 4 32
26 58 31 35 32 35 57 19 17 -11 39 -15 72 -12z m-180 -47 c0 -8 -4 -17 -10
-20 -6 -4 -10 5 -10 20 0 15 4 24 10 20 6 -3 10 -12 10 -20z m455 -583 c-4
-94 -19 -140 -29 -91 -11 54 -13 186 -4 204 10 17 11 17 24 1 9 -13 12 -46 9
-114z m291 26 c8 -13 6 -183 -2 -211 -13 -44 -24 4 -24 109 0 106 7 133 26
102z"/>
<path d="M1695 5135 c-27 -8 -69 -14 -92 -15 -23 0 -44 -4 -47 -9 -3 -5 -18
-12 -33 -16 -15 -3 -30 -10 -33 -14 -3 -3 -17 -14 -32 -24 -25 -16 -28 -23
-28 -77 0 -67 19 -100 57 -100 30 0 37 -16 19 -42 -26 -36 -22 -199 5 -255 23
-48 114 -153 133 -153 6 0 22 -12 36 -27 20 -20 25 -36 24 -71 -1 -42 -5 -49
-67 -107 -37 -35 -67 -67 -67 -72 0 -4 -10 -20 -22 -34 -47 -53 -58 -86 -58
-179 0 -84 -1 -89 -30 -120 -26 -27 -30 -40 -30 -85 0 -32 7 -65 17 -82 16
-30 63 -63 88 -63 7 0 18 -7 25 -15 7 -9 30 -15 54 -15 22 -1 52 -7 66 -15 49
-28 346 -17 445 17 17 5 46 14 65 18 19 5 41 18 49 29 9 14 24 21 46 21 18 0
38 7 45 15 7 8 19 15 27 15 10 0 12 6 8 20 -5 15 -2 20 13 20 25 0 46 25 38
45 -4 12 -10 13 -31 3 -14 -6 -25 -17 -25 -23 0 -6 -11 -17 -25 -23 -31 -14
-32 -3 -4 33 l22 27 -33 -4 c-29 -3 -34 1 -43 27 -5 17 -21 43 -36 58 -24 26
-26 35 -26 117 -1 67 -6 98 -21 127 -19 39 -137 163 -154 163 -6 0 -10 6 -10
14 0 8 -7 16 -15 20 -10 3 -15 19 -15 45 0 36 6 44 90 122 50 46 90 89 90 96
0 6 6 18 13 25 7 7 18 43 24 79 11 65 7 99 -23 196 -5 18 -1 25 17 32 46 19
66 45 72 90 11 88 -44 135 -178 151 -34 4 -70 12 -82 18 -31 17 -265 14 -328
-3z m-31 -80 c26 -24 30 -24 27 7 -2 15 12 16 136 13 135 -3 171 -8 185 -29 4
-6 11 -6 20 2 11 9 21 7 46 -8 31 -19 31 -19 37 0 8 25 29 25 71 -1 27 -16 32
-24 25 -42 -5 -14 -20 -24 -41 -28 -18 -4 -36 -12 -39 -18 -6 -9 -298 -27
-386 -24 -102 4 -144 11 -160 26 -9 9 -27 17 -40 17 -26 0 -62 47 -48 61 6 6
31 11 56 12 35 1 49 7 53 20 7 24 26 21 58 -8z m-79 -135 c3 -5 18 -10 33 -10
15 0 34 -4 42 -10 13 -8 12 -10 -1 -15 -21 -8 -106 12 -133 30 -20 14 -19 15
16 15 20 0 40 -4 43 -10z m210 -20 c4 -6 12 -7 18 -3 7 4 40 8 75 9 52 2 64
-1 73 -17 5 -10 8 -19 7 -20 -27 -10 -84 -5 -93 7 -8 12 -16 13 -37 5 -26 -10
-78 4 -78 22 0 11 28 9 35 -3z m-90 -85 c44 -5 130 -9 190 -11 91 -1 116 1
147 17 47 24 57 24 85 -3 20 -19 23 -31 23 -93 0 -47 -5 -78 -15 -91 -8 -10
-15 -27 -15 -38 0 -23 -50 -87 -119 -151 -63 -59 -74 -84 -66 -146 7 -47 23
-69 117 -155 42 -38 91 -118 100 -164 4 -19 4 -63 1 -97 -4 -49 -11 -67 -33
-90 -45 -46 -58 -53 -89 -53 -18 0 -34 -7 -40 -17 -8 -16 -24 -18 -140 -15
-114 3 -131 2 -131 -12 0 -9 -8 -16 -17 -17 -54 -3 -99 4 -109 17 -6 8 -25 14
-42 14 -25 0 -35 6 -47 29 -9 19 -11 32 -5 36 6 3 13 -1 16 -9 3 -9 16 -16 28
-16 11 0 42 -11 69 -24 28 -14 57 -21 72 -18 32 6 27 25 -8 32 -31 6 -97 62
-97 83 0 8 -7 20 -15 27 -10 9 -15 32 -15 75 0 43 5 66 15 75 8 7 15 23 15 37
0 13 7 26 15 29 8 4 15 11 15 17 0 6 32 41 71 78 120 114 139 181 71 247 -21
20 -55 48 -75 62 -20 14 -37 29 -37 34 0 4 -13 25 -30 46 -16 21 -30 45 -30
53 0 8 -7 20 -15 27 -24 20 -20 134 6 176 16 26 24 32 37 25 9 -4 53 -12 97
-16z m494 -1044 c23 -15 -24 -69 -55 -63 -20 3 -24 0 -24 -18 0 -19 -4 -21
-26 -16 -14 4 -51 0 -82 -9 -41 -11 -90 -15 -172 -13 -158 4 -146 22 17 26
100 2 129 6 136 17 4 8 17 15 29 15 39 0 97 23 119 46 24 26 36 29 58 15z m-9
-100 c0 -12 -29 -23 -41 -15 -5 3 -7 10 -4 15 8 12 45 12 45 0z m-495 -40 c-3
-6 -13 -10 -23 -10 -9 0 -26 -1 -36 -3 -10 -2 -21 3 -23 10 -3 8 9 12 42 12
26 0 44 -4 40 -9z m395 -6 c0 -16 -9 -19 -34 -9 -25 9 -19 24 9 24 16 0 25 -6
25 -15z m-296 -11 c25 -9 19 -24 -9 -24 -24 0 -32 10 -18 23 8 8 8 8 27 1z"/>
<path d="M1880 5050 c0 -5 7 -10 15 -10 8 0 15 5 15 10 0 6 -7 10 -15 10 -8 0
-15 -4 -15 -10z"/>
<path d="M1711 4655 c-18 -8 -49 -15 -67 -15 -27 0 -34 -4 -34 -19 0 -11 5
-23 11 -27 10 -6 66 7 114 26 30 13 143 18 203 10 42 -5 55 -4 59 8 10 25 -19
32 -137 31 -78 0 -126 -4 -149 -14z"/>
<path d="M2035 4630 c-3 -6 1 -13 9 -16 9 -3 16 -12 16 -20 0 -8 4 -14 9 -14
10 0 22 40 15 52 -7 11 -42 10 -49 -2z"/>
<path d="M1999 4574 c-8 -3 -23 -18 -33 -34 -19 -33 -50 -39 -64 -14 -8 14
-10 13 -23 -2 -8 -10 -10 -19 -4 -21 6 -2 17 -8 25 -14 13 -8 12 -12 -7 -26
-13 -8 -23 -21 -23 -28 0 -7 -10 -19 -22 -28 -23 -15 -23 -15 -5 -47 11 -17
17 -40 14 -50 -2 -10 -1 -24 4 -31 10 -15 9 -16 14 55 2 44 7 53 55 98 29 27
70 61 92 75 58 39 43 85 -23 67z"/>
<path d="M1674 4525 c19 -14 36 -12 36 6 0 5 -12 9 -27 9 -27 -1 -27 -1 -9
-15z"/>
<path d="M1804 4520 c22 -11 42 -18 44 -15 10 10 -33 34 -58 34 -22 0 -20 -2
14 -19z"/>
<path d="M1857 4253 c-10 -9 -8 -126 2 -142 14 -22 19 0 17 72 -3 67 -7 83
-19 70z"/>
<path d="M1857 4064 c-4 -4 -7 -15 -7 -24 0 -10 -7 -23 -15 -30 -8 -7 -15 -16
-15 -21 0 -10 77 -49 97 -49 7 0 13 -7 13 -15 0 -8 6 -15 14 -15 8 0 16 -7 20
-15 3 -8 12 -15 20 -15 7 0 21 -18 30 -40 18 -45 25 -48 50 -21 17 18 17 21 1
45 -10 14 -23 26 -30 26 -6 0 -26 16 -44 35 -17 19 -36 35 -41 35 -5 0 -10 10
-12 22 -2 14 -12 24 -27 28 -13 3 -28 17 -35 33 -6 16 -14 25 -19 21z"/>
<path d="M1760 3960 c0 -5 -7 -10 -15 -10 -8 0 -15 -5 -15 -10 0 -6 -11 -15
-25 -20 -28 -11 -34 -30 -9 -30 9 0 34 18 56 40 27 27 35 40 24 40 -9 0 -16
-4 -16 -10z"/>
<path d="M1936 3784 c-11 -8 -30 -14 -42 -14 -13 0 -26 -4 -29 -10 -12 -20 61
-11 80 10 22 25 17 33 -9 14z"/>
<path d="M3877 4982 c-9 -21 -17 -47 -17 -56 0 -10 -7 -24 -15 -32 -17 -18
-20 -44 -5 -44 6 0 18 -15 26 -32 l15 -33 -5 48 c-4 37 -3 47 7 43 6 -3 20 -9
30 -12 9 -4 17 -10 17 -14 0 -5 12 -22 26 -39 14 -17 23 -35 19 -41 -9 -15
-25 -12 -25 5 0 8 -7 15 -15 15 -8 0 -15 -9 -15 -19 0 -31 -18 -34 -43 -7 -15
16 -28 22 -36 17 -24 -15 -7 -44 37 -60 23 -8 42 -21 42 -28 0 -18 10 -16 25
4 15 20 35 9 35 -20 0 -12 12 -35 26 -50 19 -21 23 -32 15 -40 -6 -6 -11 -19
-11 -29 0 -28 -29 -21 -48 12 -21 37 -32 38 -32 2 0 -16 -6 -36 -13 -46 -13
-17 -14 -17 -29 5 -9 13 -25 35 -36 47 -12 13 -23 29 -25 35 -5 15 -27 -1 -27
-19 0 -8 23 -38 52 -65 l52 -50 -17 -32 c-9 -18 -15 -44 -14 -59 2 -23 6 -26
24 -22 18 5 23 1 29 -20 9 -39 31 -52 36 -22 4 18 -2 31 -18 45 -14 13 -24 32
-24 48 0 16 -3 38 -6 50 -7 25 11 35 83 48 40 6 42 5 45 -21 3 -29 28 -47 28
-20 0 18 15 21 25 6 3 -6 -1 -13 -9 -16 -10 -4 -14 -18 -13 -45 1 -27 -4 -43
-17 -52 -17 -13 -17 -15 7 -43 43 -51 45 -130 2 -92 -45 41 -48 42 -41 20 5
-15 1 -24 -13 -31 -16 -9 -23 -7 -35 10 -8 13 -21 19 -30 16 -8 -3 -17 1 -20
9 -3 8 -12 14 -19 14 -10 0 -13 -13 -12 -47 1 -27 0 -54 -3 -60 -8 -23 -28
-14 -43 20 -17 38 -44 43 -44 8 0 -15 -9 -28 -23 -34 -38 -17 -24 -28 26 -21
40 5 50 3 67 -16 23 -26 26 -126 4 -166 -11 -22 -11 -27 1 -34 21 -14 97 -12
119 2 19 11 19 12 0 38 -17 22 -19 40 -17 116 l3 89 32 -3 c17 -2 34 2 38 7 3
6 19 11 34 11 18 0 37 10 54 30 15 17 32 30 37 30 23 0 9 56 -20 80 -35 30
-37 42 -8 55 41 19 43 38 9 75 -17 19 -31 38 -31 43 0 5 -13 22 -30 39 -38 37
-38 48 -1 48 54 0 47 19 -36 102 l-38 37 21 28 21 27 -44 44 c-24 24 -43 52
-43 62 0 10 -7 23 -15 30 -8 7 -15 24 -15 39 0 30 -25 71 -44 71 -7 0 -20 -17
-29 -38z m73 -807 c0 -26 -14 -33 -25 -15 -9 14 1 40 15 40 5 0 10 -11 10 -25z"/>
<path d="M3373 4768 c-15 -19 -25 -68 -14 -68 12 0 41 46 41 65 0 18 -14 20
-27 3z"/>
<path d="M3796 4685 c4 -8 12 -15 20 -15 8 0 14 -8 14 -18 0 -21 36 -46 45
-32 3 6 3 10 -2 10 -4 0 -19 16 -32 35 -23 35 -56 49 -45 20z"/>
<path d="M7638 4658 c-8 -21 2 -38 23 -38 20 0 23 8 13 34 -7 19 -30 21 -36 4z"/>
<path d="M6770 4445 c-7 -8 -21 -15 -32 -15 -10 0 -21 -7 -24 -15 -4 -8 -11
-15 -17 -15 -14 0 -96 -86 -108 -114 -5 -11 -13 -28 -17 -36 -34 -60 -42 -88
-42 -139 0 -35 -6 -65 -15 -77 -20 -26 -20 -103 0 -110 13 -5 15 -38 15 -213
0 -195 1 -208 20 -224 11 -9 30 -17 43 -17 12 0 35 -7 51 -15 15 -8 41 -15 56
-15 15 0 33 -6 39 -14 7 -8 28 -16 49 -19 52 -7 155 -37 166 -48 6 -5 21 -9
35 -9 15 -1 37 -7 51 -15 14 -8 39 -14 55 -15 17 0 39 -6 50 -14 11 -7 46 -17
79 -20 58 -8 106 4 211 49 17 7 54 21 84 31 30 10 74 28 98 41 24 13 51 23 60
23 8 0 31 7 51 16 137 61 133 56 107 129 -21 58 -21 318 0 335 19 16 19 79 0
104 -9 12 -15 42 -15 73 0 51 -14 90 -50 138 -21 29 -95 85 -112 85 -8 0 -18
4 -23 9 -6 5 -31 12 -56 16 -44 7 -48 5 -70 -24 -13 -18 -32 -31 -44 -31 -34
0 -185 -158 -185 -192 0 -9 -7 -21 -15 -28 -10 -8 -15 -37 -17 -93 l-3 -82
-47 3 c-39 2 -48 0 -48 -14 0 -14 7 -15 40 -10 45 7 50 1 64 -77 7 -36 5 -38
-24 -49 -32 -11 -30 -23 5 -30 19 -3 20 -10 17 -143 -1 -77 -5 -161 -8 -187
-5 -43 -9 -48 -30 -48 -14 0 -27 7 -30 15 -4 8 -18 15 -33 15 -23 0 -84 17
-146 40 -64 25 -145 50 -180 56 -22 3 -46 12 -54 18 -8 6 -23 10 -35 8 -12 -1
-39 7 -61 18 -21 11 -44 20 -51 20 -6 0 -19 9 -30 21 -16 18 -19 40 -21 177
-3 156 0 171 33 172 6 0 14 -18 18 -40 3 -23 12 -50 19 -60 9 -15 9 -24 1 -38
-12 -18 -10 -165 2 -183 3 -5 23 -9 45 -9 22 0 47 -6 55 -14 8 -8 34 -18 59
-22 25 -3 48 -10 51 -15 3 -5 27 -9 53 -9 31 0 53 -5 61 -15 7 -8 26 -15 43
-15 16 0 35 -6 41 -14 10 -13 41 -20 72 -17 7 1 10 50 10 148 l-1 148 30 6 30
6 -28 11 c-16 7 -38 12 -51 12 -12 0 -26 4 -31 9 -6 5 -27 14 -47 21 -21 6
-38 13 -38 15 0 1 7 19 15 40 16 36 16 37 68 33 l52 -3 -4 67 c-2 52 1 71 13
83 9 9 16 31 16 50 0 18 3 35 8 37 4 2 20 22 35 44 59 87 99 119 187 151 19 7
46 13 60 13 14 0 31 4 38 8 21 14 -32 32 -91 32 -29 0 -58 5 -63 10 -6 6 -35
13 -65 17 -30 3 -63 12 -74 19 -11 8 -40 14 -66 14 -32 0 -49 5 -53 15 -6 17
-81 21 -91 5 -3 -5 -17 -10 -29 -10 -13 0 -34 -8 -47 -17 -13 -10 -40 -26 -59
-36 -41 -21 -128 -102 -141 -132 -5 -11 -21 -40 -34 -64 -16 -28 -25 -60 -25
-87 0 -48 -24 -71 -60 -59 -17 5 -20 15 -20 61 0 30 4 62 9 72 4 9 16 35 27
57 30 64 81 126 121 147 21 11 42 26 48 34 5 7 21 14 34 16 14 2 26 9 29 16 6
18 -53 15 -68 -3z m304 -62 c5 -13 16 -14 57 -9 44 6 53 4 65 -13 8 -11 21
-17 31 -15 10 3 36 -2 58 -10 28 -10 33 -15 18 -15 -12 -1 -25 -6 -28 -11 -4
-6 -16 -8 -27 -4 -18 5 -20 3 -14 -20 8 -32 -12 -35 -39 -6 -22 24 -38 25 -70
4 -31 -21 -23 -34 20 -34 19 0 37 -4 40 -10 9 -14 -13 -50 -31 -50 -12 0 -14
-7 -9 -29 5 -25 3 -29 -22 -34 -30 -5 -161 6 -203 18 -14 3 -45 9 -70 12 -56
6 -105 42 -96 69 4 11 18 32 31 49 22 27 27 29 45 17 27 -16 43 -6 34 21 -5
18 -4 20 7 10 14 -14 57 -17 83 -7 25 10 8 24 -30 24 -19 0 -34 2 -34 4 0 3
10 16 23 30 18 19 35 25 78 28 65 4 76 1 83 -19z m574 -150 c2 -9 -10 -13 -40
-14 -23 0 -52 -4 -63 -8 -19 -8 -19 -8 2 -19 12 -7 34 -12 50 -12 42 -1 67
-24 59 -54 -5 -19 -1 -28 13 -36 11 -5 22 -19 26 -29 7 -24 -19 -91 -37 -92
-7 0 -4 -4 7 -8 13 -5 27 -3 40 5 23 17 71 18 80 3 10 -15 -24 -79 -41 -79 -9
0 -27 -9 -41 -20 -14 -11 -39 -20 -54 -20 -18 0 -29 -5 -29 -14 0 -22 31 -28
50 -11 26 23 31 6 20 -56 -8 -39 -7 -62 1 -82 9 -20 9 -31 1 -39 -7 -7 -7 -16
1 -30 10 -16 9 -22 -7 -34 -11 -8 -30 -14 -42 -14 -13 0 -26 -5 -29 -10 -10
-16 24 -24 41 -9 9 7 28 13 42 14 27 0 27 0 29 85 1 47 4 100 7 118 3 18 1 44
-4 57 -10 28 0 39 28 31 16 -5 18 -22 20 -155 l2 -148 -83 -42 c-46 -22 -95
-41 -109 -41 -14 0 -28 -7 -32 -15 -3 -8 -16 -15 -28 -15 -13 0 -40 -9 -61
-20 -20 -11 -37 -17 -37 -14 0 4 -10 0 -22 -8 -13 -8 -44 -17 -70 -20 l-48 -6
-1 57 c-1 153 3 257 12 265 5 6 9 18 9 29 0 12 6 17 16 15 14 -3 17 -19 16
-113 0 -60 -5 -123 -11 -139 -13 -34 -15 -31 27 -40 28 -5 35 -3 39 14 4 15
11 18 28 14 28 -7 69 11 45 20 -8 3 -31 7 -50 8 l-35 3 -1 60 c0 33 -5 69 -11
80 -15 28 -6 45 25 46 l27 0 -22 15 -22 16 28 24 c34 29 40 29 56 7 12 -16 15
-16 33 7 l20 25 -50 3 c-27 2 -55 -2 -62 -7 -7 -6 -24 -11 -37 -10 -13 0 -36
-3 -51 -7 -31 -7 -32 -4 -29 86 1 25 1 68 1 95 -1 42 5 59 30 94 l32 43 19
-21 c21 -23 28 -25 46 -13 13 8 -17 52 -36 52 -6 0 -11 7 -11 15 0 8 7 15 15
15 8 0 15 -7 15 -15 0 -21 14 -19 56 10 20 14 45 25 55 25 31 0 22 35 -12 51
-18 8 -31 19 -31 24 3 23 172 30 180 8z m52 -36 c24 -21 45 -58 70 -125 11
-28 10 -35 -5 -52 -27 -29 -38 -11 -33 54 2 37 -1 56 -8 56 -6 0 -17 13 -24
29 -6 16 -18 32 -26 35 -14 6 -20 26 -6 26 4 -1 18 -11 32 -23z m-242 -14 c3
-18 -2 -23 -17 -23 -12 0 -21 4 -21 9 0 5 -3 17 -6 26 -5 13 -2 16 17 13 16
-2 25 -11 27 -25z m-656 -47 c7 -12 18 -14 51 -10 32 5 46 2 56 -10 9 -11 30
-16 65 -16 32 0 69 -8 95 -21 36 -17 42 -24 37 -42 -3 -12 -6 -28 -6 -34 0
-17 -53 -43 -88 -43 -48 0 -55 -18 -50 -133 7 -133 -1 -147 -82 -147 -39 0
-62 5 -70 15 -7 8 -16 15 -21 15 -5 0 -18 9 -29 20 -17 17 -20 33 -20 114 0
91 -15 142 -22 74 -3 -30 -6 -33 -33 -30 -41 3 -115 43 -115 62 0 9 -5 21 -11
27 -32 32 52 46 97 17 23 -16 70 -21 139 -16 17 2 55 -2 85 -7 32 -5 59 -5 65
0 5 5 17 9 28 9 10 0 17 5 15 13 -3 7 -31 14 -69 18 -35 3 -74 11 -86 18 -15
7 -23 8 -23 1 0 -6 -25 -10 -60 -10 -33 0 -60 2 -60 5 0 2 5 15 11 29 8 17 8
33 1 54 -7 21 -7 33 1 41 16 16 88 7 99 -13z m288 -196 c0 -5 -7 -10 -15 -10
-8 0 -15 5 -15 10 0 6 7 10 15 10 8 0 15 -4 15 -10z m-2 -229 c-1 -3 2 -16 6
-29 6 -17 3 -27 -11 -38 -15 -11 -16 -15 -4 -23 7 -5 15 -31 17 -58 3 -40 0
-54 -15 -67 -19 -17 -19 -17 -14 3 5 20 3 21 -35 15 -28 -4 -54 -1 -82 10 -22
9 -51 14 -64 10 -14 -3 -27 1 -35 10 -9 10 -30 16 -56 16 -29 0 -45 5 -49 15
-3 8 -15 15 -26 15 -24 0 -27 6 -34 83 -6 69 7 80 53 46 39 -29 39 -39 0 -39
-20 0 -29 -4 -27 -12 6 -16 58 -23 58 -9 0 6 7 11 15 11 8 0 15 -9 15 -20 0
-13 9 -22 28 -26 15 -3 32 -7 39 -9 6 -2 17 3 23 11 7 8 28 14 47 14 42 0 73
15 73 36 0 8 10 28 22 44 20 28 23 29 39 14 10 -9 17 -19 17 -23z"/>
<path d="M6980 4295 c0 -12 13 -15 55 -15 42 0 55 3 55 15 0 12 -13 15 -55 15
-42 0 -55 -3 -55 -15z"/>
<path d="M7442 4029 c5 -16 68 -25 68 -10 0 6 -9 11 -19 11 -11 0 -27 3 -37 7
-12 4 -15 2 -12 -8z"/>
<path d="M7338 3965 c-1 -36 -2 -73 -2 -82 -1 -12 6 -18 19 -18 16 0 21 9 26
48 3 27 12 53 20 58 11 7 8 13 -16 34 -16 13 -33 24 -37 25 -5 0 -9 -29 -10
-65z"/>
<path d="M7530 3960 c0 -17 61 -43 73 -31 7 7 5 12 -9 16 -10 4 -27 11 -36 16
-22 11 -28 11 -28 -1z"/>
<path d="M7430 3910 c0 -5 9 -10 21 -10 11 0 17 5 14 10 -3 6 -13 10 -21 10
-8 0 -14 -4 -14 -10z"/>
<path d="M7551 3816 c-10 -11 -6 -17 18 -29 28 -14 31 -14 37 5 10 33 -32 51
-55 24z"/>
<path d="M7435 3640 c-4 -6 7 -10 24 -10 17 0 31 5 31 10 0 6 -11 10 -24 10
-14 0 -28 -4 -31 -10z"/>
<path d="M7530 3520 c0 -5 9 -10 21 -10 11 0 17 5 14 10 -3 6 -13 10 -21 10
-8 0 -14 -4 -14 -10z"/>
<path d="M6825 3821 c3 -77 8 -91 35 -91 22 0 29 18 31 86 2 62 -4 74 -40 74
l-28 0 2 -69z"/>
<path d="M3748 4408 c-4 -40 -33 -51 -43 -17 -6 19 -9 20 -16 7 -10 -18 -1
-78 11 -78 4 0 10 -9 13 -21 3 -12 10 -18 17 -14 8 5 7 12 -5 25 -15 16 -13
19 20 39 44 25 44 25 61 4 13 -17 13 -17 14 1 0 21 -45 86 -60 86 -5 0 -10
-15 -12 -32z"/>
<path d="M3990 4384 c0 -9 7 -14 17 -12 25 5 28 28 4 28 -12 0 -21 -6 -21 -16z"/>
<path d="M3593 4209 c-12 -30 -12 -30 18 -24 38 9 83 -29 68 -57 -5 -9 -9 -21
-8 -25 4 -22 -3 -33 -21 -33 -22 0 -27 -29 -8 -48 10 -10 12 -84 5 -192 -2
-21 3 -26 27 -28 17 -2 49 -1 73 3 38 6 43 9 38 26 -5 15 -1 22 14 26 35 9 24
26 -13 20 -30 -5 -33 -3 -34 21 0 15 -3 53 -7 85 -5 47 -3 57 10 57 22 0 19
21 -5 27 -21 6 -35 36 -25 53 4 6 12 8 18 4 7 -3 0 6 -15 20 -31 28 -36 46
-13 46 19 0 19 9 -1 32 -15 16 -18 16 -29 2 -10 -15 -14 -15 -43 0 -39 20 -36
21 -49 -15z m121 -232 c-7 -91 -11 -107 -24 -87 -13 21 -10 153 3 162 21 13
26 -3 21 -75z"/>
<path d="M6338 4078 c-33 -7 -49 -16 -54 -30 -10 -33 10 -43 58 -28 68 21 77
28 71 50 -6 22 -7 22 -75 8z"/>
<path d="M6180 4013 c-8 -3 -27 -15 -42 -25 -34 -24 -39 -68 -8 -68 28 0 111
61 108 80 -3 16 -33 23 -58 13z"/>
<path d="M4160 3996 c0 -8 5 -18 10 -21 6 -3 10 3 10 14 0 12 -4 21 -10 21 -5
0 -10 -6 -10 -14z"/>
<path d="M6040 3844 c-25 -57 -25 -82 -1 -113 27 -35 55 -22 48 22 -3 17 0 52
5 76 9 34 8 45 -3 52 -24 15 -29 11 -49 -37z"/>
<path d="M3237 3853 c-4 -3 -7 -15 -7 -25 0 -26 24 -17 28 10 3 21 -8 29 -21
15z"/>
<path d="M3590 3830 c-8 -16 -8 -20 4 -20 16 0 29 27 16 35 -5 3 -14 -4 -20
-15z"/>
<path d="M3830 3831 c0 -12 6 -21 16 -21 9 0 14 7 12 17 -5 25 -28 28 -28 4z"/>
<path d="M2412 3668 c7 -19 38 -22 38 -4 0 10 -9 16 -21 16 -12 0 -19 -5 -17
-12z"/>
<path d="M6077 3653 c-15 -14 -5 -44 25 -79 40 -45 76 -60 96 -40 13 13 9 21
-34 70 -45 52 -71 66 -87 49z"/>
<path d="M7873 3564 c-8 -20 13 -42 27 -28 12 12 3 44 -11 44 -5 0 -12 -7 -16
-16z"/>
<path d="M6249 3474 c-15 -14 -14 -20 13 -70 16 -29 33 -56 37 -58 13 -8 51 6
51 19 0 16 -30 77 -47 93 -7 7 -13 18 -13 23 0 14 -24 11 -41 -7z"/>
<path d="M3445 3461 c-3 -6 -16 -11 -29 -11 -12 0 -56 -22 -97 -49 -101 -67
-154 -141 -193 -272 -21 -73 -22 -236 -1 -263 8 -11 15 -30 15 -43 0 -13 4
-23 9 -23 5 0 13 -10 17 -22 11 -35 88 -106 140 -129 64 -28 136 -40 261 -46
83 -3 117 0 180 17 42 11 82 19 88 16 7 -2 25 2 40 10 15 8 34 14 43 14 8 0
24 7 34 17 10 9 33 16 52 15 21 -1 36 4 39 13 3 7 16 15 28 17 33 5 36 28 3
28 -15 0 -33 8 -39 17 -12 16 -15 16 -32 2 -10 -9 -28 -20 -41 -24 -21 -6 -22
-4 -16 22 4 15 14 42 22 58 23 44 22 238 -1 282 -9 18 -17 43 -17 57 0 14 -4
27 -9 31 -6 3 -20 25 -32 50 -46 92 -124 156 -249 205 -45 17 -205 25 -215 11z
m192 -60 c16 -4 34 -19 42 -35 9 -20 16 -25 24 -17 17 17 34 13 40 -8 3 -14
11 -18 25 -15 26 7 38 -24 16 -41 -11 -8 -13 -14 -6 -19 6 -3 13 -2 17 4 9 15
25 12 25 -5 0 -8 5 -15 10 -15 6 0 15 -11 20 -25 5 -14 13 -25 18 -25 5 0 12
-25 15 -56 3 -30 11 -61 16 -68 6 -7 13 -36 16 -65 2 -28 6 -54 8 -59 3 -4 0
-18 -5 -32 l-10 -25 -9 23 c-12 31 -39 29 -39 -3 0 -18 5 -25 20 -25 36 0 21
-77 -16 -86 -25 -6 -31 -19 -15 -28 12 -8 2 -46 -11 -46 -6 0 -8 9 -5 20 3 11
1 22 -3 25 -16 10 -40 -7 -40 -29 0 -16 -11 -27 -37 -39 -23 -10 -39 -13 -41
-7 -6 15 -22 12 -22 -5 0 -8 -10 -17 -22 -19 -111 -23 -185 -16 -198 18 -6 17
-17 22 -44 23 -20 1 -39 -3 -42 -8 -9 -16 -40 -10 -59 11 -10 11 -24 20 -32
20 -7 0 -13 7 -13 15 0 8 -7 15 -16 15 -22 0 -53 32 -36 38 23 7 13 32 -14 32
-24 0 -25 3 -19 28 3 15 11 29 16 30 5 2 9 13 9 25 -1 22 -1 22 -16 2 -12 -16
-16 -17 -24 -6 -17 29 -20 96 -5 145 8 27 15 60 15 72 0 40 53 137 99 181 47
45 114 83 147 83 10 0 26 5 34 11 15 10 113 4 167 -10z m313 -691 c0 -13 -7
-20 -20 -20 -23 0 -26 10 -8 28 18 18 28 15 28 -8z"/>
<path d="M3689 3203 c-18 -4 -39 -44 -39 -72 0 -24 36 -61 60 -61 26 0 52 52
44 87 -12 49 -24 57 -65 46z"/>
<path d="M3400 3171 c-8 -21 -9 -39 -3 -58 8 -23 15 -28 43 -28 29 0 35 4 42
32 12 48 -5 83 -41 83 -22 0 -31 -6 -41 -29z"/>
<path d="M3862 3028 c-16 -16 -15 -28 3 -28 8 0 15 9 15 20 0 23 -2 24 -18 8z"/>
<path d="M3200 2976 c0 -8 5 -18 10 -21 6 -3 10 3 10 14 0 12 -4 21 -10 21 -5
0 -10 -6 -10 -14z"/>
<path d="M3407 2983 c-17 -16 -5 -55 24 -80 49 -44 105 -62 164 -52 28 4 56 8
62 8 22 1 93 72 93 92 0 33 -28 33 -65 1 -29 -26 -88 -52 -118 -52 -20 0 -84
36 -110 62 -29 29 -39 33 -50 21z"/>
<path d="M3553 2707 c6 -18 75 -27 88 -11 13 16 3 21 -49 23 -31 1 -42 -3 -39
-12z"/>
<path d="M1093 3413 c-17 -6 -17 -30 -1 -39 7 -5 31 -8 53 -9 l40 0 1 -125 c1
-69 2 -131 3 -137 0 -7 14 -13 31 -13 l29 0 3 138 3 137 33 3 c31 3 52 25 38
40 -8 7 -215 12 -233 5z"/>
<path d="M1368 3408 c-3 -7 -2 -23 0 -36 4 -18 10 -22 31 -20 22 2 26 8 26 33
0 25 -4 31 -26 33 -15 2 -29 -2 -31 -10z"/>
<path d="M1617 3414 c-4 -4 -7 -24 -7 -44 0 -44 -7 -52 -30 -40 -12 6 -29 6
-50 -2 -38 -13 -60 -57 -60 -121 0 -57 17 -91 57 -112 30 -16 35 -17 65 -2 24
12 36 13 46 5 27 -23 33 8 30 163 -3 146 -4 154 -23 157 -12 2 -24 0 -28 -4z
m-3 -166 c14 -54 -3 -102 -36 -106 -36 -4 -58 22 -58 70 0 50 24 80 59 76 21
-2 28 -11 35 -40z"/>
<path d="M1727 3413 c-10 -10 -8 -296 2 -312 6 -10 13 -10 28 -3 15 8 25 7 43
-5 20 -14 25 -14 55 0 107 51 69 278 -41 237 -40 -16 -46 -12 -43 28 2 21 0
43 -5 50 -8 13 -29 16 -39 5z m127 -145 c33 -47 9 -128 -38 -128 -12 0 -27 5
-34 12 -15 15 -16 92 -2 119 14 26 55 24 74 -3z"/>
<path d="M1961 3406 c-14 -17 1 -56 22 -56 33 0 50 53 21 64 -23 9 -30 8 -43
-8z"/>
<path d="M2650 3395 c-7 -8 -19 -15 -28 -15 -20 0 -101 -67 -113 -94 -5 -11
-13 -28 -18 -36 -40 -70 -43 -82 -41 -178 2 -132 4 -125 -25 -120 -61 12 -125
-85 -125 -190 0 -53 13 -52 55 6 27 37 81 70 93 57 3 -3 0 -5 -6 -5 -7 0 -12
-9 -12 -21 0 -11 -9 -32 -20 -46 -11 -14 -20 -32 -20 -40 0 -8 -6 -27 -14 -41
-26 -50 -65 -615 -45 -654 6 -11 27 -19 61 -23 56 -7 95 3 117 29 7 9 22 16
32 16 11 0 19 6 19 14 0 8 -8 13 -17 12 -46 -3 -76 157 -77 409 0 130 11 225
33 278 6 16 11 41 11 56 0 19 7 31 23 38 27 13 67 -3 67 -27 0 -24 20 -40 50
-40 19 0 30 -8 39 -26 8 -17 17 -24 27 -20 28 11 33 -3 19 -45 -17 -48 -13
-59 21 -59 15 0 24 -6 24 -16 0 -33 32 -124 43 -124 40 0 106 181 93 254 -3
20 -9 52 -12 71 -3 19 -12 40 -20 46 -8 6 -14 17 -14 23 0 20 -65 76 -88 76
-12 0 -22 4 -22 9 0 5 -12 12 -26 15 -14 4 -24 12 -21 19 4 14 148 30 161 17
4 -5 23 -6 42 -3 25 4 35 2 40 -11 4 -10 18 -16 36 -16 26 0 30 3 25 23 -21
86 -54 133 -119 167 -46 24 -122 26 -158 5 -14 -8 -33 -17 -42 -21 -9 -3 -19
-12 -22 -20 -3 -8 -12 -14 -21 -14 -20 0 -19 -26 1 -34 23 -9 24 -8 24 13 0
15 10 19 54 25 65 7 116 -2 116 -21 0 -19 -29 -28 -49 -16 -9 5 -27 7 -41 3
-17 -4 -21 -8 -12 -14 25 -15 12 -28 -22 -22 -25 5 -35 3 -40 -9 -7 -20 -26
-19 -26 1 0 18 -23 44 -39 44 -6 0 -11 -7 -11 -15 0 -8 5 -15 10 -15 6 0 10
-5 10 -11 0 -7 -10 -9 -25 -5 -27 7 -34 -11 -13 -32 20 -20 1 -25 -26 -7 -24
16 -38 65 -18 65 5 0 18 19 30 43 13 27 38 53 67 71 59 38 71 52 56 69 -14 18
-4 27 29 27 15 0 33 7 40 14 6 8 30 16 53 18 54 4 55 23 2 60 -33 22 -51 27
-101 28 -43 0 -65 -5 -74 -15z m-20 -85 c-30 -26 -33 -32 -23 -49 6 -10 10
-21 7 -24 -10 -10 -44 6 -44 20 0 20 61 83 80 83 9 0 1 -12 -20 -30z m-50
-119 c0 -5 -7 -11 -15 -15 -15 -5 -20 5 -8 17 9 10 23 9 23 -2z m-50 -211 c0
-11 -4 -20 -10 -20 -5 0 -10 9 -10 20 0 11 5 20 10 20 6 0 10 -9 10 -20z m200
-29 c19 -15 43 -30 53 -34 9 -3 17 -15 17 -24 0 -10 7 -28 15 -40 11 -16 14
-34 9 -63 -6 -37 -5 -41 12 -38 14 2 20 -4 22 -24 2 -16 -1 -28 -7 -28 -6 0
-11 5 -11 10 0 6 -11 15 -25 20 -29 11 -31 16 -40 84 l-7 48 -22 -21 c-32 -30
-40 -27 -55 23 -12 43 -13 44 -44 35 -25 -7 -33 -5 -40 7 -6 11 -17 14 -33 10
-24 -7 -25 -6 -8 19 9 14 25 25 35 25 10 0 23 9 29 20 9 16 15 18 38 9 15 -5
43 -23 62 -38z m-250 -36 c0 -8 -15 -21 -34 -29 -18 -8 -37 -19 -40 -25 -9
-14 -36 -14 -36 -1 0 6 15 24 33 40 34 32 77 40 77 15z m-73 -632 c-4 -17 -4
-17 -12 0 -4 9 -4 25 0 35 8 16 8 16 12 0 3 -10 3 -26 0 -35z m9 -108 c7 -17
-22 -85 -36 -85 -13 0 -13 27 0 35 5 3 7 12 3 20 -7 19 3 45 17 45 6 0 13 -7
16 -15z"/>
<path d="M2083 3383 c-7 -2 -13 -13 -13 -24 0 -11 -6 -28 -12 -39 -11 -16 -9
-22 6 -33 16 -12 18 -22 13 -69 -9 -71 6 -112 44 -128 23 -10 32 -10 44 0 22
18 19 50 -4 50 -26 0 -28 5 -32 75 -4 57 -3 60 24 73 34 16 35 30 3 38 -17 4
-26 14 -28 32 -3 26 -20 36 -45 25z"/>
<path d="M4604 3331 c-39 -9 -77 -21 -85 -26 -8 -6 -30 -19 -49 -29 -80 -44
-176 -169 -195 -254 -3 -17 -11 -34 -16 -37 -12 -8 -12 -235 0 -235 5 0 12
-12 15 -26 4 -15 13 -33 21 -40 7 -8 15 -17 17 -21 5 -13 85 -73 96 -73 6 0
15 -6 19 -14 4 -7 22 -16 38 -19 17 -3 50 -11 75 -17 54 -14 303 -9 340 8 14
6 37 13 52 16 14 3 40 17 56 31 18 15 37 23 46 19 10 -4 19 3 28 21 9 21 17
25 36 20 25 -6 92 13 92 27 0 5 -15 8 -33 6 -18 -1 -38 2 -45 6 -14 9 -16 52
-2 61 17 10 12 201 -6 259 -9 28 -20 58 -25 66 -4 8 -18 33 -29 55 -43 80
-171 185 -225 185 -14 0 -34 4 -43 9 -34 17 -109 18 -178 2z m123 -56 c15 -11
24 -12 28 -4 18 28 125 -22 125 -58 0 -7 5 -13 10 -13 6 0 16 -11 22 -25 8
-19 14 -22 24 -14 9 8 18 5 33 -10 25 -25 27 -41 6 -41 -8 0 -15 7 -15 16 0 8
-4 12 -10 9 -6 -4 -5 -14 3 -28 17 -31 29 -38 44 -25 10 8 13 3 13 -26 0 -24
5 -36 14 -36 7 0 16 -12 19 -27 5 -29 -2 -48 -10 -25 -7 19 -23 14 -23 -7 0
-11 -7 -26 -15 -35 -33 -32 -2 -91 43 -79 28 7 18 23 -14 23 -16 0 -24 5 -21
13 2 6 9 12 15 11 7 -1 22 -2 33 -2 19 -2 21 -6 15 -34 -7 -35 -32 -68 -53
-68 -7 0 -13 -5 -13 -11 0 -6 -13 -24 -30 -40 -25 -26 -28 -33 -17 -50 10 -16
9 -21 -3 -29 -22 -14 -40 -12 -40 5 0 8 -9 15 -20 15 -11 0 -20 -4 -20 -9 0
-5 -17 -18 -37 -29 -22 -11 -37 -26 -37 -36 2 -23 -27 -20 -33 4 -6 24 -21 26
-37 5 -7 -9 -36 -17 -72 -21 -57 -6 -63 -5 -74 16 -9 16 -15 19 -23 11 -15
-15 -47 -14 -81 4 -15 8 -35 15 -43 15 -21 0 -112 91 -113 113 0 9 -6 17 -13
17 -10 0 -13 22 -11 93 2 110 1 105 17 82 11 -13 16 -15 22 -6 4 7 2 18 -4 24
-16 16 -14 72 4 87 8 7 15 19 15 26 0 27 90 143 112 144 4 0 27 13 50 29 58
39 176 53 215 26z m323 -530 c0 -17 -35 -55 -51 -55 -23 0 -33 16 -14 24 8 3
15 12 15 21 0 9 9 15 25 15 14 0 25 -2 25 -5z"/>
<path d="M4512 3065 c-29 -33 -27 -66 4 -88 33 -24 60 -14 74 27 24 73 -31
115 -78 61z"/>
<path d="M4772 3082 c-23 -15 -27 -80 -7 -102 23 -25 33 -25 68 4 27 21 27 24
15 62 -10 30 -19 40 -38 42 -14 1 -31 -2 -38 -6z"/>
<path d="M4490 2857 c0 -50 95 -107 178 -107 62 0 113 23 159 73 24 26 29 37
20 46 -16 16 -47 14 -53 -4 -12 -30 -69 -55 -125 -55 -56 0 -91 16 -117 52 -7
10 -24 18 -38 18 -18 0 -24 -5 -24 -23z"/>
<path d="M4494 2649 c-3 -6 -2 -15 2 -19 12 -12 38 5 30 19 -9 14 -23 14 -32
0z"/>
<path d="M2244 3326 c-36 -16 -49 -51 -34 -90 7 -19 21 -28 54 -37 48 -12 72
-31 61 -49 -10 -16 -66 -12 -87 7 -13 12 -22 13 -29 6 -30 -30 45 -92 97 -79
32 8 84 61 84 85 0 26 -40 58 -81 65 -39 7 -65 28 -54 46 9 15 51 12 65 -5 19
-23 56 -15 52 10 -2 11 -9 26 -16 33 -19 19 -77 24 -112 8z"/>
<path d="M1377 3323 c-3 -5 -7 -57 -8 -116 -3 -85 -1 -110 11 -117 8 -5 21 -5
30 0 12 7 15 30 15 119 0 61 -3 111 -7 111 -3 0 -13 3 -21 6 -8 3 -17 2 -20
-3z"/>
<path d="M5378 3323 c-25 -2 -52 -11 -58 -19 -7 -7 -19 -14 -26 -14 -25 0 -84
-74 -84 -104 0 -23 62 -68 117 -84 60 -19 148 -17 239 4 38 9 86 18 107 21 58
8 77 63 21 63 -13 0 -24 5 -24 11 0 17 -46 68 -84 94 -37 25 -120 36 -208 28z
m151 -49 c11 -4 10 -7 -4 -18 -13 -9 -15 -15 -7 -20 27 -16 12 -36 -26 -36
-21 0 -48 -7 -60 -16 -13 -9 -31 -14 -40 -12 -10 3 -23 -1 -30 -8 -10 -11 -18
-11 -40 -2 -40 17 -45 24 -38 52 14 56 152 90 245 60z"/>
<path d="M1969 3318 c-1 -2 -3 -51 -4 -110 -2 -79 1 -110 10 -118 10 -8 17 -6
27 8 10 14 12 45 8 118 -4 84 -8 99 -22 102 -10 2 -19 2 -19 0z"/>
<path d="M6265 3256 c-16 -17 -40 -38 -52 -46 -30 -21 -35 -64 -7 -68 31 -4
127 90 122 120 -4 33 -28 30 -63 -6z"/>
<path d="M7082 3171 c-8 -4 -12 -19 -10 -32 4 -34 53 -40 61 -8 10 38 -20 60
-51 40z"/>
<path d="M6480 3063 c0 -60 -3 -125 -6 -145 -6 -33 -4 -39 17 -47 38 -14 48
-3 51 57 l3 57 45 3 c64 5 90 32 90 95 0 71 -22 86 -122 87 l-78 0 0 -107z
m135 47 c15 -16 17 -26 9 -48 -8 -22 -16 -28 -47 -30 l-37 -3 0 44 c0 24 3 47
7 50 13 14 50 6 68 -13z"/>
<path d="M7604 3142 c-16 -10 -28 -88 -15 -96 5 -4 9 -34 8 -69 -2 -81 13
-107 58 -107 40 0 44 14 14 46 -15 16 -22 38 -24 74 -3 46 -1 52 21 60 29 11
31 26 5 35 -12 3 -21 17 -23 33 -3 27 -23 38 -44 24z"/>
<path d="M6078 3086 c-40 -39 -79 -111 -71 -132 6 -16 43 -19 43 -5 0 5 23 38
50 72 28 34 50 68 50 75 0 9 -21 24 -34 24 -2 0 -19 -15 -38 -34z"/>
<path d="M6894 3081 c-39 -24 -59 -85 -45 -139 15 -54 43 -74 99 -70 40 3 49
8 69 37 41 61 23 154 -34 180 -34 15 -53 14 -89 -8z m87 -58 c14 -38 3 -90
-23 -104 -19 -10 -25 -8 -45 15 -13 15 -23 37 -23 49 0 62 71 92 91 40z"/>
<path d="M7432 3089 c-43 -17 -61 -49 -62 -110 0 -49 4 -59 30 -84 38 -37 96
-39 129 -6 42 42 17 77 -30 42 -22 -17 -33 -19 -48 -12 -31 17 -42 72 -21 112
14 24 35 24 67 0 27 -22 53 -18 53 9 0 38 -72 68 -118 49z"/>
<path d="M7763 3093 c-45 -9 -70 -77 -38 -103 8 -7 32 -18 52 -25 25 -9 38
-19 38 -31 0 -25 -32 -30 -55 -9 -15 13 -22 14 -40 5 l-21 -11 27 -26 c60 -56
158 -19 152 56 -3 32 -7 35 -58 52 -30 10 -56 19 -57 19 -2 0 -3 7 -3 15 0 20
56 20 64 0 8 -22 36 -7 36 20 0 13 -3 26 -7 28 -15 9 -68 14 -90 10z"/>
<path d="M6755 3081 l-39 -6 -4 -102 -4 -103 31 0 30 0 3 77 c3 74 4 78 31 91
16 8 27 21 27 33 0 20 -5 21 -75 10z"/>
<path d="M7092 3081 c-10 -6 -14 -38 -15 -115 -2 -90 -5 -110 -19 -120 -20
-14 -24 -51 -8 -61 6 -4 26 3 45 15 l36 22 -3 131 c-3 128 -8 146 -36 128z"/>
<path d="M7195 3073 c-72 -72 -29 -202 68 -203 36 0 77 26 77 50 0 14 -46 13
-70 -2 -15 -10 -23 -9 -40 7 -31 28 -20 39 46 45 59 5 59 5 62 39 5 49 -28 81
-84 81 -26 0 -49 -6 -59 -17z m92 -39 c7 -18 -20 -44 -44 -44 -17 0 -27 25
-19 45 7 20 55 19 63 -1z"/>
<path d="M1026 2975 c-11 -8 -30 -15 -43 -15 -13 0 -26 -7 -29 -15 -4 -8 -12
-15 -18 -15 -24 0 -76 -65 -76 -94 0 -26 2 -28 28 -22 113 28 132 30 146 11
10 -15 22 -17 65 -13 29 3 57 11 61 18 4 7 15 10 24 7 14 -6 14 -10 4 -27 -21
-34 0 -54 62 -58 48 -3 52 -5 46 -25 -4 -18 12 -38 84 -109 50 -49 90 -92 90
-98 0 -5 9 -10 21 -10 18 0 20 -4 15 -27 -5 -17 -3 -29 6 -34 7 -4 9 -12 4
-16 -5 -4 -11 -2 -13 5 -3 6 -9 12 -15 12 -12 0 -68 58 -68 71 0 5 -4 9 -10 9
-9 0 -18 7 -71 55 -9 8 -22 15 -29 15 -7 0 -22 8 -32 17 -16 14 -40 17 -138
17 -98 0 -122 -3 -138 -17 -10 -9 -26 -17 -34 -17 -9 0 -21 -7 -28 -15 -7 -8
-18 -15 -24 -15 -19 0 -92 -92 -109 -135 -25 -63 -31 -88 -35 -138 -4 -60 14
-107 41 -107 11 1 62 73 79 112 4 9 16 21 26 27 11 6 25 24 30 41 13 36 25 38
40 5 13 -27 32 -25 64 7 11 11 29 18 41 17 14 -2 36 10 62 36 40 40 40 40 126
42 95 2 152 -17 173 -58 6 -12 29 -28 51 -37 22 -8 42 -16 43 -18 2 -1 1 -22
-3 -46 -6 -35 -9 -39 -16 -23 -4 11 -8 32 -8 48 -1 25 -4 27 -46 27 -38 0 -45
3 -45 20 0 18 -7 20 -59 20 -33 0 -63 -4 -66 -10 -3 -5 -17 -10 -29 -10 -13 0
-29 -7 -36 -15 -7 -8 -17 -15 -22 -15 -16 0 -88 -76 -88 -93 0 -8 -7 -20 -15
-27 -8 -7 -15 -22 -15 -33 0 -11 -6 -28 -13 -36 -24 -28 -40 -172 -27 -242 6
-34 15 -69 20 -78 4 -9 13 -28 18 -43 8 -20 16 -25 32 -21 24 6 29 25 32 118
3 67 4 70 28 70 23 0 25 4 27 50 1 28 2 56 2 63 2 22 16 12 28 -19 11 -30 14
-31 33 -18 12 8 29 37 39 66 10 31 30 62 49 78 18 15 32 33 32 42 0 14 45 81
64 95 5 3 15 4 22 1 18 -7 8 -330 -12 -391 -8 -23 -14 -65 -14 -93 0 -31 -6
-56 -15 -65 -10 -10 -15 -35 -15 -75 0 -48 -3 -61 -17 -65 -42 -13 -89 -44
-100 -66 -20 -37 -16 -82 10 -104 48 -41 67 -46 181 -45 140 1 212 23 232 70
15 35 33 40 41 12 5 -21 33 -18 68 6 26 17 45 17 45 -2 0 -8 5 -15 10 -15 14
0 12 11 -5 34 -12 16 -22 18 -78 12 -61 -7 -65 -6 -95 22 -18 17 -49 39 -70
49 -60 32 -64 48 -64 291 1 120 -2 253 -6 297 -8 90 -5 125 10 125 14 0 47
-42 48 -62 0 -34 11 -48 30 -38 25 14 30 4 30 -66 0 -64 11 -84 34 -65 20 17
26 2 26 -70 0 -70 10 -90 36 -68 22 18 29 2 16 -36 -7 -18 -15 -56 -19 -84
l-6 -51 29 0 c24 0 35 9 57 42 15 24 32 60 38 80 5 20 14 40 19 43 17 10 12
207 -5 229 -8 11 -15 30 -15 42 0 12 -7 27 -15 34 -8 7 -15 18 -15 24 0 6 -8
19 -17 28 -10 10 -29 29 -43 43 -35 36 -77 55 -122 55 -48 0 -48 -23 0 -28 35
-4 69 -39 52 -56 -6 -6 -10 -21 -10 -34 0 -37 -39 -25 -62 20 -12 22 -30 40
-49 47 -34 12 -38 28 -7 33 17 2 22 10 23 33 0 28 3 30 45 37 25 3 60 2 78 -4
24 -7 37 -7 45 1 18 18 31 12 60 -29 29 -41 60 -52 71 -25 10 27 26 16 26 -17
0 -42 9 -55 39 -59 19 -3 28 -15 40 -51 9 -26 22 -53 29 -60 6 -6 12 -31 12
-54 0 -24 5 -46 10 -49 18 -11 50 6 50 26 0 11 7 33 15 50 11 21 16 62 17 137
1 104 0 109 -33 170 -25 47 -47 72 -86 98 -47 31 -58 34 -125 34 -84 0 -120
-8 -115 -24 2 -6 14 -13 28 -14 13 -2 30 -9 38 -15 11 -9 15 -9 18 1 5 14 33
16 33 2 0 -5 11 -10 25 -10 14 0 28 -7 31 -15 4 -8 17 -15 30 -15 16 0 28 -8
35 -22 13 -30 32 -63 46 -79 6 -8 14 -32 17 -54 5 -31 4 -35 -3 -17 -10 22
-16 25 -61 26 -23 1 -25 6 -28 49 -2 33 -7 47 -18 47 -7 0 -14 -9 -14 -20 0
-11 -7 -20 -15 -20 -8 0 -15 9 -15 20 0 11 -5 20 -11 20 -6 0 -8 9 -4 20 9 27
-18 27 -56 -1 -16 -11 -29 -16 -29 -11 0 6 5 12 12 14 6 2 -3 14 -20 26 l-31
23 -40 -26 c-44 -27 -71 -31 -89 -13 -6 6 -15 8 -19 3 -5 -4 -2 -10 5 -12 15
-6 16 -23 2 -23 -6 0 -22 7 -35 16 l-25 16 41 39 c22 21 42 39 44 39 2 0 23
13 47 29 24 16 62 39 85 51 37 19 42 25 37 46 -6 23 -5 24 54 24 37 0 66 5 74
13 7 8 26 17 41 21 22 5 27 11 22 26 -9 29 19 36 63 16 20 -9 53 -17 72 -18
48 -4 52 27 10 76 -61 68 -88 78 -216 79 -85 0 -118 -4 -132 -14 -9 -8 -34
-24 -55 -34 -38 -20 -117 -87 -117 -100 0 -4 -13 -24 -30 -45 -16 -21 -30 -45
-30 -53 0 -8 -7 -20 -16 -28 -10 -8 -14 -24 -12 -46 2 -19 -1 -34 -8 -37 -6
-2 -13 -36 -16 -81 -3 -42 -10 -81 -16 -87 -21 -21 -32 4 -32 80 -1 80 -21
187 -39 205 -6 6 -11 17 -11 23 0 35 -106 162 -155 185 -11 6 -40 21 -65 34
-38 20 -60 24 -135 24 -64 0 -96 -4 -109 -14z m139 -34 c8 -13 -23 -41 -45
-41 -28 0 -36 21 -15 37 22 15 51 17 60 4z m811 -40 c-17 -18 -16 -20 3 -26
12 -3 21 -10 21 -15 0 -16 -18 -20 -43 -9 -21 9 -28 7 -58 -21 -19 -17 -46
-34 -61 -37 -19 -4 -28 -12 -28 -25 0 -21 -48 -78 -65 -78 -6 0 -16 -9 -23
-20 -12 -20 -52 -28 -52 -11 0 24 21 61 35 61 9 0 19 11 24 23 5 13 23 38 40
55 17 17 31 35 31 41 0 6 11 11 24 11 14 0 31 6 39 14 19 20 88 54 111 55 18
1 18 0 2 -18z m-702 -7 c9 -3 16 -11 16 -17 0 -6 -3 -7 -7 -4 -3 4 -15 -1 -25
-10 -14 -13 -21 -14 -30 -5 -7 7 -22 12 -35 12 -14 0 -23 6 -23 15 0 11 12 15
44 15 24 0 51 -3 60 -6z m89 -61 c23 -23 35 -43 32 -53 -3 -10 7 -28 25 -45
16 -16 30 -34 30 -41 0 -6 7 -17 15 -24 18 -15 20 -54 3 -46 -7 3 -21 9 -31
12 -11 4 -16 13 -12 23 3 12 -11 31 -45 61 -54 48 -61 60 -30 60 11 0 20 7 20
15 0 8 -7 15 -16 15 -15 0 -53 37 -54 53 0 18 30 4 63 -30z m123 -260 c-7 -17
-8 -17 -17 0 -12 21 -2 44 13 29 6 -6 8 -19 4 -29z m-319 -19 c-9 -10 -38 16
-31 28 4 6 13 4 22 -6 9 -8 13 -19 9 -22z m-99 -17 c4 -29 -14 -37 -36 -15 -9
9 -12 9 -12 0 0 -7 -7 -12 -15 -12 -8 0 -20 -10 -26 -22 -31 -58 -78 -78 -48
-20 24 46 92 103 119 99 8 -1 16 -15 18 -30z m72 -8 c17 -30 6 -47 -24 -42
-30 6 -29 4 -16 37 12 31 26 33 40 5z m-250 -113 c0 -18 -17 -29 -30 -21 -8 5
-7 11 1 21 15 18 29 18 29 0z m520 -62 c0 -8 -8 -14 -19 -14 -11 0 -21 -9 -24
-21 -7 -25 -30 -21 -35 6 -5 24 48 67 66 53 6 -6 12 -17 12 -24z m-90 -29 c0
-20 -35 -85 -46 -85 -8 0 -14 -7 -14 -15 0 -8 5 -15 10 -15 6 0 10 -7 10 -15
0 -17 -16 -20 -25 -5 -3 6 -14 10 -24 10 -13 0 -18 -8 -18 -32 0 -23 -8 -37
-29 -54 -16 -13 -39 -33 -51 -45 l-23 -22 0 30 c0 17 7 36 15 43 8 7 17 27 21
46 5 27 9 32 19 24 16 -13 28 2 19 24 -4 10 -1 16 7 16 8 1 34 23 59 50 38 43
70 63 70 45z m468 -41 c2 -10 16 -32 31 -49 43 -47 54 -81 39 -121 -9 -26 -17
-34 -33 -32 -14 2 -20 10 -20 28 0 14 -4 32 -10 40 -5 8 -8 26 -7 40 2 16 -5
33 -17 45 -30 26 -27 82 3 72 6 -2 13 -12 14 -23z m-278 -569 c0 -8 -7 -15
-15 -15 -8 0 -15 7 -15 15 0 8 7 15 15 15 8 0 15 -7 15 -15z m20 -65 c7 -14 8
-26 0 -39 -7 -13 -7 -22 0 -26 22 -14 8 -26 -27 -23 -46 4 -53 25 -27 74 21
39 38 43 54 14z m-140 -82 c0 -21 51 -40 123 -45 64 -5 69 -4 90 21 28 32 39
33 35 4 -2 -15 -11 -24 -27 -26 -13 -2 -26 -12 -28 -23 -7 -27 -44 -34 -110
-20 -30 6 -59 8 -65 5 -5 -3 -20 2 -33 10 -27 18 -33 54 -13 74 16 16 28 15
28 0z"/>
<path d="M5953 2853 c-8 -33 -8 -91 1 -127 7 -28 36 -35 53 -13 15 17 7 148
-9 159 -23 14 -38 8 -45 -19z"/>
<path d="M7244 2745 c-4 -8 -1 -21 4 -28 7 -8 8 -33 3 -70 -4 -31 -5 -59 -3
-62 8 -8 52 -6 52 2 0 4 -7 27 -17 51 -21 56 -6 77 31 41 14 -13 26 -29 26
-34 0 -17 50 -66 61 -60 15 10 10 57 -8 78 -17 18 -16 20 17 47 38 32 33 55
-11 48 -20 -2 -24 -8 -23 -35 2 -44 -18 -43 -46 2 -17 27 -28 35 -51 35 -17 0
-32 -6 -35 -15z"/>
<path d="M5126 2742 c-9 -16 10 -31 32 -25 26 6 29 18 6 27 -21 8 -32 8 -38
-2z"/>
<path d="M5214 2738 c-3 -5 13 -8 35 -8 22 0 42 4 45 9 3 5 -13 8 -35 7 -22 0
-43 -4 -45 -8z"/>
<path d="M5990 2617 c0 -13 5 -28 10 -33 6 -6 13 -34 17 -63 6 -57 35 -90 59
-70 17 14 8 87 -17 147 -15 34 -23 42 -44 42 -19 0 -25 -5 -25 -23z"/>
<path d="M1760 2580 c0 -5 9 -10 19 -10 11 0 23 5 26 10 4 6 -5 10 -19 10 -14
0 -26 -4 -26 -10z"/>
<path d="M7173 2524 c-10 -7 -27 -14 -38 -14 -86 -1 -335 -212 -335 -284 0 -7
-6 -19 -14 -25 -7 -6 -16 -33 -19 -59 -5 -42 -19 -91 -42 -145 -6 -14 -1 -20
22 -29 28 -11 29 -13 25 -67 -3 -44 0 -60 12 -70 9 -7 16 -21 16 -31 0 -10 7
-23 15 -30 8 -7 15 -17 15 -22 0 -15 68 -99 98 -122 16 -12 39 -32 53 -44 13
-13 33 -28 44 -33 11 -5 40 -21 64 -34 24 -14 54 -25 66 -25 13 0 28 -7 35
-15 8 -10 30 -15 61 -15 41 0 51 -4 65 -25 21 -32 42 -32 54 -1 8 22 16 25 82
28 40 3 89 10 108 18 65 25 105 45 113 58 4 6 13 12 19 12 35 0 191 174 211
235 29 84 37 120 37 158 0 35 5 48 23 60 l22 15 -27 11 c-23 9 -28 17 -28 45
0 19 -4 38 -10 41 -5 3 -10 16 -10 28 0 45 -64 151 -131 217 -81 78 -89 86
-117 94 -12 4 -22 12 -22 17 0 5 -7 9 -16 9 -9 0 -28 6 -42 14 -72 36 -131 47
-261 45 -93 0 -135 -5 -148 -15z m227 -44 c0 -14 9 -21 38 -25 20 -3 49 -13
64 -21 14 -8 33 -14 41 -14 8 0 20 -7 27 -15 7 -8 20 -15 30 -15 21 0 93 -68
85 -81 -4 -5 -11 -9 -17 -9 -16 0 -97 -40 -104 -51 -3 -5 -18 -9 -35 -9 -19 0
-29 -5 -29 -15 0 -20 -44 -20 -60 0 -7 8 -10 25 -7 36 3 12 -3 39 -14 60 -10
21 -19 49 -19 63 0 14 -4 28 -10 31 -5 3 -10 24 -10 46 0 21 5 39 10 39 6 0
10 -9 10 -20z m-66 -34 c4 -19 7 -113 7 -211 2 -198 -4 -218 -47 -172 -14 16
-29 25 -32 22 -4 -4 1 -12 10 -19 9 -7 20 -25 24 -40 6 -24 4 -27 -12 -23 -11
3 -79 9 -152 12 -106 6 -134 10 -141 23 -10 18 -73 22 -128 8 -49 -13 -46 11
17 144 32 69 62 110 80 110 17 0 64 -60 87 -113 7 -15 20 -30 30 -34 23 -9 53
-45 46 -56 -3 -5 -28 -7 -57 -6 -45 3 -51 1 -51 -16 0 -17 6 -19 50 -16 27 1
62 9 77 17 15 8 45 14 68 14 40 0 52 14 30 36 -10 10 0 55 26 107 18 36 19
120 2 115 -15 -5 -30 -57 -22 -80 6 -21 -25 -58 -49 -58 -10 0 -21 9 -24 19
-3 12 -11 17 -19 14 -8 -3 -34 8 -57 23 -23 16 -51 31 -61 34 -10 3 -25 15
-34 28 -13 20 -13 22 4 29 11 4 38 20 60 35 23 15 50 28 60 28 9 0 25 6 33 14
9 8 41 16 71 18 l55 3 -2 -35 c-1 -19 0 -42 3 -50 10 -28 25 13 18 52 -9 61
19 84 30 24z m424 -191 c17 -24 32 -48 32 -53 0 -5 7 -15 15 -22 8 -7 15 -23
15 -35 0 -12 7 -28 16 -35 22 -19 15 -66 -11 -62 -11 1 -41 5 -66 8 -40 6 -48
4 -58 -13 -9 -17 -28 -22 -120 -32 -61 -7 -123 -11 -138 -10 -15 2 -34 0 -41
-5 -20 -12 -36 9 -28 37 3 15 15 27 31 31 14 4 25 11 25 16 0 15 92 11 120 -5
28 -16 130 -20 130 -6 0 18 -23 24 -77 22 -78 -4 -72 17 36 132 31 32 58 63
59 68 7 19 28 7 60 -36z m-236 -85 c-35 -33 -52 -38 -52 -16 0 18 39 45 65 45
17 0 15 -4 -13 -29z m-359 -11 c10 -11 16 -23 13 -26 -9 -9 -57 27 -51 37 9
15 19 12 38 -11z m257 0 c0 -11 -4 -17 -10 -14 -5 3 -10 13 -10 21 0 8 5 14
10 14 6 0 10 -9 10 -21z m-79 -181 c5 -73 -5 -455 -12 -462 -15 -16 -22 1 -24
56 -3 67 -3 68 -16 68 -8 0 -10 -12 -6 -36 9 -54 1 -65 -42 -58 -20 3 -49 12
-66 19 -16 8 -37 16 -45 19 -8 4 -37 19 -65 35 -58 34 -71 66 -32 80 14 6 28
14 31 19 3 5 22 13 43 17 21 4 45 17 55 31 23 28 44 31 70 7 20 -17 25 -68 8
-78 -14 -9 7 -35 26 -35 20 0 19 89 -1 96 -10 4 -15 20 -15 44 0 22 -5 42 -11
46 -19 11 0 55 44 101 42 45 56 52 58 31z m-451 -23 c8 -10 30 -15 61 -15 38
0 51 -4 59 -20 8 -15 16 -18 28 -12 28 14 81 7 96 -13 8 -11 20 -16 30 -12 25
10 20 -29 -6 -47 -25 -18 -58 -21 -58 -6 0 6 -9 10 -20 10 -13 0 -20 -7 -20
-19 0 -11 -22 -43 -48 -72 l-48 -52 -37 52 c-20 28 -37 56 -37 62 0 6 -7 17
-15 25 -8 9 -15 27 -15 41 0 15 -7 34 -16 44 -9 10 -14 25 -11 34 8 19 41 19
57 0z m340 3 c0 -4 -5 -8 -12 -8 -6 0 -20 -7 -30 -16 -14 -14 -20 -14 -33 -4
-20 16 -19 28 3 33 29 7 72 4 72 -5z m258 -4 c22 -15 24 -15 37 2 10 15 17 16
36 7 15 -7 18 -12 9 -12 -8 -1 -32 -10 -53 -21 -45 -24 -55 -25 -79 -3 -41 37
2 61 50 27z m365 -29 c-2 -22 -10 -56 -20 -75 -9 -19 -24 -51 -32 -70 -20 -44
-52 -80 -71 -80 -18 0 -85 74 -101 112 -6 15 -16 28 -22 28 -14 0 -57 41 -57
54 0 17 79 39 95 26 9 -8 14 -6 19 5 3 10 19 15 48 15 24 1 54 7 68 15 14 8
36 14 50 12 23 -2 25 -6 23 -42z m-444 -31 c24 -39 21 -62 -9 -89 -20 -18 -20
-17 -20 53 0 40 2 72 4 72 2 0 14 -16 25 -36z m130 -54 l22 -40 -35 17 c-26
12 -36 23 -36 40 0 36 24 27 49 -17z m-21 -61 c9 -11 37 -30 62 -41 105 -49
144 -87 103 -102 -24 -9 -62 -31 -76 -45 -6 -6 -21 -11 -33 -11 -12 0 -27 -7
-34 -15 -7 -8 -27 -15 -45 -15 -43 0 -65 -9 -65 -26 0 -22 -19 -16 -31 9 -8
18 -6 37 11 83 11 32 22 80 23 105 4 75 46 104 85 58z"/>
<path d="M4437 2490 c-7 -28 -16 -349 -18 -608 -1 -173 -1 -173 -25 -182 -30
-12 -31 -28 -2 -39 21 -8 22 -12 23 -220 2 -155 -1 -216 -10 -224 -9 -10 -9
-15 2 -25 21 -20 16 -63 -7 -69 -22 -6 -28 -33 -6 -33 15 0 26 -30 26 -73 0
-21 -6 -30 -20 -34 -25 -7 -26 -19 -1 -26 16 -4 19 -13 17 -61 -1 -32 4 -72
12 -89 33 -80 36 -16 38 816 2 630 -1 818 -10 850 -12 39 -14 40 -19 17z"/>
<path d="M4098 2433 l-3 -48 -41 3 c-36 3 -45 -1 -67 -28 -47 -56 -48 -124 -1
-179 25 -30 28 -31 97 -28 l72 3 1 162 2 162 -29 0 c-26 0 -28 -3 -31 -47z
m-17 -93 c15 -9 19 -22 19 -64 0 -64 -17 -84 -58 -70 -24 8 -27 16 -30 58 -2
35 2 53 14 67 20 22 28 23 55 9z"/>
<path d="M3080 2461 l-55 -6 -3 -153 -3 -153 33 3 33 3 0 65 0 65 50 5 c37 4
51 9 53 23 4 18 -2 19 -68 21 -34 1 -35 2 -35 41 l0 40 55 -3 c38 -2 61 2 75
13 20 15 20 15 1 30 -20 15 -40 16 -136 6z"/>
<path d="M3407 2456 c-11 -28 4 -47 32 -44 20 2 26 8 26 28 0 20 -6 26 -26 28
-17 2 -29 -3 -32 -12z"/>
<path d="M3422 2388 c-8 -8 -12 -51 -12 -126 l0 -113 28 3 27 3 0 109 c0 78
-4 113 -13 123 -16 16 -15 16 -30 1z"/>
<path d="M4261 2391 c-36 -10 -65 -54 -57 -86 5 -20 20 -32 61 -51 59 -25 64
-34 39 -55 -14 -11 -21 -10 -46 4 -55 32 -86 13 -47 -29 18 -19 32 -24 68 -24
54 1 89 25 96 67 8 39 -3 50 -66 72 -30 11 -54 24 -53 30 2 27 5 31 19 31 9 0
26 -7 39 -15 24 -16 56 -11 56 9 0 31 -65 59 -109 47z"/>
<path d="M3255 2378 c-6 -20 -12 -201 -8 -215 3 -7 18 -13 33 -13 l29 0 3 88
c3 86 3 87 30 90 42 5 51 62 11 62 -9 0 -25 -7 -35 -16 -16 -16 -18 -16 -24 0
-7 19 -33 21 -39 4z"/>
<path d="M3531 2353 c-49 -59 -40 -144 19 -190 24 -19 94 -16 113 5 17 19 22
44 11 55 -3 3 -21 -4 -39 -14 -44 -26 -78 -12 -73 29 3 26 5 27 53 24 30 -2
57 2 68 10 15 12 16 18 6 48 -17 46 -46 69 -91 70 -30 0 -42 -6 -67 -37z m92
-17 c29 -22 20 -36 -23 -36 -43 0 -55 20 -22 39 22 13 23 13 45 -3z"/>
<path d="M3738 2383 c-2 -5 -3 -57 -3 -118 l0 -110 25 0 c25 0 25 1 22 75 -3
65 -1 78 16 93 11 11 29 17 39 15 15 -3 19 -16 23 -93 5 -89 5 -90 33 -93 l27
-3 0 98 c-1 81 -4 102 -19 121 -21 24 -78 31 -99 10 -9 -9 -15 -9 -24 0 -13
13 -35 16 -40 5z"/>
<path d="M6042 2353 c-23 -43 -32 -147 -15 -164 8 -8 17 -5 33 11 17 17 21 34
23 93 2 60 -1 72 -15 75 -9 2 -21 -5 -26 -15z"/>
<path d="M5937 2106 c-32 -24 -62 -46 -66 -48 -5 -2 -13 -15 -16 -30 -7 -26
-5 -28 24 -28 17 0 31 4 31 9 0 5 8 12 19 16 31 10 92 77 89 99 -5 32 -21 29
-81 -18z"/>
<path d="M6380 2112 c0 -5 14 -34 30 -65 17 -31 30 -70 30 -86 0 -32 22 -56
45 -47 9 3 15 18 15 41 0 31 3 35 25 35 21 0 26 -6 31 -40 7 -46 16 -54 44
-45 16 5 20 15 20 49 0 25 6 49 14 55 8 7 17 27 20 46 4 19 11 35 16 35 6 0
10 7 10 15 0 10 -11 15 -35 15 l-34 0 6 -50 c5 -40 3 -51 -11 -56 -25 -9 -46
14 -46 52 0 22 -5 34 -14 34 -19 0 -46 -44 -46 -75 0 -14 -4 -25 -10 -25 -16
0 -41 59 -38 88 3 25 0 27 -34 30 -21 2 -38 -1 -38 -6z"/>
<path d="M8098 2111 c-56 -8 -79 -24 -60 -43 18 -18 15 -113 -3 -128 -26 -22
-1 -33 77 -35 91 -2 98 0 98 36 0 32 -13 37 -37 13 -21 -21 -77 -15 -81 10 -6
30 15 43 32 20 13 -17 15 -17 21 -2 12 30 1 53 -25 53 -14 0 -25 6 -24 13 3
35 5 40 19 46 11 4 19 -3 25 -19 10 -27 37 -33 46 -11 7 19 -13 56 -29 55 -7
-1 -33 -5 -59 -8z"/>
<path d="M5461 2096 c-42 -15 -65 -44 -50 -63 16 -18 27 -17 82 9 36 18 47 28
45 43 -4 24 -31 28 -77 11z"/>
<path d="M2670 2063 c-13 -5 -25 -18 -58 -58 -4 -5 -15 -28 -23 -50 -14 -37
-14 -44 3 -93 22 -62 16 -80 -39 -113 -21 -13 -40 -26 -43 -29 -3 -3 -18 -14
-35 -25 -95 -62 -125 -67 -198 -35 -25 11 -52 17 -61 14 -36 -14 -8 -101 47
-151 41 -37 100 -73 119 -73 9 0 21 -7 28 -15 7 -8 22 -15 34 -15 11 0 30 -7
40 -15 11 -8 32 -15 47 -15 16 0 32 -6 36 -14 4 -7 24 -16 43 -19 46 -7 121
-27 142 -38 10 -5 31 -9 47 -9 16 0 36 -6 43 -12 7 -7 29 -14 48 -14 48 -2
117 -19 133 -33 11 -9 17 -8 27 5 12 14 14 14 22 0 6 -10 23 -16 46 -16 20 0
64 -7 97 -15 53 -12 66 -12 115 2 30 8 62 19 70 24 8 5 33 18 55 30 22 12 56
35 76 50 20 16 41 29 46 29 5 0 20 13 33 30 14 16 30 29 35 30 21 0 97 82 87
92 -7 7 -3 22 11 46 17 29 35 101 38 157 1 32 -16 93 -31 113 -20 24 -118 52
-187 52 -23 0 -62 6 -85 14 -24 8 -76 17 -117 20 -41 4 -79 10 -85 15 -6 5
-38 12 -70 16 -33 4 -66 11 -75 15 -9 5 -37 12 -63 15 -26 3 -50 10 -53 16 -4
5 -21 9 -38 9 -18 0 -45 7 -61 15 -15 8 -36 15 -45 15 -9 0 -29 7 -46 16 -32
17 -130 28 -155 17z m134 -58 c11 -8 27 -15 37 -15 9 0 30 -7 45 -15 16 -8 40
-15 54 -15 15 0 31 -5 36 -10 6 -6 35 -13 65 -17 30 -3 63 -12 74 -19 11 -8
38 -14 61 -14 23 0 55 -7 70 -15 16 -8 43 -15 61 -15 17 0 60 -7 94 -16 45
-12 82 -14 130 -10 37 4 70 3 73 -2 3 -5 -6 -20 -19 -32 -14 -13 -25 -28 -25
-33 0 -6 -6 -18 -13 -26 -24 -28 -40 -98 -35 -148 3 -26 3 -43 1 -36 -2 7 -21
15 -41 19 -20 4 -49 13 -64 20 -15 8 -38 14 -51 14 -14 0 -38 7 -53 15 -16 8
-38 15 -50 15 -11 0 -29 7 -40 15 -10 8 -31 15 -46 15 -18 0 -28 5 -28 14 0
19 -38 31 -55 16 -16 -13 -62 -3 -69 16 -3 9 -20 14 -44 14 -21 0 -47 7 -58
15 -10 8 -33 15 -50 15 -17 0 -37 7 -44 15 -7 9 -29 15 -55 15 -26 0 -48 6
-55 15 -7 8 -21 15 -31 15 -48 0 -60 134 -15 172 26 22 113 24 140 3z m908
-246 c25 -13 36 -133 14 -158 -9 -10 -16 -21 -16 -25 0 -17 -78 -108 -117
-136 -23 -17 -48 -36 -55 -43 -7 -7 -31 -24 -53 -37 -22 -13 -46 -30 -53 -37
-7 -7 -20 -13 -28 -13 -8 0 -26 -7 -39 -16 -29 -19 -55 -12 -55 15 0 22 -29
36 -44 21 -7 -7 -5 -10 7 -10 9 0 17 -7 17 -16 0 -32 -26 -6 -60 60 l-34 67
-138 -2 c-76 -2 -138 -6 -138 -10 0 -7 87 -17 195 -22 49 -2 50 -2 53 -37 2
-19 8 -39 13 -44 5 -6 9 -14 9 -18 0 -13 -63 -8 -90 7 -14 8 -41 15 -60 15
-19 0 -53 7 -75 15 -22 8 -55 14 -72 15 -18 0 -47 9 -64 19 -21 13 -42 18 -63
14 -18 -3 -43 2 -61 11 -16 9 -43 16 -58 16 -16 0 -35 7 -43 15 -9 8 -27 15
-42 15 -15 0 -36 7 -46 15 -11 8 -28 15 -37 15 -10 0 -30 6 -46 14 -15 8 -48
24 -73 35 -54 24 -69 37 -93 74 -21 33 -17 43 10 29 46 -24 167 -72 183 -72
10 0 23 -7 30 -15 7 -8 23 -15 35 -15 12 0 28 -6 35 -14 15 -19 90 -17 90 1 0
7 -8 13 -19 13 -10 0 -38 11 -62 23 -24 13 -57 27 -74 31 -45 11 -88 56 -53
56 15 0 168 101 168 112 0 4 7 8 15 8 8 0 15 5 15 10 0 13 25 13 48 0 39 -21
220 -82 257 -85 36 -4 79 -19 142 -48 12 -5 32 -7 44 -4 14 4 33 -2 53 -16 17
-12 40 -20 52 -19 12 2 25 -2 29 -7 3 -6 18 -11 33 -11 15 0 36 -7 46 -15 11
-8 31 -15 45 -15 14 0 48 -7 75 -15 52 -16 146 -20 146 -7 0 4 15 23 33 42 26
27 36 47 41 88 4 28 3 52 -1 52 -19 1 -76 58 -69 69 8 12 66 6 98 -10z m-68
-85 c11 -28 -5 -86 -25 -91 -10 -3 -20 -11 -23 -19 -8 -21 -36 -17 -36 5 0 11
11 33 25 49 14 17 25 36 25 44 0 30 24 38 34 12z"/>
<path d="M2672 1479 c2 -6 7 -10 11 -10 4 1 22 1 40 2 27 0 29 2 12 9 -29 12
-67 12 -63 -1z"/>
<path d="M2780 1451 c0 -6 5 -13 11 -16 15 -10 120 5 114 16 -8 12 -125 12
-125 0z"/>
<path d="M5264 2015 c-91 -42 -83 -91 10 -60 69 24 101 47 93 69 -9 22 -43 20
-103 -9z"/>
<path d="M5673 1942 c-63 -32 -72 -41 -72 -64 -1 -25 3 -28 29 -28 17 0 30 4
30 9 0 5 12 14 28 20 15 6 34 15 42 19 8 5 29 16 45 25 17 8 31 25 33 36 5 33
-50 25 -135 -17z"/>
<path d="M5089 1907 c-84 -58 -125 -128 -83 -144 11 -4 29 8 58 39 22 25 53
53 69 63 29 18 35 46 15 63 -10 7 -26 2 -59 -21z"/>
<path d="M4156 1903 c-3 -10 -19 -27 -36 -38 -17 -11 -44 -37 -61 -57 -16 -21
-38 -38 -47 -38 -22 0 -92 -70 -92 -92 0 -8 -7 -21 -15 -28 -8 -7 -15 -19 -15
-26 0 -8 -4 -14 -10 -14 -5 0 -12 -11 -16 -25 -3 -13 -12 -29 -20 -36 -8 -6
-14 -26 -14 -45 0 -18 -4 -36 -10 -39 -5 -3 -10 -37 -10 -74 0 -62 -3 -72 -34
-112 -18 -24 -36 -54 -40 -66 -4 -13 -12 -23 -17 -23 -5 0 -9 -13 -9 -29 0
-23 6 -30 25 -35 14 -4 30 -4 35 -1 5 3 37 8 71 11 63 5 96 17 114 40 6 7 19
14 29 16 11 1 21 9 24 16 5 17 -51 16 -86 -2 -15 -7 -46 -16 -70 -20 -34 -5
-44 -3 -49 10 -8 20 34 104 56 110 39 12 84 40 114 71 18 19 46 48 63 66 16
18 33 39 37 47 4 8 16 29 26 45 11 17 20 40 20 51 1 12 10 33 21 47 11 14 20
38 20 53 0 15 6 35 14 43 9 10 15 47 17 101 4 73 2 85 -13 88 -9 2 -19 -5 -22
-15z m-199 -276 c-6 -20 -27 -19 -27 2 0 14 5 19 15 14 9 -3 14 -10 12 -16z
m101 -24 c-4 -22 -48 -31 -48 -10 0 19 10 27 32 27 13 0 18 -6 16 -17z m-52
-88 c-26 -29 -30 -26 -22 21 7 34 8 35 25 19 18 -15 18 -17 -3 -40z m-112 -50
c-9 -25 -21 -45 -25 -45 -14 0 -10 53 6 80 8 14 18 34 22 45 7 18 8 17 11 -8
2 -15 -4 -48 -14 -72z"/>
<path d="M5483 1853 c-13 -2 -46 -17 -75 -32 -59 -32 -72 -63 -28 -70 22 -3
48 8 140 55 51 26 25 60 -37 47z"/>
<path d="M5203 1704 c-79 -60 -101 -92 -73 -109 13 -8 70 18 104 49 16 14 32
26 36 26 3 0 16 9 29 21 17 16 20 24 10 35 -19 23 -55 16 -106 -22z"/>
<path d="M4910 1699 c-36 -34 -62 -74 -52 -83 14 -15 45 -3 82 33 67 64 38
112 -30 50z"/>
<path d="M4781 1606 c-8 -9 -19 -16 -27 -16 -17 0 -54 -39 -54 -57 0 -33 100
4 139 51 16 19 14 22 -20 31 -17 4 -30 1 -38 -9z"/>
<path d="M5744 1584 c-13 -6 -6 -304 9 -322 8 -10 13 -9 27 3 15 14 18 14 30
0 20 -24 56 -18 89 16 29 28 31 36 31 97 -1 93 -20 116 -91 110 l-50 -5 2 41
c4 58 -10 75 -47 60z m126 -161 c38 -49 11 -116 -44 -111 -30 3 -31 5 -34 55
-5 81 36 110 78 56z"/>
<path d="M5526 1523 c-10 -32 -24 -73 -32 -91 -8 -18 -14 -37 -14 -43 0 -6 -9
-30 -21 -55 -26 -59 -22 -79 16 -79 22 0 31 5 33 20 10 67 9 66 64 63 50 -3
53 -4 59 -37 7 -33 23 -51 46 -51 21 0 24 36 8 81 -24 65 -46 140 -51 174 -10
55 -25 75 -59 75 -29 0 -32 -4 -49 -57z m70 -67 c10 -41 1 -71 -23 -74 -29 -4
-38 29 -18 68 19 36 33 38 41 6z"/>
<path d="M6468 1552 c-11 -2 -18 -13 -18 -27 0 -14 -9 -29 -21 -36 -21 -11
-21 -11 -1 -32 15 -17 21 -40 24 -94 4 -85 23 -113 75 -113 32 0 34 2 31 28
-2 19 -9 28 -25 30 -13 2 -24 6 -24 10 -6 29 -7 72 -3 99 3 23 10 33 27 35 31
4 35 36 5 40 -16 2 -24 11 -26 30 -3 28 -16 37 -44 30z"/>
<path d="M5035 1529 c-16 -11 -56 -32 -87 -46 -60 -27 -73 -48 -43 -73 13 -11
26 -8 79 20 94 48 120 71 112 98 -9 27 -22 27 -61 1z"/>
<path d="M4340 1499 c0 -24 23 -21 28 4 2 10 -3 17 -12 17 -10 0 -16 -9 -16
-21z"/>
<path d="M6023 1490 c-24 -10 -63 -77 -63 -109 0 -38 31 -97 59 -114 45 -26
76 -21 116 18 31 32 35 41 35 90 0 47 -4 58 -34 89 -35 37 -67 45 -113 26z
m76 -54 c7 -8 11 -37 9 -68 -3 -50 -5 -53 -31 -56 -40 -5 -57 14 -57 61 0 62
48 100 79 63z"/>
<path d="M6206 1393 c5 -79 11 -102 27 -120 24 -27 49 -29 82 -7 23 15 25 15
31 0 9 -23 33 -20 39 7 3 12 5 65 3 117 -3 90 -4 95 -25 98 -22 3 -23 0 -23
-70 0 -84 -13 -112 -51 -106 -23 3 -24 6 -27 91 l-3 87 -30 0 -29 0 6 -97z"/>
<path d="M4751 1365 c-79 -49 -96 -68 -82 -93 11 -20 11 -20 53 4 24 13 50 27
58 30 28 13 70 58 70 76 0 28 -37 21 -99 -17z"/>
<path d="M7305 1371 c-25 -4 -35 -19 -35 -53 0 -30 44 -68 78 -68 25 0 46 -25
38 -45 -9 -23 -52 -18 -80 10 -37 37 -59 34 -51 -7 10 -46 9 -46 71 -54 52 -6
57 -5 85 22 46 44 37 71 -35 108 -73 38 -86 61 -30 53 22 -2 50 -8 62 -12 21
-7 23 -5 20 16 -3 21 -10 25 -53 29 -28 3 -60 3 -70 1z"/>
<path d="M827 1343 c-11 -11 -8 -36 8 -67 9 -16 20 -46 25 -65 5 -20 14 -54
19 -76 6 -22 13 -52 16 -66 5 -29 28 -43 56 -34 13 4 20 20 24 53 10 77 15 96
31 117 13 17 16 18 24 5 5 -8 10 -28 10 -45 0 -16 6 -52 13 -80 12 -45 16 -50
42 -50 26 0 29 4 41 55 19 86 29 121 53 184 17 47 19 61 9 67 -36 23 -60 1
-69 -66 -13 -95 -42 -146 -53 -92 -33 164 -38 174 -76 162 -14 -4 -20 -15 -20
-34 0 -15 -6 -47 -14 -72 -8 -24 -17 -57 -21 -74 -9 -40 -17 -23 -40 85 -11
47 -24 88 -29 92 -14 10 -41 10 -49 1z"/>
<path d="M1380 1335 c-10 -13 -10 -19 5 -35 10 -11 24 -20 31 -20 15 0 29 43
19 59 -9 16 -41 13 -55 -4z"/>
<path d="M1637 1343 c-12 -11 -7 -40 9 -53 13 -11 19 -10 37 9 22 22 22 22 3
37 -21 15 -39 18 -49 7z"/>
<path d="M1502 1308 c-6 -6 -12 -19 -12 -28 0 -9 -5 -21 -12 -28 -9 -9 -7 -16
7 -31 14 -16 17 -32 13 -78 -8 -91 27 -135 90 -112 31 12 27 28 -8 40 -29 11
-30 13 -30 75 0 60 2 65 25 74 31 12 32 24 1 38 -14 6 -26 21 -28 34 -3 26
-27 35 -46 16z"/>
<path d="M4376 1302 c-3 -6 -1 -14 5 -17 15 -10 25 3 12 16 -7 7 -13 7 -17 1z"/>
<path d="M2003 1263 c-37 -19 -52 -64 -36 -110 13 -36 4 -106 -13 -116 -8 -4
-14 -18 -14 -30 0 -31 50 -57 109 -57 38 0 53 6 79 29 50 46 38 92 -28 106
-27 6 -44 35 -20 35 18 0 50 40 50 62 0 12 7 29 15 38 9 10 13 25 9 34 -7 18
-29 22 -39 6 -4 -6 -19 -4 -42 5 -19 8 -36 15 -37 14 0 0 -16 -8 -33 -16z m75
-74 c2 -15 -5 -32 -18 -44 -19 -17 -21 -17 -40 0 -20 18 -27 55 -13 69 4 4 21
6 38 4 24 -2 31 -8 33 -29z m12 -154 c10 -12 10 -18 0 -30 -27 -33 -101 -7
-86 30 7 20 70 20 86 0z"/>
<path d="M1826 1263 c-3 -4 -25 -7 -49 -7 l-42 -1 0 -110 0 -110 25 0 c25 0
25 2 28 87 3 85 4 88 28 94 40 10 49 -9 48 -96 -1 -61 2 -80 14 -85 26 -10 40
13 37 63 -1 26 -3 70 -3 98 -2 44 -5 52 -27 62 -29 14 -49 15 -59 5z"/>
<path d="M1233 1247 c-4 -7 -8 -57 -8 -112 l0 -100 30 0 30 0 -3 72 -4 73 37
21 c52 31 44 53 -22 55 -30 2 -55 -2 -60 -9z"/>
<path d="M1391 1246 c-8 -9 -11 -48 -9 -112 3 -98 3 -99 28 -99 25 0 25 1 26
90 1 119 -14 159 -45 121z"/>
<path d="M1641 1242 c-12 -22 -13 -182 -2 -200 5 -8 17 -12 27 -10 17 3 19 14
20 103 2 93 -5 125 -27 125 -5 0 -13 -8 -18 -18z"/>
<path d="M4226 1242 c-3 -6 -1 -14 5 -17 15 -10 25 3 12 16 -7 7 -13 7 -17 1z"/>
<path d="M4105 1210 c-8 -13 20 -24 41 -16 20 8 9 26 -16 26 -10 0 -22 -5 -25
-10z"/>
<path d="M4170 1035 c0 -8 7 -15 16 -15 14 0 14 3 4 15 -7 8 -14 15 -16 15 -2
0 -4 -7 -4 -15z"/>
<path d="M5580 941 l-25 -7 27 -18 c21 -13 31 -15 47 -7 11 6 56 11 100 11 82
0 111 6 111 21 0 10 -223 10 -260 0z"/>
<path d="M6108 918 c-10 -6 -10 -10 2 -18 19 -13 62 -9 67 6 5 14 -52 24 -69
12z"/>
<path d="M5266 911 c-3 -5 0 -13 7 -19 14 -12 107 5 107 20 0 11 -107 10 -114
-1z"/>
<path d="M3855 890 c-11 -5 -43 -6 -72 -3 -62 7 -115 -3 -92 -18 7 -5 28 -9
46 -9 37 0 50 -14 33 -35 -10 -12 -9 -15 8 -15 15 0 19 5 15 19 -3 10 1 22 8
27 20 12 83 5 95 -11 11 -15 110 -19 119 -5 8 12 -48 29 -78 23 -19 -4 -32 1
-44 15 -13 15 -23 18 -38 12z"/>
<path d="M3104 879 c-7 -12 -13 -12 134 -14 93 -1 132 1 129 9 -4 13 -255 18
-263 5z"/>
<path d="M3410 876 c0 -10 9 -16 21 -16 24 0 21 23 -4 28 -10 2 -17 -3 -17
-12z"/>
<path d="M3520 871 c-13 -25 -13 -34 0 -26 6 3 35 8 66 11 31 2 61 7 66 10 21
13 -8 24 -62 24 -48 0 -61 -4 -70 -19z"/>
<path d="M4990 880 c-22 -13 -5 -23 27 -16 21 6 24 9 12 17 -18 11 -20 11 -39
-1z"/>
<path d="M2830 851 c0 -13 25 -20 50 -14 16 4 18 8 8 14 -17 11 -58 11 -58 0z"/>
<path d="M4872 848 c3 -7 19 -14 37 -16 24 -3 32 0 29 10 -3 7 -19 14 -37 16
-24 3 -32 0 -29 -10z"/>
<path d="M6803 848 c2 -7 10 -13 17 -13 7 0 15 6 18 13 2 7 -5 12 -18 12 -13
0 -20 -5 -17 -12z"/>
<path d="M5320 840 c0 -13 30 -13 50 0 11 7 7 10 -17 10 -18 0 -33 -4 -33 -10z"/>
<path d="M6885 840 c3 -5 12 -10 20 -10 8 0 17 5 20 10 4 6 -5 10 -20 10 -15
0 -24 -4 -20 -10z"/>
<path d="M7017 833 c-14 -13 -6 -33 12 -33 25 0 38 20 20 31 -17 11 -24 11
-32 2z"/>
<path d="M3160 820 c-11 -7 -6 -10 20 -10 26 0 31 3 20 10 -8 5 -17 10 -20 10
-3 0 -12 -5 -20 -10z"/>
<path d="M4800 823 c-14 -3 -29 -9 -34 -14 -6 -5 -23 -9 -39 -9 -37 0 -31 -24
7 -28 19 -2 35 4 47 17 11 12 29 21 39 21 11 0 20 5 20 10 0 6 -3 9 -7 9 -5
-1 -19 -4 -33 -6z"/>
<path d="M5090 813 c0 -5 5 -15 10 -23 8 -12 10 -11 10 8 0 12 -4 22 -10 22
-5 0 -10 -3 -10 -7z"/>
<path d="M2332 789 c2 -6 8 -10 13 -10 5 0 11 4 13 10 2 6 -4 11 -13 11 -9 0
-15 -5 -13 -11z"/>
<path d="M2810 786 c0 -10 9 -16 21 -16 24 0 21 23 -4 28 -10 2 -17 -3 -17
-12z"/>
<path d="M5245 790 c-4 -6 7 -10 27 -9 27 0 30 2 13 9 -27 12 -33 12 -40 0z"/>
<path d="M5686 791 c-3 -5 1 -11 9 -15 9 -3 15 0 15 9 0 16 -16 20 -24 6z"/>
<path d="M5755 791 c-3 -5 -1 -12 5 -16 12 -7 30 2 30 16 0 12 -27 12 -35 0z"/>
<path d="M7246 791 c-3 -5 0 -11 8 -14 15 -6 26 1 26 15 0 11 -27 10 -34 -1z"/>
<path d="M7315 790 c-4 -6 6 -10 22 -10 22 0 25 2 13 10 -19 12 -27 12 -35 0z"/>
<path d="M7820 785 c0 -10 7 -15 18 -13 21 4 19 22 -2 26 -10 2 -16 -3 -16
-13z"/>
<path d="M7896 791 c-18 -7 -18 -8 -2 -14 26 -10 79 -8 96 3 12 8 10 10 -10
10 -14 0 -34 2 -45 5 -11 2 -29 1 -39 -4z"/>
<path d="M8081 791 c-20 -13 20 -24 55 -15 25 7 26 8 9 15 -27 10 -47 10 -64
0z"/>
<path d="M2705 770 c-23 -25 -14 -25 27 0 27 16 29 20 12 20 -11 0 -29 -9 -39
-20z"/>
<path d="M7148 783 c12 -2 30 -2 40 0 9 3 -1 5 -23 4 -22 0 -30 -2 -17 -4z"/>
<path d="M2897 773 c-12 -11 -8 -23 8 -23 8 0 15 7 15 15 0 16 -12 20 -23 8z"/>
<path d="M4241 735 c28 -28 39 -31 39 -10 0 8 -7 15 -15 15 -8 0 -15 5 -15 10
0 6 -7 10 -16 10 -13 0 -11 -5 7 -25z"/>
<path d="M1110 700 c0 -5 12 -10 28 -9 24 0 25 1 7 9 -27 12 -35 12 -35 0z"/>
<path d="M1013 693 c9 -2 25 -2 35 0 9 3 1 5 -18 5 -19 0 -27 -2 -17 -5z"/>
<path d="M6190 4790 c-12 -7 -12 -12 -2 -22 6 -6 12 -29 12 -50 0 -66 31 -44
35 24 3 42 -19 64 -45 48z"/>
<path d="M6377 4723 c-7 -12 11 -53 23 -53 15 0 12 36 -4 49 -8 7 -16 8 -19 4z"/>
<path d="M6258 4669 c-24 -13 -23 -29 2 -29 13 0 20 7 20 20 0 23 1 23 -22 9z"/>
<path d="M5950 4610 c-25 -19 -25 -19 -5 -34 18 -14 18 -15 3 -16 -23 0 -24
-37 -1 -62 12 -14 14 -21 5 -30 -8 -8 -13 -7 -18 5 -9 25 -24 20 -24 -8 0 -13
8 -29 18 -34 15 -8 18 -20 16 -61 -2 -54 -2 -55 26 -40 18 9 19 19 13 98 -3
48 -6 113 -6 145 -1 31 -1 57 -1 57 -1 0 -12 -9 -26 -20z"/>
<path d="M6291 4611 c-11 -7 -10 -15 10 -42 13 -19 22 -42 21 -51 -3 -14 3
-18 24 -18 26 0 26 1 11 18 -10 10 -17 28 -17 39 0 30 -32 65 -49 54z"/>
<path d="M6440 4593 c0 -5 5 -15 10 -23 8 -12 10 -11 10 8 0 12 -4 22 -10 22
-5 0 -10 -3 -10 -7z"/>
<path d="M5833 4494 c-10 -22 -9 -25 5 -22 9 2 18 13 20 26 5 30 -10 28 -25
-4z"/>
<path d="M6367 4465 c-12 -17 -14 -26 -5 -31 12 -8 38 21 38 43 0 20 -13 15
-33 -12z"/>
<path d="M6082 4389 c2 -6 8 -10 13 -10 5 0 11 4 13 10 2 6 -4 11 -13 11 -9 0
-15 -5 -13 -11z"/>
<path d="M6216 4375 c-19 -15 -14 -35 9 -35 16 0 38 34 28 44 -9 9 -16 7 -37
-9z"/>
<path d="M5275 4838 c-9 -22 4 -43 17 -30 7 7 7 16 0 29 -10 17 -11 17 -17 1z"/>
<path d="M5183 4793 c-21 -8 -15 -33 7 -33 13 0 20 7 20 20 0 20 -5 23 -27 13z"/>
<path d="M5146 4685 c-7 -27 -26 -35 -26 -11 0 25 -15 25 -26 1 -9 -19 -8 -22
6 -18 10 3 21 0 24 -5 3 -6 15 -8 26 -5 23 6 44 38 35 53 -11 18 -33 10 -39
-15z"/>
</g>
</svg>
