<?xml version="1.0" standalone="no"?>
<!DOCTYPE svg PUBLIC "-//W3C//DTD SVG 20010904//EN"
 "http://www.w3.org/TR/2001/REC-SVG-20010904/DTD/svg10.dtd">
<svg version="1.0" xmlns="http://www.w3.org/2000/svg"
 width="900.000000pt" height="624.000000pt" viewBox="0 0 900.000000 624.000000"
 preserveAspectRatio="xMidYMid meet">
<metadata>
Created by potrace 1.10, written by Peter Selinger 2001-2011
</metadata>
<g transform="translate(0.000000,624.000000) scale(0.100000,-0.100000)"
fill="#000000" stroke="none">
<path d="M6236 5662 c-25 -6 -31 -16 -48 -70 -17 -58 -18 -66 -4 -94 19 -37
14 -48 -24 -48 -27 0 -32 -5 -100 -89 -8 -11 -22 -29 -30 -42 -8 -12 -49 -69
-90 -126 -41 -57 -95 -133 -120 -169 -25 -36 -49 -71 -55 -77 -23 -27 -73
-104 -88 -136 -20 -41 -22 -61 -4 -61 12 0 162 195 174 226 4 11 14 13 34 9
30 -7 109 13 109 27 0 4 7 8 16 8 13 0 15 -7 10 -32 -3 -18 -9 -72 -12 -121
-7 -83 -6 -89 16 -112 16 -17 34 -25 56 -25 30 0 35 5 69 75 21 41 40 75 43
75 3 0 13 -6 21 -14 9 -7 28 -16 43 -20 22 -5 30 -2 39 16 l11 21 19 -24 c10
-13 21 -37 25 -54 11 -56 37 -130 67 -191 41 -85 61 -109 82 -100 14 5 16 14
11 46 -3 22 -12 54 -20 72 -8 18 -22 53 -31 78 -21 56 -36 92 -64 151 -25 54
-27 97 -6 105 22 9 42 -12 71 -70 49 -98 132 -223 175 -263 16 -15 29 -33 29
-39 0 -6 -30 -51 -67 -101 -38 -50 -75 -101 -83 -113 -8 -12 -40 -56 -70 -99
-31 -42 -76 -106 -100 -143 l-44 -68 -81 0 c-56 0 -87 5 -101 15 -10 8 -36 15
-56 15 -21 0 -38 4 -38 8 0 5 -13 22 -30 38 -16 16 -30 37 -30 46 0 9 -4 19
-9 23 -6 3 -21 29 -36 58 -14 28 -34 66 -45 82 -11 17 -24 39 -30 50 -6 11
-19 34 -30 50 -11 17 -24 39 -30 50 -6 11 -19 34 -30 50 -11 17 -23 37 -27 45
-3 8 -19 31 -34 51 -15 19 -31 48 -35 65 -4 16 -16 35 -26 43 -11 7 -24 23
-29 35 -5 11 -18 35 -29 51 -11 17 -23 37 -27 45 -3 8 -19 31 -35 51 -15 20
-28 40 -28 44 0 10 -133 145 -142 145 -11 0 -60 -48 -74 -73 -7 -12 -20 -35
-28 -52 -8 -16 -29 -52 -45 -80 -17 -27 -35 -59 -41 -70 -6 -11 -19 -33 -29
-50 -11 -16 -32 -52 -47 -80 -15 -27 -43 -75 -63 -105 -20 -30 -39 -62 -44
-70 -4 -8 -16 -28 -27 -45 -11 -16 -24 -39 -29 -51 -6 -13 -30 -26 -68 -38
-32 -10 -65 -22 -73 -26 -9 -4 -30 -11 -48 -14 -17 -4 -34 -12 -37 -17 -4 -5
-14 -9 -24 -9 -10 0 -30 -9 -44 -20 -25 -20 -37 -21 -178 -17 l-151 4 -14 31
c-16 38 -41 41 -54 7 -8 -22 -13 -24 -29 -15 -26 13 -78 13 -86 -1 -10 -15 0
-21 42 -28 32 -5 38 -10 38 -31 0 -22 -5 -25 -42 -28 -35 -3 -43 0 -43 13 0
10 -7 31 -15 48 -8 18 -15 50 -17 72 -3 46 -32 60 -55 29 -11 -15 -27 -19 -80
-19 -44 0 -68 -4 -70 -12 -3 -7 2 -13 10 -13 8 0 20 -7 27 -15 7 -8 25 -15 41
-15 43 0 47 -20 10 -51 -20 -16 -28 -29 -22 -33 17 -11 13 -41 -7 -59 -20 -19
-32 -13 -32 14 0 10 -6 33 -14 51 -24 55 -46 139 -46 172 0 36 -15 56 -42 56
-12 0 -18 -8 -18 -24 0 -47 -8 -55 -38 -41 -15 8 -61 17 -102 20 l-75 7 26
-27 c22 -23 38 -28 93 -32 l67 -6 -3 -36 -3 -36 -70 -1 c-77 0 -105 13 -105
52 0 13 -4 26 -10 29 -5 3 -10 14 -10 25 0 21 -49 121 -65 132 -18 13 -30 2
-35 -33 -4 -23 -10 -33 -20 -31 -209 49 -534 70 -670 45 -36 -7 -128 -13 -205
-13 -87 0 -163 -6 -200 -15 -33 -8 -77 -14 -97 -15 -20 0 -49 -5 -65 -11 -15
-6 -53 -15 -83 -19 -61 -8 -131 -24 -200 -46 -25 -8 -59 -14 -75 -14 -17 0
-35 -4 -40 -9 -9 -9 -54 -19 -162 -38 -17 -3 -40 -15 -52 -27 -21 -22 -81
-137 -81 -155 0 -6 -7 -27 -16 -48 -9 -21 -23 -54 -31 -73 -8 -19 -21 -48 -29
-63 -8 -16 -14 -35 -14 -42 0 -7 -6 -26 -14 -42 -19 -38 -40 -89 -61 -143 -9
-25 -23 -58 -31 -73 -8 -16 -14 -36 -14 -46 0 -9 -7 -26 -15 -37 -8 -10 -15
-26 -15 -34 0 -8 -6 -27 -14 -42 -8 -15 -17 -40 -21 -57 -4 -17 -11 -33 -16
-36 -5 -4 -9 -14 -9 -23 0 -9 -7 -30 -15 -46 -8 -15 -15 -32 -15 -36 0 -5 -5
-21 -12 -37 -6 -15 -16 -46 -22 -67 -14 -48 -37 -66 -62 -46 -40 34 -193 61
-219 40 -27 -22 -16 -48 41 -98 56 -48 64 -72 24 -72 -25 0 -104 -76 -123
-120 -9 -19 -19 -56 -23 -82 -6 -44 -4 -48 14 -48 11 0 27 6 34 13 33 32 138
72 138 53 0 -3 -13 -24 -28 -48 -33 -50 -52 -110 -52 -163 0 -22 -15 -69 -36
-114 -79 -169 -92 -198 -108 -241 -10 -25 -24 -58 -32 -73 -8 -16 -14 -36 -14
-46 0 -9 -7 -26 -15 -37 -8 -10 -15 -25 -15 -32 0 -8 -6 -28 -13 -45 -20 -46
-38 -98 -46 -132 -4 -17 -13 -40 -19 -52 -7 -12 -12 -29 -12 -38 0 -9 -6 -31
-13 -48 -8 -18 -22 -59 -32 -92 -30 -101 -47 -158 -60 -200 -8 -22 -17 -56
-20 -75 -4 -19 -11 -39 -15 -45 -4 -5 -11 -28 -15 -50 -4 -22 -10 -44 -15 -50
-4 -5 -10 -27 -14 -47 -4 -20 -13 -50 -21 -65 -8 -15 -15 -40 -15 -55 0 -15
-4 -29 -9 -32 -5 -4 -12 -25 -16 -49 -6 -40 -10 -52 -40 -122 -26 -60 -39
-125 -27 -137 14 -14 193 -15 213 -2 8 5 55 14 104 20 125 16 231 33 290 46
27 6 77 14 110 18 73 9 184 26 290 46 44 8 98 14 120 14 22 1 67 7 100 15 33
8 79 15 102 15 23 0 54 5 68 10 15 6 59 14 99 19 109 14 206 31 260 47 64 19
276 18 386 0 187 -32 229 -38 325 -46 55 -4 127 -12 160 -19 127 -23 195 -32
330 -41 77 -6 149 -13 160 -16 11 -3 72 -12 135 -20 63 -8 165 -21 225 -29 61
-8 151 -19 200 -24 50 -6 108 -15 130 -20 22 -5 73 -12 113 -16 40 -3 91 -9
115 -15 177 -39 317 -54 387 -40 30 6 116 17 190 25 187 21 471 58 575 76 34
6 99 14 145 19 108 11 227 27 309 42 36 6 103 14 150 18 96 9 200 24 309 46
40 8 87 14 105 14 33 0 150 24 202 42 58 20 85 21 111 3 15 -9 61 -21 103 -26
128 -14 224 -27 276 -38 28 -5 93 -16 145 -25 52 -8 124 -20 160 -27 36 -6 97
-15 135 -19 39 -5 83 -13 98 -19 16 -6 50 -11 76 -11 26 0 70 -7 97 -15 27 -8
67 -15 89 -15 22 0 56 -5 75 -11 19 -6 69 -14 110 -19 41 -5 100 -13 130 -19
172 -32 444 -54 558 -45 69 6 73 8 68 28 -4 11 -9 43 -13 70 -3 28 -12 61 -20
75 -7 15 -13 34 -13 43 0 9 -6 29 -14 45 -8 15 -21 44 -29 63 -58 136 -154
340 -214 450 -7 14 -13 33 -13 42 0 9 -4 20 -10 23 -5 3 -10 13 -10 21 0 14
-30 90 -50 126 -6 10 -10 23 -10 28 0 11 -33 91 -50 122 -6 10 -10 23 -10 29
0 6 -16 45 -36 87 -19 42 -39 86 -43 97 -5 11 -18 41 -30 66 -11 25 -21 51
-21 56 0 10 -21 59 -41 95 -5 10 -9 23 -9 30 0 7 -6 24 -13 38 -7 14 -24 54
-37 90 -13 36 -30 76 -37 90 -7 14 -13 31 -13 38 0 7 -4 20 -10 30 -5 9 -19
40 -30 67 -12 28 -28 64 -36 82 -8 17 -14 36 -14 41 0 6 -7 23 -15 39 -8 15
-34 71 -58 123 -25 52 -59 125 -76 161 -17 36 -31 73 -31 82 0 9 -4 18 -9 22
-5 3 -12 19 -16 36 -4 17 -13 42 -21 57 -8 15 -14 33 -14 40 0 7 -4 20 -10 30
-17 31 -50 111 -50 122 0 5 -4 18 -10 28 -5 9 -16 33 -24 52 -8 19 -31 70 -50
113 -20 42 -36 81 -36 86 0 5 -6 22 -14 38 -22 44 -65 144 -91 213 -10 25 -24
60 -32 77 -7 18 -21 50 -29 70 -9 21 -23 51 -30 66 -8 16 -14 33 -14 38 0 27
-45 68 -81 74 -22 4 -41 10 -44 15 -3 4 -21 11 -41 15 -20 3 -44 10 -53 14
-44 22 -89 35 -122 34 -34 -1 -36 1 -78 86 -80 161 -128 245 -149 259 -27 18
-47 5 -92 -60 -19 -27 -40 -55 -46 -61 -5 -7 -13 -20 -17 -29 -14 -37 -34 -21
-77 62 -69 133 -82 157 -100 185 -11 17 -31 53 -45 80 -14 28 -46 86 -71 130
-24 44 -50 91 -56 105 -7 14 -18 31 -25 38 -7 7 -13 18 -13 23 0 6 -16 31 -35
56 -40 52 -40 54 -21 96 8 18 16 43 18 57 3 24 6 25 77 26 l73 0 48 51 c52 54
71 96 47 106 -8 3 -27 -3 -43 -14 -35 -23 -91 -25 -114 -4 -19 17 -92 27 -134
17z m139 -73 c14 -14 -12 -29 -55 -29 -45 0 -65 13 -56 35 5 15 14 17 53 11
26 -3 52 -11 58 -17z m-179 -221 c8 -18 30 -60 49 -93 19 -33 46 -82 60 -110
42 -79 52 -96 64 -108 6 -6 11 -21 11 -34 0 -20 -5 -23 -39 -23 -31 0 -44 -6
-64 -30 -28 -33 -45 -38 -53 -15 -15 37 -84 -8 -110 -71 -15 -37 -40 -45 -48
-16 -2 9 -8 66 -11 125 l-7 109 -26 -7 c-14 -3 -31 -12 -36 -19 -14 -16 -63
-46 -76 -46 -5 0 -10 5 -10 11 0 8 170 243 228 314 4 6 11 18 15 28 10 27 37
20 53 -15z m-821 -365 c11 -21 31 -54 45 -73 15 -19 30 -42 33 -50 4 -8 16
-28 27 -45 33 -49 34 -56 20 -104 -8 -25 -15 -75 -17 -111 -2 -36 -6 -76 -9
-89 l-5 -24 -25 23 c-13 13 -24 31 -24 40 0 24 -57 100 -75 100 -8 0 -15 -4
-15 -10 0 -25 -27 -6 -43 30 -25 53 -49 52 -104 -5 -41 -43 -73 -58 -73 -34 0
7 21 44 48 83 26 39 50 78 55 86 4 8 16 29 27 45 10 17 36 63 56 103 21 39 42
72 48 72 7 0 20 -17 31 -37z m213 -331 c12 -26 27 -54 32 -62 5 -8 44 -73 86
-145 89 -151 160 -260 192 -295 12 -14 22 -28 22 -32 0 -4 14 -22 30 -40 17
-18 30 -37 30 -43 0 -5 -20 -19 -43 -29 -52 -25 -157 -88 -230 -139 -23 -16
-31 -17 -63 -7 -28 10 -97 11 -273 5 -130 -4 -256 -8 -281 -8 -44 0 -114 15
-148 32 -27 13 -83 32 -139 45 -29 8 -59 19 -68 26 -19 16 -10 54 24 100 39
51 98 142 121 185 6 11 19 34 30 50 11 17 25 42 31 58 6 15 15 27 20 27 5 0 9
5 9 10 0 6 12 29 27 53 15 23 37 60 48 82 20 38 24 40 67 40 33 0 54 7 81 28
45 34 53 34 66 -4 10 -30 13 -31 51 -26 39 5 40 4 62 -41 33 -67 48 -82 84
-82 31 0 49 20 56 63 2 10 7 18 13 18 10 0 25 -58 45 -171 23 -127 53 -192 81
-174 16 10 10 171 -8 211 -35 82 -79 165 -90 175 -14 11 -18 119 -6 131 12 13
18 7 41 -41z m1241 -41 c1 -24 25 -103 48 -158 7 -17 13 -35 13 -40 0 -4 9
-14 20 -21 24 -15 46 -7 32 11 -13 16 -43 122 -49 175 -3 23 -9 42 -14 42 -5
0 -9 7 -9 16 0 10 8 6 25 -14 14 -17 25 -32 25 -36 0 -8 69 -147 90 -181 10
-16 28 -47 39 -67 11 -21 33 -57 48 -80 38 -60 51 -81 59 -98 4 -8 10 -17 14
-20 7 -6 41 -58 56 -86 10 -18 7 -27 -13 -53 -13 -17 -30 -31 -36 -31 -7 0
-21 21 -31 48 -11 26 -32 63 -48 83 -15 20 -28 41 -28 46 0 5 -17 28 -38 51
-57 61 -116 56 -110 -9 2 -22 -3 -40 -14 -51 -13 -13 -18 -35 -19 -80 -1 -35
-6 -92 -13 -128 -11 -64 -11 -65 -41 -62 -49 4 -249 39 -380 67 -44 10 -99 19
-122 22 -24 3 -43 10 -43 17 0 6 14 26 30 44 30 33 80 98 110 142 8 12 27 36
42 54 15 17 28 34 28 37 0 5 8 16 48 64 5 6 26 35 47 65 21 30 41 57 44 60 7
6 32 41 99 142 29 42 58 78 64 81 15 5 26 -17 27 -52z m-3770 -125 c7 -8 41
-18 79 -22 37 -3 74 -10 82 -14 9 -5 58 -11 110 -13 52 -3 97 -6 99 -6 2 -1
-1 -7 -7 -13 -6 -7 -12 -26 -14 -43 -3 -28 -6 -30 -38 -27 -19 1 -64 9 -100
17 -36 8 -124 22 -195 31 -120 14 -140 14 -245 0 -63 -9 -131 -16 -152 -16
-20 0 -63 -7 -95 -15 -31 -8 -82 -15 -113 -15 -30 0 -89 -7 -130 -16 -41 -8
-109 -22 -150 -31 -41 -8 -91 -19 -110 -24 -19 -5 -55 -14 -80 -19 -25 -5 -58
-12 -73 -16 -16 -4 -38 -1 -51 5 -18 10 -35 9 -83 -3 -34 -9 -75 -16 -92 -16
-17 0 -31 -5 -31 -12 0 -6 -14 -41 -31 -77 -55 -117 -86 -185 -104 -231 -10
-25 -24 -59 -31 -77 -8 -17 -14 -37 -14 -45 0 -7 -6 -22 -14 -33 -7 -11 -16
-31 -19 -45 -5 -24 -11 -40 -57 -160 -12 -30 -26 -71 -32 -90 -5 -19 -14 -39
-19 -45 -5 -5 -9 -16 -9 -25 0 -8 -7 -28 -15 -44 -8 -15 -15 -44 -15 -62 0
-28 -10 -45 -60 -95 -33 -33 -60 -65 -60 -70 0 -15 -37 -10 -51 8 -10 12 -11
17 -2 20 10 4 55 90 99 193 9 19 22 48 30 63 8 16 14 35 14 42 0 7 7 27 15 44
8 17 22 45 30 62 8 17 15 37 15 44 0 13 6 28 44 103 9 19 16 40 16 47 0 7 6
26 14 42 18 36 39 86 61 143 10 25 23 59 30 75 7 17 21 50 30 75 9 25 23 58
31 73 8 16 14 35 14 42 0 28 35 85 55 89 11 3 55 11 98 20 43 9 90 16 105 16
15 0 56 6 92 14 100 23 178 37 255 46 70 8 152 23 235 41 24 6 114 14 200 19
200 12 349 30 380 46 33 17 45 17 59 0z m428 -97 c7 -13 13 -37 13 -53 0 -41
30 -147 47 -167 14 -17 17 -47 7 -73 -5 -13 -22 -16 -78 -16 -40 0 -75 3 -78
6 -3 3 -2 17 2 32 18 60 40 169 40 197 0 53 12 106 24 102 6 -2 17 -14 23 -28z
m-488 -23 c16 -13 116 -35 204 -43 55 -6 65 -19 44 -60 -21 -42 -47 -127 -47
-156 0 -43 -17 -39 -43 10 -24 47 -47 66 -47 41 -1 -7 -9 -31 -20 -53 -11 -22
-19 -46 -20 -52 0 -7 -4 -13 -10 -13 -5 0 -10 -8 -10 -17 0 -10 -7 -31 -15
-47 -8 -15 -15 -35 -15 -43 0 -8 -6 -29 -13 -46 -23 -54 -38 -100 -49 -147 -6
-25 -15 -48 -20 -51 -11 -7 16 -55 35 -62 7 -2 64 -1 129 3 87 5 124 12 149
26 50 30 58 83 24 167 -6 15 -1 17 48 17 31 0 58 -4 61 -9 5 -7 -25 -100 -70
-216 -9 -22 -18 -53 -21 -68 -3 -16 -11 -31 -18 -34 -8 -2 -55 -5 -106 -6 -64
-1 -94 -6 -97 -14 -2 -9 11 -13 47 -13 39 0 51 -4 51 -15 0 -10 -10 -15 -30
-15 -16 0 -30 -4 -30 -10 0 -5 -11 -12 -25 -16 -28 -7 -33 -29 -10 -38 18 -6
45 2 45 15 0 15 39 10 48 -7 7 -12 19 -14 61 -8 62 8 63 27 1 34 -53 6 -60 20
-21 43 40 23 64 21 107 -8 31 -21 48 -25 108 -25 39 1 97 6 129 13 56 12 60
14 73 52 16 44 6 123 -22 178 -8 16 -14 40 -14 53 0 13 -4 24 -10 24 -5 0 -14
18 -20 40 -6 21 -15 42 -20 45 -14 9 -12 63 4 93 13 26 38 125 51 205 4 28 11
37 25 37 14 0 20 -9 25 -37 3 -21 10 -58 17 -83 6 -25 14 -70 18 -100 4 -30
13 -68 19 -83 6 -16 11 -34 11 -41 0 -13 -61 -46 -86 -46 -9 0 -14 -7 -12 -17
3 -15 14 -18 66 -16 54 2 62 0 62 -15 0 -10 -5 -23 -11 -29 -14 -14 -48 -111
-49 -138 0 -11 -7 -31 -16 -43 -9 -14 -15 -45 -16 -83 -1 -56 2 -63 28 -85 25
-20 40 -23 112 -24 87 0 142 15 174 50 23 24 25 117 3 146 -8 10 -15 30 -15
43 0 22 2 23 44 17 34 -5 55 -2 86 13 l42 20 -6 -32 c-21 -100 -21 -102 21
-119 82 -35 223 -43 266 -15 42 27 37 73 -22 190 -27 54 -55 104 -61 112 -7 8
-10 21 -7 29 5 12 12 12 46 -5 23 -11 41 -23 41 -28 0 -5 33 -6 73 -4 99 7
112 20 109 111 -1 38 -9 85 -17 105 -8 20 -15 46 -15 57 0 11 -8 32 -17 46
-13 20 -14 30 -5 44 9 15 7 19 -8 23 -11 3 -24 17 -30 31 -11 29 -35 34 -44
10 -9 -23 -7 -59 3 -70 16 -17 42 -113 39 -141 -2 -20 -9 -29 -25 -31 -38 -6
-28 -32 12 -32 31 0 35 -3 41 -34 3 -19 3 -39 -1 -45 -10 -16 -78 -13 -103 5
-20 14 -22 21 -16 67 4 29 13 69 20 91 18 50 19 119 2 114 -7 -3 -14 -18 -16
-34 -6 -49 -20 -50 -41 -3 -29 63 -27 79 9 79 20 0 30 5 30 15 0 10 -11 15
-35 15 -29 0 -37 5 -45 26 -25 65 -4 78 75 48 50 -19 136 -18 151 1 6 8 23 15
38 15 14 0 34 4 44 9 9 5 44 19 77 31 33 12 77 29 98 37 20 9 40 13 44 10 3
-4 -2 -23 -13 -43 -19 -37 -77 -74 -113 -74 -11 0 -22 -4 -25 -9 -3 -5 -18
-12 -33 -15 -48 -12 -114 -48 -110 -60 5 -15 69 -9 104 9 15 8 36 15 45 15 9
0 20 5 23 10 8 14 35 13 35 -1 0 -7 -13 -34 -30 -61 -16 -26 -30 -53 -30 -59
0 -5 -14 -28 -32 -50 l-31 -39 19 -35 c14 -27 25 -35 49 -37 16 0 42 -2 56 -2
23 -2 113 -41 232 -102 34 -17 59 -18 73 -4 8 8 19 8 38 0 16 -6 129 -10 277
-10 206 0 255 3 280 15 18 10 42 14 62 10 20 -3 42 0 57 9 14 8 34 19 45 24
11 6 52 40 90 77 65 63 75 68 139 81 46 9 74 10 87 4 10 -6 30 -10 46 -10 39
0 73 -11 73 -22 0 -5 9 -22 21 -36 22 -29 47 -36 239 -68 52 -8 118 -19 145
-24 28 -5 87 -9 132 -9 45 -1 85 -6 88 -11 7 -11 78 -14 88 -4 9 10 120 54
133 54 6 0 17 7 24 15 7 8 23 15 35 15 12 0 28 7 35 15 7 8 17 15 22 15 6 0
23 9 39 21 35 25 39 70 9 96 -11 10 -20 24 -20 31 0 8 -14 34 -30 59 -17 24
-30 48 -30 54 0 14 32 11 68 -9 27 -14 40 -33 68 -102 48 -116 65 -160 71
-190 3 -14 12 -34 19 -45 8 -11 14 -29 14 -42 0 -12 4 -24 9 -28 5 -3 12 -19
16 -36 4 -17 13 -42 21 -57 8 -15 14 -35 14 -44 0 -9 4 -19 9 -22 5 -3 12 -18
15 -33 4 -16 13 -41 20 -58 8 -16 19 -41 24 -55 6 -14 20 -46 31 -72 12 -26
21 -51 21 -57 0 -5 6 -22 14 -38 8 -15 19 -39 25 -53 5 -14 18 -45 29 -70 10
-25 27 -65 36 -90 10 -25 22 -54 27 -65 4 -11 18 -45 29 -75 12 -30 28 -70 36
-88 8 -18 14 -41 14 -52 0 -10 4 -21 9 -25 5 -3 12 -19 16 -36 4 -17 13 -42
21 -57 8 -15 14 -35 14 -44 0 -9 4 -19 9 -23 5 -3 12 -19 16 -36 4 -17 13 -42
21 -57 8 -15 14 -32 14 -39 0 -7 6 -27 14 -45 14 -32 32 -80 63 -163 8 -22 21
-52 29 -67 8 -14 14 -33 14 -41 0 -9 6 -28 14 -44 8 -15 22 -48 31 -73 10 -25
24 -60 32 -77 7 -18 21 -50 29 -70 9 -21 23 -51 30 -66 8 -16 14 -35 14 -42 0
-7 6 -26 14 -42 8 -15 21 -44 29 -63 9 -19 30 -66 47 -105 18 -38 38 -83 45
-100 7 -16 27 -59 44 -95 16 -36 44 -96 61 -135 53 -117 94 -196 107 -207 7
-6 13 -22 13 -35 0 -22 -3 -24 -22 -18 -13 4 -46 11 -75 16 -29 5 -64 14 -78
19 -15 6 -46 10 -69 10 -24 0 -65 7 -92 15 -27 8 -67 15 -89 15 -23 0 -67 7
-98 15 -32 8 -75 15 -95 15 -20 0 -62 7 -92 15 -30 8 -75 15 -100 15 -25 0
-72 7 -105 15 -33 8 -83 14 -112 15 -28 0 -87 7 -130 15 -43 8 -100 15 -128
15 -27 0 -94 7 -148 15 -145 22 -392 31 -402 15 -11 -18 11 -28 79 -35 34 -3
88 -10 121 -15 90 -14 219 -30 326 -40 53 -5 109 -14 124 -20 14 -5 50 -10 78
-10 29 0 79 -7 112 -15 33 -8 77 -14 97 -15 21 0 70 -6 110 -14 109 -22 204
-37 289 -46 41 -5 88 -14 103 -20 15 -5 45 -10 68 -10 22 0 66 -6 97 -14 31
-8 98 -17 149 -21 138 -11 171 19 117 105 -14 22 -25 43 -25 47 -1 5 -9 26
-20 48 -11 22 -19 45 -20 52 0 6 -6 24 -14 40 -18 36 -39 86 -61 143 -10 25
-24 60 -32 77 -28 65 -41 99 -58 143 -10 25 -24 60 -32 77 -7 18 -20 49 -28
68 -8 19 -21 50 -29 68 -7 17 -21 52 -31 77 -10 25 -24 60 -32 77 -7 18 -21
50 -29 70 -9 21 -23 51 -30 66 -8 16 -14 35 -14 42 0 7 -6 26 -14 42 -22 44
-65 144 -91 213 -10 25 -23 59 -30 75 -29 68 -35 82 -55 135 -12 30 -26 64
-30 75 -9 21 -40 100 -67 170 -9 22 -22 54 -29 72 -8 17 -14 37 -14 45 0 8 -4
18 -8 24 -4 5 -18 36 -31 69 -13 33 -29 74 -36 90 -34 77 -45 104 -45 113 0 6
-6 23 -14 39 -16 32 -26 55 -57 133 -11 30 -27 69 -34 85 -7 17 -20 49 -29 73
-39 102 -47 124 -62 165 -9 23 -22 56 -29 72 -7 17 -21 50 -30 75 -10 25 -24
60 -32 77 -95 222 -101 232 -130 239 -15 4 -45 2 -67 -4 -23 -6 -42 -7 -44 -3
-1 4 -18 31 -38 61 -36 54 -39 88 -6 75 9 -4 39 -12 67 -17 27 -5 74 -22 103
-36 54 -26 66 -43 117 -167 22 -53 55 -129 89 -207 8 -18 27 -60 42 -93 27
-62 75 -166 125 -271 16 -33 29 -66 29 -72 0 -7 4 -20 10 -30 20 -38 64 -149
77 -197 3 -11 11 -34 19 -52 8 -17 14 -36 14 -42 0 -6 4 -19 10 -29 5 -9 23
-48 41 -87 17 -38 51 -110 74 -160 24 -49 53 -115 65 -145 12 -30 29 -70 36
-87 8 -18 21 -47 28 -65 30 -71 36 -85 55 -130 12 -26 21 -52 21 -58 0 -5 4
-18 10 -28 17 -31 50 -111 50 -122 0 -5 4 -18 10 -28 5 -9 16 -33 24 -52 8
-19 24 -56 35 -82 12 -26 21 -51 21 -57 0 -5 6 -22 14 -38 14 -27 33 -70 60
-135 8 -18 19 -44 24 -58 29 -67 50 -119 67 -160 10 -25 24 -59 31 -77 8 -17
14 -35 14 -41 0 -5 7 -23 15 -38 8 -16 15 -36 15 -45 0 -8 4 -19 8 -25 4 -5
18 -36 31 -69 24 -64 32 -82 79 -185 16 -36 33 -72 36 -80 3 -8 10 -22 15 -30
5 -8 16 -31 24 -50 9 -19 30 -66 48 -105 17 -38 32 -83 33 -100 1 -29 0 -30
-54 -33 -30 -2 -91 2 -135 8 -44 7 -116 15 -160 20 -44 4 -107 12 -140 18 -96
18 -205 34 -270 42 -33 4 -87 12 -120 18 -99 18 -195 33 -285 42 -47 5 -101
14 -120 20 -19 5 -55 10 -80 10 -25 0 -81 6 -125 14 -44 8 -120 19 -170 25
-49 6 -128 16 -175 22 -47 6 -110 9 -140 7 -44 -2 -59 1 -77 18 -13 12 -23 32
-23 45 -1 13 -7 35 -15 49 -8 14 -14 37 -15 51 0 15 -7 32 -15 39 -9 7 -15 29
-15 51 0 21 -4 41 -10 44 -5 3 -10 17 -10 30 0 34 -10 55 -26 55 -17 0 -18 -5
-18 -95 -1 -64 -3 -70 -21 -68 -29 4 -233 -16 -345 -33 -53 -8 -120 -14 -150
-14 -30 0 -75 -5 -100 -11 -25 -6 -90 -15 -145 -19 -99 -9 -195 -21 -330 -41
-38 -6 -108 -15 -155 -19 -47 -5 -101 -14 -120 -19 -19 -6 -53 -11 -75 -11
-22 0 -62 -7 -89 -15 -27 -8 -66 -15 -87 -15 -21 0 -50 -5 -66 -11 -15 -6 -59
-15 -98 -20 -116 -15 -218 -35 -247 -49 -22 -10 -31 -10 -59 4 -20 10 -58 16
-103 16 -39 0 -102 7 -141 15 -38 8 -88 15 -111 15 -22 0 -63 7 -90 15 -27 8
-67 15 -89 15 -23 0 -67 7 -98 15 -32 8 -72 15 -88 15 -17 0 -58 6 -92 14 -94
22 -175 37 -247 46 -36 5 -78 13 -93 19 -16 6 -47 11 -71 11 -23 0 -68 7 -99
15 -32 8 -78 15 -102 15 -24 0 -79 7 -122 15 -43 8 -99 15 -125 15 -25 0 -97
7 -160 15 -62 8 -184 17 -270 21 l-158 6 0 33 c0 19 5 46 11 62 14 35 39 135
46 185 4 27 1 38 -8 38 -18 0 -49 -31 -49 -49 0 -18 -25 -98 -46 -149 -8 -18
-14 -43 -14 -55 0 -12 -4 -28 -9 -36 -10 -15 -153 -40 -236 -41 -27 0 -77 -7
-110 -15 -33 -8 -80 -15 -105 -15 -25 0 -70 -7 -100 -15 -30 -8 -75 -15 -100
-15 -25 0 -67 -7 -94 -15 -27 -8 -63 -15 -80 -15 -17 0 -60 -6 -96 -15 -36 -8
-101 -21 -145 -30 -44 -9 -100 -21 -125 -27 -25 -6 -68 -14 -97 -18 -28 -5
-56 -11 -61 -14 -5 -3 -33 -10 -63 -15 -30 -5 -83 -17 -119 -26 -36 -9 -75
-19 -88 -22 -19 -5 -22 -1 -22 23 0 16 7 42 15 57 8 15 17 45 21 65 4 20 10
42 14 47 4 6 11 28 15 50 4 22 10 45 15 50 4 6 10 24 13 40 2 17 10 46 17 65
26 74 32 96 40 130 4 19 13 50 19 68 29 84 33 100 42 137 6 22 14 44 20 50 5
5 9 18 9 28 0 10 6 33 13 50 18 42 36 93 49 137 5 19 14 39 19 45 5 5 9 18 9
30 0 12 7 30 15 41 8 10 15 29 15 41 0 12 6 34 14 50 8 15 21 44 30 63 8 19
27 61 41 93 15 32 37 91 50 130 44 131 53 152 64 151 6 -1 25 -2 41 -2 25 -2
30 -6 30 -26 0 -31 -14 -40 -30 -21 -16 20 -30 10 -30 -21 0 -19 7 -28 30 -35
22 -8 30 -17 30 -35 0 -35 -47 -34 -56 1 -3 14 -10 25 -15 25 -15 0 -22 -51
-11 -86 7 -23 7 -36 0 -40 -5 -4 -8 -25 -6 -48 7 -61 -7 -90 -51 -109 -21 -9
-43 -17 -50 -17 -15 0 -32 -45 -25 -65 5 -12 15 -14 43 -9 20 4 43 10 51 14 8
4 32 1 53 -7 30 -12 36 -19 32 -34 -5 -14 -1 -19 14 -19 14 0 21 6 21 18 0 20
45 46 61 37 5 -4 9 -18 9 -33 0 -56 28 -175 44 -184 18 -10 36 -68 36 -118 0
-51 34 -211 51 -240 32 -55 47 -61 139 -56 189 11 338 27 385 43 99 32 185
107 185 160 0 25 -77 93 -104 93 -28 0 -56 19 -56 39 0 10 -7 32 -15 47 -8 16
-15 36 -15 45 0 8 -5 20 -10 25 -6 6 -15 51 -20 99 -5 48 -14 93 -19 98 -7 7
1 23 24 49 55 60 40 126 -34 145 -36 9 -361 -4 -396 -16 -16 -5 -50 -15 -74
-21 -24 -6 -54 -23 -68 -38 l-25 -27 -19 24 c-21 26 -24 66 -9 107 8 20 7 56
-5 132 -8 57 -13 108 -10 112 3 5 -1 26 -10 46 -8 20 -15 52 -15 70 0 29 4 34
23 34 12 0 38 -15 57 -33 19 -18 54 -44 77 -59 55 -36 68 -22 60 63 -4 52 -10
67 -38 95 -37 38 -30 46 41 42 25 -1 69 -1 99 0 l54 2 -6 41 c-3 22 -14 47
-24 55 -46 36 -94 54 -148 54 -30 0 -55 4 -55 8 0 11 74 71 138 113 55 35 65
61 33 79 -29 15 -103 12 -146 -6 -58 -24 -61 -7 -16 82 35 71 50 103 107 234
9 19 22 48 30 63 8 16 14 35 14 44 0 8 6 27 13 41 8 15 21 42 30 60 9 19 17
40 17 47 0 7 6 26 14 42 36 73 46 101 53 133 3 19 16 53 28 75 12 22 25 51 28
65 6 24 12 26 138 43 73 10 139 22 148 26 9 5 48 12 86 16 39 3 84 11 101 16
17 5 59 14 95 19 35 5 93 16 129 26 36 9 108 20 160 25 52 5 145 17 207 25 61
9 119 14 128 11 14 -6 14 -10 -1 -44 -9 -21 -21 -62 -26 -91 -8 -44 -8 -57 5
-69 13 -13 17 -11 34 14 25 36 53 130 53 175 0 49 11 58 39 34z m816 -111 c12
-50 27 -101 32 -115 23 -56 34 -100 28 -110 -3 -5 -22 -10 -41 -10 -19 0 -46
-7 -59 -16 -33 -22 -51 -7 -64 54 -9 40 -8 51 8 72 17 24 39 106 48 183 3 21
10 36 16 34 5 -1 20 -43 32 -92z m-443 41 c17 -17 12 -96 -7 -96 -7 0 -16 11
-19 25 -4 14 -11 25 -16 25 -14 0 -13 -102 1 -137 6 -15 15 -44 19 -63 12 -51
33 -105 50 -125 12 -14 12 -18 -1 -26 -8 -5 -27 -9 -42 -9 -15 0 -41 -7 -58
-15 l-29 -16 -21 48 c-12 27 -26 56 -30 65 -12 24 -11 65 1 73 6 3 10 14 10
23 0 9 7 30 15 46 8 15 15 38 15 50 0 11 6 31 13 42 6 12 22 40 35 63 23 43
41 50 64 27z m683 -38 c8 -28 15 -61 15 -72 1 -12 7 -32 15 -46 8 -14 14 -48
15 -76 0 -33 5 -56 15 -64 17 -14 21 -100 5 -100 -12 0 -50 82 -50 108 0 9
-10 37 -21 62 l-20 44 -24 -29 c-13 -17 -25 -39 -25 -50 0 -11 -7 -31 -15 -45
-8 -14 -14 -35 -15 -47 0 -24 -22 -43 -28 -25 -5 17 -42 15 -42 -3 0 -8 9 -24
20 -35 11 -11 20 -27 20 -36 0 -14 -7 -15 -42 -10 -23 4 -47 11 -54 17 -20 16
-27 -8 -10 -33 9 -12 16 -34 16 -48 0 -22 12 -68 42 -155 6 -16 13 -48 17 -70
4 -22 13 -50 19 -62 17 -30 15 -60 -4 -67 -20 -8 -158 -8 -178 0 -18 7 -22 74
-6 103 12 23 38 137 50 221 8 49 7 67 -3 75 -6 6 -13 30 -13 55 -1 25 -3 54
-5 65 -4 18 2 20 66 22 39 0 75 2 82 2 15 1 33 55 33 101 0 34 15 78 39 120 9
15 34 78 45 113 10 31 25 18 41 -35z m198 -5 c9 -46 29 -116 43 -153 7 -19 16
-51 19 -70 l6 -35 -60 -17 c-81 -24 -88 -23 -106 16 -15 31 -15 38 0 83 8 26
19 57 24 68 15 36 33 90 38 113 7 31 30 28 36 -5z m-591 3 c44 8 52 -4 43 -62
-6 -43 -7 -43 -29 -28 -13 8 -26 29 -30 46 -5 26 -8 29 -21 18 -20 -16 -41 1
-31 25 5 13 10 14 19 6 7 -6 29 -8 49 -5z m3318 -135 c0 -9 7 -29 15 -45 8
-15 15 -35 15 -42 0 -17 27 -62 52 -87 23 -22 23 -36 1 -43 -10 -3 -35 -15
-55 -25 -21 -11 -42 -18 -46 -15 -11 6 -25 273 -16 287 8 14 34 -9 34 -30z
m-3825 -121 c16 -71 24 -94 55 -180 7 -19 13 -48 14 -65 l1 -30 -109 -3 -108
-3 7 28 c3 15 12 42 19 58 7 17 21 57 31 90 9 33 23 78 31 100 8 23 14 50 14
61 0 24 11 38 20 27 4 -5 15 -42 25 -83z m368 11 c0 -18 -8 -40 -16 -49 -14
-13 -19 -13 -52 2 -47 23 -45 54 5 72 52 19 65 14 63 -25z m529 -94 c26 -152
23 -194 -12 -152 -21 25 -30 17 -30 -25 0 -44 8 -48 46 -23 22 14 27 14 35 2
23 -36 11 -55 -43 -68 -29 -7 -67 -17 -85 -21 -31 -7 -33 -6 -53 34 -32 68
-24 81 34 51 16 -9 31 -13 33 -11 8 8 -7 42 -28 65 l-21 22 20 42 c32 69 60
140 67 171 9 44 18 24 37 -87z m298 19 c0 -29 -43 -126 -56 -126 -16 0 -20
-79 -5 -95 18 -21 73 -187 64 -196 -7 -6 -126 -13 -182 -10 -15 1 -12 53 7
106 29 83 35 103 42 139 4 22 18 47 31 57 20 15 21 19 10 33 -19 22 -30 20
-37 -9 -3 -13 -12 -29 -20 -36 -8 -6 -14 -21 -14 -33 0 -12 -5 -27 -12 -34
-23 -23 -37 -12 -43 36 -3 26 -10 57 -15 70 -8 19 -4 25 29 47 22 13 42 29 46
35 3 5 25 10 48 10 23 0 49 5 57 10 22 14 50 12 50 -4z m-867 -80 c16 -53 22
-76 62 -221 9 -33 20 -68 26 -77 22 -42 14 -47 -96 -50 -58 -2 -110 -1 -115 0
-14 5 -12 25 4 64 7 18 20 58 29 88 8 30 22 80 31 111 9 31 16 74 16 96 0 73
19 68 43 -11z m-2038 -656 c3 -6 -2 -13 -12 -17 -30 -11 -125 -87 -175 -141
-26 -28 -56 -53 -67 -57 -18 -5 -18 -3 -9 36 13 48 90 133 153 166 43 23 100
30 110 13z m-398 -90 c93 -49 103 -57 103 -81 0 -25 -7 -24 -72 6 -29 14 -59
25 -67 25 -17 0 -93 75 -84 84 14 13 46 4 120 -34z m42 -129 c34 -24 38 -41 9
-41 -13 0 -32 -6 -43 -14 -11 -7 -40 -17 -65 -21 -40 -7 -117 -30 -162 -50
-13 -5 -18 -3 -18 9 0 9 3 16 8 16 4 0 14 13 23 29 21 37 81 82 122 91 44 9
97 2 126 -19z m390 4 c22 -22 6 -31 -79 -43 -97 -13 -150 -6 -150 19 0 10 10
25 23 34 29 22 182 14 206 -10z m-208 -72 c70 -60 98 -89 104 -110 9 -33 -13
-29 -66 10 -25 17 -53 37 -64 43 -21 12 -35 84 -17 84 6 0 25 -12 43 -27z
m-163 -35 c2 -20 -12 -42 -70 -102 -41 -42 -81 -76 -90 -76 -16 0 -16 3 -1 48
11 32 35 65 76 105 62 61 80 67 85 25z m82 -14 c0 -23 -5 -34 -14 -34 -20 0
-29 35 -16 60 15 28 30 16 30 -26z m-2 -108 c4 -30 -17 -61 -25 -38 -7 18 -34
43 -41 38 -7 -4 -34 -56 -72 -136 -11 -25 -25 -52 -30 -60 -9 -16 -63 -135
-84 -185 -7 -16 -20 -46 -28 -65 -9 -19 -23 -55 -33 -80 -10 -25 -23 -58 -30
-75 -7 -16 -20 -48 -28 -70 -8 -22 -21 -58 -30 -80 -59 -158 -86 -239 -107
-325 -4 -19 -13 -48 -18 -65 -22 -64 -82 -300 -106 -415 -18 -85 -36 -143 -47
-154 -15 -16 -10 -63 8 -81 13 -14 28 -16 76 -10 32 3 69 10 82 15 13 5 52 12
87 15 34 4 79 11 98 17 19 6 62 14 95 18 59 8 108 17 250 46 39 8 84 14 102
14 17 0 44 5 60 11 15 6 60 14 98 19 68 8 136 19 260 42 33 6 87 14 120 18 89
10 202 29 272 46 78 18 151 18 228 -1 33 -8 87 -15 120 -15 33 0 96 -7 140
-15 44 -8 104 -15 134 -15 29 0 99 -7 155 -14 171 -25 268 -38 343 -46 40 -5
78 -12 84 -16 7 -4 42 -10 78 -14 36 -4 86 -12 111 -18 68 -16 158 -33 225
-42 33 -5 76 -13 95 -19 19 -6 53 -11 75 -11 22 0 56 -5 75 -11 19 -6 67 -14
105 -19 39 -4 102 -13 140 -19 150 -22 270 -31 310 -21 22 5 65 10 95 10 30 0
75 5 99 11 24 5 89 14 145 19 100 9 188 21 296 41 30 6 91 15 135 20 44 4 98
13 120 18 22 6 60 11 85 11 25 0 77 7 115 15 39 8 90 15 115 15 25 0 77 7 115
15 39 8 93 15 120 15 28 0 82 7 120 15 39 8 95 15 125 15 30 0 84 7 120 15 36
8 88 14 116 15 28 0 71 7 94 15 23 8 48 15 55 15 15 0 67 -106 63 -128 -3 -14
-18 -18 -78 -23 -41 -3 -103 -10 -137 -17 -139 -27 -190 -36 -243 -43 -133
-18 -219 -31 -275 -40 -33 -5 -91 -14 -130 -18 -101 -13 -231 -31 -300 -42
-33 -5 -91 -14 -130 -18 -123 -15 -239 -32 -290 -42 -27 -6 -90 -14 -140 -19
-177 -18 -270 -31 -295 -40 -14 -6 -43 -11 -64 -13 -39 -2 -40 -1 -48 38 -16
77 -18 85 -33 85 -9 0 -16 -16 -21 -46 -7 -51 -23 -62 -62 -44 -32 15 -154 35
-302 50 -58 6 -112 13 -120 16 -8 3 -58 10 -110 15 -52 4 -122 13 -155 18 -33
6 -103 16 -155 22 -52 6 -147 18 -210 25 -63 8 -158 18 -210 23 -53 4 -111 13
-130 19 -47 14 -162 31 -290 42 -58 5 -121 14 -140 20 -19 5 -52 10 -73 10
-21 0 -54 7 -75 16 -25 10 -72 16 -142 18 l-105 1 3 42 c2 23 -2 44 -8 48 -16
10 -42 -17 -54 -57 -8 -24 -18 -34 -36 -35 -41 -4 -210 -33 -281 -49 -37 -8
-85 -14 -106 -14 -22 0 -53 -4 -69 -10 -16 -5 -67 -14 -114 -19 -47 -6 -116
-15 -155 -21 -145 -23 -251 -40 -285 -44 -44 -5 -150 -24 -212 -37 -26 -6 -71
-14 -100 -19 -49 -8 -123 -22 -252 -50 -27 -5 -86 -8 -130 -6 -79 3 -81 4 -84
29 -2 15 4 41 12 59 14 31 22 58 48 168 6 25 14 50 18 55 4 6 11 26 15 45 4
19 11 40 15 45 4 6 11 26 15 45 4 19 11 41 15 50 11 24 40 116 40 130 0 7 6
26 13 43 8 18 22 59 32 92 9 33 23 76 30 95 29 82 37 107 45 135 13 48 31 98
46 128 8 16 14 35 14 42 0 14 20 66 46 118 8 16 14 35 14 44 0 8 6 27 13 41 8
15 21 43 29 62 8 19 23 53 32 75 33 73 49 110 61 140 7 17 20 47 29 68 9 21
16 46 16 56 0 10 25 43 55 72 31 30 68 71 82 92 19 27 32 37 45 34 10 -3 21
-1 24 5 3 5 18 8 32 6 21 -2 28 -9 30 -32z m27 -346 c7 -11 -32 -80 -45 -80
-16 0 -41 32 -38 49 2 9 15 17 31 19 15 2 27 8 27 13 0 12 17 12 25 -1z m655
-96 c38 -36 -44 -85 -152 -92 -43 -2 -78 -8 -78 -12 0 -4 -41 -10 -92 -14 -62
-4 -97 -11 -109 -22 -28 -25 -36 -10 -34 63 l1 68 85 7 c306 27 351 28 379 2z
m-640 -48 c0 -29 -24 -56 -50 -56 -35 0 -50 12 -50 40 0 25 4 29 33 33 67 8
67 8 67 -17z m135 -62 l0 -69 60 1 c33 1 80 6 105 12 25 6 74 11 110 12 36 0
89 7 117 14 29 8 61 12 72 9 17 -4 18 -7 4 -35 -14 -26 -13 -39 2 -121 10 -51
24 -101 30 -112 7 -11 15 -32 19 -47 5 -24 3 -27 -34 -33 -47 -8 -96 -43 -82
-57 6 -6 56 -10 112 -9 106 2 150 -11 150 -44 0 -34 -144 -105 -215 -105 -16
0 -75 -7 -130 -17 -56 -9 -109 -14 -119 -10 -18 7 -18 8 -1 27 12 14 16 28 11
52 -9 50 4 62 58 55 79 -11 129 32 73 62 -19 10 -32 10 -63 0 -21 -6 -70 -15
-109 -18 -64 -5 -70 -8 -79 -32 -11 -34 0 -78 22 -86 34 -13 44 -56 16 -67
-48 -18 -85 52 -94 179 -8 96 -23 159 -64 270 -35 91 -40 193 -12 224 31 34
41 20 41 -55z"/>
<path d="M5234 4527 c-24 -26 -49 -80 -58 -124 -4 -18 -12 -35 -17 -38 -5 -4
-9 -16 -9 -28 0 -13 -6 -31 -14 -42 -7 -11 -16 -31 -19 -45 -3 -14 -19 -63
-36 -110 -30 -82 -32 -120 -8 -120 22 1 57 39 73 80 51 134 104 312 121 406 6
40 -9 50 -33 21z"/>
<path d="M5605 4150 c-3 -5 1 -33 10 -62 8 -28 15 -62 15 -74 0 -13 8 -39 17
-59 13 -28 22 -35 45 -35 26 0 28 3 28 39 0 22 -6 52 -14 68 -8 15 -23 45 -33
66 -19 41 -58 73 -68 57z"/>
<path d="M6634 4248 c-12 -18 -35 -55 -53 -81 -33 -51 -40 -91 -17 -100 21 -8
53 19 60 50 8 34 36 93 54 112 7 7 12 21 10 30 -6 28 -32 22 -54 -11z"/>
<path d="M2835 4030 c-14 -22 -25 -45 -25 -51 0 -6 -7 -26 -16 -45 -16 -32
-15 -36 1 -54 10 -11 21 -20 26 -20 20 0 79 148 79 199 0 27 -41 9 -65 -29z"/>
<path d="M1955 4048 c-27 -5 -57 -16 -66 -24 -8 -8 -19 -14 -23 -14 -16 0 -45
-46 -46 -72 0 -27 22 -58 42 -58 6 0 5 -6 -3 -16 -18 -22 8 -64 82 -135 33
-31 59 -61 59 -67 0 -5 7 -12 15 -16 8 -3 15 -17 15 -31 0 -16 6 -25 15 -25
26 0 19 56 -10 78 -28 23 -33 37 -9 28 9 -4 23 -1 30 5 18 15 34 3 34 -26 0
-26 45 -85 64 -85 16 0 49 -38 65 -75 11 -25 10 -31 -5 -42 -10 -7 -21 -13
-26 -13 -4 0 -8 -4 -8 -10 0 -5 13 -10 29 -10 17 0 33 -5 36 -10 11 -18 -24
-22 -56 -6 -18 9 -46 16 -64 16 -34 0 -94 17 -109 31 -6 5 -4 18 4 34 12 22
20 25 68 25 63 0 68 -19 9 -34 -54 -14 -45 -26 18 -26 50 0 55 2 61 26 5 20 1
29 -17 42 -59 42 -97 40 -150 -8 -40 -35 -43 -41 -31 -60 10 -17 10 -21 -3
-26 -8 -4 -22 -3 -31 0 -22 9 -10 60 27 113 49 69 33 110 -17 43 -16 -22 -32
-40 -36 -40 -3 0 -10 -15 -13 -32 -4 -18 -21 -52 -38 -76 -25 -35 -36 -42 -54
-37 -38 9 -133 -6 -133 -21 0 -10 17 -14 64 -14 36 0 77 -5 93 -12 15 -6 46
-13 67 -15 22 -1 47 -10 57 -19 13 -12 29 -15 53 -11 24 4 39 1 46 -9 8 -9 17
-11 28 -5 12 7 24 1 47 -26 28 -33 34 -35 68 -29 20 4 37 11 37 16 0 14 83 13
97 -1 8 -8 13 -8 18 0 10 18 -4 48 -26 54 -29 8 -91 -4 -107 -20 -22 -22 -56
-15 -85 19 -41 46 -71 58 -146 58 -66 1 -111 21 -111 49 0 16 28 14 37 -3 5
-9 36 -15 96 -18 48 -2 93 -10 99 -16 18 -18 124 -15 156 5 52 32 70 73 32 73
-13 0 -22 9 -26 28 -16 65 -56 115 -101 128 -13 3 -23 10 -23 15 0 5 -7 9 -15
9 -21 0 -19 52 3 71 39 35 82 94 82 114 0 12 3 25 7 29 4 3 8 29 10 55 2 43
-1 54 -29 85 -19 22 -43 38 -62 40 -71 11 -144 12 -191 4z m195 -51 c0 -20
-45 -37 -116 -44 -77 -7 -117 2 -112 24 4 23 38 31 141 32 66 1 87 -2 87 -12z
m-264 -64 c11 -15 29 -18 133 -17 90 0 122 -3 125 -13 3 -7 12 -13 20 -13 8 0
17 -4 20 -9 7 -11 -13 -71 -24 -71 -4 0 -10 -10 -13 -22 -7 -26 -22 -16 -22
15 0 18 -7 23 -40 25 -54 5 -112 -14 -120 -38 -4 -11 -10 -20 -14 -20 -11 0
-71 70 -71 83 0 9 32 12 108 11 119 -2 153 3 131 17 -8 5 -62 9 -121 9 -89 0
-108 3 -108 15 0 8 -9 15 -20 15 -11 0 -20 7 -20 15 0 20 20 19 36 -2z m304 7
c0 -13 -28 -25 -38 -16 -3 4 0 11 8 16 20 13 30 12 30 0z m-117 -140 c22 0 22
-18 0 -42 -22 -24 -50 -23 -63 3 -16 30 -5 53 23 45 12 -3 30 -6 40 -6z"/>
<path d="M6050 3956 c-5 -15 -6 -43 0 -73 34 -178 45 -208 75 -208 18 0 20 6
18 54 -2 29 -7 59 -12 65 -5 6 -12 29 -17 50 -4 22 -13 51 -20 65 -8 14 -14
34 -14 43 0 28 -19 31 -30 4z"/>
<path d="M3626 3903 c-12 -12 -6 -43 9 -43 8 0 15 9 15 19 0 21 -13 34 -24 24z"/>
<path d="M5951 3806 c-34 -36 -13 -68 33 -50 19 7 21 47 3 63 -11 8 -19 5 -36
-13z"/>
<path d="M2428 3803 c-25 -6 -22 -18 7 -37 18 -12 30 -14 42 -7 12 6 26 5 46
-5 25 -14 30 -13 58 7 21 15 27 25 20 32 -11 11 -143 19 -173 10z"/>
<path d="M4643 3780 c-14 -39 -4 -250 11 -250 23 0 35 43 39 133 4 81 2 91
-19 115 l-22 27 -9 -25z"/>
<path d="M6650 3732 c0 -5 -12 -13 -26 -16 -15 -4 -41 -23 -58 -43 -17 -20
-38 -44 -46 -52 -114 -122 -140 -235 -73 -313 11 -12 16 -49 18 -132 2 -63 9
-124 15 -136 14 -27 68 -50 114 -50 18 0 56 -6 82 -14 73 -21 134 -36 179 -45
55 -11 122 -27 175 -42 39 -11 214 -15 367 -9 41 1 43 3 37 28 -4 15 -13 39
-20 54 -8 15 -14 42 -14 60 -1 18 -7 60 -15 93 -8 33 -15 86 -15 117 0 58 -14
84 -27 51 -13 -32 -6 -240 8 -259 4 -5 10 -30 11 -55 l3 -44 -78 -9 c-43 -5
-80 -6 -83 -4 -2 3 -6 47 -7 99 l-2 94 37 -3 c42 -3 82 13 72 30 -4 6 -27 8
-55 6 -31 -3 -53 -1 -59 7 -15 18 -2 25 44 25 43 0 76 14 63 26 -3 4 -39 8
-78 10 l-71 2 6 -36 c3 -20 1 -44 -4 -52 -7 -11 -10 2 -10 43 0 43 -4 57 -15
57 -25 0 -30 -68 -12 -175 22 -129 22 -145 -1 -145 -38 0 -49 30 -51 135 -1
55 -7 120 -15 145 l-13 45 -58 0 c-51 0 -59 3 -68 23 -15 33 -3 37 56 22 28
-7 62 -13 73 -12 12 1 27 -5 34 -13 18 -22 40 -18 40 6 0 17 3 19 14 10 11
-10 24 -8 60 8 25 12 52 21 61 21 9 0 26 5 38 12 12 6 37 11 55 10 26 -1 35 3
39 18 4 15 9 17 23 10 22 -12 24 -9 39 47 27 101 -36 196 -141 213 -94 16
-104 18 -269 64 -31 9 -66 16 -79 16 -13 0 -46 6 -74 14 -51 14 -132 32 -193
43 -19 3 -33 1 -33 -5z m48 -48 c35 -10 26 -27 -26 -48 -62 -26 -102 -73 -125
-147 -22 -71 -14 -90 29 -70 21 9 25 17 21 39 -10 50 34 113 100 143 52 24
223 27 275 5 55 -23 133 -38 164 -30 28 7 28 6 -16 -40 -25 -26 -51 -64 -58
-84 -7 -20 -16 -40 -20 -44 -4 -4 -54 0 -112 8 -223 31 -266 35 -295 24 -36
-14 -27 -22 33 -30 26 -4 74 -12 107 -18 33 -7 106 -17 162 -23 96 -10 102
-12 108 -36 9 -39 -9 -50 -50 -30 -20 9 -52 17 -73 17 -20 0 -66 6 -102 14
-83 19 -211 39 -274 42 -68 4 -76 9 -76 48 0 67 73 177 163 243 34 25 33 25
65 17z m638 -153 c32 -20 64 -74 64 -111 0 -44 -18 -60 -68 -60 -26 -1 -65 -9
-87 -20 -22 -11 -44 -19 -49 -20 -5 0 -14 -7 -20 -14 -6 -8 -23 -18 -38 -22
l-28 -6 0 59 c0 73 14 119 49 156 51 56 123 71 177 38z m-690 -196 c9 -8 33
-15 55 -15 28 0 39 -4 39 -15 0 -11 -12 -15 -51 -15 -59 0 -65 -22 -8 -30 29
-4 34 -9 31 -31 -1 -16 6 -33 23 -49 35 -33 32 -40 -17 -40 -45 0 -92 -19 -53
-21 11 0 56 -3 99 -5 49 -3 83 -9 88 -17 5 -8 34 -12 85 -12 71 -1 78 -3 78
-20 0 -19 -6 -20 -95 -17 -52 2 -117 10 -144 18 -74 21 -156 17 -156 -7 0 -5
27 -9 60 -9 52 0 60 -2 60 -19 0 -16 -6 -18 -47 -13 -95 10 -108 27 -101 137
l3 50 43 -3 c25 -2 42 1 42 7 0 12 -35 22 -65 18 -24 -3 -29 19 -20 79 7 47
24 57 51 29z m-92 -36 c-3 -42 -26 -154 -34 -163 -8 -8 -15 27 -23 127 -4 42
-2 50 17 57 30 12 41 7 40 -21z m304 -41 c5 -38 -29 -73 -61 -64 -20 5 -28 14
-32 40 -4 19 -2 43 4 54 10 18 14 19 48 7 28 -10 39 -19 41 -37z m147 -104 l0
-47 -75 2 c-41 1 -77 4 -79 7 -2 2 5 14 17 27 12 13 22 30 22 38 0 25 10 29
64 25 l51 -4 0 -48z m-63 -145 c61 -13 78 -24 78 -50 0 -21 -18 -24 -64 -9
-17 6 -64 19 -103 31 -40 12 -70 25 -67 30 7 12 92 11 156 -2z"/>
<path d="M2353 3710 c-22 -9 -39 -43 -28 -60 12 -20 64 -10 90 16 21 20 23 29
14 40 -13 16 -43 17 -76 4z"/>
<path d="M4480 3680 c-8 -25 -10 -44 -4 -49 15 -14 58 -21 73 -12 26 16 -11
101 -44 101 -6 0 -18 -18 -25 -40z"/>
<path d="M5892 3687 c-10 -18 -21 -56 -25 -85 -3 -29 -13 -62 -22 -74 -8 -13
-15 -33 -15 -46 0 -18 5 -23 22 -20 34 5 78 97 85 178 5 55 3 68 -10 73 -11 4
-22 -5 -35 -26z"/>
<path d="M2483 3674 c-7 -20 13 -34 50 -34 16 0 35 -7 43 -15 20 -20 53 -19
61 1 4 10 -4 25 -22 40 -35 30 -121 35 -132 8z"/>
<path d="M4855 3670 c-3 -5 -14 -10 -24 -10 -20 0 -71 -43 -71 -60 0 -12 37
-13 44 -1 4 5 24 12 46 16 32 5 45 3 66 -14 15 -12 37 -21 49 -21 27 0 75 36
75 56 0 22 -29 28 -49 10 -23 -21 -26 -21 -65 9 -35 26 -61 32 -71 15z"/>
<path d="M5379 3632 c-42 -44 -20 -70 28 -33 29 23 48 18 83 -21 18 -21 34
-28 61 -28 20 0 42 6 49 14 6 8 24 16 38 18 19 2 27 9 27 23 0 26 -55 34 -75
11 -20 -26 -62 -19 -90 14 -32 40 -84 41 -121 2z"/>
<path d="M2738 3625 c-11 -14 -20 -52 -24 -95 -4 -39 -11 -73 -15 -76 -11 -6
-12 -44 -1 -44 12 0 52 47 52 61 0 8 6 26 13 40 8 14 17 44 20 66 12 71 -12
95 -45 48z"/>
<path d="M2996 3621 c-5 -7 -3 -24 5 -37 15 -29 65 -33 85 -6 17 21 18 40 2
24 -20 -20 -64 -15 -75 10 -7 16 -12 18 -17 9z"/>
<path d="M6137 3600 c-14 -20 -14 -27 0 -69 8 -25 17 -56 20 -69 6 -26 38 -46
59 -38 15 6 19 42 5 50 -4 3 -11 26 -14 52 -3 31 -13 54 -30 71 l-24 25 -16
-22z"/>
<path d="M1785 3581 c-3 -6 -19 -11 -35 -11 -16 0 -36 -7 -44 -16 -15 -14 -20
-14 -62 6 -39 20 -49 21 -70 10 -36 -20 -30 -40 11 -40 23 0 41 -7 52 -20 21
-24 56 -26 73 -5 7 8 23 15 36 15 44 0 76 18 72 42 -3 24 -23 35 -33 19z"/>
<path d="M4503 3570 c-43 -17 -24 -80 24 -80 19 0 23 5 23 29 0 33 -9 61 -19
60 -3 0 -16 -4 -28 -9z"/>
<path d="M2798 3533 c-24 -6 -23 -7 15 -58 40 -54 74 -76 87 -55 6 8 10 20 10
25 -1 14 -74 95 -86 94 -5 -1 -17 -3 -26 -6z"/>
<path d="M4670 3509 c-19 -34 -20 -230 -1 -253 10 -12 17 -14 27 -5 20 16 20
237 0 264 -13 18 -14 18 -26 -6z"/>
<path d="M5097 3496 c-7 -8 -39 -17 -70 -21 -55 -7 -74 -24 -45 -41 19 -12
101 -5 125 12 21 13 26 13 45 -1 13 -8 38 -15 56 -15 29 0 33 3 30 23 -2 16
-11 23 -32 25 -16 2 -35 10 -43 18 -18 18 -48 18 -66 0z"/>
<path d="M1513 3430 c-10 -11 -23 -20 -30 -20 -7 0 -13 -7 -13 -15 0 -9 9 -15
25 -15 14 0 25 5 25 11 0 8 16 10 50 6 43 -5 50 -4 50 11 0 27 -20 42 -57 42
-21 0 -40 -7 -50 -20z"/>
<path d="M4190 3420 c-8 -5 -25 -10 -37 -10 -13 0 -23 -4 -23 -10 0 -13 -63
-29 -94 -23 -31 6 -36 -15 -8 -40 27 -24 49 -21 93 14 30 23 46 29 64 25 14
-4 25 -11 25 -16 0 -15 38 -50 53 -50 7 0 22 6 32 14 17 13 17 14 -11 27 -16
8 -30 23 -33 34 -3 17 -28 44 -41 45 -3 0 -12 -5 -20 -10z"/>
<path d="M4357 3403 c-14 -14 -6 -23 39 -43 71 -33 103 -7 38 31 -30 18 -66
24 -77 12z"/>
<path d="M2363 3384 c-21 -9 -14 -33 11 -40 43 -11 81 -1 81 21 0 16 -7 20
-40 22 -22 1 -46 0 -52 -3z"/>
<path d="M3415 3383 c-45 -12 -40 -52 5 -45 17 2 46 -3 65 -12 35 -17 75 -14
75 5 0 5 7 9 15 9 8 0 15 -4 15 -10 0 -5 7 -10 15 -10 18 0 19 19 1 43 -15 20
-48 22 -76 5 -16 -10 -25 -9 -49 5 -30 18 -33 18 -66 10z"/>
<path d="M5472 3368 c-22 -22 -23 -23 -53 -5 -57 32 -77 16 -40 -33 15 -19 29
-24 58 -24 44 0 114 41 110 64 -4 25 -49 23 -75 -2z"/>
<path d="M2962 3367 c-30 -38 -33 -57 -17 -95 9 -21 28 -43 42 -49 20 -10 24
-10 19 2 -3 8 0 28 5 45 17 46 -25 128 -49 97z"/>
<path d="M5692 3310 c-91 -89 -109 -115 -92 -135 7 -8 18 -15 25 -15 18 0 185
165 185 184 0 12 -27 36 -42 36 -2 0 -36 -32 -76 -70z"/>
<path d="M1715 3326 c-33 -27 -28 -40 21 -56 33 -11 38 -10 60 12 l25 24 -40
21 -39 21 -27 -22z"/>
<path d="M2672 3329 c-35 -13 -25 -43 16 -47 36 -4 53 18 32 43 -14 17 -16 17
-48 4z"/>
<path d="M7406 3297 c-3 -13 -1 -38 4 -56 5 -17 14 -84 20 -149 7 -64 16 -124
21 -134 5 -9 9 -28 9 -42 0 -16 6 -26 15 -26 31 0 31 117 -1 240 -8 30 -14 68
-14 86 0 17 -7 37 -15 44 -8 7 -15 21 -15 31 0 28 -17 32 -24 6z"/>
<path d="M3740 3298 c0 -7 16 -29 36 -49 32 -33 39 -36 60 -27 13 6 24 14 24
18 0 4 25 10 55 12 30 3 58 8 62 11 15 16 -21 32 -72 31 -42 0 -58 -5 -70 -20
-14 -17 -16 -17 -27 -3 -12 15 -50 39 -62 39 -3 0 -6 -5 -6 -12z"/>
<path d="M4115 3301 c-6 -5 -25 -11 -44 -13 -19 -2 -36 -9 -39 -15 -3 -10 13
-13 55 -13 32 0 67 -3 78 -6 11 -3 29 2 40 10 20 15 20 15 0 21 -11 4 -28 11
-37 16 -22 12 -41 12 -53 0z"/>
<path d="M2027 3278 c-6 -20 4 -48 18 -48 13 0 25 21 25 46 0 17 -37 19 -43 2z"/>
<path d="M6113 3269 c-35 -10 -44 -35 -15 -42 9 -3 41 -5 70 -6 39 -1 54 3 59
15 3 8 2 19 -3 24 -15 14 -77 19 -111 9z"/>
<path d="M2660 3203 c-23 -8 -40 -34 -40 -64 0 -62 25 -77 51 -31 35 60 29
107 -11 95z"/>
<path d="M5956 3164 c-4 -12 -16 -15 -40 -12 -27 3 -33 1 -28 -12 14 -41 57
-55 82 -25 16 19 34 19 50 0 20 -24 43 0 28 29 -6 11 -16 24 -22 28 -20 14
-64 8 -70 -8z"/>
<path d="M4575 3160 c-3 -5 -18 -10 -32 -10 -30 0 -93 -39 -93 -56 0 -19 26
-24 46 -9 55 38 262 61 328 36 15 -6 45 -11 67 -11 22 0 56 -7 76 -15 19 -8
42 -15 49 -15 47 0 260 -123 344 -199 25 -22 51 -41 58 -41 18 0 15 -13 -8
-38 -17 -18 -20 -35 -20 -107 l0 -86 -27 2 c-52 4 -73 -1 -93 -21 -25 -25 -46
-17 -54 22 -8 42 -2 48 54 48 27 0 51 4 55 9 8 14 -28 31 -68 31 -42 0 -62 22
-71 75 -4 22 -14 55 -24 73 -13 25 -23 32 -47 32 -17 0 -40 -6 -50 -14 -10 -7
-26 -10 -35 -7 -8 4 -30 15 -48 24 -19 9 -42 17 -53 17 -11 0 -32 6 -47 14
-15 7 -57 16 -94 19 -81 7 -104 18 -112 52 -8 30 -26 32 -49 7 -16 -17 -16
-20 6 -39 12 -11 31 -23 41 -27 42 -15 2 -18 -74 -5 -98 16 -103 30 -29 89
l51 40 126 0 c70 0 137 -3 150 -6 28 -8 28 -28 1 -55 -11 -11 -19 -28 -17 -36
4 -23 22 -18 26 7 6 39 39 62 77 54 19 -3 35 -10 35 -14 0 -4 16 -11 35 -14
19 -4 35 -11 35 -16 0 -6 9 -10 20 -10 11 0 28 -9 37 -20 10 -11 23 -20 29
-20 16 0 106 -51 124 -70 12 -14 62 -41 67 -37 8 8 -21 47 -39 52 -9 3 -19 12
-22 20 -3 8 -12 15 -21 15 -8 0 -15 4 -15 9 0 5 -13 14 -30 20 -16 5 -30 15
-30 20 0 6 -9 11 -19 11 -11 0 -22 4 -25 9 -6 8 -55 33 -131 66 -61 26 -101
38 -140 42 -22 2 -64 8 -93 15 -59 13 -172 -2 -231 -31 -36 -18 -77 -65 -83
-96 -6 -36 -23 -21 -28 25 -7 65 -24 55 -30 -18 -7 -84 -32 -99 -87 -50 -17
16 -25 18 -42 9 -12 -7 -21 -21 -21 -32 0 -11 -7 -22 -15 -25 -17 -7 -20 -39
-6 -49 5 -3 13 -31 17 -63 3 -31 10 -61 14 -67 5 -5 11 -31 15 -58 7 -45 19
-66 32 -53 11 11 3 104 -12 140 -8 19 -15 47 -15 61 0 14 -6 34 -12 45 -11 16
-10 23 5 37 15 16 19 16 27 3 5 -8 10 -23 10 -32 0 -9 4 -19 9 -22 5 -4 12
-25 16 -49 3 -23 13 -72 22 -109 16 -71 12 -104 -11 -95 -8 3 -32 -3 -54 -14
-79 -40 -95 -88 -23 -74 20 4 63 10 96 14 56 6 62 9 84 44 13 20 32 37 41 37
9 0 20 4 25 9 12 11 92 29 195 42 77 10 154 6 174 -10 6 -5 26 -12 44 -16 17
-3 32 -11 32 -16 0 -5 5 -9 10 -9 14 0 99 -63 100 -73 0 -4 -8 -10 -17 -14
-36 -12 -83 -55 -83 -74 0 -12 3 -19 8 -17 106 53 104 53 315 58 4 0 7 12 7
26 0 25 -2 26 -40 21 -32 -4 -40 -2 -45 13 -3 10 0 28 7 39 10 17 23 21 68 21
30 0 67 -7 83 -14 15 -8 54 -22 87 -30 55 -14 64 -14 100 0 44 18 54 44 17 44
-41 0 -55 28 -63 122 -7 96 -25 128 -70 128 -16 0 -27 8 -33 23 -8 22 -35 47
-130 126 -41 34 -51 51 -30 51 13 0 162 -72 170 -82 6 -9 96 -30 124 -29 11 1
50 4 87 7 71 6 68 7 131 -51 54 -49 67 -78 67 -145 0 -33 -4 -68 -9 -78 -6 -9
-20 -39 -32 -65 -32 -67 -109 -141 -166 -160 -42 -14 -53 -14 -111 1 -63 15
-65 15 -108 -9 -24 -13 -47 -32 -50 -41 -3 -10 -9 -18 -14 -18 -5 0 -11 -8
-14 -17 -16 -47 -121 -136 -173 -147 -18 -4 -35 -12 -38 -17 -4 -5 -18 -9 -33
-9 -15 0 -56 -8 -92 -18 -55 -16 -92 -18 -240 -15 -309 6 -438 46 -464 143
-15 59 -73 100 -141 100 -119 1 -132 102 -20 161 41 22 42 24 24 37 -13 9 -19
25 -19 51 0 20 -4 41 -10 47 -14 14 0 54 19 54 15 0 61 41 61 54 0 15 -28 3
-58 -24 -18 -16 -42 -30 -53 -30 -14 0 -19 -7 -19 -29 0 -16 6 -31 13 -34 7
-3 13 -25 15 -56 2 -41 -1 -53 -15 -58 -10 -3 -33 -20 -50 -36 -27 -26 -33
-38 -33 -73 0 -38 5 -46 44 -78 34 -29 52 -36 85 -36 52 0 96 -28 115 -74 17
-42 74 -106 93 -106 8 0 21 -7 29 -15 9 -8 30 -15 48 -15 17 0 37 -5 44 -12
17 -17 472 -24 532 -8 25 6 66 15 93 19 26 4 53 13 59 19 7 7 20 12 30 12 33
0 124 73 173 139 27 36 58 74 70 83 23 20 66 23 83 6 6 -6 40 -12 74 -12 61
-1 74 4 137 49 45 32 102 104 134 167 33 65 37 82 37 150 0 55 -4 79 -15 88
-8 7 -15 18 -15 25 0 18 -68 87 -113 114 -35 21 -44 22 -146 16 -101 -7 -112
-6 -155 16 -25 12 -46 26 -46 30 0 4 -13 10 -30 14 -16 4 -32 11 -35 16 -9 13
-92 11 -115 -3 -14 -9 -23 -10 -28 -3 -10 14 -132 73 -167 81 -16 4 -35 10
-40 15 -35 27 -415 53 -430 29z m-18 -275 c7 -11 30 -15 96 -16 63 -2 95 -7
116 -20 27 -16 29 -21 24 -61 -7 -67 -9 -70 -50 -66 l-38 3 -3 58 c-4 73 -23
72 -36 -1 -8 -45 -13 -53 -35 -58 -14 -3 -34 -10 -45 -15 -30 -17 -39 3 -34
85 l3 76 -36 0 c-21 0 -44 -3 -53 -6 -28 -11 -17 -24 19 -24 33 0 35 -2 35
-34 0 -19 -3 -41 -6 -50 -10 -26 -24 -18 -24 13 0 17 -5 33 -10 36 -20 12 -22
-25 -5 -80 17 -54 17 -56 -1 -70 -10 -8 -15 -15 -11 -15 17 0 107 33 113 41 7
12 274 12 274 0 0 -15 -29 -21 -112 -21 -77 0 -150 -16 -210 -46 -14 -8 -33
-14 -42 -14 -8 0 -19 -7 -24 -16 -14 -25 -35 -6 -29 25 3 14 -3 64 -14 109
-15 62 -17 87 -9 97 8 10 6 15 -9 20 -29 9 -26 31 7 48 38 20 138 22 149 2z
m303 5 c0 -11 0 -11 -52 -14 -41 -3 -52 10 -15 17 42 8 67 7 67 -3z m100 -30
c0 -5 -4 -10 -9 -10 -5 0 -16 -3 -25 -6 -9 -3 -16 -1 -16 4 0 9 16 17 43 21 4
0 7 -3 7 -9z m-50 -35 c7 -8 23 -15 35 -15 12 0 28 -7 35 -15 7 -8 18 -15 24
-15 6 -1 22 -10 35 -20 27 -23 22 -50 -11 -51 -21 -1 -22 -1 -3 -7 38 -13 68
-40 62 -56 -8 -20 -21 -20 -37 -1 -7 8 -19 15 -27 15 -7 0 -16 7 -19 15 -5 11
-22 15 -65 15 l-58 0 -3 55 c-3 62 -20 74 -28 20 -3 -20 -9 -37 -15 -38 -10
-2 -26 91 -18 106 8 13 80 7 93 -8z m214 -7 c8 -13 19 -48 25 -78 17 -81 37
-172 45 -196 4 -14 1 -26 -9 -34 -24 -20 -39 1 -53 72 -7 35 -19 76 -27 91 -8
16 -15 37 -15 48 0 11 -7 31 -16 45 -14 20 -15 30 -6 49 14 31 37 32 56 3z
m378 -141 c8 -51 11 -96 6 -101 -5 -6 -18 -6 -35 0 -27 9 -28 14 -36 94 -7 73
-6 86 8 96 31 23 43 5 57 -89z m-452 -61 c0 -7 9 -16 20 -19 11 -3 20 -10 20
-16 0 -17 -30 -13 -36 4 -4 8 -14 15 -24 15 -20 0 -33 13 -23 24 12 11 43 6
43 -8z"/>
<path d="M2972 3141 c-13 -8 -26 -122 -18 -155 3 -14 12 -26 20 -26 27 0 41
33 43 105 2 63 0 74 -16 78 -10 2 -23 2 -29 -2z"/>
<path d="M3056 3132 c-12 -19 91 -97 155 -117 13 -4 31 -14 41 -22 9 -8 29
-13 45 -11 35 4 43 33 11 43 -13 4 -25 11 -28 15 -8 12 -118 69 -163 85 -49
17 -54 18 -61 7z"/>
<path d="M2130 3093 c-92 -30 -160 -80 -160 -118 0 -25 -20 -27 -64 -5 -36 17
-59 20 -123 18 -76 -3 -78 -4 -81 -29 -2 -21 2 -28 23 -33 47 -12 39 -32 -44
-118 -96 -98 -103 -125 -31 -120 24 2 47 6 50 10 20 28 90 53 90 33 0 -5 9
-11 21 -14 20 -5 20 -7 4 -37 -27 -53 -2 -130 37 -115 26 10 116 99 119 119 2
10 11 24 20 29 14 9 27 0 68 -43 29 -30 62 -72 74 -93 34 -61 53 -46 49 38 -2
39 -7 74 -12 79 -15 15 -11 39 10 66 19 23 21 24 31 8 12 -22 55 -24 63 -3 7
20 26 19 41 -2 8 -10 27 -16 56 -17 38 -1 44 2 47 22 2 12 -1 22 -7 22 -5 0
-12 8 -15 18 -8 25 -100 91 -136 99 -17 3 -33 10 -36 14 -3 5 -22 9 -43 9 -21
0 -40 3 -44 6 -3 3 21 33 54 65 41 40 59 65 55 75 -3 9 -6 20 -6 25 0 13 -58
9 -110 -8z m40 -51 c0 -4 -24 -33 -53 -64 -50 -54 -68 -80 -81 -120 -7 -22
-54 -24 -62 -4 -7 18 38 116 62 137 45 39 134 73 134 51z m-259 -129 c21 -13
29 -25 29 -45 0 -36 -18 -35 -50 2 -13 17 -32 30 -42 30 -10 0 -18 7 -18 15 0
21 45 19 81 -2z m277 -27 c15 -7 48 -23 75 -36 51 -23 54 -40 7 -40 -16 0 -32
-4 -35 -10 -10 -17 -25 -11 -25 9 0 44 -45 35 -55 -10 -7 -29 -35 -41 -35 -15
0 8 -16 27 -36 43 l-37 30 23 21 c27 25 79 29 118 8z m-308 -35 c13 -25 13
-41 -1 -41 -6 0 -25 -10 -41 -22 -25 -17 -34 -19 -49 -10 -20 13 -48 6 -65
-16 -6 -9 -13 -11 -17 -5 -6 10 56 83 71 83 5 0 15 7 22 15 18 22 67 19 80 -4z
m207 -80 c23 -26 52 -90 53 -115 0 -4 -15 6 -32 24 -18 17 -43 36 -55 41 -17
6 -23 17 -23 37 0 51 20 55 57 13z m-173 -36 c28 -26 34 -45 13 -45 -8 0 -24
-11 -38 -26 -22 -23 -24 -24 -36 -8 -16 22 -17 76 -1 92 18 18 32 15 62 -13z"/>
<path d="M5474 3064 c-4 -17 -1 -31 8 -41 13 -13 18 -12 43 10 36 30 29 57
-14 57 -25 0 -32 -5 -37 -26z"/>
<path d="M7225 3040 c-3 -5 0 -13 9 -16 21 -8 71 -1 71 11 0 14 -72 19 -80 5z"/>
<path d="M2594 3017 c-3 -8 -4 -30 -2 -49 2 -25 8 -33 23 -33 17 0 20 7 20 45
0 35 -4 45 -18 48 -9 2 -20 -3 -23 -11z"/>
<path d="M7247 2983 c-30 -8 -8 -23 33 -23 41 0 61 14 34 24 -17 7 -39 6 -67
-1z"/>
<path d="M3398 2959 c-16 -9 -16 -12 -3 -33 8 -12 36 -33 62 -45 27 -12 56
-26 65 -32 29 -15 38 -11 38 19 0 29 -12 40 -90 79 -52 26 -50 25 -72 12z"/>
<path d="M6253 2954 c-7 -19 4 -103 16 -118 5 -6 12 -30 16 -54 9 -55 32 -102
51 -102 23 0 29 29 15 74 -6 23 -16 59 -22 81 -5 22 -13 49 -18 60 -5 11 -12
32 -15 48 -7 29 -33 37 -43 11z"/>
<path d="M6656 2948 c-3 -7 -7 -25 -10 -40 -5 -21 -12 -28 -29 -28 -13 0 -27
4 -33 10 -13 13 -152 16 -165 3 -24 -24 2 -36 65 -31 51 4 66 2 85 -13 30 -25
63 -24 86 1 10 11 31 20 46 20 37 0 46 18 15 30 -15 5 -28 20 -32 35 -7 26
-22 33 -28 13z"/>
<path d="M2948 2903 c-10 -2 -18 -9 -18 -14 0 -5 -5 -9 -10 -9 -12 0 -73 -41
-78 -52 -2 -5 -9 -8 -16 -8 -19 0 -111 -107 -117 -137 -7 -38 14 -79 46 -87
41 -10 18 -29 -28 -23 -48 7 -67 0 -67 -23 0 -16 7 -17 65 -12 46 3 65 1 65
-7 0 -6 -10 -16 -22 -21 -13 -5 -33 -17 -46 -28 l-23 -18 20 -25 19 -24 34 19
c38 22 61 44 70 67 4 11 14 15 30 12 16 -3 31 4 47 21 22 23 32 26 91 26 119
0 220 12 220 26 0 7 -5 14 -12 16 -8 3 -7 11 5 28 24 34 21 95 -5 139 -25 41
-94 111 -109 111 -6 0 -17 7 -25 15 -15 14 -94 19 -136 8z m171 -89 c90 -81
103 -152 34 -189 -52 -28 -308 -29 -365 -2 -44 21 -48 42 -16 83 33 42 61 67
138 120 56 39 60 40 115 36 37 -3 54 -12 94 -48z m-245 -253 c3 -5 -1 -14 -8
-21 -11 -9 -20 -9 -37 0 -17 10 -19 14 -8 21 18 11 46 11 53 0z"/>
<path d="M2952 2794 c-27 -19 -28 -30 -1 -44 26 -14 49 2 42 31 -8 27 -17 30
-41 13z"/>
<path d="M3045 2780 c-9 -15 4 -50 20 -50 16 0 29 35 20 50 -3 5 -12 10 -20
10 -8 0 -17 -5 -20 -10z"/>
<path d="M2920 2676 c0 -22 46 -46 87 -46 42 0 83 23 83 46 0 11 -18 14 -85
14 -66 0 -85 -3 -85 -14z"/>
<path d="M7602 2898 c-18 -18 -15 -48 6 -48 10 0 23 -5 29 -11 14 -14 53 -2
53 17 0 8 -8 18 -17 21 -10 4 -22 12 -26 20 -10 16 -29 17 -45 1z"/>
<path d="M2558 2878 c-19 -29 -29 -79 -21 -107 4 -15 13 -21 34 -21 34 0 42
21 37 96 -3 56 -25 70 -50 32z"/>
<path d="M6931 2855 c-17 -9 -30 -11 -42 -4 -24 12 -29 11 -29 -5 0 -41 70
-62 97 -28 10 12 16 14 19 5 7 -17 54 -17 54 0 0 13 -51 48 -67 46 -4 -1 -19
-7 -32 -14z"/>
<path d="M7521 2827 c-8 -8 -49 -12 -120 -12 -93 0 -112 -3 -130 -19 -20 -18
-26 -19 -85 -7 -61 12 -65 12 -85 -8 -12 -12 -18 -22 -13 -22 4 -1 21 -3 37
-4 54 -6 95 -17 95 -26 0 -5 14 -9 30 -9 19 0 30 5 30 14 0 8 7 22 16 30 13
13 30 15 98 10 113 -9 156 0 156 31 0 29 -12 39 -29 22z"/>
<path d="M3590 2807 c0 -36 100 -107 133 -94 34 13 20 53 -30 86 -57 38 -103
42 -103 8z"/>
<path d="M6706 2768 c-37 -21 -40 -21 -68 -5 -37 21 -52 21 -100 0 -41 -18
-60 -55 -39 -76 8 -8 16 -6 30 9 45 44 53 48 70 36 50 -37 106 -34 161 8 20
15 22 20 11 34 -16 20 -17 20 -65 -6z"/>
<path d="M3790 2695 c0 -27 52 -68 101 -80 21 -5 27 -2 32 14 7 27 -9 46 -58
71 -54 27 -75 26 -75 -5z"/>
<path d="M2533 2670 c-12 -9 -25 -30 -29 -46 -4 -15 -13 -39 -20 -53 -8 -14
-14 -34 -14 -43 0 -9 -4 -19 -9 -22 -11 -7 -22 -73 -14 -92 3 -8 10 -14 17
-14 12 0 46 54 46 73 0 7 7 24 14 39 8 16 18 48 22 73 3 25 10 48 15 51 11 6
12 41 1 47 -4 3 -17 -3 -29 -13z"/>
<path d="M3430 2654 c-30 -19 -71 -44 -90 -57 -19 -12 -48 -24 -65 -27 -24 -4
-29 -9 -27 -27 2 -12 -2 -24 -8 -28 -15 -9 -12 -71 5 -85 32 -26 17 -40 -42
-40 -65 0 -111 -25 -100 -54 5 -13 16 -15 64 -10 32 3 71 10 87 15 37 12 137
11 155 0 9 -6 22 -6 33 0 12 6 25 6 38 -1 12 -6 77 -13 147 -15 69 -2 131 -9
136 -14 18 -18 97 -14 97 4 0 9 -9 15 -22 15 -31 1 -72 36 -64 55 3 8 10 15
16 15 26 0 1 82 -36 115 -6 6 -31 36 -55 69 -84 114 -165 135 -269 70z m182
-56 c124 -153 129 -161 114 -182 -10 -15 -29 -23 -72 -29 -65 -9 -263 7 -294
23 -10 5 -28 10 -39 10 -24 0 -44 33 -36 60 3 10 23 29 43 41 20 13 56 40 80
60 76 66 158 73 204 17z"/>
<path d="M3447 2573 c-4 -3 -7 -15 -7 -25 0 -23 38 -25 47 -2 8 21 -24 43 -40
27z"/>
<path d="M3535 2550 c-8 -26 6 -43 31 -38 13 2 19 12 19 28 0 34 -40 41 -50
10z"/>
<path d="M3410 2473 c0 -5 11 -20 24 -32 18 -17 36 -22 74 -23 58 0 72 6 72
31 0 13 -9 17 -37 18 -21 1 -59 5 -85 8 -28 4 -48 3 -48 -2z"/>
<path d="M3980 2641 c0 -20 53 -71 74 -71 12 0 56 41 56 52 0 21 -36 38 -81
38 -42 0 -49 -3 -49 -19z"/>
<path d="M2039 2610 c-5 -40 -33 -54 -42 -20 -11 43 -24 16 -30 -62 -7 -83 -2
-122 15 -145 5 -7 5 -14 -2 -18 -5 -3 -10 -32 -10 -63 -1 -31 -7 -68 -15 -82
-19 -34 -19 -75 2 -91 23 -20 114 -15 131 8 11 16 13 16 28 -5 19 -27 31 -28
39 -2 4 11 19 27 34 34 34 18 59 62 44 77 -18 18 -53 -7 -53 -37 0 -36 -24
-25 -28 12 -2 16 -7 40 -13 54 -9 25 -16 56 -43 205 -8 44 -23 100 -34 125
l-20 45 -3 -35z m14 -117 c6 -35 -9 -65 -31 -61 -12 2 -18 15 -20 40 -3 35 1
40 39 47 4 0 9 -11 12 -26z m17 -158 c0 -37 -20 -51 -51 -35 -28 15 -25 64 4
77 30 14 47 -1 47 -42z m37 -123 c7 -29 7 -29 -49 -37 l-48 -7 0 31 c0 24 6
34 24 41 13 5 27 14 32 21 9 14 32 -13 41 -49z"/>
<path d="M6357 2523 c-9 -9 -9 -48 1 -57 4 -4 12 -38 19 -74 10 -61 21 -113
52 -257 16 -73 39 -117 59 -113 13 3 17 14 15 47 -1 23 -6 48 -11 54 -6 7 -13
32 -17 57 -4 25 -10 50 -14 55 -5 9 -17 74 -39 220 -4 28 -11 56 -15 63 -9 13
-39 16 -50 5z"/>
<path d="M7432 2408 c3 -18 8 -41 12 -50 6 -13 3 -17 -16 -15 -36 2 -148 -15
-148 -23 0 -4 -12 -11 -26 -14 -30 -8 -40 -15 -104 -76 -60 -57 -80 -99 -80
-166 l0 -53 -45 -20 c-25 -11 -45 -27 -45 -35 0 -23 46 -31 74 -13 24 16 36
13 36 -9 0 -19 53 -94 97 -135 53 -52 143 -96 209 -105 43 -5 57 -11 64 -28
13 -30 35 -56 49 -56 6 0 11 17 11 40 0 30 5 42 18 46 80 27 112 45 162 95 32
31 60 69 64 85 13 50 33 64 93 64 38 0 53 4 53 14 0 19 -44 46 -74 46 -32 0
-46 26 -46 82 0 24 -9 62 -20 83 -23 45 -100 135 -115 135 -6 0 -17 6 -23 13
-7 6 -41 17 -75 22 -49 8 -62 14 -66 30 -4 26 -39 75 -53 75 -6 0 -8 -14 -6
-32z m-35 -161 c2 -43 -1 -50 -28 -66 -24 -15 -27 -20 -14 -25 13 -5 15 -22
14 -98 -1 -51 -6 -99 -12 -105 -15 -20 -216 -18 -223 2 -9 22 14 45 46 45 15
0 33 7 40 15 7 8 25 15 40 15 15 0 33 7 40 15 7 8 19 15 26 15 16 0 18 16 4
33 -5 7 -21 26 -35 44 l-26 32 30 16 c17 8 35 24 41 35 10 18 8 20 -19 20 -16
0 -42 -7 -58 -14 -15 -8 -37 -18 -47 -21 -15 -4 -17 -8 -8 -17 16 -16 15 -47
-2 -54 -17 -7 -37 -59 -30 -78 4 -11 -34 -36 -56 -36 -6 0 -10 18 -10 39 0 40
38 126 64 146 7 6 26 20 42 33 55 43 98 61 139 59 l40 -2 2 -48z m82 39 c8
-10 9 -27 1 -62 -5 -27 -11 -67 -12 -89 -3 -33 -7 -41 -27 -43 -39 -6 -44 10
-27 78 9 34 16 77 16 96 0 27 4 34 19 34 10 0 24 -6 30 -14z m106 -7 c48 -21
85 -48 85 -61 0 -14 -27 -9 -41 8 -10 12 -23 14 -55 9 -39 -5 -42 -4 -48 20
-6 22 -2 45 8 45 2 0 25 -9 51 -21z m29 -79 c5 -6 4 -15 -4 -25 -10 -12 -10
-15 3 -15 9 0 27 5 41 11 20 9 29 8 48 -7 29 -21 63 -97 54 -120 -8 -22 -26
-7 -26 22 0 28 -17 31 -36 7 -10 -15 -15 -16 -26 -5 -10 10 -9 14 10 18 16 5
22 14 22 35 0 38 -11 37 -40 -3 -13 -18 -30 -37 -37 -41 -19 -12 2 -47 29 -47
25 0 108 -38 108 -50 0 -4 -12 -13 -27 -19 -31 -13 -164 -31 -175 -24 -13 7
-9 50 8 93 9 23 13 47 9 57 -5 10 -7 25 -6 35 1 9 -3 19 -9 23 -5 3 -10 22
-10 42 0 33 1 35 28 28 15 -3 31 -10 36 -15z m-100 -46 c11 -30 7 -64 -9 -64
-20 0 -29 23 -21 55 7 28 21 33 30 9z m-235 -60 c15 -34 15 -34 -24 -34 -32 0
-35 3 -35 28 0 16 3 31 6 34 11 12 42 -5 53 -28z m229 -46 c18 -18 15 -39 -10
-65 -50 -53 -118 -8 -92 61 7 19 84 22 102 4z m11 -177 c-1 -64 -21 -125 -42
-129 -12 -3 -17 3 -17 21 0 14 -6 30 -14 37 -8 6 -16 23 -18 37 -4 34 -25 41
-30 11 -2 -15 -11 -24 -27 -26 -13 -2 -31 -10 -38 -18 -21 -20 -50 -17 -56 6
-4 14 -10 18 -22 14 -18 -7 -98 63 -89 78 7 12 48 10 61 -3 6 -6 17 -8 24 -3
24 15 107 15 122 0 11 -12 15 -11 24 3 7 12 25 16 67 17 l56 0 -1 -45z m133
15 c10 -11 18 -29 18 -39 0 -22 -43 -41 -48 -21 -2 7 -18 14 -35 16 -25 2 -33
8 -35 26 -2 13 -1 30 2 37 8 21 77 7 98 -19z m73 11 c0 -26 -20 -25 -23 2 -3
16 1 22 10 19 7 -3 13 -12 13 -21z m-331 -122 c38 -16 46 -32 22 -41 -17 -7
-65 25 -66 44 0 15 0 15 44 -3z m214 3 c-7 -20 -58 -23 -58 -4 0 11 10 16 31
16 20 0 29 -4 27 -12z"/>
<path d="M7256 1872 c-3 -5 4 -18 15 -28 17 -16 22 -16 29 -4 6 8 8 20 7 25
-5 13 -44 19 -51 7z"/>
<path d="M2575 2421 c-16 -4 -45 -16 -64 -25 l-34 -18 22 -21 c19 -20 25 -20
77 -9 60 12 89 31 97 63 4 16 0 19 -31 18 -21 -1 -50 -4 -67 -8z"/>
<path d="M4627 2412 c-10 -10 -17 -32 -17 -49 0 -18 -6 -33 -15 -37 -8 -3 -15
-16 -15 -29 0 -21 6 -25 48 -30 27 -3 67 -3 90 0 37 5 42 9 42 32 -1 25 -87
131 -108 131 -5 0 -16 -8 -25 -18z m41 -80 c3 -27 0 -32 -17 -32 -22 0 -25 10
-15 48 9 32 28 22 32 -16z"/>
<path d="M6014 2409 c-12 -14 -27 -19 -43 -16 -54 10 -70 -22 -23 -45 24 -13
31 -12 57 4 51 31 57 32 71 14 18 -25 69 -18 69 9 0 14 -8 21 -25 23 -14 2
-29 10 -33 18 -12 21 -51 17 -73 -7z"/>
<path d="M4838 2339 c-10 -17 -18 -50 -18 -74 0 -24 -4 -47 -10 -50 -5 -3 -10
-13 -10 -21 0 -11 16 -14 75 -14 93 0 125 13 125 52 0 22 -14 41 -57 83 -32
30 -65 55 -73 55 -8 0 -23 -14 -32 -31z m39 -36 c3 -10 12 -25 20 -34 15 -18
9 -45 -13 -53 -21 -8 -46 5 -40 21 3 8 6 30 6 49 0 36 16 46 27 17z"/>
<path d="M2336 2351 c-3 -4 -19 -11 -36 -14 -25 -6 -30 -11 -30 -37 0 -16 4
-30 9 -30 32 0 131 63 131 84 0 9 -68 7 -74 -3z"/>
<path d="M6721 2291 c-10 -10 -20 -24 -22 -30 -4 -12 -32 -17 -59 -10 -10 3
-14 -2 -12 -16 5 -25 2 -22 33 -30 21 -5 32 0 57 24 38 39 52 39 94 1 36 -33
37 -33 56 -22 20 13 4 39 -45 72 -51 35 -76 37 -102 11z"/>
<path d="M2438 2256 c-9 -7 -22 -37 -27 -67 -5 -30 -17 -85 -26 -124 -9 -38
-20 -92 -24 -120 -5 -27 -14 -66 -21 -85 -7 -19 -19 -51 -26 -70 -15 -43 -26
-124 -18 -145 9 -22 31 -19 45 6 6 11 21 55 33 97 13 42 28 78 34 80 6 2 19
-5 30 -16 28 -28 106 -65 128 -60 11 2 19 12 19 23 0 14 -14 24 -50 38 -27 11
-58 23 -67 28 -10 5 -30 9 -44 9 -23 0 -25 3 -19 23 4 12 11 47 16 78 4 31 13
68 19 83 5 15 13 65 16 112 4 47 11 87 16 90 13 8 10 34 -4 34 -7 0 -21 -6
-30 -14z"/>
<path d="M5560 2254 c0 -18 71 -91 130 -134 19 -14 45 -35 59 -47 44 -38 50
-43 56 -43 3 0 18 -9 34 -21 32 -23 84 -23 89 1 2 12 -115 99 -236 175 -20 13
-61 45 -84 68 -23 22 -48 22 -48 1z"/>
<path d="M5419 2226 c-16 -34 -5 -56 28 -56 44 0 57 13 46 46 -13 40 -58 46
-74 10z"/>
<path d="M3010 2200 c0 -5 -15 -10 -34 -10 -36 0 -86 -32 -86 -56 0 -8 9 -14
20 -14 11 0 20 4 20 9 0 4 19 11 43 14 23 2 49 7 57 11 20 8 40 -6 45 -32 6
-34 14 -42 39 -42 29 0 92 53 82 69 -10 16 -46 14 -52 -4 -9 -22 -34 -18 -34
6 0 11 -10 29 -22 40 -24 19 -78 26 -78 9z"/>
<path d="M1050 2125 c14 -16 5 -35 -16 -35 -8 0 -17 -7 -20 -15 -7 -18 -45
-20 -62 -3 -6 6 -15 8 -19 3 -5 -4 -2 -10 5 -12 6 -3 12 -11 12 -18 0 -12 21
-25 39 -25 4 0 18 9 31 20 13 11 29 20 37 20 7 0 13 5 13 10 0 6 7 10 15 10
20 0 19 -16 -2 -24 -11 -5 -13 -10 -6 -17 16 -16 38 -1 51 35 16 45 16 46 -17
46 -17 0 -33 5 -36 10 -3 6 -13 10 -22 10 -12 0 -13 -3 -3 -15z"/>
<path d="M3572 2100 c-34 -31 -56 -37 -67 -20 -8 13 -45 13 -45 0 0 -6 7 -13
15 -16 8 -3 17 -14 20 -25 8 -24 45 -25 67 -1 32 33 47 42 73 42 26 0 41 -9
73 -42 23 -25 88 -24 102 1 17 33 12 40 -24 34 -28 -4 -44 1 -81 26 -58 39
-91 40 -133 1z"/>
<path d="M3380 2085 c-10 -11 -10 -19 -2 -27 15 -15 44 -2 40 19 -4 23 -22 27
-38 8z"/>
<path d="M1927 2084 c-9 -10 2 -24 19 -24 8 0 23 -9 34 -20 33 -33 71 -24 84
18 6 18 4 22 -13 22 -12 0 -21 -4 -21 -10 0 -15 -26 -12 -40 5 -13 15 -51 20
-63 9z"/>
<path d="M3194 2055 c-8 -21 4 -35 32 -35 28 0 44 28 23 41 -21 13 -49 11 -55
-6z"/>
<path d="M4505 2023 c-19 -29 -33 -188 -21 -237 8 -32 34 -34 40 -3 16 74 33
229 28 250 -6 25 -27 21 -47 -10z"/>
<path d="M5405 2008 c-90 -108 -146 -164 -193 -194 -56 -37 -63 -57 -19 -62
44 -5 95 27 181 113 120 121 125 132 80 162 -20 13 -24 11 -49 -19z"/>
<path d="M2126 2023 c-10 -10 -7 -53 4 -53 6 0 10 -6 10 -14 0 -24 69 -74 109
-79 20 -2 47 0 61 5 l25 10 -24 19 c-13 10 -34 19 -48 19 -40 0 -112 49 -113
77 0 15 -15 25 -24 16z"/>
<path d="M2616 1965 c-6 -15 10 -36 126 -159 26 -28 48 -59 48 -68 0 -9 -25
-40 -56 -70 -194 -183 -220 -217 -195 -257 16 -25 46 -2 175 129 71 72 132
130 136 130 4 0 19 -19 33 -42 14 -24 38 -57 54 -74 15 -17 43 -52 61 -78 l32
-47 25 18 c18 13 24 28 25 53 0 30 -12 47 -85 127 -47 50 -85 96 -85 101 0 5
41 50 90 99 69 69 90 97 90 117 0 54 -27 41 -131 -63 -65 -65 -105 -98 -113
-93 -7 4 -39 39 -72 77 -32 39 -69 80 -83 93 -28 25 -66 29 -75 7z"/>
<path d="M6040 1958 c-11 -12 -20 -25 -20 -30 0 -19 45 -51 81 -55 52 -7 61
16 23 57 -45 49 -60 54 -84 28z"/>
<path d="M6474 1925 c-4 -8 -4 -30 -1 -48 31 -197 28 -187 64 -187 28 0 28 -1
8 145 -15 105 -15 105 -41 105 -13 0 -27 -7 -30 -15z"/>
<path d="M3880 1849 c-44 -30 -79 -66 -80 -81 0 -19 48 -5 80 23 28 25 40 29
64 25 17 -4 34 -13 39 -21 10 -19 51 -19 67 0 16 19 49 19 74 0 15 -11 23 -12
33 -3 11 9 9 16 -13 40 -31 31 -73 37 -98 13 -8 -8 -21 -15 -29 -15 -8 0 -20
7 -27 15 -7 8 -19 15 -26 15 -8 0 -14 5 -14 10 0 17 -24 10 -70 -21z"/>
<path d="M6932 1794 c-24 -16 -30 -60 -9 -67 16 -6 87 35 87 50 0 12 -30 33
-47 33 -5 0 -19 -7 -31 -16z"/>
<path d="M6293 1789 c-17 -17 5 -58 34 -65 13 -4 23 -10 23 -15 0 -5 9 -9 20
-9 26 0 25 12 -2 60 -23 41 -52 52 -75 29z"/>
<path d="M6680 1771 c-61 -22 -70 -29 -70 -52 0 -17 7 -19 81 -19 68 0 85 4
115 24 l35 24 -44 21 c-50 24 -56 24 -117 2z"/>
<path d="M2630 1747 c0 -19 48 -43 61 -30 5 5 7 17 3 26 -8 21 -64 24 -64 4z"/>
<path d="M5014 1713 c-44 -15 -62 -46 -42 -70 18 -22 46 -15 88 23 66 60 47
79 -46 47z"/>
<path d="M4463 1673 c4 -21 11 -78 17 -128 17 -143 37 -139 51 9 17 169 20
151 -30 154 l-43 3 5 -38z"/>
<path d="M1041 1666 c-18 -21 12 -40 54 -33 25 4 41 0 59 -14 30 -24 52 -24
65 -1 6 10 21 17 38 17 21 0 28 5 28 20 0 24 -41 32 -85 16 -18 -6 -32 -6 -35
0 -10 14 -111 11 -124 -5z"/>
<path d="M3111 1666 c-9 -11 -6 -18 15 -35 15 -12 36 -21 48 -21 11 0 34 -7
50 -15 30 -16 111 -23 123 -11 12 11 -16 55 -44 69 -42 21 -178 30 -192 13z"/>
<path d="M5387 1629 c-28 -27 -55 -49 -59 -49 -5 0 -8 -7 -8 -15 0 -31 30 -27
75 10 38 30 50 35 75 30 37 -8 70 2 70 21 0 8 -13 17 -30 21 -16 3 -30 9 -30
13 0 4 -9 10 -20 13 -15 4 -35 -8 -73 -44z"/>
<path d="M5666 1635 c-8 -8 -19 -15 -23 -15 -5 0 -19 -13 -31 -29 -18 -25 -19
-31 -7 -41 12 -10 16 -9 21 4 3 9 12 16 20 16 7 0 17 8 22 17 9 15 13 14 45
-10 35 -27 67 -35 67 -18 0 5 11 12 25 15 14 4 25 11 25 16 0 16 56 12 70 -5
21 -25 110 -17 110 10 0 16 -22 25 -62 25 -16 0 -36 7 -44 15 -20 19 -68 19
-88 0 -26 -26 -68 -29 -95 -6 -29 25 -35 26 -55 6z"/>
<path d="M7760 1614 c0 -19 5 -45 11 -56 14 -26 -2 -38 -48 -38 -46 0 -41 -17
12 -40 l44 -19 3 -88 c3 -74 6 -88 20 -91 31 -6 43 39 30 109 -6 33 -9 66 -6
73 3 7 22 17 42 22 31 7 38 14 40 38 3 26 1 28 -20 22 -54 -17 -68 -18 -72 -5
-2 8 -10 35 -16 62 -15 57 -40 64 -40 11z"/>
<path d="M4710 1600 c-8 -4 -27 -13 -42 -19 -20 -8 -28 -18 -28 -36 0 -24 3
-25 60 -25 54 0 79 8 119 37 2 2 -2 14 -9 28 -11 20 -21 25 -49 24 -20 0 -43
-4 -51 -9z"/>
<path d="M7183 1595 c-13 -7 -32 -23 -43 -36 -11 -13 -24 -29 -28 -34 -5 -6
-15 -41 -22 -77 -16 -80 -6 -133 25 -133 16 0 21 9 26 43 3 24 11 47 17 51 8
5 9 17 3 38 -16 57 9 113 45 99 13 -5 15 -18 13 -64 -6 -104 23 -204 54 -185
11 6 1 160 -14 233 -12 56 -43 82 -76 65z"/>
<path d="M2061 1576 c-20 -24 -4 -36 53 -36 28 0 57 -5 63 -11 14 -14 65 18
61 39 -5 22 -160 29 -177 8z"/>
<path d="M3451 1582 c-20 -7 -12 -31 12 -36 103 -22 281 -40 312 -32 18 5 25
13 25 32 0 13 -6 26 -12 29 -17 5 -322 12 -337 7z"/>
<path d="M7317 1563 c-4 -3 -7 -47 -7 -97 0 -142 39 -199 94 -139 42 46 31
103 -21 103 -29 0 -43 32 -43 96 0 41 -7 53 -23 37z"/>
<path d="M3939 1542 c-12 -8 -19 -23 -17 -35 3 -20 10 -22 73 -25 89 -4 109 2
123 33 15 32 12 33 -86 37 -51 3 -80 0 -93 -10z"/>
<path d="M4319 1509 c-36 -36 -22 -54 47 -57 78 -4 91 15 36 53 -45 30 -56 31
-83 4z"/>
<path d="M1670 1480 c-17 -15 -32 -19 -51 -15 -34 8 -49 -13 -24 -32 25 -18
74 -17 81 2 8 20 41 19 52 -1 7 -12 17 -15 36 -10 35 9 32 27 -10 54 -44 27
-55 27 -84 2z"/>
<path d="M5198 1419 c-58 -54 -77 -59 -115 -29 -35 27 -101 26 -155 -2 -47
-25 -65 -40 -91 -82 -29 -44 -6 -52 34 -12 18 19 44 38 56 41 13 3 23 10 23
15 0 6 25 10 55 10 30 0 55 -4 55 -8 0 -4 16 -15 36 -24 34 -16 38 -16 63 0
14 9 37 29 50 44 31 36 53 35 88 -2 24 -26 36 -30 86 -33 57 -2 77 -13 35 -19
-18 -2 -23 -10 -23 -33 -1 -17 -4 -36 -8 -43 -13 -20 21 -27 42 -8 22 20 47
21 55 0 10 -25 26 -6 26 31 0 20 6 35 15 39 25 9 18 36 -10 36 -18 0 -28 7
-35 26 -9 22 -13 24 -25 14 -24 -20 -103 -3 -131 27 -13 14 -24 29 -24 33 0 4
-11 12 -24 18 -22 10 -30 6 -78 -39z"/>
<path d="M6040 1453 c-17 -12 -46 -18 -90 -19 -82 -2 -80 -1 -80 -18 0 -8 14
-17 30 -21 17 -4 30 -11 30 -16 0 -5 9 -9 20 -9 20 0 27 2 88 33 38 19 69 22
74 6 2 -5 20 -14 41 -18 31 -8 37 -6 37 8 0 22 -19 41 -41 41 -9 0 -22 7 -29
15 -17 20 -50 19 -80 -2z"/>
<path d="M5612 1437 c-25 -27 -39 -81 -23 -91 6 -4 11 -20 11 -37 0 -35 11
-37 44 -5 33 30 37 91 6 99 -11 3 -20 10 -20 16 0 16 27 14 37 -2 10 -17 64
-28 82 -17 23 14 4 40 -28 40 -16 0 -33 5 -36 10 -11 18 -51 11 -73 -13z"/>
<path d="M7647 1453 c-4 -3 -7 -24 -7 -45 0 -46 -23 -49 -28 -5 -2 15 -10 27
-18 27 -22 0 -18 -76 7 -116 17 -29 23 -32 42 -23 51 23 75 120 39 152 -20 19
-26 20 -35 10z"/>
<path d="M7462 1368 c3 -59 4 -63 28 -63 16 0 29 9 39 26 13 24 12 28 -15 62
-43 55 -56 49 -52 -25z"/>
<path d="M3267 1413 c-4 -4 -35 -7 -70 -7 -51 -1 -62 -4 -65 -19 -2 -10 4 -20
15 -23 10 -3 28 -11 40 -16 16 -8 30 -7 55 5 18 8 42 17 53 19 27 5 27 42 0
46 -12 2 -24 0 -28 -5z"/>
<path d="M793 1384 c-24 -27 -30 -59 -13 -69 6 -3 14 5 20 19 12 34 24 33 52
-4 23 -32 48 -38 70 -17 7 7 32 21 56 31 53 24 71 44 51 57 -8 5 -23 9 -35 9
-18 0 -31 -8 -81 -50 -8 -7 -20 -1 -40 20 -34 37 -51 37 -80 4z"/>
<path d="M3670 1373 c-8 -2 -24 -8 -35 -13 -11 -4 -27 -11 -35 -14 -31 -13
-73 -42 -73 -51 0 -19 32 -30 51 -17 9 6 28 17 42 22 14 6 33 15 42 20 28 16
95 12 102 -5 7 -20 75 -20 103 0 12 8 43 18 68 22 42 5 49 3 71 -21 29 -31 54
-35 47 -7 -11 41 -49 64 -113 67 -42 2 -64 -1 -74 -12 -19 -18 -80 -18 -96 1
-12 14 -68 19 -100 8z"/>
<path d="M1100 1335 c-7 -8 -16 -15 -21 -15 -4 0 -20 -5 -34 -10 -23 -9 -25
-13 -15 -25 16 -20 69 -19 76 0 4 9 19 15 40 15 37 0 58 25 33 41 -22 14 -65
11 -79 -6z"/>
<path d="M4484 1309 c-10 -17 -5 -205 7 -236 14 -38 29 -18 38 53 11 86 0 188
-21 192 -9 2 -20 -2 -24 -9z"/>
<path d="M3782 4138 c2 -15 10 -23 23 -23 13 0 21 8 23 23 3 18 -1 22 -23 22
-22 0 -26 -4 -23 -22z"/>
<path d="M3283 4034 c-7 -18 9 -51 23 -46 14 3 11 55 -3 59 -7 3 -16 -3 -20
-13z"/>
<path d="M3807 3623 c-4 -3 -7 -12 -7 -20 0 -15 26 -18 34 -4 7 11 -18 33 -27
24z"/>
<path d="M3837 3524 c-4 -4 -7 -18 -7 -31 0 -16 6 -23 19 -23 11 0 23 5 27 11
8 13 -29 53 -39 43z"/>
<path d="M4247 4084 c-16 -16 -7 -44 14 -44 15 0 20 5 17 22 -3 22 -19 33 -31
22z"/>
<path d="M3117 3843 c-13 -12 -7 -44 8 -49 8 -4 22 -1 30 6 14 11 14 15 -1 31
-18 20 -27 23 -37 12z"/>
<path d="M4250 3620 c0 -34 22 -49 45 -30 8 7 15 23 15 36 0 20 -5 24 -30 24
-27 0 -30 -3 -30 -30z"/>
<path d="M1670 2123 c-14 -2 -52 -10 -86 -18 -33 -8 -79 -15 -102 -15 -32 0
-44 -5 -53 -21 -20 -37 2 -44 80 -26 38 9 88 17 112 18 62 1 114 21 114 45 0
20 -19 25 -65 17z"/>
<path d="M1518 2003 c-38 -4 -66 -32 -53 -53 8 -14 52 -13 78 2 12 6 38 14 57
18 22 3 35 11 35 20 0 16 -46 21 -117 13z"/>
<path d="M1698 1959 c-23 -13 -157 -48 -185 -49 -28 0 -39 -18 -22 -35 16 -16
124 -5 217 22 56 16 70 43 33 63 -23 12 -22 12 -43 -1z"/>
<path d="M8567 4613 c-12 -11 -7 -50 7 -62 12 -10 18 -7 31 13 10 14 15 33 11
41 -5 15 -37 21 -49 8z"/>
</g>
</svg>
